<svg xmlns="http://www.w3.org/2000/svg" viewBox="0 0 1920 1080"><path d="m1651.8 141.7-4.5-2.6-7.1-3.2-5.6-1.6-5.8-.9-5.1-.1-1.3-.4 4.4-1.4 5-2 5.4-2.8 3-4.6.3-5.8-6-7.7-6.3-3.3-6.2-3.9-5.4-2-4-.1 2.8-5.4 1.2-8-.2-9.2v-6.1l-1.7-4.3-3.8-4.6-5.2-3.4-5.7-1.4h-1.2l.3-3.9.2-5.5-2.5-5.1-3.2-1.5-3 .1-4.5 1-5.4 2.2-3.8-.3-8.5-4.6-4.4-.9-5.4 2.3-4.9 5.2-2.7 4.2-4.7 1.6-6.4-.2-3.7.9-6 1.2-4.7 2-4.5 4-1 1.5-1.8-2.6-2.5-3.6-5.5-3.6-3.6-1-6.2.5-4.7 1.6-4.5.5-3.8-.5-3.4-1.8-5-3-3.7-.5-4.8.7-3.8 5-2.2 5-.8 1.5-4.4-1.1-6.2.7-6.9 3.6-5.5 5-2.3 8.7 2.8 4.3 11.2 12.3 2.6 2.2-2.6.2-7-.7-5.6 1.5-3 3.2-1 5.1-.2 5 3.3 5.9 4.7 6.2 5.4 5 5.4 3 5.3 1.5 3.4.6-1.2 2.1-5.6 4-4.7 5.1-1.5 5.2.7 4.4 2 5.8 2.5 3.9-3.5 6.5-2.7 7.5-1.8 8-1.5-.3-2.7.3-3 1.5-2.3 2.2-1 3.8 1.2 2 4.7 5.1.5.5h-.3l-3-.3-2.4.7-1.4 1.4-.4 2.3v2.2l1.3 2.5 2 2.7 2.3 2 2.3 1.3 2.2.7 1 .1-.2.5-2.3 1.7-2 2-.7 2.5.3 1.9.9 2.4 1 1.6-1.5 2.6-1 3.1-.9 3.5.6 2.9 1.5 2.6 2.7 1.1 2.8 1 2.7.5 1.3 1.8 2 2.7 2.3 1 2.2-1 2.4-2.2.9-.3 3 1.8 2 .4 2.8-.4.7-.2.1 1.1-.4 2-.3 2.3-.2 2.4v.2l-.8-.5-1.8-.5-1.6-.4-1.6-.2-2.3.5-2 2-.8 1-1.5 1.7-1 1.5.2 1.4.5.5-.5 1.2v1.7l.6.9 1.4.3 1.8-.9 1-.4.7.2 1.3-.6 1.6-2.2 1-1.5.3-.4.7-.7v-.1l.4-.7v-1.6l-.1-1h.4l1.7 1.6.2 1.3.2 3-.1 2v2.8l.3 1.4.2 2.4.3 2.4 3.1.2-1.6-6.8v-3.3l.2-2.5 1-.9 1.2-.1.7.4-.4 1.3-.3.5-.5-.5.1 1.2V264.1l.4 3.8.5 1.5.9 1.5.8.9 1 1.5 1.8.1 1-2 .5-1 1-.1.1-1.7v-2l-.6-1.5-.5-.7.1-1.4-1-1.5-.9-1-1.5-.6-1.5-.7-1.8-.7-2.3 1v-1l.3-1.9v-2.4l.3-2.2.4-1.6.8 1.7c.2.3 1 1.2 1.5 1.5l1.3.3 1.5.5h2.2l1.8-.6v-.1l.3.8 1.3 1.6 1.7.7 1.7.2.3-.3 2.4.6 4.2-2 2.6-1.1 1.8.5 2.6-1.3 3.7-5.2 2.4-3.6 2.2-2.2-.2-.2 1.3-1.8v-.1l.8-.3 1.6.3 1.8-.2 1.8-.5.5-.3.3 1.9.4 7-.3 4.9.2 6.7.5 3.4.5 5.7.6 3.3.2 2 5.9.3-3.6-15.4.1-8 .3-6.5 3-2.3 3.2-.4 2.4 1.5-1.2 3.8-1.2 2-.5-.5.1 1.2v.2l.8 9.4 1.2 3.3 2 3.4 2 2.2 2.2 3.3 3.5.2 2.2-4.4 1.5-2.7 2.1-.3.3-3.2-.2-4.7-1.2-3.7-1.2-1.7.2-3.3-2.4-3.2-1.9-2.3-3.4-1.4-3.6-1.7-4.1-1.6-6 2.4-.2.2V237l.6-4.5V230l.5-.2 1.3-.9 1.4-2 1.2-2 .3-2.2v-2.1l.2.6c.2.3 2 2.8 3.3 3.3 1.3.5 3 .8 3 .7l3.7 1.2h5l3.9-1.4.8-.8 1.2 2.8 2.7 3.7 4.1 1.4 3.6.4 2.1-2.2 4.1-5.3 2-1.5h5l3.8-.6 2.7-1.8 2.9-3.7 1.4-6.5V207l2.5-2.3h3l2.2 1.1 6.5-.2 4-1.2 5.4-3.6 4.6-4.7 3.2-3.4 2.8-1 4 .7 4.2-.4 4.2-1.2 3.2-2.1 2.3-2.1 1.4-3 .4-3v-8.1l.7-2.3 3.9-1.2 3.2-1.5 3-2.1 3.4-4.5 2.7-5 .8-5-.2-5.6-1.7-3.7ZM1504 184.2l2.2.5 1.9 1.3 1.4 1.7.7 1.6v6.2l-.4 3.1-1.7 3.2 2.7.1 2 .7 2.6 1.6 2.5 1.3 2.2 3v1.5l-3.6 1-6.5 1-3.9-.8-3.8-2.2-4.1-2.4-3.1 1-5.6 5.3-4.8 1.8-4.5-1.7-4.4-6.2-3.6-4.7-7-1.6-6.7-2.1-5.7-2.4-3.1-5.3-1.4-6.3 1-2.3 1.5-1.8 1.6-.2 1.2.1 2 1.3 1.5.7 1.8.3 2-.2 2-.7 2.4-.2 1.2.4 2.1 1.3 2.3 3.4 1-1.4 1.6-1.6 1.8-.7 2.5-.5 1.4-.4h2.7l2.3-.7 1.2-1.9 1.9-2 2-.8 1.4.3 3.5 1.9 2 .2 2.3-1 1.7-.4h1l1 .4.9 1.8-.1 2-.2 2.5h1.2Zm15.7 30.7-.2.8-1-.2-2.4-.4h-1.4l.6-.2 2-.9 2.1-1 .2 1.9Zm-54.8 46.4-1 1.5-1.5 2-.7.4-.7-.2-2.8 1.3-.6-.2-.2-.3v-1.2l.7-1.8-.8-.6v-.7l.6-1 1.5-1.7.6-.8 1.7.5.2 1.7 1-.2h.4l.9-.4 1.1 1.2-.4.5Zm14.8 3.6.5.6.4 1.3V269.4h-.7l-.8 1.5-.7 1.5h-.6l-.8-1.2-.7-.9-.8-1.3-.5-1.2-.2-2.6.3.3 1.2-.8.7.8 1.8.5v-.6l.1-.4h.8Zm-5.7-5.3 1.4.6 1.5.7 1.3.5.6.8.9 1.1v.7l-1.7-.1v.8h-.4l-1.2-1.5-1.2 1-.4-.3.5-.8.7-2.2-1.7-1-1.4.2 1-.5Zm-2.1.9.4-.2-.9.7.5-.5Zm12-5.2-1-1.3-.8-2-1 1-1.3.5h-1.8l-1.5-.5-1.1-.3c-.3 0-.8-.7-1-1l-1.9-4.1-.8 2.6-.5 1.7-.2 2.3v2.4l-.3 2v3.2l.2-.2-.1 2.8-.1 3.5 1.3 5.6h-1l-.2-1.7-.2-2.4-.2-1.4v-4.7l-.1-3-.3-1.8-2.1-2-1.5-.2-.5.8.2 1.4v1.2l-.2.3-1.5-1.7-1.3.6h-.3l-.2-1.2-1.8-.5 1.1-1.2 1.9-.4 1.4.2 1.5.3 1.5.5 2.3 1.4v-2l.2-2.2.3-2.3.5-2.1-.3-2.5-1.8.5-2.6.4-1.6-.3-3.3-2-1.4.5-2.4 2.3-1.8.7-1.7-.7-1.8-2.5-1.5-2-3-.7-2.8-1-2.3-.9-1.2-2-.6-2.7.8-3.2 1-3 1.7-3-1.2-2-.8-2.2-.3-1.7.6-1.8 1.7-2 2.3-1.6 1.2-2-2.4-.4-2-.6-2.1-1.1-2.2-2-1.9-2.5-1.2-2.3v-1.8l.4-1.9 1-1 2-.6 2.8.3 2.9-.2-2.4-2-4.6-5-1-1.6 1-3 2-2 2.6-1.4 2.3-.2 1.8.4 1.2 5.9 3.4 5.8 6.1 2.5 6.8 2.2 6.7 1.5 3.3 4.4 4.6 6.4 5.2 2 5.2-2 5.6-5.3 2.5-.8 7.6 4.4 4.3.8 6.8-.9 2.5-.7v.3l-.3.4-2 1-2 .9-4 1.3 2.8.8h2.2l2.3.4 1 .3-.7 3-.7 5.6-.5 5.5v1.9l-3-1.9-4-1.2-3.8-1-3.8-.5-5.2 1.2-4.6 4.6-2 2.7-3.7 3.9-2 3.2.2 3 1.5 1.1-1.4 3.4.1 3.6.7 1.1h-1l-1.4-.6Zm37.6-34.3-.5 5.5v3h-.4l-1.9.7-.4 1v-.3l.6-5.5.7-5.6.6-2.8h.3l1.8.9-.8 3.1Zm-3.2 12.1v1.9l-.1 1.1-.5 1-.4.4v-.3l-4.8-4.3-3-.6-.8 1.2.5 3.4v2.8l-1.4 1.4-3.7-3.9-2.6 1.3-1 .2-.7.1-.3-2-.2-1.3-5-1.5 3.8-3.8 4.7-1 3.6.5 3.7.9 3.8 1.1 4.4 2.8V233Zm-22.4 14.5-.5 2.4-1 1.4-1 .6-1.3.2h-2.2l-1 .8-1.8 2.2-.4-.7v-3l1.5-4-1.8-1.4-.1-2.1 1.8-3 3.7-3.8 1.7-2.4 1.8.5 2 .6 1 .3.2.7.3 3.3 2-.5 1-.1 2.1-1 3.2 3.2-1 1.1-2.2 1.4-1.4.5h-2.5l-.9-.4h-1.7l-1.5 1.4v1.8Zm7.7 0-3.6 5-2 1-1.8-.5-2.9 1.3-4 2-1.5-.5 1.7-2.2.7-.5h2l1.6-.2 1.2-.8 1.3-1.6.6-3v-1.4l.9-.8h1l1 .5 2.7-.1 1.8-.5 1.5-1-2.2 3.4Zm12-9-1.5.5-1.6.2-1.7-.3-.6.2v-2.4l-.5-3 .3-.4 2 .4 4.3 3.9v.5l-.6.5Zm6.4 2.4 5.5-2.2 3.7 1.4 3.6 1.7 3.2 1.3 1.7 2 2.1 3-.2 3.4 1.4 1.7 1 3.4.3 4.6-.2 2.3-1.9.3-1.7 3.1-1.9 3.9-2.3-.2-2-2.9-2-2.2-2-3.1-1-3.2-.7-8.1 1.6 1.6.2.1 2.8-2 2 2.1 1 .5 1 .2 1.3.3v-1.3l.2-1 2.4.1h.3l.1-1-3.8-.3-.1 2v.2l-1.7-.4-2.6-3.2-3 2.3-1.6-1.5 1.3-2.3 1.5-4.7-3.4-2-3.8.5-3.6 2.7-.3 7-.2 8.1 3.4 14.2-3.7-.2-.7-4.4-.5-5.8-.5-3.3-.2-6.6.3-4.8-.5-7.2-.3-2.5 1-.9.6-1.3.2-1.4v-3.3l.2-.8 1.4-.4v1.9l-.6 4.5v6l1.7-2Zm3.3-16.5-1 2-1.3 1.7-1 .7v-2.3l.5-5.4.8-3v.1l1.7 1 .5 1.2.1 2.1-.3 1.9Zm-1.5-7-.3-.2.7-2 1.4 3.2-1.8-1Zm128-62-2.5 5-3.2 4.2-3 2-3 1.5-4.3 1.3-.9 3v8.1l-.3 2.8-1.2 2.6-2.2 2-3 2-4 1-4 .5-4-.7-3.3 1.2-3.3 3.6-4.5 4.5-5.2 3.5-3.8 1.1-6.1.2-2.2-1h-3.6l-3.2 2.8v4.1l-1.2 6-2.7 3.6-2.4 1.6-3.5.5h-5.2l-2.3 1.7-4.3 5.5-1.7 1.8-3-.3-3.7-1.3-2.5-3.4-1.7-4.1-1.7 1.8-3.5 1.3h-4.6l-3.6-1.2s-1.8-.2-2.9-.7a11 11 0 0 1-2.8-3l-3.6-8-1.5 4.3-1.8-.8-.4-.1.3-1-.4-3.1.7-1.2.2-2.6-2.5-3.2-2.7-1.5-2.6-1.6-2.3-.9h-1.3l1-1.9.5-3.4-.1-3.9v-2.5l-.7-2-1.7-2-2.1-1.4-2.5-.6h-.3l.1-1.3.1-2.4-1.1-2.3-1.5-.7h-1.4l-1.9.5-2.2.9-1.4-.2-3.5-1.8-2-.5-2.3 1-2.1 2.3-1.1 1.7-1.8.6h-2.7l-4 .8-2 .8-2 1.8-.2.3-1.5-2.2-2.4-1.6-1.6-.5-2.7.2-2 .7-1.7.2-1.5-.2-1.4-.7-2-1.3-1.7-.2-2.2.3-1.2 1.6 1.1-4.7 2.6-7.4 3.8-7-2.8-4.1-1.9-5.7-.7-4 1.4-4.8 4.4-4.9 5.6-4 2.2-3.6-4.8-.9-5-1.4-5.3-2.8-5.3-4.9-4.6-6.1-3-5.6.1-4.6.9-4.8 2.6-2.7 5.2-1.4 6.9.6 5-.2-4.3-3.9L1442 80l-2.5-3.8 2.1-8 5.1-4.6 6.6-3.6 6-.7 5 1.3 1-2.3 2.2-4.8 3.5-4.6 4.3-.7 3.2.4 5 3 3.6 2 4 .4 4.7-.5 4.7-1.5 6-.6 3.3 1 5.2 3.3 2.3 3.5 2.6 4 1.8-2.7 4.3-3.9 4.5-1.9 6-1.2 3.5-.8 6.4.1 5.3-1.7 2.8-4.5 4.6-4.9 5-2 3.9.7 8.5 4.6 4.3.4 5.6-2.2 4.3-1 2.7-.1 2.6 1.2 2.3 4.6-.2 5.3-.4 4.9h2.1l5.5 1.3 4.8 3.2 3.7 4.4 1.5 3.9.1 6 .3 9.2-1.2 7.6-3.6 6.7 5.4.2 5.2 1.8 6.3 3.9 6 3.2 5.7 7.2-.3 5.3-2.7 4.1-5.2 2.7-4.8 2-7.5 2.4 4.5 1.2 5.3.2 5.6.9 5.5 1.5 7 3.1 4.1 2.5 1.5 3.1.1 5.4-.7 4.6Zm-464.8 641 .2-1 1.7-.7 1.5-.8 1.4-1.3 1.5-2.5 1-2.6.2-2.6-.3-2.8-1-1.9-2.4-1.2-3.6-1.2-2.8-.5-2.9-.2-2 .1 1-.5 2.4-1.2 2.5-1.7 1.3-2.5-.1-3.1-3.3-3.6-3.2-1.4-3.2-1.7-2.9-.7h-1.5l1-2.4.2-4-.5-4.7-.3-3-1-2.1-2.1-2.2-2.7-1.5-3-.5h-.3V739l-.2-2.8-1.5-2.6-1.8-.6-1.5.2-2.2.7-2.5 1.3h-1.6l-4.3-1.9-2.3-.2-2.6 1.4-2.2 2.9-1.1 2.1-2 1-3 .1-2 .7-2.8.9-2.1 1.1-2.1 2.3-.3.5-2-2.6-3-1.6-1.9-.4-3 .6-2.2 1-2.1.4h-1.7l-1.7-.7-2.6-1.3-2-.1-2.4.6-1.6 2.7-.9 2.6-.2.6-2-.3-3 .6-3.2 2.2-2.6 2.8-.7 4.6 1.6 2 6 5.7.9.6-.6.1h-3.4l-2.8 1-1.4 1.9-.2 2.7v2.5l2 2.9 2.6 2.9 2.8 2.2 2.8 1.3 2.7.5 1.3.1-.3.8-2.4 2.1-2 2.8-.7 2.8.6 2.3 1.2 2.8 1.4 1.7-1.4 3.3-1 3.8-.5 4.2 1 3.4 2 2.9 3.2 1 3.4.8 3.2.4 1.7 2 2.6 3 2.8.8 2.5-1.3 2.5-2.8 1-.5 3.8 1.8 2.2.2 3.3-.7.9-.4.3 1.4-.3 2.4v6.1l-1.2-.6-2-.4-2-.3-1.8-.1-2.6.8-2.1 2.6-.8 1.4-1.6 2.2-.9 1.7.3 1.6.7.5-.5 1.6.3 2 .7 1 1.5.2 2-1.3 1.1-.6 1 .2 1.3-.9 1.6-2.8.9-1.8.5-.6.6-.8-.1-.1.5-.9-.1-1.8-.4-1.4h.7l2.1 1.7.4 1.6.6 3.5v2.4l.5 3.3.4 1.7.5 2.8.6 2.8 3.4-.2-2.5-7.7-.3-4-.1-3 1.2-1.2 1.3-.3 1 .5-.4 1.7-.3.7-.5-.5.2 1.2-.1.2.1.1.8 4.5.7 1.7 1.3 1.7 1 1 1.3 1.6h2l.9-2.5.5-1.3 1.1-.3v-1.8l-.3-2.3-.8-1.9-.6-.7v-1.7l-1.4-1.6-1.1-1-1.8-.6-1.8-.7-2.2-.6-2.6 1.3v-3.4l-.2-3v-2.6l.3-2v-.3l1.3 2.2c.2.3 1.2 1.4 1.9 1.6l1.5.3 1.9.4 2.3-.2 2-1 .2-.1.5 1 1.6 1.8 2 .5h2l1-1.2 1.8-2.9.7-.7 2.4-.2 1.8-.5 1.3-1 1.3-2 .4-3.5-.2-1.8 1-1 1.3-.2 1 .5 3.3-.4 2-.8 2.5-2.2 2-2.5 1.3-1.7 1.2-.6 2 .1 2-.4 2-.7 1.5-1.3 1-1.2.6-1.6v-1.6l-.1-2.3-.2-1.7Zm-59.8 41.1-1 2-1.4 2.5-.8.5-.9-.2-1.4.9-1.7 1h-.8l-.3-.5-.2-1.5.6-2.1-1-.7v-.8l.6-1.4 1.6-2.1.6-1.2 2 .4.5 2.1 1.2-.4.4-.1 1-.5 1.6 1.4-.6.7Zm17.7 2.6.6.6.6 1.6.4 2.2v1l-.9.2-.7 1.7-.7 1.9h-.8l-1-1.3-1-1-1.1-1.4-.7-1.5-.5-3.3.5.5 1.3-1.1.9.8.6.3h.5l1 .2v-1.3h1v-.1Zm41.3-42 .2 2.3v1.4l-.5 1.3-.9 1-1.3 1-1.8.8-1.8.3-2-.1-1.7.8-3.4 4.4-2.3 1.9-1.7.7-2.9.4-1-.5-2 .2-1.5 1.7.2 2.1-.3 3-1 1.8-1.1.8-1.6.4-2.6.3-1 1-1.9 3-.7.8h-1.2l-1.8-.5-1.3-1.4-1.2-2.4-1 1.3-1.4.7-2.2.2-1.7-.4-1.4-.2c-.3 0-1-.7-1.4-1.2l-2.4-4.4-.7 3-.3 2v2.7l.2 3v2.2l.3 3.7 1-1.6 2.5-1.2 1.7.5 1.8.7 1.6.4.9 1 1 1.2v1h-1.8v1h-.4l-1.6-1.6-1.3 1.3-.6-.4.5-1 .6-2.7-2-1-2 .5-1.7 1.6.2 3.6.3 4 2.1 6.7h-1.2l-.5-2-.5-2.7-.4-1.6-.4-3.3v-2.4l-.6-3.6-.5-2-2.6-2-1.7-.2-.5.9.4 1.7.1 1.5-.2.4-2-1.9-1.4.9-.4.1-.3-.7-.1-.8-2.3-.5 1.4-1.6 2-.7h1.7l1.8.3 1.9.4 2.6 1.4-.1-2.2v-5.5l.3-2.6-.5-2.7-2 .8-3 .7-1.8-.2-4.1-2-1.6.8-2.5 2.9-2 1-2.2-.6-2.3-2.8-2-2.2-3.5-.5-3.3-.8-2.8-.9-1.7-2.4-1-3 .6-4 .9-3.7 1.5-3.7-1.6-2-1.1-2.8-.5-1.9.4-2.3 1.8-2.5 2.5-2.2 1.1-2.4-2.7-.2-2.5-.5-2.5-1.1-2.8-2.1-2.4-2.8-1.7-2.6-.2-2.2.2-2.3 1-1.4 2.4-.9h3.3l3-.4-2.7-2-5.9-5.6-1.3-1.7.6-3.9 2.2-2.4 3-2 2.7-.6 2.6.4.5-1.4.8-2.4 1.4-2.4 2-.5h1.4l2.5 1.3 1.8.8 2.1.1 2.3-.5 2.2-1 2.8-.5 1.5.3 2.6 1.4 3 3.7.8-1.7 1.9-2 2-1.1 2.8-.9 1.6-.6 3-.2 2.7-1.1 1.2-2.4 2-2.6 2.2-1.2 1.7.2 4.4 2 2.2-.1 2.6-1.4 2-.7 1.2-.1 1.2.4 1.2 2 .1 2.6v2.7h1.4l2.6.3 2.4 1.4 1.9 1.9.9 1.8.3 3 .5 4.4-.2 3.8-1.5 3.8 3-.1 2.5.6 3.1 1.7 3 1.2 3 3.3v2.4l-1 2-2.2 1.6-2.3 1.2-4.2 1.8 3 .6 2.6-.2 2.7.2 2.7.5 3.5 1.2 2 1 .8 1.4.3 2.6-.1 2.3-1 2.5-1.3 2.2-1.3 1.1-1.3.8-2.2.9-.3 1.6.2 1.9Zm148.8 74.6-3-2.1-4.9-2.5-3.8-1.2-4-.7h-3.4l-.5-.2 2.7-1 3.4-1.6 3.7-2.1 2-3.6.2-4.5-4-5.9-4.3-2.6-4.2-3-3.7-1.4-2.6-.2 1.9-4 .8-6.1-.2-7v-4.8l-1.1-3.3-2.6-3.5-3.5-2.6-4-1.2h-.7l.2-2.8.1-4.3-1.7-4-2.2-1.2-2 .1-3.2.8-3.6 1.7-2.5-.2-5.7-3.5-3-.8-3.8 1.8-3.4 4-1.8 3.2-3 1.2-4.4-.1-2.5.6-4 1-3.2 1.5-3.2 3.2-.5.9-2.7-4.6-3.8-2.7-2.5-.9-4.3.4-3.2 1.3-3 .3-2.4-.3-2.3-1.4-3.5-2.4-2.5-.3-3.4.6-2.6 3.9-1.5 3.7-.5 1-2.8-.7-4.3.5-4.7 2.9-3.7 3.8-1.6 6.7 1.9 3.3 7.6 9.5 1.6 1.5-1.5.1-4.7-.5-4 1.2-2 2.5-.7 4-.1 3.7 2.2 4.6 3.2 4.8 3.7 3.8 3.7 2.3 3.6 1.2 2.1.4-.8 1.5-3.7 3-3.1 4-1.1 4 .5 3.4 1.3 4.5 1.7 3-2.4 4.9-1.8 5.7-1.2 6.1v.1l1 5.3 2.3 4.5 4.1 2 4.7 1.7 4.4 1.1 2.2 3.3 3.1 5 3.7 1.6 3.6-1.6 3.8-4 1.6-.7 5 3.4 3 .7 4.7-.8 1.4-.5.3 2.6-.7 3.7-.5 4.3-.3 4.3v1l-1.8-1.2-2.8-1-2.6-.6-2.6-.4-3.6.9-3.1 3.6-1.4 2-2.4 3-1.4 2.5v2.3l1.1 1-1 2.5.1 2.7.8 1.5 2 .6 3-1.6 1.6-.8 1.2.4 1.9-1 2.5-4 1.6-2.8.9-1 .6-.8v-.1l.8-1.4v-2.8l-.3-2.3.1-.1 1.2.3 2.9 2.9.3 2.6.3 5.4-.2 3.7.1 5.2.4 2.6.3 4.3.4 2.6.2 1.6 4.3.2-2.5-11.9.1-6.1.2-5 2-1.6 2-.3 1.5 1-.8 2.8-.7 1.4-.5-.6.1 1.4v.2l.5 7.1.9 2.7 1.4 2.6 1.3 1.6 1.5 2.6 2.6.2 1.5-3.5 1-2 1.5-.2.2-2.6-.2-3.6-.8-2.8-.8-1.3.1-2.6-1.6-2.5-1.3-1.8-2.3-1-2.5-1.3-2.8-1.3-4 1.8v-2.2l.3-3.5.1-4.5.4-4.1.7-3 .3-1 1.6 4c.2.4 1.3 2.2 2.3 2.6.8.4 1.8.6 2 .6l2.5.9h3.5l2.7-1.1.3-.5.7 2 2 2.8 2.8 1.2 2.5.3 1.5-1.8 2.8-4 1.3-1.1h3.3l2.6-.5 1.9-1.4 2-3 1-5V923l1.5-1.7h2l1.4.9 4.5-.2 2.8-1 3.7-2.8 3.1-3.5 2.2-2.6 1.7-.7 2.7.5 2.9-.3 2.8-1 2.3-1.6 1.5-1.6 1-2.3.3-2.4v-6.2l.4-1.6 2.6-1 2-1 2.2-1.8 2.3-3.4 1.9-3.9.5-3.8v-4.3l-1.3-2.9Zm-98.8 78.3-1.6 2.8-2.4 3.8-1.3.7-1.2-.4-2 1-2.6 1.5-1.2-.4-.5-.9V957l1-3-1.1-1.1-.1-1.6 1.2-2.2 2.4-3 1.2-1.7 3 1 .3 3 1.5-.3.7-.1 1.4-.8 2.3 2.8-1 1.2Zm25.7 9.9.2 3.4-.2 1.7-1.2.2-1.2 2.5-1.2 2.9-1.4-.1-1.3-2.2-1.3-1.6-1.3-2.4-.8-2.5-.4-5.8.9 1 .1.1 1.9-1.6 1.2 1.6.8.4.7.1 1 .4.2-2 1.6.2v-.3l1 1.4.7 2.6Zm73-77.6-1.9 3.7-2 3.3-2 1.5-2 1-3 1.1-.7 2.3v6.3l-.2 2.2-.8 1.9-1.4 1.5-2 1.5-2.7.8-2.6.3-2.8-.5-2.3 1-2.3 2.7-3 3.5-3.5 2.6-2.5.9-4 .1-1.5-.8h-2.6l-2.2 2.3v3l-.9 4.8-1.7 2.6-1.6 1.2-2.3.4h-3.6l-1.6 1.4-2.9 4.2-1.1 1.3-1.8-.2-2.5-1-1.7-2.5-1.2-3.5-1.3 1.6-2.3 1h-3l-2.4-1h-.1s-1.1 0-1.9-.4a7.7 7.7 0 0 1-1.8-2.2l-2.6-6.6-1.2 3.8-.7 3-.3 4.3-.1 4.5-.4 3.5v5l1.4-1.8 3.6-1.7 2.4 1 2.4 1.4 2.2 1 1.1 1.5 1.4 2.2v1.9l-2.7-.3-.1 1.7-1-.3-1.7-2.5-2 1.8-1-1 .9-1.8 1-3.6-2.5-1.7-2.7.5-2.5 2.1-.2 5.3v6.4l2.1 10.7-2.1-.1-.4-3.4-.4-4.3-.3-2.6-.2-5 .2-3.8-.3-5.5-.4-3-3.3-3.4-2.1-.5-.7 1.1.4 2.5v2.5l-.6.9-2.7-3.2-1.9 1-.6.2h-.3l-.2-1.4-.1-1-3.3-1.2 2.4-2.7 3-.8 2.4.4 2.5.6 2.6 1 3.2 2.2v-3l.4-4.2.5-4.2.7-3.8-.4-4-2.6.9-4.3.6-2.6-.5-5.4-3.6-2.3 1-3.7 4-3.1 1.3-3-1.3-3-4.7-2.4-3.6-4.7-1.3-4.6-1.6-3.8-1.8-2-4-1-5 1.2-6 1.8-5.7 2.5-5.4-1.8-3.2-1.3-4.4-.5-3 1-3.7 2.9-3.6 3.8-3 1.6-3-3.5-.7-3.4-1.1-3.5-2.1-3.5-3.7-3.1-4.8-2.1-4.2.1-3.5.6-3.7 1.7-2 3.5-1 4.6.5 3.7-.3-3.1-3-7.5-9.4-1.7-3 1.4-6 3.5-3.5 4.4-2.7 3.9-.5 3.5 1 .8-1.9 1.5-3.6 2.3-3.5 2.8-.5 2 .3 3.4 2.3 2.4 1.4 2.9.4 3.2-.3 3.2-1.2 4-.5 2 .7 3.5 2.6 3.5 5.9 1.4-2.3 2.8-3 3-1.4 4-.9 2.4-.6 4.4.1 3.6-1.3 2-3.5 3-3.7 3.3-1.6 2.5.6 5.9 3.6 3 .2 3.7-1.7 3-.8h1.6l1.7.9 1.5 3.4-.1 4-.3 4h1.6l3.6 1 3.3 2.4 2.4 3.3 1 3 .1 4.5.2 7-.8 5.8-2.5 5.3 3.8.2 3.5 1.4 4.2 3 4.1 2.4 3.8 5.5-.2 4-1.8 3-3.4 2-3.3 1.6-5.4 2 3.4 1 3.5.2 3.8.6 3.7 1.2 4.7 2.3 2.8 2 1 2.3v4l-.4 3.6Zm-479.6 3.1-2-1.2-2.9-1.4-2.3-.7-2.4-.4h-1.4l.8-.3 2-.9 2.2-1.3 1.3-2 .2-2.8-2.5-3.4-2.6-1.5-2.6-1.7-2.2-.9h-1.3l1-2 .5-3.6-.1-4v-2.7l-.7-2-1.6-2-2.1-1.6-2.5-.7h-.2V848l.2-2.5-1.1-2.3-1.5-.8h-1.2l-2 .6-2.1.9-1.4-.1-3.4-2-2-.5-2.2 1-2.2 2.4-1 1.8-1.8.6h-2.5l-1.5.3-2.4.6-2 .8-2 1.9-.2.3-1.4-2.3-2.3-1.7-1.6-.5-2.6.2-2 .7-1.7.2-1.4-.1-1.4-.8-2-1.3-1.7-.3-2.1.4-1.6 2.2-1 2.2-.1.5-1.6-.5-2.6.4-3 1.6-2.3 2.3-1 4 1.3 2 4.6 5.3.5.6h-.3l-2.9-.3-2.4.7-1.4 1.5-.3 2.3-.1 2.3 1.3 2.6 2 2.8 2.2 2.2 2.2 1.3 2.2.7 1 .2-.2.6-2.2 1.7-2 2.2-.7 2.5.3 2 .8 2.5 1 1.6-1.4 2.8-1 3.3-.8 3.5.6 3.1 1.4 2.7 2.6 1.2 2.8 1 2.6.6 1.2 1.8 2 2.9 2.2.9 2.3-1 2.3-2.2.8-.3 3 1.8 1.9.4 2.8-.4.7-.2v1.2l-.3 2-.3 2.5-.2 2.5v.2l-.8-.5-1.7-.6-1.6-.4-1.6-.2-2.2.5-2 2.2-.8 1-1.5 1.8-.9 1.5.1 1.5.6.5-.5 1.3v1.7l.6 1 1.3.3 1.8-.9 1-.4.7.2 1.2-.7 1.6-2.3 1-1.5.3-.5.6-.7.4-.8v-1.7l-.1-1h.4l1.7 1.6.2 1.4.1 3v5.2l.2 1.4.2 2.5.4 2.6 3 .1-1.6-7v-3.5l.2-2.7 1-.9 1.2-.1.7.4-.5 1.5-.2.5-.5-.6v1.6l.4 4 .5 1.6.9 1.5.7.9 1 1.5 1.8.2 1-2.1.5-1 1-.2v-3.7l-.5-1.7-.5-.7V933l-1-1.6-.7-1-1.5-.6-1.5-.8-1.8-.7-2.2 1v-1l.3-2v-2.6l.2-2.3.4-1.6v-.1l.8 1.8c.2.3.9 1.3 1.5 1.6l1.3.3 1.4.5h2.2l1.7-.6.3.7 1.2 1.7 1.8.7 1.7.2 1-1 1.6-2.4.7-.5h2l1.6-.3 1.1-.8 1.3-1.7.6-3v-1.6l.8-.8h1l1 .5 2.6-.1 1.8-.5 2.3-1.7 1.8-2 1.3-1.5 1-.4 1.5.3 1.8-.2 1.7-.5 1.5-1 1-.9.5-1.4.2-1.4v-3.5l.2-.8 1.5-.5 1.3-.6 1.3-1 1.4-2 1.1-2.3.4-2.3-.1-2.4-.7-1.8Zm-59.6 44.6-1 1.6-1.4 2.1-.6.4-.7-.2-2.8 1.4-.6-.2-.2-.4v-1.2l.7-1.9-.8-.6v-.8l.6-1.1 1.5-1.7.6-.9 1.6.5.2 1.9 1-.3h.4l.8-.4 1.2 1.3-.5.5Zm14.6 3.8.4.6.4 1.4v2.7l-.7.1-.7 1.5-.7 1.5h-.6l-.8-1.2-.7-1-.8-1.2-.4-1.4-.2-2.7.3.3 1.1-.9.7.9 1.8.5V935h.9Zm-5.6-5.6 1.3.6 1.5.7 1.2.6.7.8.8 1.2v.8l-1.7-.2v1l-.2-.1-1.2-1.6-1.3 1-.3-.3.4-.8.7-2.3-1.6-1-1.6.2 1.3-.6Zm-2.1.9.5-.2-1 .8.5-.6Zm52.2-37.6-1 2-1.3 1.9-1.1.9-1.2.5-1.9.7-.4 1.4v3.6l-.1 1.2-.5 1-.8.8-1.1.9-1.6.4-1.5.2-1.7-.3-1.5.6-3.2 3.5-2 1.5-1.5.5H830l-.8-.4h-1.7l-1.5 1.4v1.9l-.5 2.5-1 1.5-.9.6-1.3.2h-2.2l-1 .8-1.7 2.4-.7.7-1-.1-1.3-.6-1-1.3-.9-2.2-1 1-1.2.6h-1.7l-1.4-.5h-.1l-1.1-.3c-.2 0-.7-.7-1-1.1l-1.8-4.3-.8 2.7-.5 1.8-.2 2.4v2.6l-.3 2v3.4l.2-.3-.1 3v3.6l1.2 5.9h-.9l-.2-1.8-.2-2.5-.2-1.4v-5l-.2-3.1-.2-1.8-2-2-1.6-.4-.5.8.3 1.5v1.4l-.2.2-1.6-1.7-1.2.6h-.3l-.2-1.3-1.8-.5 1.2-1.3 1.7-.4 1.4.2 1.5.4 1.5.5 2.2 1.4v-2l.3-2.4.2-2.4.5-2.2-.3-2.6-1.7.6-2.6.4-1.5-.3-3.3-2-1.4.5-2.3 2.3-1.8.7-1.6-.7-1.7-2.6-1.5-2.1-3-.7-2.7-1-2.2-1-1.2-2.2-.5-2.7.7-3.4 1-3.1 1.6-3.2-1.2-2-.7-2.4-.3-1.7.5-2 1.8-2 2.2-1.7 1.2-2-2.3-.4-2-.7-2.1-1.1-2.1-2.1-1.9-2.7-1.2-2.3.1-2 .3-2 1-1 2-.6 2.7.3 2.8-.2-2.3-2-4.4-5.3-1-1.6.8-3.3 2-2 2.6-1.4 2.3-.3 2.2.6 1.4-3.3 1.3-1.9 1.6-.3 1.2.2 2 1.3 1.4.8 1.8.3 2-.3 1.9-.6 2.3-.3 1.2.4 2 1.4 2.3 3.6 1-1.5 1.6-1.7 1.8-.8 2.4-.5 1.4-.3h2.6l2.3-.8 1.1-2 1.8-2 2-1 1.3.4 3.5 2 2 .2 2.2-1 1.7-.4h1l1 .4.7 1.8v2.3l-.2 2.4h1.1l2.2.6 1.8 1.3 1.5 1.8.6 1.6.1 6.6-.5 3.3-1.6 3.2 2.6.2 2 .7 2.5 1.7 2.5 1.4 2.1 3v2.1l-1 1.7-2 1-2 1-3.9 1.3 2.7.8h2.2l2.2.5 2.2.6 2.8 1.3 1.6 1 .5 1.3.1 2.3-.3 2ZM147.7 511.4l2.2 2.2 2.3 1.3 2.2.7 1 .2-.3.6-2.2 1.6-2 2.3-.6 2.5.3 2 .8 2.5 1 1.6-1.4 2.8-1.1 3.3-.8 3.5.6 3 1.4 2.8 2.6 1.2 2.8.9 2.6.7 1.3 1.8 1.9 2.8 2.3 1 2.2-1 2.3-2.2.9-.3 3 1.8 1.8.4 2.9-.4.6-.2.1 1.2-.4 2-.3 2.5-.2 2.5v.2l-.7-.5-1.8-.6-1.5-.4-1.6-.2-2.3.5-2 2.1-.7 1.2-1.5 1.7-1 1.5.2 1.5.5.4-.5 1.4v1.7l.6 1 1.3.3 1.9-1 1-.4.6.3 1.3-.7 1.5-2.3 1-1.6.3-.4.7-.7v-.1l.4-.7v-1.7l-.2-1.1.5.1 1.6 1.6.2 1.4.2 3-.1 2.1v3l.2 1.5.3 2.5.3 2.5 3 .2-1.5-7v-3.5l.1-2.7 1.1-.9 1.1-.2.7.5-.4 1.5-.3.4-.5-.5.1 1.3v.2l.3 4 .6 1.7.8 1.5.8.9 1 1.5 1.7.2 1-2.2.5-1 1-.1.1-1.7v-2l-.6-1.7-.5-.7.1-1.5-1-1.5-.8-1-1.5-.7-1.4-.7-1.8-.8-2.2 1v-1l.2-2v-2.5l.3-2.3.4-1.6v-.1l.8 1.8c.2.3.9 1.3 1.4 1.6l1.3.3 1.5.5h2.1l1.7-.7.4.8 1.2 1.7 1.7.7 1.7.2 1-1.1 1.7-2.3.6-.5h2l1.6-.3 1.2-.9 1.2-1.7.6-3v-1.5l.9-.8h1l.9.5 2.7-.1 1.7-.6 2.3-1.6 1.9-2 1.2-1.5 1-.4 1.6.3 1.8-.2 1.7-.5 1.4-1 1-1 .6-1.3.2-1.4v-3.5l.2-.8 1.4-.5 1.3-.6 1.3-1 1.5-2.1 1-2.2.4-2.3v-2.4l-.8-1.8-1.9-1.2-3-1.4-2.2-.7-2.4-.4h-1.4l.7-.3 2-1 2.3-1.2 1.3-2 .1-2.8-2.5-3.4-2.6-1.5-2.5-1.7-2.3-.9h-1.3l1-2 .5-3.6V489l-.8-2-1.6-2-2-1.6-2.5-.7h-.3l.1-1.4.1-2.5-1-2.3-1.5-.8h-1.3l-2 .5-2 1-1.4-.2-3.5-2-2-.4-2.2 1-2.1 2.4-1 1.8-1.8.6h-2.6l-1.5.3-2.4.6-2 .8-2 1.9-.1.3-1.5-2.3-2.3-1.7-1.6-.5-2.6.2-2 .7-1.7.2-1.4-.1-1.3-.8-2-1.3-1.7-.3-2.2.4-1.6 2.2-.9 2.2-.2.5-1.6-.5-2.6.4-2.9 1.6-2.3 2.3-1 4 1.2 2 4.6 5.3.6.6h-.4l-2.8-.3-2.5.7-1.3 1.5-.4 2.3-.1 2.3 1.4 2.6 1.9 2.8Zm25.3 53.1-1 1.6-1.4 2.1-.6.3-.7-.2-2.8 1.4-.6-.1-.2-.4v-1.3l.7-1.8-.8-.7v-.7l.6-1.1 1.5-1.8.6-.8 1.5.5.2 1.8 1.1-.3h.4l.8-.4 1.2 1.3-.5.6Zm14.5 3.8.4.5.4 1.5.1 1.9v.8h-.7l-.8 1.6-.6 1.5h-.6l-.8-1.3-.7-.9-.8-1.3-.5-1.3-.2-2.7.3.3 1.2-.9.7.8 1.8.6v-1.1h.8Zm-5.6-5.6 1.4.6 1.5.7 1.2.5.7.9.8 1.2v.7l-1.7-.1v.9h-.3l-1.1-1.6-1.3 1-.3-.3.4-.8.7-2.3-1.6-1.1-1.6.2 1.2-.5Zm-2 .9.5-.2-1 .8.5-.6Zm-34.4-59.8.3-2 1-1 2-.6 2.7.3 2.7-.2-2.2-2-4.5-5.4-1-1.5.9-3.3 2-2 2.6-1.5 2.2-.3 2.3.6 1.4-3.2 1.3-2 1.6-.2 1.2.2 2 1.3 1.4.8 1.8.2 2-.2 1.9-.7 2.3-.2 1.2.4 2 1.4 2.3 3.5 1-1.5 1.6-1.6 1.8-.8 2.3-.5 1.5-.4 2.6.1 2.3-.8 1.1-2 1.8-2.1 2-.9 1.3.3 3.5 2 2 .2 2.2-1 1.7-.4h1l1 .5.7 1.8v2.2l-.2 2.5h1.1l2.2.5 1.8 1.4 1.5 1.8.6 1.6v6.5l-.4 3.3-1.6 3.3 2.6.1 2 .8 2.5 1.7 2.5 1.3 2.1 3v2.2l-1 1.7-2 1-2 1-3.9 1.2 2.7.8 2.2.1 2.2.4 2.2.7 2.8 1.3 1.6 1 .5 1.3v2.2l-.2 2-1 2-1.3 1.9-1.1.8-1.2.6-1.9.6-.4 1.5v3.6l-.1 1.2-.5 1-.8.8-1.1.8-1.5.5-1.6.1-1.7-.3-1.5.6-3.2 3.6-2 1.5-1.5.4-2.3.1-1-.5h-1.6l-1.4 1.4v2l-.5 2.5-1 1.4-1 .7-1.2.2h-2.3l-1 .8-1.7 2.4-.6.7-1-.2-1.4-.5-1-1.3-.8-2.3-1 1.1-1.3.6H186l-1.4-.5h-.1l-1-.3c-.3-.1-.8-.7-1-1.2l-1.8-4.2-1 2.7-.3 1.8-.2 2.4-.1 2.5-.2 2v3.4l.1-.2-.1 3v3.6l1.2 5.9h-.9l-.2-1.8-.2-2.5-.2-1.4v-5l-.2-3.2-.2-1.8-2-2-1.6-.3-.5.8.3 1.5v1.3l-.2.2-1.5-1.7-1.3.7h-.3l-.2-1.3-1.8-.6 1.2-1.2 1.8-.5 1.3.2 1.5.4 1.5.5 2.2 1.5v-2l.3-2.4.3-2.4.4-2.2-.3-2.6-1.7.6-2.6.4-1.5-.3-3.3-2.1-1.4.5-2.3 2.4-1.8.7-1.6-.7-1.7-2.6-1.5-2.2-3-.7-2.7-1-2.2-1-1.2-2.1-.5-2.8.7-3.3 1-3.2 1.6-3.2-1.2-1.9-.7-2.4-.3-1.7.5-2 1.8-2 2.2-1.7 1.2-2-2.3-.5-2-.6-2.1-1.2-2.1-2-1.9-2.7-1.2-2.4.1-1.9Zm278.7-87.4 2.2 2.2 2.3 1.3 2.2.7 1 .2-.3.6-2.2 1.7-1.9 2.2-.7 2.5.3 2 .8 2.5 1 1.7-1.4 2.7-1.1 3.3-.8 3.6.6 3 1.5 2.7 2.6 1.2 2.7 1 2.6.6 1.3 1.8 1.9 2.9 2.3 1 2.2-1 2.4-2.3.8-.3 2.9 1.8-.7.4-.8 1.7.4 1-1.5 1.2-1 2v1.2l-1.6 1.7-.8 1-1.5 1.8-.9 1.5.1 1.5.6.5-.5 1.3v1.7l.5 1 1.4.3 1.8-1 1-.3.6.2 1.3-.7 1.5-2.3 1-1.6.3-.4.7-.7v-.1l.4-.7v-1.7l-.1-.9.1.1h.5l1.4 1.4.2 1.4.2 3-.1 2.2v3l.3 1.4.2 2.5.3 2.6h3l-.3-1.2 1.5.9 1-3.3.7.9 1 1.5 1.8.2.7-1.6.2 1 .1 2.4 1.8 1.2 2.4-1.8 1.4-1 1.1.5 1.2-1.8 1.2-2.4.5-2.4-.1-1 1-1.7-.2-2.4-.2-1.7-1.3-1.6-1.2-1.8-1-1.2 1-1 1.6-2.3.7-.5h2l1.3-.3.1.2 2.4 1.4 2.4.3.3-.2-.2 1.4.3 2.7 1.5 1.9 1.8 1.2 1.7-.6 3.4-1.7 1.2-.2 2.4 1.2 2 .7 1.8-.2 2.5-1.2 2.6-3.1 1-1.9 1.6-.5 1.3.7.7 1.2 3.2 1.5 2.3.5 3.6-.5 3.5-1.2 2.4-1 1.5.3 1.6 1.2 2.2 1 2.4.5 2-.3 1.8-.5 1.5-1.2 1.1-1.6 1.4-2.3.9-1.8.9-.9 2 .3 2 .1 2-.3 3-1.5 2.7-1.9 1.8-2.4 1.5-3 .3-2.4-1.4-2.6-2.5-3.5-2.2-2.2-2.5-2-2.3-1.4 1.8.3 3 .2h3.3l2.8-1.7 1.9-3-.7-5.5-2-3.4-1.8-3.6-2-2.5-1.7-1 2.7-1.9 2.8-3.8 2.5-4.8 1.7-3.2.5-2.7-.5-3.4-1.5-3-2.3-2.3-.4-.3 1-1.7 1.7-2.8.3-3.5-1.1-1.7-1.5-.7-2.5-.7-3.1-.2-1.6-1-2.7-4.6-1.9-1.7-3.3-.2-3.8 1.4-2.4 1.5-2.5-.4-2.9-1.7-2-.5-3.2-1-2.9-.2-3.3 1-.6.3-.2-3.9-1.6-3.3-1.4-1.5-3.2-1.4-2.7-.4-2.1-1-1.6-1-1-1.8-1.6-3-1.6-1.1-2.6-1-3.3 1.7-2.5 2-.6.4-1.6-1.5-3.3-1.3-4.3.1-4.1 1.2-3.6 4v3l1.9 9.2.4 1.4-.8-.3-3-2.1-3.3-.8-2.4.9-2 2.5-1.4 2.5-.2 4 .5 4.4.7 2.6h-.9l-1.5.4-2.4.5-2 .9-2 1.8-.1.3-1.5-2.3-2.3-1.7-1.6-.5-2.6.3-2 .7-1.7.2-1.4-.2-1.3-.8-2.1-1.3-1.6-.3-2.2.4-1.6 2.3-.9 2.1-.2.5-1.6-.4-2.6.3-2.9 1.6-2.3 2.3-1 4 1.2 2 4.6 5.4.6.5h-.4l-2.9-.3-2.4.7-1.3 1.5-.4 2.4-.1 2.2 1.4 2.7 1.9 2.7Zm23.4 44.6 1.9-1.7-.5-1.2.5-1 1.3-.8.6.1 2.8-.4.6-.2.2 1.2-.4 2-.3 2.5-.2 2.4v.3l-.8-.5-1.7-.6-1.6-.4-1.6-.2-1.7.4v-.4l.8-1.5Zm25.3-13.4-3.3-1.3-1.6-1.3-2.4-4.5-2-.2-4 1.3-2.6-.3-1.6-2-.3-4.2-.3-3.4-3-2.7-2.5-2.8-2-2.6.1-3.5 1.2-3.7 3-3.5 3.3-3 3.8-2.8v-2.9l.6-3.4.8-2.2 2-2 3.3-1.4 3.7-.6 2.4-1.5-2.2-1.8-2-2-1.6-2.8h.5l2.3-.8 1.2-2 1.8-2 1.9-1 1.4.4 3.4 2 2 .2 2.2-1 1.7-.4h1l1 .4.8 1.8-.1 2.3-.2 2.4h1.2l2 .6 2 1.3 1.4 1.8.6 1.7.1 6.5-.5 3.3-1.6 3.3h2.6l2 .8 2.6 1.7 2.4 1.4 2.2 3-.1 2.1-1 1.7-2 1.1-2 .9-3.9 1.3 2.7.8h2.2l2.2.5 2.2.6 2.8 1.3 1.6 1 .5 1.3.1 2.3-.3 2-1 2-1.3 1.8-1.1.9-1.2.5-1.8.7-.5 1.4V443.2l-.5 1-.9.8-1.1.9-1.5.4-1.6.2-1.7-.3-1.5.6-3.2 3.5-2 1.5-1.4.5h-2.4l-.9-.4h-1.7l-1.4 1.4v1.9l-.5 2.5-1 1.5-.6.3-.6-.7-.1-.1s-.7-.5-1.1-1c-.2-.3-.4-1.5-.5-2.1l.7-5.7-2.5 2.3-1.6 1.8-1.8 2.7-1.7 3-1.4 2-.8-2-.7.8-.8-2.7-1.4-1.2-1 .5-.6 2-1 1.5-.2.1h-.3l-.7-2.9h-1.6l-.4-1v-.1l.4-.9-1.8-1.9 2.4-.8 2.4.6 1.5 1.1 1.5 1.4 1.4 1.6 1.5 2.9 1.2-2.1 1.8-2.7 2-2.7 1.8-2.2 1.3-3-2.2-.5Zm-5.7 16 .1.2h-.2l.1-.1Zm-5.5 4.5-1.5-.7-1.7-.8-2.3 1v-1l.3-2v-.5l.3-.2 2-1.2 1-.3.9-.3v-.2h.1l1.3.4h2.2l.3-.1-.4 1-1.7 3.8-.8 1.1Zm.8 1.5.2.3-1.3 2.3-.5-.6.9-1.7.3-.5.4.2Zm4.2 1-1.3 2.9-.5-.7.1-1.5-1-1.5 1.9-3.2 1.9-.4 1.5.5.5 1.2-1.5 1.5-.8.5-.2-.7-.5 1.2-.2.1v.2Zm-2.7 1v.8l-1.5-.2.9-1.4.6.8Zm-4.3 5.3-.2-.6-.1-1.2.5-1.4.8-.6.1.1v.2l-1.1 3.5Zm-3 1.8-.5-2.4v-3.5l.2-2.7 1-.9 1.2-.1.7.4-.5 1.5-.2.4-.5-.5v1.5l.3 2.5-1.3 3-.4.8Zm.5-20h.2l.5 1.2c.2.3 1 1.3 1.5 1.5l-1 .4-1.9 1.1v-.8l.2-2.3.3-1.2h.2Zm1.4.2h.3l.3 1-.4-.5-.2-.5Zm-2.7 10.3.5-.6.5-.2-1 .8Zm6.4 3.4v.5h-.2l.2-.5Zm-1.4-3.2-1.5 3-.1-.2.4-.8.7-2.3-1.6-1.1-1.6.2 1.3-.5 1.3.6 1.4.7-.3.4Zm1-8.3.9-1.6.6-1.7.6.6.8 2.6-.7.3h-1.7l-.6-.2Zm-5.1-5.2-.5 1.6-.3.8-.2 1.4-.2 2.4v1.4l-.5.2.2-2 .3-2.5.4-2.2-.2-2.1 1 1Zm-4.3 8.7-.6-.2-.2-.2 1.1.4.2.1h-.4v-.1Zm1.5-9.6 1.3-.7.1.2-1.4.5Zm-3.1 9h-1.3l-2.2-.1-.1-.1 1.2-.3 1.3.2 1 .3Zm-1.4 5.5-1 1.6-1.4 2.1-.6.4-.7-.2-2.8 1.3-.6-.1-.2-.4V473l.7-1.9-.8-.6v-.8l.6-1.1 1.5-1.7.6-.9 1.6.5.2 1.9 1-.3h.4l.8-.4 1.2 1.3-.5.5Zm1.2-1.6-.1.2-1.5-1.7-1.3.6-.3.1-.2-1.4-1.8-.5.9-1 .6.7h3.6v.2l.2 1.4v1.4Zm5.8 14.3h-.9l-.2-1.7-.2-2.5-.2-1.4v-5l-.2-3.2-.2-1.8-1-1 .4-.2 1 .7v-1.2l.5-.3-.3 2v3.4l.2-.2-.1 3-.1 3.6.9 4-.3.6.5.3.2 1Zm1.8-.8-1.1-.8v-.1l.8-2.2.6-1.4.4 1.2.2.4-.9 2.9Zm4.5-.3h-.6l-.8-1.2-.7-1-.4-.6 1.3-4.4 1.6.5v-1.1h.9l.4.6.3 1-.4.7-.4 2.2v.7l-.5 1.1-.7 1.5Zm9.8-2.8-1.2 2.3-.6 1-1-.3-1.7 1.2-1.9 1.5-.8-.6v-1.9l-.4-1.6v-1h.8l.2-1.7-.1-2v-.3l1.2-2.7.2.8v.1l1.9-.3.3 1.5.4.5.4.3.7.8.3-.6.5-.6 1 .6.1-.1.1 1-.4 2Zm-.2-9.9 1.2 1.5.2 1.4.1 2-.6 1.1-1.8-1.2-.7 1-.4-.3-.3-2.5-2 .4-.3-.8 1.1-.8 2.2-2.1-1.2-2.2-2-.8-2.6.6-2 3.2-.1-.1-.5-.3.6-1 1.8-3.9.8-1.9h.1l.4.7.2.3-1.6 2.8 2-.7 3 .2 1.2 1.6 1.3 1.9Zm3.8-8.4h-2.3l-1 .8-1.7 2.5-.6.6h-1l-1.4-.6-.5-.6.2-.3 1.5-2.1 1.8-3 1.7-2.7 1.5-1.7.4-.3-.3 3c0 .3.2 2 .7 2.7l1.2 1.2.4.4-.7.1Zm-11.6-77.3-.4-4.3.1-3.6 1.4-2.3 1.7-2.2 1.9-.7 2.7.6 3 2 3 1.5-1.2-3.5-1.8-9.2v-2.5l3.1-3.4 3.6-1.1 4-.1 3 1 2 2.1 1.4-1 2.3-1.9 2.9-1.4 2 .7 1.3 1 1.5 2.8 1.1 1.8 1.8 1.4 2.5 1 2.6.4 2.9 1.2 1.2 1.3 1.5 3 .2 5.4 1.9-1 3-1 2.7.2 3 1 2 .4 2.8 1.7 3.2.5 2.6-1.6 3.5-1.3 2.8.2 1.5 1.3 2.7 4.5 2 1.4 3.3.3 2.3.6 1.1.6.9 1.2-.3 2.8-1.5 2.6-1.7 2.7 1.2.6 2.1 2 1.4 2.9.4 3-.3 2.4-1.7 3.1-2.4 4.8-2.7 3.6-3.8 2.7 2.7 1.7 1.9 2.2 1.8 3.6 2 3.1.6 5-1.6 2.6-2.3 1.4h-3.1l-2.8-.2-4.9-.8 2.2 2.3 2.5 1.4 2.4 2 2 2 2.5 3.5 1.2 2.2-.2 2-1.4 2.7-1.7 2.2-2.5 1.8-2.7 1.3-1.9.4-1.7-.1-2.5-.4-1.3 1.3-1.1 2-1.3 2.2-1 1.4-1.2 1-1.5.4-1.9.3-2.1-.4-2-.9-1.7-1.4-2-.2-6 2.2-3.3.4-2-.4-2.9-1.4-.7-1.1-1.9-1-2.4.7-1.1 2.1-2.4 2.8-2.1 1.1-1.5.2-1.7-.6-2.6-1.3-1.6.3-3.5 1.7-1.3.5-1.1-.9-1.3-1.5-.2-2.3.4-3-1.7.7-1.9-.2-2-1.1.5-.4 1.3-1.7.6-3v-1.5l.8-.9h1l1 .5h2.7l1.7-.6 2.3-1.7 1.9-2 1.2-1.4 1-.4 1.6.3 1.7-.2 1.8-.5 1.4-1 1-1 .6-1.3.1-1.5v-3.5l.3-.8 1.4-.5 1.3-.6 1.3-1 1.4-2 1.1-2.2.4-2.3v-2.5l-.8-1.8-2-1.2-2.9-1.4-2.3-.7-2.3-.4H498l.8-.3 2-.9 2.2-1.2 1.3-2.1.2-2.8-2.5-3.4-2.6-1.5-2.6-1.7-2.2-.8-1.3-.1 1-2 .5-3.6-.1-4V394l-.7-2-1.6-2-2.1-1.6-2.4-.6h-.3v-1.4l.2-2.5-1.1-2.4-1.5-.7h-1.2l-2 .5-2.1 1-1.4-.2-3.4-2-2-.4-2.2 1-2.1 2.4-1 1.7-1.9.7h-.6l-.8-2.9ZM422 408.9l.3-2 1-1 2-.7 2.7.3 2.7-.2-2.2-2-4.5-5.3-1-1.6 1-3.3 2-2 2.5-1.4 2.3-.3 2.2.6 1.4-3.3 1.3-1.9 1.6-.3 1.2.2 2 1.3 1.4.8 1.8.3 2-.3 1.9-.6 2.3-.3 1.2.4 2 1.4 2.3 3.6 1-1.5 1.6-1.7 1.8-.8 2.4-.5 1.4-.3h1l.2.3 1.7 3 2 2.2 1.3 1-1 .6-3.6.6-3.6 1.5-2.3 2.3-1 2.5-.7 3.6v2.5l-3.4 2.4-3.3 3.2-3.1 3.7-1.4 4v4l2.2 3 2.6 2.8 2.6 2.5.3 3 .3 4.5 2 2.5 3.2.4 4-1.3 1.3.2 2.3 4.1 1.8 1.6 3.6 1.3 1 .2-.6 1.7-1.9 2.2-1.9 2.7-1.8 2.7-.3.6-.7-1.3-1.6-1.8-1.5-1.4-1.6-1.2-3-.9-3.5 1.3-1.7.8-2.8 1.1h-.7l-3.4-2.1-1.3.5-2.4 2.3-1.7.7-1.7-.7-1.7-2.6-1.5-2.1-3-.7-2.6-1-2.3-1-1.2-2.1-.5-2.8.7-3.4 1-3.1 1.6-3.2-1.1-2-.8-2.4-.3-1.7.6-2 1.7-2 2.2-1.7 1.2-2-2.3-.4-2-.7-2-1.1-2.2-2-1.8-2.7-1.2-2.4v-2Zm-122.7 458-2.9-1.8-2.2-.4.2-3.9-.6-3.6-2.1-1.5-2-.6-3.2.6-2 .2-1.8-.5-2-1.2-1.7-1.8-2.8-1.7-2.1-.3-3.5.7-3.3 2.3v-.6l-1.2-3.2-1.8-2.2-2.5-2-1.5-1.2-3-1.3-1.8-1.7-.3-2.9-1-3.7-2-2.6-2.4-.5-5.2.6-1.7-.6-2-2.3-1.8-1.5-1.5-.8-2 .2-2.5 2.1-1.3 3.2-.8 1.9-.3-.1-3.1-.6-3.3.7-3 1.7-1.8 1.9-1.7 3.4-2.4 4.9-1.3 4.4v3.3l-1.6-.6-3.1-.2-4 .7-3.6.4-5 3-1.3 3.2.3 3.2 2 2.8 1.8 2.1 1.3 1.3-2.6-1-3-.8-3-.4-4.2.1-2.7.5-1.7 1.6-2.2.1-3.1.6-2.6.8 1.4-1.2 2-2 2.3-2.6.6-3.2-1.1-3.4-4.6-3.1-4-.7-3.8-1h-3.3l-1.7.5.3-3.3-1-4.6-2-5-1.3-3.4-1.7-2-3-2-3.3-1-3.2.4-.4.1-.6-2-1-3-2.5-2.5-2-.2-1.5.6-2.2 1.4-2.2 2.2-1.8.5-5.3-1-2.4.4-2.3 2.3-1.5 3.9-.5 2.7-2 1.7-3 1-1.8 1.2-2.8 1.8-2 2-1.5 3.2-.2.6-3-2.4-3.7-1-2 .1-3.1 1.5-2 1.8-2.2 1-1.8.5-2-.4-3.4-.8-1.8.5-2.5 1.4-1 3.5v4l-2.3.2-3 1.6-2.8 3.3-1.8 3.9.6 5.3 2.3 2 8.2 4.6 1.3.6-.8.3-3.5 1-2.8 2-.9 2.4.6 3 1 2.8 2.8 2.7 3.7 2.6 3.7 1.8 3.4.6 3-.2 1.6-.2-.2 1.1-2 3.2-1.3 3.8.3 3 1.3 2.5L95 917l2 1.7-.4 4.2.2 4.6.7 4.7 2.1 3.7 3 2.6 3.7.3h3.8l3.6-.4 2.5 1.7 3.6 2.7 3.2.2 2.3-2.2 1.8-4 1-.8 4.6 1 2.3-.3 3.4-1.8.8-.7.8 1.6.5 2.9.8 3.2.8 3.2.3.6-1.6-.4-2.2.1-2.1.2-2 .4-2.6 1.7-1.4 3.5-.4 1.8-1 2.9-.4 2.2.7 1.7 1 .3v2l.8 2.1 1 1 1.7-.2 1.8-2 1-1h1l1.1-1.4.8-3.6.5-2.4.3-.9.4-.9h-.1l.2-1.2-.7-2.1-.8-1.5.8-.1 2.9 1.2.9 1.8 1.7 3.8.8 2.7 1.5 3.7 1 1.7 1.4 3.1 1.5 3 3.5-1.1-5.1-8-1.6-4.5-1.1-3.5 1-1.7 1.3-.8 1.3.4.1 2.1v1l-.7-.3.5 1.1v.2h.1l2.3 5 1.3 1.8 1.8 1.4 1.4.9 1.8 1.4 2.1-.6.2-3 .2-1.6 1-.6-.5-2-1-2.5-1.4-1.9-1-.7-.5-1.9-2-1.4-1.4-1h-2l-2.2-.3-2.5-.1-2.5 2.3-.5-1.4-.6-2.6-1.1-3.3-.9-3-.2-2.3v-.6l2 2.3c.3.2 1.6 1.2 2.5 1.3l1.7-.2h2l2.6-1 1.8-1.5v-.3l1 1 2.2 1.6h2.9l1 1.2 1.3 1.3 1.2.6 2 .3.7-.2h.7l.4.6-.1 1v2l.8 1.4.9.9 1.2.3 1.3.2.4.4 1 1.8.5.8h1.3l1.4-.2 1-1 .3-.5 1 .5 1.6.3 1.1-.2 1-.1c.5-.2 1-.8 1.3-1.1l.5-.8V951l-.2 1.8v1.8l-1.4-.8-1.5.4-1 .3-1.2.3-1.6 1.7v1l-.4.3-.5 1.2-.4 1.6v1.2l.7.2.7 2.3 1.5.1.8-1 .8-.6.7-1 .5-1 .6-2.7.1-.1v-.2l.2-1.2-.5.4-.2-1 .4-.2.6.2.6.6-.4 4.2-1.8 4.8 2.4.2.5-1.8.4-1.7.3-1 .4-2v-1.5l.5-2 .2-1 1.3-.8-.1.6-.2 1.1.3.5h-.1l.3.4.2.5 1.6 3 .9.7h.5l1.8 1.1 1.1-.1.6-.7.2-1.2-.3-1 .4-.2.3-1-.6-1.3-.8-1.3-.5-.9-1.2-1.6-1.6-.7h-1.2l-1.2.2-1.2.2-.4.2v-4.8l.1-.6.4.2 2 .5h1.2l2.4-1 .5.2 1.3 1.7 1.7 1 1.8-.5 1.6-1.8 1-1 2-.3 2-.3 2-.6 1.3-1.7.8-2.2-.3-2.6-.1-.8 2.2.2 2.2-1.4 1-1v.2l1.6 1.6 2.4 1.2 2 .2 1.7.2c.8 0 2.3-1 2.6-1.1l2-2-.4 2.6-1.1 3-1.4 3.3-.8 2.4-.7 1.5-2-2.5h-2.6l-2 .1h-2l-1.6.9-2 1.2-.6 1.8-.9.6-1.5 1.7-1.4 2.6-.6 2 1 .6v1.6l-.1 3 2 .7 1.9-1.3 1.5-.8 1.8-1.3 1.4-1.5 2.6-4.9h.2v-.2l.6-1.2-.7.3v-.9l.3-2.2 1.3-.2 1.2.8.8 1.7-1.4 3.4-2 4.4-5.5 7.6 3.3 1.3 1.7-2.9 1.7-2.9 1-1.7 1.8-3.6 1-2.5 2-3.7 1-1.7 2.9-1.1.8.1-1 1.6-.9 2 .2 1.1h-.1l.2.9v.2l.3.7.2 2.5.5 3.6 1 1.4 1 .1 2.4 3.2 1.6.2 1.1-.8.9-1.9.2-2.1 1-.3.9-1.6-.2-2.3-.8-2.8-.3-2-1-3.4-2.2-1.8-2-.6-2-.3-2.3-.3-1.4.3 1.3-3.7 1-3.1.8-2.8.9-1.6.8.8 2.9 2 2.3.5 4.6-.7.9.8 1.2 3.9 2.2 2.4 3.1.1 3.8-2.5 2.5-1.5 3.5.6 3.7.3h3.6l3-2.4 2.4-3.4 1.2-5 .6-4.5v-4.1l1.9-1.4 2.5-2.9 1.3-2 .7-3.3-1-3.7-1.6-3.4V904l1.5.3 2.8.4 3.2-.4 4-1.6 3.8-2.3 3-2.5 1-2.8.9-3-.7-2.4-2.3-2-3.4-1.2-.8-.4 1.4-.5 8.3-4.2 2.3-1.7 1-5.3-1.2-3.8-2.4-3.5ZM182 960.4l-.4.9-.6.8-.7.6-.6.6h-.2l-.3-1-.5-1.2-.4-.1v-.4l.3-1.3.4-.9.2-.2h.4v.8l1.5-.2.5-.4.7.7-.3 1.4Zm.5-2.7-.8-.9-1 1v-.6h-1.1v-.3l.6-.7.5-.5 1-.2.6-.2h-.3l.3 1.8.2.5Zm2 6-.2 1h-.4l1-2.6-.3 1.6Zm9-8.7.3.6.8 1.2.4.9v.4l-.7.4.3 1.4-.1.8-.1.1h-.3l-1.9-1.2-.5.1-.3-.2-.8-1.6-.6-1.2-.2-.3.8-.6.3.2 1.3.5.3-1.3 1-.2Zm-4.1-.3.3-1-.3-.7h1.8l1.1.4.6.7-1.2.2-.2.8-1-.6-1.2 1 .1-.8Zm-.3-63.6.8 2 .9 2.6.4 1.6v1.5l-.5-.2-1.7-.6-1-.4-1.8-.2-1.2-.6-.6-1.3-.8-1.3.4-1.2 1.1-2.5 1-1.9.3-1.9-1.8-1.7-1-1.4-.9-1.7-.4-2.8v-3.2l.7-2.5 1.2-2.6h.3l4.2.4 2.5.6 1.3 1.3 1.1 3 .6 2.6-.3 3.1-.7 2.9-1 1.6-1.2 1.3-2 1.6.1 1.9Zm22.1 24h2l1.2.7.6.7v1.3l-.1 1.3-1 1.4-1.6 1.6-1.7 1.3-1.5.6-1.4.2h-2l.7 1.7 1.5 1.5 1 1.5.2 1.4-.3 1-.8 1.6-.8 1-.4-2.3-.7-1.6-2.5-1.2-1.5-1-.7-1.3-.4-2.4.9-3.4 1-2.3-.8-2.3-1.9-.9-1.2.1-2.8-1.4-1.4-1.3-1.5-2.9-1-3.4-.8-2.7-1.2-1.3 1-1.6.2-.4 1 1.2.6 1.3 2-2.4 1.5-.7.9-.2 1.6.4 1.2.6 1.4.4h1.3l1.3-.4 1.4-.7h.8l1 .3.8 1.4.4 1.5.3 1 1.8-.2 1.5.4 1.6 1.2 1.2 1.5.3 2.2-.7 1-3.7 3.1-2.1 1.5 2.3.4Zm-3.4 21.4ZM170 922.1l.5 3.6-.6 2.3-.8 1.3-1.6.9-2.7 1-.8 1.4-1 3.9-.5 1.2h-.4l-.8-1-1-.6H159l-1-.2-1-.4-.7-.7-.5-.6-.2-.7v-.8l.1-1.3.2-1.2-.2-1-1.2-.7-.8-.5-.7-.7-.7-1.3-.6-1.5v-1.3l.3-1.6.4-.7 1.2-.5 2-.6 1.6-.3h1.7l1.5.1 2.5-.4-3-1.5-1.3-.7-1.3-1-.5-1.2v-1.3l1.9-1.8 1.8-.7 2-1 1.4-.2 2 .2-.8-2.7v-2.1l.6-4.5.6-1 1.1-1.1 1.5-.7 1.5-.2h1V896l.2-1.5.7-1.1.6-.2h.7l1 .5 1.7 1h1.3l2.8-1 1-.1 1.1.7v1.8l.6 1.8.9 1.7 1.8 1.7 1.8 1 .7.3-.6.4-1.9 1-2.2.4-1.5 1.3-2.3 6-1.8 2.8-1.6 1.2-3 1.3-1.3-.2-2 .7-1 2.3.9 2.3Zm18-20.6-1.6-1-1.6-1.4-.8-1.6-.6-1.5v-.3l.1.2.7 1.6 1.6.7 2 .3 2.4.9.5.3-.2.5-1 1.6h-.2l-1.2-.3Zm-49 52.8-.4 2.5-.7 3.3-.7.8h-1l-1.3 1.4-1.5 1.7h-.9l-.5-.4-.7-1.6v-2.6l-1.2-.4-.4-1 .3-1.9 1-2.8.4-1.5 2.3-.1 1.1 2.2 1.1-.8.5-.2.8-.9 2.3 1.3-.4 1Zm20.6-1.5 1.2 1.6 1 2.4.3 1.2-.8.5-.2 2.1-.2 2.4-1 .2-1.4-1.2-1.4-.8-1.6-1.3-1.2-1.5-1.7-3.8.7.4h.1l1-1.6 1.2.7h.2l.6.1.5-.1h1l-.2-.7-.2-.8 1.2-.3v-.2l.8.7Zm-6.3-15.4-2.3.8h-2s-.9.2-1.5.1c-.4 0-1.4-.6-1.9-1l-3.9-4.2.2 3.4.3 2.4.9 3.1 1 3.3.7 2.6 1.4 3.9.7-2 2.2-2.1 2 .1 2.2.3h1.8l1.2.9 1.6 1.1.4 1.2-2 .6.3 1.2h-.5l-2.1-1.3-1 1.8-.9-.4.2-1.3-.2-3-2.4-.6-2 1-1.2 2.4 1.2 4 1.6 4.4 4.5 7-1.4.5-1.2-2.2-1.4-3-1-1.8-1.4-3.6-.8-2.7-1.7-3.9-1.2-2-3.4-1.6-1.8.2-.2 1.1 1 1.8.6 1.7-.2.6-2.7-1.5-1.2 1.3-.4.2-.1.1-.5-.8-.4-.9h-.1l-2.5.1 1-2.4 2-1.4 1.8-.3 2-.2 2.1-.1 3.2.8-.8-2.3-.8-3.2-.8-3.2-.5-2.8-1.4-3-1.8 1.4-3 1.7-2 .3-5-1-1.5 1.2-1.8 4-1.9 1.7h-2.4l-3.4-2.6-2.8-2-4 .4-3.7.1-3.3-.2-2.6-2.3-2-3.4-.7-4.5-.2-4.5.5-4.7-2.3-1.8-2-2.8-1.2-2-.3-2.8 1.2-3.5 2-3.2.4-2.7-2.9.4-2.8.2-3-.6-3.7-1.7-3.5-2.5-2.7-2.5-.8-2.4-.5-2.8.7-1.9L79 884l3.6-1 3-1.2-3.4-1.5-8-4.6-2-1.6-.6-4.7 1.6-3.4 2.5-3.1 2.8-1.5 2.9-.2.1-1.7v-3l.9-3 1.9-1.2 1.6-.3 3 .7 2.3.4 2.1-.5 2.3-1.2 2.1-1.7 2.8-1.4h1.8l3.2.8 4.2 3.4.5-2.2 1.3-2.9 1.8-1.8 2.7-1.7 1.6-1.2 3.2-1 2.5-2 .5-3 1.3-3.6 2-2 2-.3 5.2 1 2.3-.6 2.4-2.3 2-1.4 1.1-.5 1.5.2 2 2 1 3 .8 2.9 1.3-.5 2.9-.2 3 .8 2.6 1.7 1.6 1.8 1.2 3.3 2 5 1 4.3-.5 4.7 3-1h3l3.9 1 3.6.6 4.2 3 1 2.7-.6 2.7-2 2.4-2 2-3.7 3 3.1-.1 2.7-.9 3-.5 1.6-.1-1 2.1-.9 2.7v3.5l.5 3 1 2 1.2 1.5 1.4 1.3-.2 1.3-1 1.8-1 2.5-.3.9-1.2-.8h-1.4l-2.7 1.1h-1l-1.4-.9-1.2-.5-1-.1-1.2.4-1 1.6-.3 1.7v.8l-1.7.2-1.8.9-1.3 1.2-.8 1.3-.8 4.8v2.4l.5 1.4h-.6l-1.7.3-2 1-2 .6-2.2 2.3-.2 2 .7 1.6 1.6 1.2 1.1.6h-2l-1.7.3-2.3.7-1.4.6-.7 1.1-.4 2v1.4l.7 1.8.7 1.4.9 1 1 .6.9.4v.5l-.3 2.4v1l.3 1 .2.2-.4 1.2-1.4 1.3Zm5.8.6-1.8-1.3.4.2 1.2.3h1.1l.7.3.3.5h-2Zm26.7 19v-.3.2Zm.7-3-.4 1.3.2-1.2v-.1l1-.5-.8.6Zm21.3-11.1-1 1.3-1.6.5-2 .3-2.2.3-1.3 1.3-1.5 1.6-1.1.3-1.1-.6-1.3-1.7-1.2-.7-2.6 1.1h-1l-1.7-.4-1.4-.7-.5 2v.2l-.3-2-1.8 3-.8.7h-.8l-1 .3-1.3-.2-.8-.5-.7-1-.9 1.7-.7.8-1 .2h-.7l-.2-.5-1-1.8-.8-.7-1.5-.3-1-.2-.5-.5-.5-1-.2-1.8.2-1.3-1-1.2-1.2-.2-.7.2-1.6-.3-1-.4-1.2-1.2-.6-.8.6-.2.6-1.7 1-3.7.6-1 2.5-1 1.8-1 1-1.6.8-2.8-.7-3.8-.7-2 .7-1.6 1.3-.5 1.4.3 3.2-1.4 1.9-1.4 2-3.2 1.4-3.4.9-2.4 1-1 2-.3 2.2-1 1.3-1h.2l1 1 .6 2.5 1 3.5 1.6 3 1.7 1.6 3.2 1.6h1.3l1.2.5.6 1.6-1 2-.9 3.7.4 2.6 1 1.8 1.7 1.2 2.2 1 .5 1 .6 3.9.5 1.7 1 .3.3 1.2.2 2.4-.6 1.8Zm6 14.5-1.2 1.4-1.6 1.3-1.5.7-1.6 1-.8-.2V957l-.7-.5.3-1.1 1.3-2.4 1.3-1.6 1-.5-.1.1 1 .4-.5 1.4 1 .1.5.1h.6l1.4-.6.8 1.6h.1l.7-.3-2 3.6Zm22.8-5 .3 1.5.7 2.7.2 2-.6 1-1.2.3-.2 2.5-.8 1.6-.5.4h-.8l-1.4-1.8-1-1.4-1-.1-.6-.9-.5-3.3-.2-2.6-.3-1 1.8-1 .5-.1.6.8.6.4 1 .8 1-1.9.2-.2 2.3.2Zm64.3-73.5-2 1.5-8.2 4-3.4 1.3 2.8 1.5 3.3 1.1 2 1.8.5 2-.7 2.6-1 2.4-2.8 2.3-3.6 2.3-3.7 1.4-3 .4-2.7-.3-2.8-.7.1 2.6 1.7 3.5.9 3.5-.5 2.7-1.3 2-2.3 2.6-2.3 1.7v4.6l-.6 4.4-1 4.6-2.2 3.2-2.7 2-3.2.1-3.6-.3-3.8-.6-3 1.7-3.4 2.4H246l-1.7-2-1.3-4-1.4-1.4-4.9.8-1.9-.4-2.7-1.8-1.7-1.6-1.6 2.7-.7 3-1 3-1.2 3.1-1 2.3 3.2-.6 2 .2 2 .3 1.7.5 1.8 1.5.8 2.5-2.5-.3-1 1.6-.5-.3-1-1.4-2.8 1.3-.1-.6.7-1.6 1.1-1.7-.1-1.1-1.8-.4-3.4 1.3-1.3 2-2 3.8-1 2.6-1.7 3.5-1 1.7-1.7 3-1.3 2-1.3-.5 4.8-6.6 2-4.5 1.6-3.8-1.1-2.4-1.8-1.2-2.4.4-.4 3v1.4l-.8.3-.8-1.9-2.2 1.2h-.5l.5-1.2-2-.7.5-1.2 1.6-1 1.3-.7h1.8l2-.2h2l2 2.3.5 2 1.7-3.9.8-2.4 1.4-3.3 1.1-3 .5-2.4.5-3.3-4.1 4c-.7.4-1.6.9-2 .9-.6 0-1.4-.3-1.4-.3l-2-.1-2-1-1.3-1.3-.5-1.7-2 2.1-2 1.2-2-.1h-.2v-.6l-.7-2 .7-.8.9-1.8.4-1.4-.2-1.6-1.2-1.9-1.5-1.4v-.2h.6l1.5-.3 1.7-.6 2-1.4 1.6-1.8 1.2-1.7.2-1.6V916l-1-1.2-1.6-.7-2-.1 4-3.4 1-1.3-.3-3-1.4-1.7-1.9-1.4-2-.6-1 .2-.6-1.8-1-1.8-1.4-.5h-1.3l-1.6.7-1 .4h-1l-1.2-.3-1.2-.7-2-.4-1.1.1-1.8.9-1.3 1.4-1.2-1.4-.1-.1v-.3l.2-2-.5-1.8-.9-2.5-.7-2v-1.1l1.5-1.4 1.3-1.3 1.1-1.9.8-3.2.4-3.3-.6-2.9-1.3-3-1.6-1.9-2.9-.6-3.7-.4.6-.6 2.4-.4 4-.2 3 .4 2.8.7 2.5 1 3.1.4-3.3-3.2-1.8-2.1-1.7-2.5-.3-2.7 1.2-2.8 4.3-2.6 3.6-.3 3.8-.8 2.8.2 3 1.1-.1-4.6 1.3-4.2 2.3-4.9 1.5-3.2 1.7-1.7 2.7-1.5 3-.6 2.8.4 1.2.6 1-3 1.3-2.7 2-2h1.5l1 .6 1.8 1.3 2.1 2.5 2.2.8 5.2-.6 1.9.3 1.7 2.1 1 3.5.2 3.1 2 2.1 3.2 1.4 1.5 1.2 2.4 1.9 1.6 1.9 1 3 .3 2.1 4.4-3 3.2-.7 1.7.2 2.6 1.5 1.7 1.8 2.1 1.3 2.2.7 2.2-.3 3-.5 1.5.4 1.8 1.2.5 3.2-.2 3v1.6l2.8.4 2.5 1.6 2.2 3.2 1.2 3.6-1 4.5ZM419 866l1.1-2.6 1.2-1.4.7.9 2.5 2.4 2.1.9h4.8l.7 1 .6 4.1 1.7 2.8 3 .6 4.1-1.8 2.8-1.1 3.3 1.1 3.7 1 3.5.6 3.3-1.9 3-3 2-4.5 1.4-4.5.6-4 2.2-1 3-2.5 1.6-1.8 1.2-3-.3-3.9-1-3.6v-1.1l1.5.6 2.7.8 3.4.2 4.1-.9 4.1-1.7 3.4-1.9 1.5-2.5 1.4-2.8-.3-2.5-2-2.4-3.1-1.8-.7-.5 1.4-.3 9-2.7 2.6-1.3 1.9-5-.7-4-1.7-3.8-2.5-2.3-2.1-.8.8-3.7v-3.7l-1.8-1.9-1.8-.9h-3.3l-2-.1-1.6-.8-1.7-1.5-1.5-2.1-2.5-2.2-2-.6-3.5.1-3.7 1.7v-.6l-.5-3.3-1.4-2.5-2.2-2.4-1.3-1.5-2.8-1.8-1.4-2 .3-2.9-.3-3.7-1.7-3-2.2-.9-5.3-.3-1.5-.8-1.6-2.7-1.6-1.8-1.3-1-2-.2-2.8 1.7-1.9 2.9-1 1.8-.3-.2-3-1H432l-3.2 1.2-2.2 1.5-2.2 3-3.2 4.6-2 4-.6 3.3-1.4-.8-3.1-.8h-4l-3.8-.1-5.2 2-2 3-.2 3.2 1.5 3 1.4 2.5 1 1.4-2.3-1.4-2.8-1.3-2.9-.9-4.1-.5H388l-2 1.2-2 2.9-1.3 2.5-.5 3.4-.1 3 .6 2.1 1 1.7 1 1.6-.3 1.2-1.2 1.7-1.5 2.3-.9 1.5-.4 1.9.3 1.9.6 1.8 1.6 2 1.6 1.4 1.9.9.8 1.1.2 2.6.1 1-2.1-1.6-2.2-.5-2-.6h-1.8l-.7.1.2-1.4-.6-2.6-1.7-4.6-.9-1.2-1.6-1.1-1.9-.7-1.7.2-.8-2.5-1.4-1.6-1.2-.2-.9.4-1.2.8-1.1 1-.9.3-2.7-.6-1.4.2-1.3 1.2-.9 2.2-.2 1.4-1 .8-1.6.5-2.4 1.6-1.1 1-1 1.9-1.2-1.1-2-.7H345l-1.8.8-1.1 1-1.1.5-1 .2-1-.2-1.7-.5-1 .2-1.5.8-.5 2-.1 1.7v.3h-1l-1.7.9-1.6 1.8-1 2.2.3 3 1.4 1.1 4.3 2.7.2.1-1.8.5-1.6 1-.5 1.5.3 1.7.5 1.6 1.6 1.6 2 1.5 1.9 1 1.9.4h1.6l.5-.1v.2l-1 1.7-.8 2 .2 1.8.7 1.4 1.1 1.6 1 1-.2 2v2.6l.4 2.6 1.2 2 1.7 1.7 2 .2h2l1.9-.1 1.2.9 2 1.6h1.8l1.3-1.1 1-2.2.4-.3 2.4.6 1.2-.1 2-1 .1-.2.3.6.3 1.5.8 3.5-.4-.1H363.8l-1 .2-1.5 1-.8 2-.3 1-.5 1.5-.3 1.3.5 1 .4.2v1l.5 1.2.6.6h1.1l1.5-1.6h.5l.7-.9.5-2 .2-1.2.1-.2.2-.4.2-.6h-.1l.1-.5-.4-1.3-.3-.5 1.4.6.5 1 .9 2 .4 1.5.8 2 .4 1 .8 1.7.9 1.8 2.3-.7-2.8-4.7-.8-2.4-.5-1.8.4-.7.6-.3h.4v1.2l-.6-.3.5 1.2v.2h.1l1.2 2.7.7 1 1 .9.7.4 1 1 1.4-.5.2-1.7v-.8l.7-.3-.4-1.3-.5-1.4-.8-1-.5-.5-.2-1-1.1-.8-.8-.6-1.2-.1-1.1-.2-1.5-.1-1 1-.2-.4-.3-1.4-.6-1.8-.4-1.6-.1-.8.6.7c.3.2 1 .7 1.4.8h2.1l1.4-.5 1-.9.2.4 1.3 1h1.4l1.2-.2.4-1.1.5-2 .3-.4 1.2-.5 1-.6.7-.8.4-1.6-.3-2.2-.4-1 .3-.7.6-.2.7.1 1.8-.7 1-.8 1.2-1.7 1.2-3 .4-.5 1-.2 1.3-.5 1-.8.7-1 .4-1 1.5 1.5 2 1.4.3 1.1v3.9l.2 1.8 1.7.9 2.4.5 2.5-1 1.1-.8v.2l1.2 2 2.2 1.4 2 .6c.3 0 1 .4 1.7.5.8.1 2.3-.5 2.7-.7l2.4-1.6-1 2.5-1.6 2.8-1.9 3-1.2 2.2-.9 1.4-1.6-2.8-2.5-.5-2-.2-2-.4-1.7.6-2.1 1-1 1.6-1 .4-1.8 1.5-1.7 2.3-1 1.7.8.8-.2 1.6-.6 3 1.9 1 2-1 1.7-.4 2-1 1.6-1.3 3.5-4.4.1-.2.8-1-.7.2.1-.9.7-2.1h1.3l1 1 .6 1.8-2 3.1-2.6 4-6.8 6.5 3 1.9 2.2-2.5 2.1-2.6 1.4-1.5 2.3-3.2 1.4-2.4 2.6-3.3 1.4-1.5 3-.6.7.3-1.2 1.3-1.2 1.8v1.2h-.2l.1.9v.2l.1.7-.2 2.5-.1 3.7.8 1.6.9.2.6 1.2 1.2 2.3 1.6.6 1.2-.7 1.2-1.7.6-2 1-.1 1.1-1.5.2-2.3-.2-2.9v-1.9l-.4-3.6-1.8-2.1-2-1-2-.7-2-.6h-1.5l2-3.3 1.5-3ZM365 880l-.7 3.1-.2.3h-.5L362 885h-.3l-.2-.1-.3-.8v-1.5l-.7-.3-.1-.4.1-1 .6-1.5.1-.6h1l.6 1.3.8-.5.2-.1.4-.4.9.5-.2.4Zm-1-2.2-.7.8-.1-.2-.3-.6h-1.2l.4-.9 1-.7.9-.1h.7l-.1.7.5 1 .3.8-1.3-.8Zm8.6 9.3-.3.1-.5-1-.6-1.4 1.4 2.3Zm3-7.6.3.2.6.9.5 1.2.1.5-.4.2-.1 1.3-.1 1.1h-.2l-.7-.5-.7-.5-.8-.7-.7-.8-.6-1.4.6-.9.6.4h1.4l-.1-.9h.3Zm-2.9-2.4.9.1 1.4 1v.4l-1 .3.1.5-1-.8-.7 1v-2.4l-.6-.2 1 .2Zm15.5-44.8.7 2.3.1.2h-1.2l-1.6.3h-.4l1-1 1.3-1.4v-.3ZM368 876.6l.4 1.1-.5-1-1.1-.5 1.2.4Zm24.7-25.9-.4.7-.5.8-.8.7-1 .4-1.2.2-.9.8-1.2 3.2-1 1.5-.8.6-1.4.6-.7-.2-1.2.5-.7 1.4.5 1.3.3 1.9-.3 1.1-.4.6-.7.4-1.5.6-.5.8-.6 2.1-.2.5-.6.2h-1l-.8-.8-1.3-1.5-.5 1.2-.6.6-1.1.4h-1.8l-.9-.4-2.4-3v2l-.8-1.9-1.2.9-1.5.8-1 .2-2.7-.7-1 .8-.9 2-.9.9h-1.1l-1.7-1.5-1.6-1.1-2.1.1h-2l-1.6-.1-1.3-1.2-1-1.8-.4-2.4v-2.4l.2-2.7-1.2-1-1.1-1.5-.6-1.1-.1-1.5.6-1.7 1-1.7.4-1.9-1.8.3h-1.5l-1.5-.3-1.9-1-1.8-1.4-1.4-1.3-.3-1.3-.3-1.4.3-.9 1.1-.8 1.9-.4 2-1-2.2-1-4.2-2.6-1-.8-.2-2.4.8-1.7 1.3-1.6 1.4-.7 1.7-.1.1-2.7.4-1.6.9-.5.7-.1 1.6.4 1.3.3 1.1-.3 1.3-.6 1.1-1 1.4-.6h.9l1.6.5 2.5 2.1.3-1.5.7-1.5 1-1 1.3-.8.9-.6 1.6-.5 1.5-1.2.2-1.6.7-1.9 1-1h.9l2.8.6 1.3-.4 1.3-1.2 1-.7.6-.2.6.1 1 1 .4 1.5.5 1.9 1-.3h1.4l1.5.4 1.3 1 .8.9 1.6 4.4.5 2.4-.3 2.8 2-.6h1.4l2 .6 2 .4 2 1.6.5 1.4-.3 1.3-1 1.2-1 1-2.5 2h2.3l1.5-.4 1.5-.3h1.8l.5.7 2.9 2.1h1l.2 1.4-.1 1.6-.4 1.5-.5.8-.6.7-1.2.9v1l1 2.6.2.9v.7Zm.4-4.4v1.2h-.1l-.4-1v-.6l.8-.7.3-.3-.6 1.4Zm2.1-7 .3.2.3 1.6-.8 1.1.2-.5.2-1.8-.2-.7Zm-4-3.4h.4l1.3.4.6.7.2.6h-.2l-2.3-1.7Zm9.8 45.8-1.4 1.2-1.9 1-1.6.5-1.7.7-.8-.4.5-2.3.3-2.1-.7-.7.6-1 1.6-2.1 1.6-1.3 1-.4v.1l.9.6-.7 1.2 1 .3.3.2.6.1h.1l1.5-.4.5 1.8.8-.2-2.5 3.2Zm23.5 3.3-.2 1.9-.7.9-1.2.1-.7 2.5-1 1.4-.6.3-.8-.2-1-2-.9-1.6-.9-.2-.4-1 .1-3.3.2-2.6v-1l1.9-.6.5-.1.4.9.5.5.8 1 1.4-1.7.2-.2 2.2.6v1.5l.2 2.9Zm-9.4-13.9-1.4 2.2 3.2-.1 2 .5 1.8.7 1.6.8 1.6 1.7.3 2.6-2.4-.7-1.3 1.4-.4-.4-.8-1.5-3 .8v-.6l1-1.5 1.4-1.5v-1l-1.6-.7-3.6.7-1.6 1.8-2.6 3.3-1.5 2.4-2.2 3.1-1.4 1.5-2 2.6-1.7 1.9-1.2-.7 5.9-5.7 2.7-4.1 2.2-3.5-.7-2.5-1.5-1.5h-2.4l-1 2.9-.2 1.3-.8.2-.5-2-2.4.8-.4-.1.6-1.1-1.8-1 .7-1 1.8-.8 1.3-.5 1.8.3 2 .2 2 .4 1.5 2.5.2 2 2.3-3.4 1.2-2.3 2-3 1.6-2.8.9-2.2 1-3.3-4.7 3.2a6 6 0 0 1-2.1.6c-.6 0-1.4-.4-1.4-.4l-2-.5-1.8-1.3-1-1.6-.1-1.7-2.5 1.7-2 .9-2-.5-1.2-.6-.1-1.2V855l-.4-1.6-2.3-1.6-1.3-1.2-.4-1.4v-2.4l1.4-3.3 1.4-2-.4-2.5-1.6-1.1-.4-1.2-1-1.1-1.6-.5-1.5-.1-.5-.7-1-3-.4-3.6-.3-2.8-1-1.6-2-.9-1.5-1.2-1.4-1.7-.5-1.8-.3-1.6.3-1.5.8-1.4 1.5-2.2 1.2-1.7.7-1.9-1.4-2-.9-1.5-.5-1.8v-2.9l.6-3.1 1.1-2.4 1.9-2.6 1.6-1h2.4l4 .5 2.8.9 2.7 1.2 2.2 1.4 3 1-2.7-3.9-1.4-2.3-1.3-2.8.3-2.7 1.5-2.5 4.7-1.8 3.7.2h3.9l2.7.6 2.6 1.6.8-4.6 2-3.9 3.1-4.4 2-2.9 2-1.4 3-1 3-.2 2.6 1 1.1.7 1.6-2.7 1.7-2.5 2.3-1.5 1.4.1 1 .8 1.5 1.6 1.7 2.8 2 1.1 5.3.3 1.7.7 1.4 2.4.3 3.6-.3 3.1 1.7 2.4 2.9 1.9 1.2 1.4 2 2.3 1.3 2.2.6 3-.2 2.2 5-2.3h3.2l1.6.4 2.3 2 1.4 2 1.9 1.7 1.9 1 2.3.1h3l1.5.7 1.5 1.5v3.2l-.7 2.9-.4 1.6 2.7 1 2.3 2 1.5 3.5.7 3.7-1.7 4.3-2.2 1-8.8 2.8-3.6.6 2.5 2 3 1.6 1.8 2.1.2 2-1.2 2.5-1.4 2.2-3.1 1.8-4 1.6-3.9.8-3-.1-2.6-.8-2.6-1.1-.4 2.7 1.1 3.6.3 3.6-1 2.6-1.5 1.7-2.8 2.2-2.6 1.3-.7 4.5-1.3 4.3-1.8 4.3-2.8 2.7-3 1.7-3-.5-3.6-1-3.7-1.3-3.1 1.3-3.9 1.7-2.3-.5-1.3-2-.6-4.2-1.1-1.7h-5l-1.8-.8-2.4-2.2-1.4-1.9-2 2.4-1.3 2.8-1.5 2.9-1.6 2.8Zm297.5 71.3-2.5-2.3-2.1-.8.8-3.7v-3.8L707 930l-1.8-1h-5.3l-1.7-.9-1.7-1.5-1.4-2-2.5-2.2-2-.6H687l-3.7 1.7v-.6l-.5-3.2-1.4-2.5-2.2-2.4-1.3-1.5-2.8-1.8-1.4-2 .3-2.9-.4-3.8-1.6-3-2.2-.8-5.3-.3-1.5-.9-1.6-2.6-1.6-1.8-1.3-1-2-.2-2.8 1.7-1.9 2.9-1 1.7-.3-.2-3-1-3.3.1-3.2 1.1-2.2 1.6-2.2 3-1.5 2.1-1.2-.5-2.1-.1 1.5-3.6.7-5.6-.1-6.4v-4.2l-1-3-2.2-3.2-2.9-2.4-3.3-1h-.6l.2-2.6v-3.8l-1.4-3.6-2-1.2-1.6.1-2.7.8-3 1.4-2-.2-4.8-3.1-2.6-.7-3.3 1.7-2.8 3.6-1.5 2.9-2.5 1-3.6-.1-2.1.6-3.4.8-2.8 1.4-2.6 2.9-.4.7-2.2-4-3.1-2.5-2.2-.8-3.6.4-2.7 1-2.5.4-2-.3-2-1.2-3-2.2-2-.3-2.9.5-2.2 3.6-1.3 3.4-.3.9-2.4-.7-3.5.5-4 2.6-3.2 3.5-1.3 6 1.6 3 6.3 8.6 1.3 1.4h-1l-4-.4-3.4 1-1.8 2.3-.5 3.7-.1 3.4 1.9 4.1 2.6 4.4 3.1 3.5 3.1 2 3 1.1 1.8.4-.6 1.3-3.1 2.7-2.7 3.5-1 3.8.5 3 .9 3.2-.4-.1-2 .2-1.5.5-1.3.2-1-.1-1-.6-1.8-1.2-1.2-.2-1.7.3-1.3 2-.7 1.8-.2.3-1.1-.4-2 .3-2.3 1.4-1 1-.5-1.1-1.4-2.2-1.6-1.2-2.3-.1-3.2.2-2.3.6-2.2.9-1.3.7.6-.7 1.1-1.9 1.1-2.3-.1-2.4-1.4-2.7-4-1.8h-3l-3.1-.2-2.3.3-1.1.6-.4-2.4-1.6-3.4-2.4-3.6-1.5-2.5-1.7-1.3-2.4-1.1-2.8-.3-2.2.6-.3.1-.7-1.3-1.3-2.2-2.3-1.7-1.6.1-1 .7-1.4 1.5-1.2 2-1.1.5h-4l-1.8.6-1.3 2.1-.4 3.3.2 2-1.1 1.6-2 1.2-1.2 1.2-1.6 1.7-1.2 1.8-.5 2.7v.3l-2.5-1.3-2.9-.3-1.4.3-2.1 1.6-1.2 1.6-1.3 1-1.3.7h-1.5l-2.5-.2-1.4.6-1.6 1.5v3l.5 2.3v.5l-1.3.4-2 1.7-1.5 3-.6 3.3 1.4 4 2.1 1.2 6.8 2.5 1 .2-.4.3-2.4 1.1-1.7 2-.3 2 1 2.3 1.2 2 2.7 1.8 3.1 1.5 3 .8h2.7l2.2-.4 1-.4v.7l-.8 2.7-.3 3.1.8 2.4 1.4 1.7 2.1 2 1.8 1 .4 3.2 1 3.5 1.4 3.5 2.3 2.6 2.7 1.7 2.8-.3 2.8-.6 2.5-.7 2 1 3.2 1.6 2.5-.4 1.3-2 .6-3.3.5-.6 3.5.1 1.6-.6 2.2-1.9.4-.4.8 1 .9 2 1.2 2.5 1.2 2.3.1.2h-.9l-1.7.3-1.5.5-1.4.5-1.6 1.7-.4 3v1.4l-.2 2.4.1 1.7.9 1.3.7.1.4 1.5 1 1.4 1 .7 1.3-.3 1-1.8.4-.9.8-.2.6-1.2v-3l-.2-1.8.1-.5v-.3l.1-.7v-1l-1-1.5-.8-1h.4l2.2.5 1 1.2 2 2.7 1 2 1.8 2.6 1 1.2 1.6 2.2 1.7 2.1 2.6-1.4-5.3-5.6-2-3.2-1.4-2.5.4-1.3.8-.7h.8l.5 1.6v.6l-.7-.2.9 1v.3h.1l2.5 3.5 1.4 1.1 1.5 1 1.2.4 1.7.9 1.6-.8-.5-2.4-.1-1.3.7-.6-.8-1.5-1.3-1.8-1.3-1.3-.9-.4-.7-1.3-1.7-.9-1.3-.5-1.5.2H501l-2 .3-1.2 2-.6-.9-.9-2-1.4-2.3-1.2-2.2-.6-1.7 1.6 1.2c.3.2 1.4.7 2 .6.6 0 1.2-.2 1.3-.3l1.5-.3 1.7-1 1.1-1.6.7.5 2 1 1.8-.3 1.5-.7.2-1.5v-3l.3-.8 1.5-1 1.2-1.1.5-1.4v-2.2l-1.2-3-.9-1.4.3-1.2.7-.5h1l2.2-1.5 1.1-1.4 1-2.7.4-2.8.2-2 .6-.8 1.3-.5 1.4-1.1.4-.5 1.4 1.4 1.7 1.2 1.8.5.7.2-.2.3-1.7 1.4-1.5 1.9-.6 2 .3 1.7.6 2.2.7 1.3-1 2.2-.8 2.8-.6 3 .4 2.5 1.2 2.3 2 1 2.2.8 2 .5.9 1.5 1.5 2.4 1.9.8 1.7-.8 1.8-2 .6-.2 2.2 1.5 1.6.4 2.2-.4h.4v.8l-.3 1.7-.4 4-.4-.2-1.3-.5-1.2-.4-1.3-.2-1.8.5-1.6 1.8-.6 1-1.1 1.4-.7 1.2v1.3l.5.4-.4 1v1.4l.5 1 1.1.3 1.5-.8.6-.4.6.2 1-.6 1.2-2 .7-1.2.2-.2.3-.3.4-.5.3-.6v-1.5l-.1-.7h.1l1.2 1.2.2 1.2.1 2.5v4.2l.1 1.2.2 2.1.3 2.2 2.5.1-1.2-5.9v-2.9l.2-2.2.7-.6.8-.1.5.3-.3 1-.2.4-.5-.6.1 1.4v.2l.3 3.3.4 1.4.7 1.2.5.8.8 1.3 1.6.1.7-1.8.4-.8.8-.1v-3.2l-.4-1.4-.4-.6.1-1.2-.8-1.3-.6-.9-1.2-.5-1.1-.6-1.5-.7-1.6.8v-.6l.2-1.7v-2.1l.2-2 .3-1 .4 1.2c.2.3.7 1 1.2 1.3l1 .3 1.1.4h1.8l1.2-.5.2.5 1 1.5 1.4.6 1.4.2.8-1 1.2-2 .5-.3h1.2l-.8 2.2v2.4l.7 1.5 1.7.6 2.5-1.5 1.4-.7 1 .3 1.6-1 2.2-3.6 1.3-2.5.6-.8.7-.8-.1-.1.7-1.3v-2.5l-.2-2v-.2l1 .3 2.3 2.6.3 2.4.2 4.9-.1 3.3v4.7l.4 2.3.3 4 .4 3.8 3.8.2-2-10.8v-5.6l.2-4.4 1.6-1.5 1.6-.3 1.2 1-.7 2.5-.5 1-.5-.5.1 1.4v.2l.4 6.4.8 2.5 1.1 2.3 1.1 1.5 1.3 2.4 2.3.2 1.3-3.3.8-1.7 1.2-.2.2-2.4-.1-3.2-.7-2.6-.7-1.2.2-2.3-1.4-2.3-1.1-1.6-2-1-2-1.2-2.5-1.1-3.3 1.6v-2l.4-3V994l.5-1 .1-1.2V989l.2-.7 1-.4.5 1.2c.2.4 1.2 2 2 2.4a7 7 0 0 0 1.8.6l2 .8h3l2.3-1 .2-.3.5 1.5 1.6 2.7 2.4 1 2.2.4 1.3-1.7 2.4-3.7 1-1h2.8l1.3-.2v3.4l.2 1.8 1.7.9 2.4.5 2.5-1 1.1-.8v.3l1.2 1.8 2.2 1.5 2 .6c.3 0 1 .4 1.7.5.8.2 2.3-.5 2.7-.7l2.4-1.6-1 2.6-1.6 2.7-1.9 3-1.2 2.3-.9 1.3-1.6-2.8-2.5-.5-2-.2-2-.4-1.7.6-2.1 1-1 1.6-1 .4-1.8 1.5-1.7 2.3-1 1.7.8.8-.2 1.6-.6 3 1.9 1 2-1 1.7-.4 2-1 1.6-1.3 3.5-4.3h.1v-.2l.8-1h-.7l.1-.8.7-2.1h1.3l1.1 1 .5 1.8-2 3.1-2.6 4-6.8 6.5 3 1.9 2.2-2.5 2.1-2.6 1.4-1.5 2.3-3.2 1.4-2.4 2.6-3.3 1.4-1.5 3-.6.7.3-1.2 1.3-1.2 1.8v1.2h-.1v1.1l.1.7-.1 2.5-.2 3.7.8 1.6.9.2.7 1.2 1.1 2.3 1.6.6 1.2-.7 1.2-1.7.6-2 1-.1 1.2-1.5.2-2.3-.3-2.9v-2l-.4-3.5-1.8-2.1-2-1-2-.7-2-.6h-1.5l2-3.3 1.5-3 1.2-2.6 1.2-1.4.6 1 2.5 2.3 2.2.9 4.7.1.7 1 .6 4 1.7 2.8 3 .6 4.2-1.8 2.8-1.1 3.3 1.2 3.6 1 3.5.5 3.4-1.8 3-3 2-4.6 1.3-4.4.6-4.1 2.2-1 3-2.4 1.6-1.8 1.2-3.2-.3-3.8-1-3.6v-1.1l1.6.6 2.6.8 3.4.2 4.1-.9 4.1-1.6 3.4-2 1.6-2.5 1.3-2.8-.3-2.5-2-2.4-3.1-1.8-.7-.5 1.4-.3 9-2.7 2.6-1.3 1.9-5-.7-4-1.7-3.8Zm-172.9 72.4-.7 1.3-1.1 1.7-.4.3-.5-.2-2.2 1.1h-.3l-.2-.3v-1l.6-1.6-.7-.5v-.6l.5-1 1.2-1.4.4-.6 1 .3.2 1.7 1-.3h.2l.6-.3.8 1-.4.4Zm1.3-4.5-.5.8.2 1.2v1.1l-.6-.6-.6-.8-1 .6h-.1l-.2-1-1.3-.5.8-.9 1.3-.3 1 .1 1.2.3h-.3Zm10.3 8.1.3 1.2v2.1l-.5.1-.6 1.3-.5 1.2h-.3l-.5-1-.6-.7-.6-1-.4-1.2v-2 .1l.9-.6.5.5 1.5.6v-1h.6l.2.4Zm-2.4-4 1 .5 1 1.6v.5l-1.3-.1v.7l-1-1.3-1 .8v-.1l.3-.7.5-1.9-1.1-.8 1.6.8Zm-2.2-1h.2l-.5.1.3-.1Zm22.7-65.5 1.6.5 1.4 1 1 1.6.5 1.3.1 5.4-.3 2.7-1.3 2.8 2.1.1 1.5.6 2 1.4 1.8 1.2 1.7 2.4v1.7l-.8 1.4-1.6.9-1.4.7-3.3 1.2 2.3.7 1.7.1 1.8.3 1.6.6 2.2 1 1.2.9.4 1v1.8l-.2 1.6-.8 1.7-1 1.5-.7.7-1.5-4-1 3.7-.6 2.7-.3 3.8v1l-.5.5-.5.4.2-2.6.4-3.9.6-3.4-.3-3.7-2.2.9-3.7.6-2.1-.5-4.6-3.3-2 .9-3.1 3.6-2.6 1.2-2.4-1.1-2.4-4.3-2-3.3-4.1-1.1-3.8-1.5-3.2-1.6-1.7-3.6-.8-4.6 1-5.4 1.5-5 2.1-4.9 1 1.9 1-1.4 1.2-1.4 1.3-.6 1.9-.4 1-.3h2l1.9-.7.9-1.6 1.4-1.8 1.4-.6 1 .2 2.7 1.7 1.5.1 1.8-.8 1.3-.3h.7l.7.3.6 1.5v1.8l-.2 2.1h1Zm-48.5 20.5-.4 1-1-1.4-.9-2v-1.5l.3-1.7.3.3 1.1 1.8.6 1.1.2 1.2-.2 1.2Zm-1.8-7.3-.2-.8.9-1.2.7-1.2.1-.4 2.4 3 .3.3-2.3-.3-1.9.6Zm.8-8.4.1 1.1v1.1l-.5-.8.3-1.4Zm-26.4 66v2.7l-.3.6-.7.2-1.5 2.7-.5.1-.4-.2-.7-1.2-.5-2-1-.2-.5-.6-.1-1.5.2-2.3v-1l1.5-.4 1.3 1.6.7-.9.3-.2.5-.7 1.7.6-.1.8v2Zm14-6 .5.3 1.2 1 1.2 1.8.4.8-.5.4.3 1.8.3 1.7-.5.2-1.3-.7-1.1-.4-1.4-.8-1.2-1-1.7-2.4.4.2.5-1.4 1 .4 1.8-.5-.6-1 .6-.4Zm-9-.4 1.1-1.8 1.4-.2 1.7-.1 1.3-.2 1 .5 1.4.6.4.8-1.4.7.5.8h-.2l-1.9-.7-.4 1.6-.3-.1h-.2l-.1-1.2-.7-2.3-2-.1-1.3 1.2-.4 1.5v-1Zm19.8-40.4-1.6.6-.9 1.3-.5 4.8-.9 2.4-.9 1.2-1.8 1.3h-1l-1.4.9-.4 2 1 1.6 1.1 2.7v1.8l-.3 1-1 1-1.8 1.1-.4 1.2v3.2l-.1.9-.8.3-1.5.3-1.5-.8-2-1.6-.2 1.6-.8 1.1-1.4.9-1.4.3c-.3 0-.7.3-1.1.3l-1.5-.5-4-3 1 3 .6 1.8 1.2 2.3 1.4 2.3 1 2 1.9 3v-.2l1.6 2.7 2 3.3 4.5 4.7-.7.4-1.2-1.5-1.6-2.1-1-1.2-1.7-2.6-1.1-2-2-2.7-1.2-1.5-2.8-.8-1.5.5v1l1.1 1.2.7 1.3v.2l-2.2-.8-.6 1.3-.2.2-1-1.2-1.8.5.3-1.9 1.2-1.2 1.2-.5 1.4-.4 1.5-.4 2.7.2-1.1-1.8-2.4-4.7-.8-2.1-1.7-2.2-1.1 1.4-2 1.7-1.3.5-3.9-.2-.9 1.3-.5 3.2-1 1.5-1.7.3-3-1.5-2.4-1.2-2.8.9-2.7.5-2.4.3-2.3-1.4-2-2.3-1.4-3.4-1-3.4-.5-3.7-2-1.1-2-1.8-1.2-1.5-.7-2 .3-2.8.8-2.8-.2-2.3-2.1.8-2 .5h-2.4l-2.9-.8-3-1.5-2.4-1.5-1-1.8-.9-2 .2-1.5 1.3-1.5 2.4-1.2 2-1.5-2.8-.7-6.7-2.5-1.7-1-1.2-3.4.5-2.8 1.2-2.7 1.7-1.4 2.2-.6-.7-3.8v-2.4l1-1 1.1-.5 2.4.2h1.6l1.6-.7 1.5-1.2 1.2-1.7 1.8-1.3 1.2-.3 2.4.2 4 2.1-.2-1.9.5-2.4 1-1.6 1.6-1.7 1-1 2-1.2 1.5-2-.1-2.4.2-2.9 1.1-1.7 1.3-.4h4l1.7-.8 1.3-2 1.1-1.3.8-.6h1l1.7 1.2 1.3 2.1 1.2 2.3 1-.6 2-.6 2.3.3 2.2.9 1.4 1.2 3.9 5.9 1.5 3.2.5 3.7 2.2-1.2 2-.3 3.1.2h2.8l3.5 1.6 1.1 2 .2 2.1-1 2-1.1 1.8-2.3 3.1 2.5-.6 1.8-1 2-.8 2.2-.6 3-.2h2l1.1 1 1.4 2 .6 1.4-.1.1-.8 3.3 1 1.7.4.6-.3 1-.6 1-1.2 1.6.4 1.4.2.3-.4.6-.3 2v1.8l1 2.2 1.2 2-.4.5-1.2 1Zm25.6 40.4-1.5-1.5 1.8 1.3v2.8l-.1-1.1-.2-1.5Zm.2 6 .1-1.9v-1.1 4.1-1.2Zm0-6.3.1-1.8.2-2.3v2.8l-.2 1.3Zm.6 13.2-.2-1.3-.2-2.1v-1l.8 4.4h-.4Zm14-18.4-.8.7-1.4 2-.4.5h-.7l-1-.5-.7-1-.8-2-.9 1-1 .4h-1.2l-1-.4h-.2s-.5-.1-.7-.3c-.2 0-.5-.5-.8-.8l-1.5-3.9-.7 2.6-.3 1.2.4-2-.3-2.2-1.4.6-2 .3-1-.3-2.7-1.7-1.2.5-1.8 1.9-1.2.6-1.2-.6-1.4-2.1-1.1-1.8-2.3-.6-2.1-.8-1.7-.8-.9-1.8-.4-2.3.5-2.7.8-2.6 1.3-2.7-1-1.6-.5-2-.2-1.4.4-1.6 1.3-1.7 1.7-1.4 1-1.8-2-.4-1.5-.5-1.5-1-1.4-1.4v-.1l.7-1.7.2-1.4-.2-1.4-.7-1.4-1.2-1.8-.3-.6 1.4-.4 2.1.2 2.3-.2-1.8-1.8-2.7-3.5v-2.6l-.4-2.5v-.2l1-1.2 2-1.2 1.7-.2 1.8.5 1.2-2.8 1-1.5 1.1-.2.9.1 1.5 1 1 .7 1.6.3 1.5-.2 1.5-.6 1.7-.2.9.3 1.2 2.4-2 4.5-1.5 5.2-1 5.6.8 4.8 2 4.1 3.5 1.8 3.9 1.5 3.7 1 1.8 3 2.6 4.5 3.1 1.5 3.1-1.4 3.2-3.7 1.3-.5 4.2 3 2.5.6 4-.7 1-.4.3 2.3-.6 3.3-.4 4-.2 3.1-.5.2h-1.9l-1.4-.6-2.2-.6-2.2-.4-3 .9-2.7 3.3-1.1 1.8-2.1 2.7-1.2 2.3.1 2h-.6Zm18.7-10.4v.4l-.5-.3h.3l.2-.1Zm-8.1 3.6-1.1.4h-.4v-.3l-.2-1-2.7-1 2-2.5 2.5-.7 2 .4 2 .5-2.6 3-1.5 1.2Zm-6 2.8-.5 2.2-.7 1.1-.7.5-.8.2-.3-.3v-1.4l1-2 2-2.7 1-1.5 2.3.8.1.7h-.3l-.6-.3h-1.4l-1.2 1.2v1.5Zm7.7 2.2-1.4 2.5-2 3.5-1 .6-1-.4-1.7 1-2.2 1.2-.9-.3-.3-.8v-2l.8-2.6.5-.1.9-.7 1-1.5.5-2.5v-1.2l.6-.7h.7l.7.4h.6l.1 1.2 1.4-.4h.5l1.2-.7 1.8 2.4-.8 1Zm1.8-2.7-.4.7-2-2.6 1.1-.9 1-1.2.3 1.8v2.2Zm19.8 11.6.1 3.2-.1 1.5-1 .1-1 2.3-1 2.6-1.1-.1-1-2-1.2-1.4-1-2.2-.7-2.2-.3-5 .6.7.1.1 1.6-1.4 1 1.4.6.3.6.1 1 .4.2-1.8 1.2.1v-.1l.8 1 .6 2.4Zm-12.2-10.8 3-1.5 2 1 2 1.2 1.8.8 1 1.4 1.1 2v1.6l-2.3-.2-.1 1.5-.6-.2-1.6-2.4-1.7 1.6-.7-.8.7-1.6.9-3.2-2.1-1.6-2.4.4-2 2-.3 4.8v5.7l1.8 9.7-1.6-.1-.4-3-.3-4-.3-2.2v-4.6l.1-3.4-.3-5-.3-2.7-2.8-3-1.3-.4.2-.2.7-.3h.3l.6.2 2.9 2.2V996h.2l.9-.7v1.7l-.4 3.1v4.8l1.3-1.8Zm1.5-16-.7.3.1-.8.2-.7.5 1.2Zm26.2 2.9h-3l-1.4 1.2-2.4 3.9-1 1.1-1.4-.2-2-.9-1.4-2.2-1.1-3.3-1.2 1.6-1.9.9h-2.5l-2-.8s-1-.2-1.6-.5a7.1 7.1 0 0 1-1.5-2l-.5-1.2 1.1-.9 1.2-1.7.8-1.8.3-2v-2l-.6-1.5-1.5-1-2.3-1.2-1.8-.5-1.9-.4h-.7l1.8-.8 1.8-1 1-1.9v-2.3l-1.8-2.8-2-1.3-2-1.4-1.8-.7-1-.1.8-1.5.4-3v-5.6l-.6-1.6-1.2-1.8-1.7-1.3-2-.5v-3.2l-.8-2-1.2-.6h-1l-1.5.4-1.7.7h-1l-2.6-1.7-1.5-.4-1.9 1-1.6 2-.8 1.4-1.3.5-2-.1-3 .8-1.6.7-1.6 1.5v.1l-1-1.7-1.7-1.2-1-3.9-.4-2.8.8-3.3 2.5-3.3 3.1-2.7 1.4-2.8-3-.6-2.8-1-3-1.9-2.9-3.3-2.6-4.3-1.7-3.8v-3.2l.6-3.3 1.4-1.8 2.8-.9 3.9.5 3.3-.3-2.7-2.8-6.3-8.4-1.4-2.7 1.2-5.4 2.9-3.2 3.6-2.4 3.3-.5 3 1 .7-1.8 1.2-3.3 2-3.1 2.2-.5 1.7.3 2.8 2 2 1.3 2.5.4 2.7-.3 2.7-1.1 3.2-.4 1.8.6 2.9 2.3 3 5.5 1.2-2.2 2.4-2.6 2.5-1.3 3.3-.8 2-.6 3.6.1 3.1-1.2 1.7-3.2 2.5-3.4 2.8-1.3 2 .4 5 3.3 2.4.2 3.2-1.5 2.4-.7h1.4l1.4.7 1.3 3.1-.1 3.6-.3 3.6h1.4l3 1 2.7 2 2 3 1 2.7v4.2l.1 6.4-.7 5.2-2 4.9 3.2.1 1 .4-1.1 1.6-2 4-.7 3.4-1.4-1-3-.6h-4l-3.9-.2-5.2 2-1.9 3-.2 3.2 1.4 3 1.5 2.5 1 1.5-2.3-1.5-2.8-1.3-3-.8-4-.6H600l-1.9 1.3-2 2.8-1.3 2.5-.6 3.4v3.1l.6 2 .9 1.8 1.1 1.6-.4 1.2-1.1 1.6-1.6 2.3-.8 1.5-.4 2 .3 1.8.6 1.8 1.6 2 1.5 1.4 2 .9.7 1.2.3 2.5.4 3.7 1 3.2 1.4 1.8 2.9 2.2 1.3.1 1 .8.4 1.6-1.3 1.8-1.5 3.5v2.8l.5 1.8 1.6 1.5 2 1.4.1.6-1.3.2Zm36-32v3l-.2 2-.7 1.8-1.2 1.3-1.6 1.4-2.3.7-2.1.3-2.4-.5-2 .9-1.9 2.5-2.5 3.1-2.9 2.4-2 .8-3.4.1-1.3-.7h-2.2l-1.9 2v2.9l-.7 4.2-1.5 2.4-1 .8-.2-.9-2.2-1.5-1.3-1.3-.5-1.4V982l1.5-3.2 1.4-2-.4-2.5-1.7-1.2-1.3-.1-2.4-1.8-1.2-1.6-1-3-.4-3.6-.3-2.8-1-1.6-2-1-1.5-1.2-1.4-1.7-.5-1.7-.3-1.6.3-1.5.8-1.4 1.5-2.3 1.2-1.7.7-1.8-1.5-2-.8-1.5-.5-1.8v-3l.5-3 1.2-2.4 1.9-2.6 1.6-1h2.4l4 .5 2.8.8 2.6 1.2 2.3 1.5 3 .9-2.7-3.8-1.4-2.4-1.3-2.7.3-2.7 1.5-2.5 4.7-1.9 3.7.3h3.9l2.7.5 2.6 1.7.8-4.6 2-4 1.2-1.6 1 .4 3.5 2.7 3.4 2.2 3.1 5-.1 3.5-1.5 2.8-2.9 1.8-2.7 1.4-4.6 1.8 2.9 1 3 .1 3.2.6 3 1 4 2.2 2.3 1.7.8 2.1.1 3.7-.4 3.2-1.5 3.4-1.8 2.9-1.6 1.4-1.7 1-2.5 1-.6 2 .1 2.6Zm-31 59-1.4 1.2-1.8 1-1.7.4-1.6.8-.8-.5.4-2.2.3-2.2-.6-.6.6-1 1.6-2.1 1.5-1.4 1-.4v.2l1 .5-.8 1.3 1 .3.3.2.7.1 1.5-.4.5 1.8h.1l.8-.2-2.5 3.2Zm23.6 3.2-.2 2-.7.9-1.2.1-.7 2.5-1 1.4-.6.3-.8-.2-1-2-.9-1.6-.9-.2-.4-1 .1-3.3.2-2.6-.1-1 2-.6.4-.1.5.8.5.5.8 1 1.4-1.6.2-.3 2.2.7v1.5l.2 2.8Zm75.5-65.8-2.2 1.1-8.7 2.7-3.6.6 2.5 2 3 1.6 1.7 2.1.2 2-1.1 2.5-1.5 2.2-3 1.8-4 1.6-3.9.8-3-.1-2.6-.8-2.7-1-.3 2.6 1 3.6.4 3.6-1 2.6-1.6 1.7-2.7 2.2-2.6 1.3-.7 4.5-1.4 4.3-1.8 4.3-2.7 2.8-3 1.6-3.1-.5-3.6-1-3.6-1.2-3.2 1.2-3.8 1.7-2.3-.4-1.4-2.2-.6-4.1-1-1.6-5-.1-1.9-.8-2.4-2.2-1.3-1.8-2 2.4-1.3 2.7-1.6 3-1.6 2.7-1.3 2.1h3.2l2 .5 1.8.7 1.6.7 1.6 1.8.3 2.6-2.4-.7-1.3 1.4-.4-.5-.8-1.5-2.3.7-.7.1v-.5l1-1.5 1.4-1.5v-1.1l-1.6-.7-3.6.7-1.6 1.8-2.6 3.4-1.5 2.4-2.2 3.1-1.4 1.5-2 2.6-1.7 1.9-1.2-.8 5.9-5.7 2.7-4 2.2-3.6-.7-2.5-1.5-1.5h-2.4l-1 3-.2 1.2-.8.2-.5-2-2.3.9-.5-.2.6-1-1.7-1 .6-1.1 1.8-.8 1.3-.5 1.8.3 2 .3 2 .3 1.5 2.6.2 2 2.4-3.5 1.1-2.3 2-3 1.6-2.8.9-2.2 1-3.2-4.7 3.2c-.6.3-1.7.6-2 .6-.7-.1-1.4-.5-1.4-.5l-2-.5-1.9-1.3-1-1.5-.1-1.8-2.5 1.8-2 .8-2-.4-1.2-.6v-4.8l1.4-1.2 1.6-2.6.9-4.6v-2.6l1.3-1.4h1.5l1.2.7 3.8-.1 2.3-.9 3.2-2.6 2.6-3.2 1.8-2.3 1.5-.6 2.2.4 2.3-.3 2.5-.8 2-1.6 1.2-1.4.9-2 .2-2.3v-5.6l.4-1.4 2-.9 1.8-1 1.9-1.5 2-3.2 1.4-3.5.5-3.4v-3.9l-1-2.6-2.7-2-4-2.1-3.3-1.1-3.3-.7H638l-.3-.2 2.1-.8 2.8-1.4 3.1-2 1.7-3.1.2-4.2-3.3-5.4-3.7-2.3-3.5-2.7-1-.4 1.4-2 2-2.8 2-1.4 2.9-1 3-.2 2.7 1 1 .6 1.7-2.6 1.6-2.6 2.4-1.5 1.4.2 1 .7 1.4 1.7 1.7 2.8 2 1.1 5.3.3 1.8.7 1.3 2.3.4 3.6-.3 3.2 1.7 2.4 2.8 1.8 1.2 1.5 2.1 2.2 1.3 2.2.5 3.1-.1 2.2 4.9-2.3 3.2-.1 1.6.5 2.3 2 1.4 2 2 1.6 1.8 1 2.4.2h3l1.4.7 1.5 1.5v3.1l-.7 3-.3 1.6 2.7.9 2.2 2 1.6 3.5.6 3.7-1.7 4.4Zm148-352.9-1-.7 1-1.8.7-2.2-.8-1.4-1-1-1.8-.5-1.1-.4-.8-.7-.7-1-.4-1.5-1-1.6-1.2-.8-2.2-.6-2 .3.3-2-.4-1.7-.8-1.7-.5-1-1.3-1.6-.4-1.3.6-1.5.4-2.3-.5-2-1.1-.8-3-1.1-.6-.7-.5-1.7-.6-1.3-.6-.9-1.2-.5-2 .6-1.6 1.3-.7.7-1.5-1.1-2-.6-2 .1-1.6.5-4.4 3.5-1.8 1.9-.8 1.6-.4-.6-1.7-1-2.3-.6-2.1-.8.6-1.5.7-2.2 1.2-.5 2-1.2 1-.9 1-1.7.2-2.5-.4-2.1.1-.3.6.3 1.5.7 2 .3 2.6-.2 2.5-.7 2.1-.8 1.2-1.5 1-1.5V553l-1-1.6-1.7-1.3h.4l5.4-1 1.7-.5 1.5-2.9v-2.5l-.8-2.4-1.3-1.5-1.1-.6.7-2 .3-2.3-1-1.2-1-.8-2-.2-1.2-.2-.8-.6-.9-1-.6-1.3-1.4-1.4-1.1-.6-2.3-.2-2 .6v-2l-.7-1.7-1-1.5-.7-1-1.5-1.3-.6-1.2.3-1.6V515l-.7-2-1.3-.6-3-.6-.8-.6-.8-1.6-.7-1.2-.8-.7-1.3-.3-1.8.8-1.4 1.6-.6.8-1.7-.9-2.1-.2-2 .4-1.4.8-3.7 4-1.5 2.3-.5 1.6-.6-.4-1.7-.7-2.4-.2-2.3-.5-3.3.8-1.4 1.8-.4 2 .7 1.9.7 1.5-.5-.4-1.6-1-1.6-.6-2.4-.7-1.7-.2-1.3.6-1.5 1.6-1 1.3-.5 2-.3 2 .2 1.2.4 1.1.5 1-.2.5-1.9 2-.6.9-.4 1.2v1.2l.3 1 .8 1.5.8.9 1 .7.4.6v3.7l.3 2 .7 1.2 1.6 1.5.8.2.4.4v.8l-.7 1-1.2 1.8-.3 1.8.3 1.2.8 1 1 1 .1.5-.3 2.3v1.1l1 .7 1.5.6 1.6-.4.5-.3.6 1.1 1.2 1.1 1.2.5.9.5c.5.1 1.3-.1 1.8-.3l1-.5-.5.9-1.1 1.5-1.4 1.6-.8 1.2-.4.4-.7-1.5-1.5-.5-1.2-.2-1.2-.4-2.4.6-.7.9-.5.1-1.3.8-1.2 1.3-.8 1 .5.6-.9 2.6 1.2 1 1.4-.5 1-.2 1.3-.5 1-.6 2.3-2.2h.2v-.2l1-1-.7.1.5-1.2h.5l.5.6.1 1-3 3.7-4.7 3.5 2 1.5 1.6-1.4 1.4-1.3.9-.8 1.6-1.7 1-1.3 1.7-1.7.8-.8h1.7l-.5.5-.9 1v.6h-.2v1l-.3 1.7-.3 2.1.4 1.1.5.3.8 2.1 1 .5 1-.3.8-1 .5-1h.5l.9-.9.3-1.4V579l.2-1.1v-2.2l-1-1.4-1.1-.8-1.1-.6-1.2-.5h-.6l2.4-3.2.8-1.4.6-.5.2.3 1.3 1.6 1.2.7 2.8.5.2.5v2.3l1 2 1.8.5 1.9-.5-.9.6-1 1.2-1 2-.6 1.7v1.3l.3 1.2.3 1-.3.5-2.2 1.7-.7.7-.6 1-.1 1.3v1.2l.6 1.5.7 1 .9.8.2.7-.6 3.6v2l.5 1.4 1.3 1.7.7.3.5.5-.1.8-1 .8-1.4 1.7-.6 1.7v1.2l.8 1.2.8 1v.6l-.6 2.2-.3 1.1 1 .9 1.3.8 1.6-.2.6-.2.3 1.2 1 1.3 1.1.7c.2 0 .5.4.9.5.5.3 1.4.2 1.8.1l1-.3-.5.7-1.4 1.3-1.6 1.4-1 1-.5.4-.4-1.6-1.4-.7-1.1-.4-1.1-.6h-1.1l-1.4.2-.9.8h-.5l-1.3.6-1.5 1-1 1 .4.6-1.2 2.5 1 1 1.5-.1h1l1.4-.3 1-.5 2.7-1.8h.2v-.2l1.1-.7h-.7l.7-1.2.5.1.4.7v1l-3.7 3-5.1 2.8 1.6 1.8 1.9-1.1 1.6-1.1 1-.7 1.9-1.4 1.1-1 2-1.5 1-.6 1.6.1.1.1-.7.4-1 .9-.2.6-.1.4-.2.5-.5 1.6-.7 2.1.2 1.1.5.4.5 2.2 1 .7.8-.2 1-.8.7-1 .5.1 1-.7.5-1.4.4-1.6.3-1.1.4-2.2-.8-1.5-1-1-1-.7-1-.7-.6-.1 2.8-2.8 1-1.2.7-.5.2.4 1 1.8 1.1.9 2.6.9.2.5-.3 2.4.5 2 1.8.9 2.7-.4 1.6-.1 1.7 1.1 1.9 1.2 2 1 2.2-.6 2.2-1.2 2-2.3 1.5-2.3 1-2 1.3-.3 2.1-.9 1.2-.7 1.2-1.6.6-2.4v-2.1l.1-.3.5.4 1.4.9 2 .7 2.5.2 2.6-.3 2.3-.5 1.3-1.2 1.3-1.4.3-1.6-.7-1.8-1.6-1.5h5.9l1.8-.4 2-2.6.3-2.5-.3-2.4-1-1.8ZM774.5 577l-.9.5-1 .4-1.1.2-1 .3-.2-.1.4-1.2.4-1.3-.3-.4.3-.4 1-1.1 1-.6.4-.1.4.2-.6.8 1.4.6.8-.1.1 1h.2l-1.3 1.3Zm3.2-4.8-.8 1.8-.2.7h-.1l-.2-1.3-1.5.4.4-.6-1-.7.3-.3 1-.3.8-.2 1 .3 1.1.3h.3-1Zm-3 9.3-1 .8-.4-.2 3-2.3-1.7 1.7Zm4.9-8.9v.2l-.1-.2Zm.5 3.1-.5.6.5-.7v.1Zm7.9 3.4v1.7l-.3 1-.4.4h-.8l-.6 1.4-.6.7-.3.1-.3-.1-.8-2.2-.5-.2-.2-.5.4-1.9.3-1.5v-.4l1.1-.2.1.4.9 1.2 1-1h.1l1 .4-.1.7Zm-2.4-4.1.2-.8.7.3 1 .6.6 1v1.2l-1.1-.5h-.1l-.8.6-.4-1.1-1.7.2.6-.7 1-.8Zm-3.2-1.3-1.2 1-.4.4 1.4-1.6v-.1l1.9.2h-1.7Zm1-1.8-.9 1 .5-.6 1.2-1.4-.8 1Zm9.1 57-.9.3-1.2.2h-1l-1 .2-.2-.2.6-1 .6-1.3-.3-.4.4-.4 1.2-1 1-.4h.5l.3.3-.7.6 1.3.9h.8v1l-1.4 1.1Zm4-4.2-1.1 1.6-.3.6h-.1v-1.3l-1.6.1.5-.4-.8-.9.3-.3 1-.1h.9l.9.4 1.1.5h.2l-1-.2Zm-4.5 8.6-1.1.6-.3-.2 3.3-1.8-2 1.4Zm6.2-8 .1.2-.1-.2Zm.1 3.2-.6.4.7-.5Zm2.6-1.7-1.3.8-.5.3 1.6-1.3.1-.1 1.8.5-1.7-.2Zm4.6 6.3-.3 1.6-.4 1-.4.3-.8-.1-.8 1.3-.8.6h-.2l-.3-.1-.5-2.3-.4-.3-.1-.5.6-1.8.5-1.5.1-.4h1.2v.4l.7 1.3 1.2-.8 1 .5-.3.8Zm-1.6-4.5.2-.8.7.5.8.7.6 1.2-.2 1.1-.5-.3-.6-.4-1 .5-.2-1.2h-1.6l.6-.6 1.2-.7Zm-1.7-3.4-1 1 .5-.7 1.4-1.1-.9.9Zm-7-50.7-.5-1.2v-2.5l-.6-1.2-3-.4-1-.5-1.2-1.4-.7-1.4-1.6 1.4-.6 1 1.3-2.8-3.5 1.8-1.1.2-.7-.4-1.1-.4-1-.8-.4-1v-1.3l-1.8 1-1.2.3-1-.3-.6-.4v-.6l.3-2.3-.1-1-1.3-1.2-.6-.8-.1-.7.1-1.3 1-1.8 1.1-1.1v-1.7l-1-.9-.8-.1-1.3-1.2-.5-1-.4-1.7.1-3.8-.5-1.2-1.2-.7-.7-.7-.6-1-.2-1v-1l.2-.8.5-.7 1-1.2.9-.9.6-1.2-.7-1.3-.4-1-.2-1 .2-1.6.6-1.8.8-1.2 1.2-1.3 1-.5 1.3.2 2.2.6 1.6.7 1.4.9 1.2 1 2.4 1-1.6-3-.7-1.4-.5-1.6.3-1.5 1-1.3 2.8-.7 2 .4 2.3.3 1.5.5 1.6 1.4.9-3 1.4-2 3.5-3.9 1.2-.6 1.7-.4 1.7.2 1.4.7.8.6 1.2-1.6 1.1-1.3 1.4-.7.7.2.5.4.7 1 .8 1.9 1.2.8 3 .6 1 .5.5 1.4v2l-.5 1.9.9 1.6 1.5 1.3 1.7 2.4.5 1.3.1 1.8-.3 1.5 3.3-1 1.9.1.8.4 1.1 1.2.7 1.3 1 1.2 1 .7 1.5.4 1.8.2.7.4.7 1-.3 1.6-.6 1.7-.3 1.1 1.6.8 1.1 1.2.7 2.2v2l-1.2 2.4-1.2.4-5.3.9-2.6.1 1.7 1.7 1.6 1.2.7 1.2v1l-.8 1.4-1 1.2-1.8.7-2.4.7-2.3.2-1.7-.4-1.4-.6-1.7-1-.5 1.9.4 2.2-.1 2-.7 1.4-1 .9-1.7 1-1.7.6-.8 2.7-.9 2-2.2.1-1.7 1.5-.7 1.9.2 1-.7.3-1.7-.5-2-.8-2-1-2 .4-2.4.7-1.1-.4Zm12.6 4-.4-.5-1.2-1h.4l.8-.2.4 1.6Zm.3-3.6.5-1.4 1.2-1.1 1.3-.1-1 1.7-1.8 1.4h-.1l-.1-.5Zm52.2 33-1.5 2.1-1.4.3h-5.3l-2.6-.3 1.4 2 1.4 1.4.6 1.3-.2 1-1 1.2-1.2 1-2 .5-2.4.2-2.3-.2-1.7-.6-1.3-.8-1.5-1.2-.7 1.7v2.3l-.4 2-1 1.2-1 .7-2 .8-1.7.3-1.2 2.5-1.4 2.1-1.7 2.1-2 1.1-1.8.4-1.6-.8-1.8-1-2-1.4-2 .2-2.4.3-1.1-.6-.4-1.3.4-2.5-.4-1.2-3-.9-.8-.7-.9-1.6-.6-1.5-1.7 1.2-.8 1 1.7-2.6-3.7 1.2h-1.1l-.7-.5-1-.6-.8-1-.3-1 .3-1.2-2 .6-1.2.2-1-.6-.4-.4v-.6l.7-2.1v-1.2l-1-1.3-.5-.9v-.8l.4-1.2 1.2-1.6 1.2-1 .2-1.6-.8-1-.7-.3-1-1.4-.4-1-.1-1.8.7-3.7-.4-1.3-1-.8-.6-.9-.5-1.2v-1l.1-.9.4-.7.6-.6 1.2-1 1-.8.8-1-.5-1.5-.2-1v-1l.5-1.6.7-1.7 1-1 1.5-1.2 1-.3 1.3.4 2 1 1.5.9 1.3 1 1 1.3 2.1 1.4-1-3.2-.5-1.5v-.2l.5-.1 2-1.6 1.5-2.5h.3l2 .7 2.2.6 1.4.8 1.4 1.5 1.3-2.7 1.7-1.8 4.1-3.2 1.3-.5h1.7l1.7.4 1.3.9.6.7 1.5-1.4 1.3-1.1 1.5-.4.7.3.4.5.5 1 .5 2 1 1 3 1 .7.7.4 1.5-.4 2-.7 1.7.6 1.7 1.3 1.6 1.2 2.6.4 1.4-.2 1.8-.6 1.5 3.5-.5 1.8.4.7.5 1 1.4.4 1.4.8 1.3 1 1 1.3.5 1.7.4.6.6.6 1-.5 1.7-.9 1.5-.5 1 1.5 1 .9 1.5.3 2.2-.3 2ZM693.1 507.5l1.1 1.9 1.2 1 1.3.8 1.3.5.2.8-.2 1.4v3.2l.4 1.3 1 1.1 1.1 1 1.8.6 1.7.3 1.4-.1 1 .4 2.7 3.5 2 1.6 1.5.6 2.7.3.9-.4h1l.6.9v1.5l.3 2.6 1 1.8 1.2 1 1.6.3 1.7.2.6.5 1.5 2.4.8 1h1.5l1.9-.6 1.1-1.5.4-.8 1.5.7 2 .2 1.5-.4 1.3-.3c.5-.2 1.2-1.1 1.5-1.5l.7-1.5.3 1.5V540l.1 1.8v.9l-2-1-1.8.6-1.4.6-1.4.5-.9 1-1 1.4v1.4l-.4.5-.7 1.6-.2 2.1v1.6l1 .2.4 1 .7 2h1.8l1-1.4.8-1 1-1.3.4-1.3.6-4h.1v-1.4l-.4.4-.2-.4-.4-1.4.7-.4 1 .3 1 .8-.1 2.6-.2 3.3-1.8 6.6h2.9l.5-2.4.3-2.3.3-1.5.2-2.8v-2l.4-2.8.3-1.4 1.6-1.4h.3l-.2 1v1.6l.3.7.2.4.3.5.3.2.9 1.6 1.3 2.4 1.1.7.7-.2 2.5 1.5 1.4-.3.5-1 .1-1.5-.4-1.3.6-.5.2-1.4-.8-1.5-1.3-1.6-.7-1.3-1.7-2-2-.7-1.7.1-1.4.3-1.6.4-.8.5V537l-.2-2.4-.2-2 .2-1 .6.2 2.6.6 1.6-.3 3.1-1.6.7.3 2 2.2 2.2 1.2 2.2-.8 2-2.6 1.3-1.7 2.5-.5 2.7-.7 2.4-1 1.5-2.4.8-3-.5-3.5-.9-3.2-1-2.7.9-1.3 1-2.6.4-1.8-.5-2.2-1.7-2.4-2-1.8-.3-.5 1-.2 2-.5 2.2-1 2.4-2.1 2-2.6 1.4-2.4v-2.2l-.2-2.2-1.2-1.5-2.3-.8-2.6.1h-.4l.6-.5 4.7-5 1.2-1.7-.7-3.9-2-2.2-2.6-1.7-2.6-.6-1.5.3-.9-2.4-1.4-2.4-2-.5-1.5.1-2 1.2-1.4.7h-1.3l-1.6-.2-1.7-.7-2.5-.5-1.5.4-2.3 1.4-1.6 2.2-1.7-2-1.9-1-2.3-.7-1.4-.5H736l-1.7-.8-.9-1.8-1.6-2.2-2.3-1.2-1.7.2-3.5 1.8h-1.3l-2-1-1.7-.5-1.3-.2-1.4.7-1 2-.2 2.6v1.3h-.2l-2.2.4-2.2 1.3-1.6 1.9-.8 1.8-.6 6.6.3 3.2.8 2.1h-1.1l-2.2.7-2.5 1.5-2.5 1.2-2.7 3.2v2.6l1.1 2.1 2.1 1.4 1.9 1 .5.2h-1.3l-2.3.2-2.2.5-2.8 1.2-1.8 1-.8 1.5-.3 2.6.2 2 1 2.4Zm43.6 43.5-.5 1.2-.8 1.2-.8 1-.7 1h-.6l-.5-1.5-.6-1.5-.7-.1v-.7l.2-1.9.5-1.3.4-.5h.7v1.1l1.7-.4.7-.7 1 .9.3-.3-.3 2.5Zm1.1-8-1.6 1 .5 2.2.4.9-.3.2-1.1-1-1.2 1.4h-.2v-.8h-1.5v-.7l.8-1 .7-.8 1.2-.5 1.4-.6 1.3-.4 1 .5-1.3-.3Zm2 .7.2.1.3.4-.6-.5Zm11.8-.8 1.3 1.6.6 1.2-.1.7-.8.6.6 1.8-.1 1.2-.2.3-.5.1-1.4-.8-1.2-.7-.7.2-.5-.3-1.2-2.1-1-1.7-.3-.5 1.1-1.1.6.3.5.1 1 .4.3-1.7v-.1l1.5-.4.5.9Zm-58.5-42 .6-1.1 1.5-.9 2.7-1.1 2.1-.5 2.2-.2h2l2.7-.7-3.6-1.4-1.8-1-1.8-1.2-.9-1.6v-2l2.3-2.8 2.4-1.2 2.4-1.4 2-.6h2.4L709 480l-.3-3.1.3-3.8.2-2.5.7-1.5 1.4-1.7 1.9-1.1 2-.4h1v-2.3l.1-2.2 1-1.7.8-.3h.9l1.5.5 2.2 1.1h1.6l3.6-1.8 1.3-.2 1.7 1 1.5 2 1 2 2.1.9h2.6l1.3.5 2.1.6 1.7.9 1.4 1.6.9 1.6 2.3-3.3 2-1.3 1.1-.2 2.2.3 1.7.7 1.9.4 1.5-.1 1.6-.8 2-1 1-.2 1.5.4 1.1 1.9.7 2 .5 1.2 2.2-.5 2 .5 2.4 1.5 1.8 2 .5 3.1-.9 1.4-4.5 4.8-2.3 2 2.7.3 2.5-.1 1.8.6.9 1.1.1 1.9v1.8l-1.2 2.2-1.9 2.4-2.1 1.9-2 1-2 .5-2.2.3.9 1.8 2 2 1.6 2 .4 1.9-.3 1.5-1 2.4-1.1 1.7 1.3 3.1.8 3.1.4 3.3-.6 2.6-1.3 2-2 .8-2.7.8-2.8.5-1.6 2-1.7 2.3-1.6.6-1.6-.8-2-2.2-1.4-.7-3.2 1.8-1.4.2-2.3-.5-1.7-.7-.5 2.5.3 2 .1 2.4.1 2.3v2l2.1-1.3 1.5-.4 1.4-.3 1.3-.1 1.6.5 1 1.2-1.7.5-.2 1.2h-.3l-1.2-.7-1.5 1.5V542l.3-1.5-.5-.8-1.4.2-2 1.8-.4 1.8-.4 3v2l-.3 2.7-.2 1.4-.4 2.3-.3 1.7h-.8l1.6-5.5.1-3.5v-2.8l.3.3.1-3.4V535l-.3-1.7-.7-2.7-2 4c-.2.5-.7 1-1 1-.3.2-.8.3-1 .3l-1.4.4-1.6-.1-1.2-.6-.9-1.1-1 2.1-1 1.2-1.3.5h-.9l-.5-.6-1.4-2.4-1-.9-2-.1-1.3-.3-.8-.7-.9-1.4-.3-2.4.1-1.9-1.3-1.4-1.6-.1-.8.4-2.3-.2-1.3-.6-1.8-1.4-1.6-2-1.2-1.7-1.4-.6-1.6.2-1.4-.2-1.5-.6-1-.8-.7-.9-.4-1v-3l.2-1.5-.3-1.4-1.7-.8-1.1-.6-1-.9-1-1.7-1-2.1-.1-1.8.2-2.2Zm76 140.2.5-.7v-1l-.2-.9.4-.2.1-1-.6-1.2-.7-1-.5-.8-1.2-1.4-1.4-.5-1.1.1-1 .2-1 .3-.3.1v-3l-.3-1.2.1-.5 2 .5 1-.2 2-1 .4.1 1.2 1.4 1.6.9 1.6-.6 1.3-1.8.8-1 1.5-.3 1.8-.5 1.7-.6 1-1.7.5-2-.4-2.4-.5-2.1-.7-1.7.6-.8.6-1.7.3-1.3-.3-1.5-1.1-1.6-1.3-1.2h-.1l.4-.1 1.3-.4 1.5-.7 1.6-1.4 1.3-1.7 1-1.6v-1.5l-.2-1.5-.8-1.1-1.6-.6h-1.5l3-3.2.9-1.3-.5-2.6-1.3-1.5-1.7-1.2-1.8-.4-.9.2-.5-1.4-1-1.7-1.3-.3h-1l-1.5.8-.8.5h-.8l-1-.2-1-.4-1.8-.3-1 .2-1.5 1-1 1.2-1-1.1-1.2-.7-1.5-.5-1-.3h-1.5l-1-.5-.6-1.1-1-1.4-1.7-1-1.1.2-2.3 1.2h-.8l-1.3-.7-1-.3-1-.1-1 .4-.7 1.5-.1 1.7v.7l-1.4.3-1.5.9-1.1 1.2-.6 1.2-.3 4.5.1 2 .5 1.3h-.5l-1.4.4-1.7 1-1.6.8-1.8 2.2v1.9l.7 1.4 1.4 1 .8.4-1.5.2-1.5.3-1.9.8-1.2.7-.5 1-.2 1.8.1 1.3.7 1.6.7 1.3.8.7.9.5.7.4.1.4-.1 2.2v.8l.3.9.7.8.7.6 1.3.5 1 .2 1-.1.5.2 1.8 2.3 1.2 1 1.1.5 1.9.2.5-.2h.5l.4.4v1l.2 1.7.7 1.2.8.8 1 .2h1.2l.3.4 1 1.5.5.8h1l1.4-.4.8-1 .2-.4.8.3 1.4.2 1-.3c.1 0 .5 0 .8-.2.4-.2.9-.7 1-1l.4-.6v5.1l-1-.6-1.3.5-.9.4-1 .3-1.3 1.7v.9l-.2.3-.4 1-.2 1.5v1.2l.7.1.7 2h1.4l.7-1 .5-.6.6-1 .4-.8.3-2.5.1-.1v-.2l.1-1.3-.5.5-.2-.8.3-.2.5.2.5.4v3.8l-1.4 4.6h2.3l.3-1.8.3-1.5.2-1 .1-1.8V638l.2-1.9.2-.8.9-.8-.1.4v1.1l.2.4.2.4.3.5 1.5 2.6.9.5.4-.1 1.6 1 1-.3Zm-11.1-.3-.3.7-.5.8-.6.7-.4.6h-.1l-.3-1-.5-1h-.4v-.3l.2-1.2.3-.9.1-.2h.2v.8l1.4-.4.4-.4.6.6-.1 1.2Zm-.5-3.3-.7.9v-.4h-1v-.2l.9-1.1.7-.3.2-.1.4 1.4.2.5-.7-.7Zm2.6 7 .3-1.3-.3 1.3Zm1.2-9.7v.2-.2l.3-.2-.3.2Zm-.1-7.8-.3 1.6-.4-1.5-1.4 3a3 3 0 0 1-.6.7h-.6l-1 .3h-1l-.6-.3-.8-1-.7 1.7-.6.7-.8.3h-.5l-1.2-1.9-.7-.7h-1.3l-.8-.2-.5-.4-.5-.9-.2-1.5v-1.3l-.9-1-1.1-.1-.6.2-1.3-.1-.9-.3-1-1-2-2.4-1-.4-1 .1-.8-.1-1-.4-.6-.5-.4-.5-.2-.6v-2.9l-.2-1.1-1.1-.5-.7-.4-.7-.6-.6-1-.6-1.4V607.9l.4-.7 1-.5 1.6-.7 1.4-.3 1.3-.2h1.4l2.3-.5-2.8-1.2-1.2-.6-1.1-.8-.5-1v-1.2l1.4-1.7 1.5-.8 1.6-1 1.2-.3h1.8l-1-2.3-.1-2 .3-4.1.4-1 1-1 1-.8 1.3-.2h1V582l.5-1 .4-.2h.6l.9.3 1.4.8h1.2l2.3-1.2.8-.1 1 .5 1 1.3.7 1.4 1.4.6 1.7.1 2.2.7 1 .5 1 1 .6 1.3 1.6-2.4 1.3-.7.7-.2 1.3.2 1 .5 1.4.2h1l1.1-.6 1.2-.7h.7l.8.2.7 1.1.5 1.3.3 1 1.5-.3 1.3.2 1.5 1 1.1 1.2.4 2-.6.8-3 3.2-1.7 1.5 2.2.3h1.6l1 .3.5.6.2 1.2v1.2l-.8 1.3-1.2 1.6-1.4 1.2-1.3.7-1.2.3-1.7.2.7 1.4 1.4 1.3 1 1.3.2 1.2-.2 1-.6 1.5-.8 1.2.8 2 .6 2 .3 2.2-.5 1.7-.7 1.2-1.3.5-1.7.5-1.9.4-2.2 2.9-.9.3-.9-.5-1.2-1.4-1.1-.6-2.2 1.2-.8.1-1.5-.3-1.3-.5Zm2.8 6.6.5-.1.9-.1 1 .3.4.6-1 .2-.1.7-.8-.5-.9 1v-.6l.3-1-.3-.5Zm2.3 5.8-.3-.1-1.4-2.5-.1-.2.5-.5.2.1 1.3.4.2-1.3.7-.2.3.5.8 1 .3.8v.4l-.5.4.3 1.2v.7l-.1.2h-.2l-1.6-1-.5.1Zm-40.9-46.8-.7-2-1-1.4-3.6-3.5v-.1h-.2l-.9-1 .1.8-.8-.2-1.7-.8v-1l1.1-1 1.7-.3 2.6 2 3.3 2.7 5.2 6.7 2-2.7-2-2.3-2.1-2-1.3-1.4-2.7-2.3-2-1.5-2.6-2.6-1.3-1.3-.2-2.7.3-.6 1 1.1 1.6 1.2 1 .1v.2h1l.7-.1 2.2.3 3.4.4 1.4-.6.4-.8 3.3-1.4.7-1.5-.5-1.1-1.4-1.3-1.8-.6v-1l-1.2-1.1-2.1-.3h-2.6l-1.8-.2-3.3.2-2.1 1.5-1 1.7-.9 1.7-.7 1.9-.2 1.3-2.8-2-2.5-1.6-2.2-1.2-1.1-1.1.8-.6 2.4-2.1 1-1.9.7-4.3 1-.6 3.6-.2 2.7-1.4.9-2.7-1.2-4-.8-2.5 1.4-3 1.2-3.2 1-3.2-1.4-3.2-2.4-3-4-2.1-3.8-1.5-3.6-1-.7-2-1.9-2.8-1.5-1.7-2.6-1.2h-3.6l-3.3.6-1-.1.7-1.3 1-2.4.5-3-.4-3.9-1-3.8-1.5-3.2-2.1-1.7-2.4-1.4h-2.3L682 503l-2 2.8-.4.5-.1-1.2-1.6-8.3-.9-2.6-4.3-2-3.7.3-3.6 1.3-2.4 2-.9 2-3.2-1-3.4-.3-1.9 1.5-1 1.6-.3 3-.3 1.9-1 1.4-1.5 1.4-2 1.2-2.2 2.1-.8 1.8-.3 3.4 1.2 3.3h-.5l-3 .2-2.4 1.2-2.4 1.8-1.5 1-2 2.5-1.9 1.1-2.5-.4h-3.5l-2.8 1.3-1 2-.8 4.8-1 1.3-2.5 1.3-1.8 1.3-1 1.2-.4 1.8 1.3 2.6 2.4 2 1.4 1-.2.2-1.2 2.6-.2 3.2.6 3 1.2 2 6.3 5.6 3.5 2.1 2.9.7-1 1.2-.9 2.8-.4 3.6-.6 3.5 1.3 5 2.6 1.9 3 .5 2.8-1.2 2.4-1.1 1.2-.7-1.4 1.8-1.5 2.5-1 2.6-1 3.7-.3 2.6 1 1.8 2.4 2.2 2.1 1.3 3 .7 2.9.3 1.9-.4 1.6-.7 1.6-1 1 .5 1.3 1.2 2 1.5 1.2.9 1.7.5 1.8-.1 1.7-.5 2-1.3 1.4-1.3 1-1.7 1.1-.6h2.3l.7-.1-.3.3-1 .5-1 1.1-.5 1-.3 1.7.4 1.3-1.3.2-1.3.6-1.9 1.5-1 1.2-.8.5-1-.1h-1.7l-1.5.8-.6 1-.5 2.3-.4.6-1.2.7-1 .7-.4.6-.3 1 .6 1.4 1.1 1 .5.2-.6 1.2-.2 1.7.2 1.4.6 1 2.9 2.6 1.6 1 1 .2-.3.2-.5 1.4-.3 1.8-.3 1.7.5 2.5 1.3 1 1.5.1 1.4-.6.6-.3-.7 1-.5 1.4-.6 1.8-.2 1.3.5 1 1.1 1 1 .6 1.5.3h1.4l1-.2.8-.4.6-.4.3.1 1.5 1.2.5.4 1 .3.9-.1.8-.3 1-.7.7-.7.6-.8.4-.2 2.6-.3 1.5-.4 1-.6 1.1-1.3.1-.6.3-.3.5-.1.6.4 1.4.8 1.4.1.9-.3.7-.7.7-.8h3l.5-1 .4-1-.2-1.2-.2-.4.7-.4.9-1 .4-.8.3-.8c.2-.4 0-1 0-1.4l-.3-.4h.3l1 .8 1.2.9.8.5.2.1-1 .6-.4 1.2-.3.8-.3 1 .4 1.8.7.5v.3l.6.9 1 .9.8.6.5-.4 1.8.4.8-1-.3-1-.1-.8-.3-.9-.5-.8-1.5-1.5v-.2h-.2l-.9-.9v.7l-.5-.2v-.2l.4-.4.6-.1 2.5 2 2.5 3.3 1.4-1.8-2-2.1-.6-.7-1.2-1-.9-.7-1.2-1.1-.5-.5v-1l1 .8H706.3l2.6.2.9-.3.2-.5 1.6-.7.4-.9-.3-.7-.7-.6-.7-.3v-.3l-.7-.7-1-.1h-2.1l-1.7.2-1 .8-.6 1-.5.8-.3.8v.3l-2.2-1.3-1-.5-.2-.3 1.4-1.2.6-1 .3-2 .4-.2 1.7-.2 1.4-.8.5-1.5-.5-1.9-.2-1.1.7-1.4.6-1.6.5-1.6-.6-1.5-1-1.5-2-1-1.8-.6-1.5-.3-.2-.8-.9-1.4-.7-.9-1.4-.6-1.7.1-1.5.4.7-1.4.3-1.6v-1.9l-.5-1.8-.6-1.6-1.1-.8-1.2-.6h-1.2l-1.2 1-.8 1-.5-3.8-.2-.4.3.2 3 1.6 2.5.3 1.7-.4 1.5-1.3 1.5-1.8 1-.2 3.5.3h1.6l1-1.6.8-2.1-.7-2.3-.6-1.1h.2l1.8-1 1.6-1.9.7-1.8.7-1.4c.2-.8-.3-2.2-.4-2.6l-1.2-2.2 2.2 1 2.3 1.6 2.5 2 1.9 1.2 1 .9-2.6 1.3-.7 2.2-.4 1.9-.5 1.8.4 1.5.6 2 1.4 1 .2 1 1.2 1.7 2 1.8 1.4 1 .9-.7 1.3.4 2.7.7 1.2-1.6-.7-2-.3-1.6Zm-16.2 44.1-.4-.5.4.5Zm-2.7-8 1-.8-.8-.8.3-.6h2.3l.2.2v.6l1.1.4.4.4v.2l-1.7.8-.1.4-.3.1-2.5-.2h-.1v-.6h.2Zm-2-1.5.9-.6h.4l-.3.7.4.5-.8.4.2 1-.3-.2-.6-.7h-.4l.6-1.1Zm-.4 9.3v-.5l.7-.1.7.7.3.6.3.7v.7l.2.6v.1l-1.8-.3-.3.2-.9-.8-.4-.6v-.2l.1-.2.5.4.6-1.3Zm-.7-1.5h.1l-.6.2.1 1-.2-.2-.5.8h-.1l-.3-1.3.3-1 1.2.5Zm20.9-66.6 1.4.2h2.5l1.7.2.7.7v1.2l2.2.7 1.2 1 .2.6-.3.7-1.9.7-1.5.7-.3.8-.9.4-3-.4-2.3-.3h-1l-.3-2.2.8-.3.5-.5 1-.7-1.3-1.4-.2-.2.8-1.9Zm-36.1 29.5.9-1.3.9-.6h.6l.9.4.8.6.5 1.3.4 1.6v1.7l-.2 1.3-.5 1-.9 1.5 1.6.3 1.7-.4 1.4-.1 1 .4.4.6.8 1.2.4 1.3 2 .4 1.6.6 1.7.8.8 1.1.5 1.2-.4 1.3-.6 1.5-.9 1.6.8 3.1-.3.9-.8.5-1.7.2-1 .6-.4 2.2-.4.7-1 1-1.2.7 1 1-1.3-.5 1.3 2.7.1.7-.3.6-.3.8-.6.8-.6.3h-1.1l.7 1.5.2.8-.3.7-.2.4H694l-.8.2-.9 1-.5.5-.5.2h-1l-1.1-.7-.9-.7-1.3.2-.7.9v.5l-1 1-.7.5-1.2.3-2.8.3-.9.5-.5.9-.6.5-.7.6-.7.2H676l-.4-.4-1.5-1.2-1-.4-1 .7-.6.3-.8.2h-1.1l-1.2-.3-.9-.5-.9-.8-.2-.5.1-1 .5-1.7.5-1.2.7-1.1.8-1 1-2.3-2.6 1.7-1 .6-1.3.5-1-.1-.7-.6-.4-1.9.3-1.5.2-1.7.5-1.1 1.1-1.5-2.3-.5-1.4-.8-2.7-2.4-.4-.7-.2-1.2.1-1.3.6-1 .5-.7-2.2-1.6-.4-1 .2-.4.3-.3.7-.6 1.4-.7.6-1 .5-2.3.4-.7 1-.5h1.4l1.4.1 1.2-.8 1-1.2 1.7-1.4 1-.5 1.3-.2 1.2.2-.7-2.5.1-1.3.3-.7 1-.9.9-.6.8-.8.2-.3h1.4l3-.8 1.8-1 2.3-2.6.2-1.1.7-1h.2l1.5.7.3.8.5 3.9v2.3l1.6-1.7Zm-13-.5.2-.7.2-1.3.4-.5.6-.5h1.2l1.1.3 1 .2.5-1.3 1-.8 1.2-.6-.1.2-.2 1.2-2 2-1.5 1-2.8.8h-.7Zm39.8-7-.5-1.8-.4-1.2.5-1.6.4-1.9.5-1.7 2.5-1.2h2l-3.1-2.5-2-1.2-2.4-2-2.4-1.7-2-1-2.8-1.1 2.4 4.6c.2.6.4 1.6.3 1.9a5 5 0 0 1-.5 1.2l-.7 1.7-1.3 1.6-1.5.8h-1.6l1.3 2.5.6 1.9-.6 1.7-.7 1-1 .1-3.6-.3-1.5.3-1.7 2-1.2 1-1.3.4-2.2-.2-2.7-1.5-1.8-1.5-2.3.2v.1l-1 .1-1.8.8-1.2 1-.4.9-1.3-.4h-1.8l-1 .8-.5.8-.2 1.5-.2.9h-1.6l-2.5.1-1.6 1-1 1.7-1.3 1.2-1.7 1.1-1.5.4-1.5.2-1.3-.4-1.2-.8-1.9-1.5-1.4-1.3-1.7-.7-1.9 1.2-1.5.6-1.6.4-2.6-.3-2.8-.7-2-1.2-2.1-1.8-.8-1.5.2-2.2 1-3.6 1-2.5 1.3-2.4 1.6-2 1.2-2.8-3.9 2.3-2.2 1.1-2.7 1-2.3-.4-2.1-1.6-1.2-4.3.6-3.3.3-3.6.9-2.4 1.7-2.4-4.1-1-3.3-2-3.7-3.3-2.4-2-1-1.8-.7-2.7.2-2.8 1.1-2.4.8-1-2.3-1.6-2.1-1.7-1.1-2.2.3-1.3.7-.8 1.7-1.2 2.7-1.4 1.1-1.6.9-5 .8-1.5 2.2-1h3.3l2.8.4 2.3-1.4 2-2.5 1.4-1 2.3-1.7 2-1 2.9-.3 2 .3-1.6-4.7.2-3 .6-1.4 2-2 2-1 1.7-1.7 1.1-1.7.4-2.1.3-2.8.8-1.2 1.5-1.3 2.8.3 2.6.8 1.4.4 1.1-2.4 2-2 3.4-1.1 3.4-.3 3.7 1.8.7 2 1.5 8.2.3 3.5 2.1-2.3 1.8-2.6 2-1.4h1.8l2 1.2 2 1.4 1.3 3 1 3.6.4 3.6-.5 2.8-1 2.3-1.2 2.4 2.4.5 3.4-.8h3.2l2.3 1 1.4 1.6 1.7 2.6.9 2.5 4 1 3.7 1.5 3.7 2 2.2 2.6 1.2 2.8-.8 2.8-1.2 3.2-1.5 3.2.8 3 1.2 3.6-.7 2.1-2 1-3.7.3-1.7 1-.6 4.5-.9 1.6-2.2 2-1.8 1.2 2 2 2.3 1.3 2.5 1.7 2.4 1.6 1.8 1.4.3-3 .7-1.7.7-1.6.9-1.5 1.7-1.3h2.3l-.9 2v.1l1.2 1.2-.4.3-1.5.6.4 2.8h-.4l-1.2-1-1.3-1.4-1-.1-.8 1.5.3 3.3 1.4 1.7 2.8 2.6 2 1.4 2.6 2.3 1.3 1.4 2 2 1.6 1.7-.8 1-4.5-5.8-3.4-2.8-3-2.2-2.3.4-1.6 1.3-.2 2.3 2.5 1 1.2.3.1.7-1.9.4.5 2.2-.1.4-1-.7-1 1.6-.8-.6Zm9.8 6.2-2-.6-1.9-.4-.6.6-.8-.6-1.8-1.6-1-1.5-.3-1 .1.1.6-.8 1.1.8.4-1 .2-.2.1-.6v-.1l-.2-1.3 1.7-.4v-.7l2.5 2.4.9 1.4.6 1.8.3 1.5.6 1.6-.5.6ZM1159.1 170l2.3 2 2.3 1.3 2.3.7 1 .2-.3.5-2.3 1.6-2 2.1-.7 2.4.4 2 .8 2.4 1 1.5-1.4 2.6-1.1 3.2-.8 3.4.6 3 1.5 2.5 2.6 1.1 2.9 1 2.6.6 1.3 1.7 2 2.8 2.3.8 2.3-.8 2.3-2.2 1-.3 3 1.8 1.9.3 2.9-.4.6-.2.2 1.1-.4 2-.3 2.4-.3 2.3v.3l-.8-.5-1.7-.6-1.6-.4-1.6-.2-2.3.5-2 2-.8 1.1-1.6 1.7-.9 1.4.1 1.5.6.4-.5 1.3v1.6l.6 1 1.3.3 1.9-1 1-.3.7.2 1.2-.6 1.6-2.3 1-1.5.4-.4.6-.7.4-.7v-1.6l-.1-1h.5l1.6 1.5.2 1.3.2 3-.1 2v2.8l.3 1.4.2 2.4.4 2.5 3 .1-1.6-6.7.1-3.4.1-2.5 1.1-.8 1.2-.2.7.4-.5 1.4-.2.5-.5-.5v1.4h.1l.3 3.9.5 1.4 1 1.5.7 1 1 1.4 1.8.1 1-2 .5-1 1-.1.1-1.6v-2l-.6-1.6-.5-.7.1-1.4-1-1.4-.8-1-1.5-.7-1.5-.7-1.8-.7-2.3 1v-1l.2-1.8.1-2.5.2-2.2.4-1.6.9 1.7c.2.3.9 1.3 1.5 1.5l1.2.3 1.5.5h2.3l1.7-.6.4.7 1.2 1.7 1.8.6 1.7.2 1-1 1.7-2.3.7-.5h2l1.6-.2 1.2-.8 1.3-1.7.6-2.8v-1.5l.9-.8h1l1 .5 2.7-.1 1.7-.5 2.4-1.6 2-2 1.2-1.3 1-.4 1.6.3 1.8-.2 1.8-.5 1.4-1 1-.8.7-1.3.1-1.5V191l.3-.7 1.5-.5 1.3-.7 1.3-.9 1.5-2 1.1-2 .4-2.2-.1-2.4-.8-1.7-1.9-1.2-3-1.3-2.4-.7-2.4-.3h-1.3l.6-.3 2-.8 2.4-1.2 1.3-2 .1-2.7-2.5-3.3-2.7-1.4-2.6-1.7-2.3-.8h-1.3l1-1.9.6-3.5-.1-3.8v-2.6l-.8-1.8-1.6-2-2.2-1.5-2.4-.6h-.3V141l.2-2.3-1.1-2.3-1.5-.7h-1.4l-1.9.5-2.2.8h-1.4l-3.5-2-2-.4-2.3 1-2.2 2.3-1 1.7-1.9.6-2.6-.1-4 .9-2 .8-2 1.8-.2.3-1.5-2.3-2.4-1.5-1.6-.5-2.7.2-2 .7-1.8.2-1.4-.2-1.4-.7-2-1.3-1.7-.2-2.2.3-1.6 2.2-1 2-.2.5-1.7-.4-2.6.3-3 1.6-2.3 2.1-1 3.8 1.2 2 4.7 5.1.5.5h-.3l-3-.2-2.4.6-1.4 1.5-.4 2.2v2.2l1.3 2.5 2 2.7Zm25.9 50.7-1 1.6-1.4 2-.7.3-.7-.2-2.9 1.3-.6-.1-.2-.4V224l.7-1.8-.8-.6v-.7l.6-1.1 1.6-1.7.6-.8 1.6.5.2 1.8 1.1-.3h.4l.8-.4 1.2 1.2-.5.5Zm14.9 3.7.4.5.4 1.4.1 1.8v.7l-.7.1-.8 1.5-.7 1.4h-.7l-.7-1.2-.8-.8-.8-1.3-.4-1.3-.2-2.6.3.3 1.2-.8.7.8 1.8.5v-1h.9Zm-5.8-5.4 1.5.6 1.5.7 1.2.5.7.8.8 1.2v.6l-1.7-.1v.9l-.3-.1-1.2-1.5-1.3 1-.3-.3.4-.7.7-2.3-1.6-1-1.5.2 1.1-.5Zm-2 .9.4-.2-1 .7.5-.5Zm-35.3-57.2.4-1.9 1-1 2-.5 2.8.2 2.8-.1-2.3-2-4.6-5.1-1-1.5.9-3.1 2-1.9 2.7-1.4 2.3-.3 2.3.6 1.4-3.2 1.4-1.8 1.6-.2 1.2.1 2 1.3 1.5.7 1.9.3 2-.2 2-.7 2.3-.2 1.3.4 2 1.3 2.3 3.4 1-1.4 1.7-1.6 1.7-.7 2.5-.5 1.5-.4 2.6.1 2.3-.8 1.3-1.9 1.8-2 2-.8 1.4.3 3.5 1.9 2 .2 2.3-1 1.7-.4h1.1l1 .5.8 1.7v2.1l-.2 2.4h1.1l2.2.5 2 1.3 1.4 1.7.6 1.6.1 6.2-.5 3.1-1.6 3.2 2.6.1 2.1.8 2.6 1.6 2.4 1.3 2.3 2.8-.1 2-1 1.6-2.1 1-2 1-4 1.2 2.8.8h2.2l2.3.4 2.2.7 2.9 1.2 1.6 1 .6 1.2v2.1l-.3 1.9-1 2-1.3 1.7-1.1.8-1.2.5-2 .7-.4 1.4v3.4l-.1 1.1-.5 1-.8.8-1.2.8-1.6.4-1.6.2-1.7-.3-1.5.5-3.3 3.4-2 1.4-1.5.5h-2.5l-.9-.4h-1.7l-1.5 1.4v1.8l-.5 2.4-1 1.4-1 .6-1.3.2h-2.2l-1 .7-1.8 2.4-.7.6h-1l-1.4-.6-1-1.3-.9-2.1-1 1-1.3.5h-1.8l-1.5-.5s-.7 0-1.1-.2l-1-1-1.8-4.1-1 2.5-.4 1.8-.2 2.3v2.4l-.3 1.9v3.3l.2-.3-.1 2.9-.1 3.5 1.3 5.5h-.9l-.2-1.6-.3-2.4-.2-1.4v-4.7l-.1-3.1-.3-1.7-2-2-1.6-.2-.5.7.3 1.5v1.2l-.2.3-1.6-1.7-1.3.6h-.3l-.2-1.2-1.8-.6 1.2-1.1 1.8-.4 1.4.2 1.5.3 1.5.5 2.3 1.4v-2l.2-2.2.3-2.3.5-2.1-.3-2.5-1.8.5-2.6.4-1.5-.3-3.4-2-1.4.5-2.4 2.3-1.8.6-1.7-.6-1.8-2.5-1.5-2-3-.8-2.8-.8-2.3-1-1.2-2-.5-2.7.7-3.2 1-3 1.7-3-1.2-2-.8-2.3-.3-1.6.6-1.8 1.7-2 2.3-1.6 1.3-2-2.4-.4-2.1-.6-2.1-1.2-2.2-2-1.8-2.5-1.3-2.2v-1.8Zm690.4 565.1-1.2-2.6-3.2-2-5.1-2.1-4-1.1-4.1-.7h-3.6l-.4-.2 2.6-.8 3.5-1.4 4-2 2-3.3.3-4.2-4.2-5.3-4.6-2.4-4.4-2.7-3.9-1.4h-2.6l1.9-3.7.9-5.6-.2-6.4v-4.3l-1.2-3-2.7-3.3-3.7-2.4-4-1h-.8l.2-2.5v-4l-1.7-3.6-2.4-1h-2.2l-3.1.7-3.9 1.6-2.5-.3-6.1-3.2-3.1-.6-4 1.6-3.5 3.7-1.8 2.9-3.3 1h-4.5l-2.7.6-4.3.8-3.3 1.4-3.2 2.9-.7.9-2.8-4.2-4-2.6-2.6-.7-4.5.4-3.3 1-3.2.4-2.6-.3-2.4-1.3-3.6-2.1-2.6-.4-3.5.6-2.7 3.5-1.6 3.5-.5 1-3-.8-4.5.5-5 2.6-3.9 3.5-1.6 6.1 2 3.1 8 8.6 1.5 1.3-1.5.1-5-.4-4 1-2.2 2.3-.7 3.7-.1 3.4 2.3 4.2 3.4 4.4 3.8 3.5 3.9 2 3.8 1.1 2.2.4-.8 1.3-3.9 2.8-3.3 3.6-1.2 3.7.6 3 1.4 4.2 1.7 2.6-2.5 4.5-1.8 5.2-1.4 5.7 1 4.9 2.5 4.1 4.4 1.8 4.8 1.5 4.7 1.1 2.3 3 3.3 4.5 3.8 1.4 3.7-1.4 4-3.7 1.7-.5 5.4 3 3 .6 5-.6 1.5-.5.3 2.3-.8 3.4-.5 3.9-.3 3.9v1l-2-1.2-2.9-.9-2.7-.6-2.7-.4-3.7.8-3.3 3.3-1.4 1.9-2.6 2.7-1.5 2.3.1 2.2 1 .8-.9 2.3v2.6l1 1.3 2 .6 3-1.5 1.8-.8 1.2.4 2-1 2.6-3.6 1.7-2.5 1.6-1.7.8-1.3.1-2.6-.4-2 .1-.2 1.3.3 3 2.6.4 2.4.3 5-.2 3.3.2 4.7.3 2.4.4 4 .3 2.3.2 1.5 4.5.2-2.6-10.9.1-5.6.2-4.4 2-1.6 2.3-.3 1.5 1-.8 2.5-.7 1.2-.5-.4V800.9l.6 6.5.9 2.4 1.5 2.4 1.3 1.5 1.6 2.4 2.7.1 1.6-3.2 1-1.8 1.5-.2.3-2.3-.2-3.3-.8-2.6-.9-1.2.2-2.3-1.7-2.3-1.4-1.7-2.5-1-2.6-1.1-3-1.2-4.2 1.7v-2l.5-3.2v-4l.4-3.8.7-2.7.4-1 1.7 3.7c.1.2 1.4 2 2.4 2.4 1 .4 2.2.5 2.2.5l2.5.9h3.6l2.9-1 .4-.5.7 1.8 2 2.6 3 1 2.6.3 1.6-1.6 3-3.7 1.2-1h3.5l2.8-.4 2-1.3 2-2.6 1-4.6v-2.6l1.7-1.5h2l1.6.7 4.7-.1 2.8-.8 4-2.6 3.2-3.3 2.3-2.3 1.9-.7 2.8.4 3-.2 3-.8 2.3-1.6 1.6-1.4 1-2.1.3-2.3.1-3.2v-2.4l.4-1.5 2.7-.8 2.3-1 2.2-1.5 2.4-3.2 2-3.5.5-3.6-.1-3.9Zm-104.8 68.8-1.7 2.5-2.5 3.5-1.4.7-1.2-.4-2.1 1-2.8 1.2-1.3-.3-.4-.8v-2.1l1-2.8-1.2-1-.1-1.4 1.3-2 2.5-2.7 1.2-1.6 3.3 1 .3 2.8 1.5-.4h.7l1.5-.8 2.4 2.5-1 1Zm27 9 .1 3.1-.1 1.5-1.3.2-1.3 2.3-1.3 2.6-1.5-.1-1.3-2-1.4-1.5-1.4-2.2-.8-2.2-.4-5.2 1 .9 2-1.4 1.4 1.5.8.4h.7l1 .4.1-.7.1-1h1.8v-.3l1 1.3.7 2.4Zm76.4-70.7-1.8 3.4-2.2 2.9-2 1.4-2.2 1-3.1 1-.7 2V752.4l-.2 2-.8 1.7-1.6 1.4-2 1.3-2.8.8-2.8.3-3-.5-2.3.8-2.4 2.5-3.2 3.2-3.6 2.4-2.7.8-4.3.1-1.5-.7h-2.7l-2.3 2v3l-.9 4.2-1.8 2.3-1.7 1.2-2.5.3h-3.7l-1.7 1.2-3 3.9-1.2 1.2-2-.2-2.6-1-1.7-2.2-1.3-3-1.3 1.3-2.5.9h-3.2l-2.6-.8s-1.2-.2-2-.5a7.6 7.6 0 0 1-1.9-2l-2.7-5.9-1.2 3.4-.7 2.8-.4 3.9v4l-.5 3.2v4.6l1.4-1.6 3.8-1.5 2.6 1 2.6 1.2 2.2.8 1.2 1.5 1.5 2-.1 1.6-2.8-.2-.1 1.5-1-.3-2-2.2-2 1.6-1-1 .8-1.4 1.2-3.4-2.6-1.6-2.8.4-2.6 2-.2 4.9-.2 5.7 2.4 9.8-2.3-.1-.5-3-.4-4-.3-2.3-.1-4.6.2-3.4-.4-5-.4-2.9-3.4-3-2.2-.5-.7 1 .4 2.4v2.2l-.7.8-2.8-3-1.9 1-.6.1h-.4l-.2-1.2-.2-1-3.4-1 2.5-2.4 3.3-.7 2.5.3 2.6.6 2.7.8 3.3 2v-2.7l.4-3.8.5-3.9.8-3.4-.5-3.7-2.6.8-4.6.6-2.7-.5-5.7-3.2-2.2.7-4 3.8-3.3 1.2-3.2-1.2-3-4.3-2.6-3.3-5-1.1-4.8-1.5-4-1.7-2.2-3.6-1-4.5 1.4-5.5 1.8-5 2.7-5-2-3-1.3-4-.5-2.7 1-3.3 3-3.3 4-2.8 1.7-2.8-3.6-.6-3.6-1-3.6-2-3.8-3.3-3.2-4.3-2.2-3.9.2-3 .5-3.4 1.9-1.8 3.6-1 4.8.5 4-.3-3.4-2.9-7.8-8.5-1.8-2.6 1.5-5.4 3.6-3.3 4.6-2.4 4.2-.5 3.6 1 .9-1.8 1.5-3.3 2.4-3.2 3-.4 2.2.2 3.5 2.1 2.5 1.3 3 .4 3.3-.3 3.4-1.1 4.2-.4 2.2.6 3.7 2.3 3.6 5.4 1.4-2 3-2.7 3.1-1.3 4.2-.8 2.5-.6 4.6.1 3.8-1.2 2-3.2 3.2-3.4 3.5-1.4 2.7.5 6 3.2 3.2.3 4-1.6 3-.7h1.8l1.8.8 1.6 3.1-.1 3.6-.3 3.6h1.6l3.8 1 3.5 2.2 2.5 3 1 2.6.1 4.2.2 6.4-.8 5.3-2.7 4.9 4.1.2 3.6 1.2 4.5 2.7 4.2 2.2 4 5-.2 3.6-1.9 2.8-3.6 1.8-3.4 1.4-5.8 1.8 3.6 1 3.8.2 4 .6 3.8 1 5 2.2 2.9 1.7 1 2.1.1 3.7-.5 3.2Z"/></svg>