<svg xmlns="http://www.w3.org/2000/svg" viewBox="0 0 1920 1080"><path d="m1812 1080 86-84 1-4-2-23c-4 4 0 0 0 0l-8 7-19 21-41 42-41 41c4-4 0 0 0 0 37-36 71-75 108-111-18 0 0 0 0 0h-59c2-15 2 0 0 0 2-14 4-28 3-42-1-9-5-18-7-27-53 0-105-3-158-3-2 0-4 2-5 4-8 13-8 28-9 43l4 23-63-1-4 40 3-40 1-145v146h63s9 15 12 17c50-2 101-1 151-2-5 0-1 0 0 0l-153 2c2 4 1 0 0 0 7 13 18 23 31 30 8 5 17 9 26 11-5 10-5-2 0 0-5 12-12 23-19 34 12 0 1-2 0 0l81-1c-4-4-6 0 0 0-5-4-6-11-11-15-19-3-39 1-58-2 17 0 4 1 0 0h58l-13-16c8-1 15-3 22-6 9-5 17-11 24-18 8-9 14-19 19-29 7-12 6-27 5-40-1-11-5-21-7-31-53-3-106-2-159-4 5 0 1 0 0 0l159 3c-6-7 0 0 0 0l-16-22-40-39c-15-5-31 0-46-3 13 1 0 0 0 0 14 3 29-1 44 2-2-4-1 0 0 0-2-5-7-8-9-13l-1-5c-7-2-15-2-23-2-2 5-2 10-6 14-21 21-46 36-61 62-1 2-3 3-6 3l-24-98c-6 3 0 0 0 0l-27 13-2-18-32 14-13 7-5 2-2 1c0-3 39-95 39-95l-20 49 1 36-32 16c-3 1-6-1-10-3l-8-3 15-37 2-3 17-33 19-28 7-3 5 3 5 7v76l1-52v-25l-6-6-6-3-6 4-18 27-20 37-15 36-20-5-17-7c-4-2-7-6-12-6-2 4-5 7-5 11-2 10-3 22 3 31h42l-21 38-13 24-8 4-6 14 6-14s7-1 8-4l34-61 2-3c0-8 2-15 5-22-1 5-1 2 0 0-2 8-6 15-5 24h17l21-3 19-8-19 7-21 4h-60l5 10 2 13-3 10-5 10v23l-10 19-2 4-2 6-7-16-1-21-3-28-2-27 5 56-5 5-5 2h-5l-5-2-3 30-7 7-4 4-7 10-11 13-7 13-5 17-1 9v-9l7-17 6-14 11-12 8-10 3-4 7-6 2 6 6 9 13 8-41 82-8 14 8-14 8-15 16-32-8 16 26-51 7 3 39 19 43 25 37 20 11 7-4-2-1 10 2 12 1 8 14 17-6-6-5-6-3-5h7l42 1-2-3-23-12-23-14-16-11-1 12-7 7 2 9 12 12 6 11 3 6h-275 373l2-6-2-7-6-8-17-11-50-30 88-1-88 1-29-14-19-13-40-23 40 23 19 12 18 9 61 36 17 11 6 8 2 7-1 6h-99l-3-6-6-10-36 1-19 1v14-13h-61l8-23 8-26 6-21 10-17-10 17-5 20 37 1 55 5-17-3-40-2h-36l-8 26-9 23-7 13h-43l-5-10-17-1-2 9 1-10-16-11-10 4-8 6-18 4-24 9 24-9 17-3 9-7 11-3 16 10 16 1 6 11h42l9-13 80-1 36-3-5-5-8-6-1-10 6-6 2-13-30-15-43-26-40-19-21-12-6-7-2-9 3-30v-55l10-20 13-23 6-25v-36l-1 12 1 24-7 26-13 22 7 15 1 28 3 27 1 21 7 17 12 8 18 10 8 5 18-43-3-3-8-5-12-5-10-1 10 1 13 5 8 5 2 4 14-34 19-44-50 121 2 2 11 4 62-2v31-99l18 1-18-1 1-68 18-9s70-38 94-49c3-1 7 0 8-4 8 0 15-6 22-10 4-9 11-15 18-22l-1-3c-4-1-7 3-10 5 0-2 2-2 0 0l2-5 6-3c1-1 4-3 4-5 0-3-3-2-5-2 1-2 2-4 0-5h-6l-1 12-1 13-8 11-11 7-10 4-10 2-12-8-2-3 2 3 12 7 10-1 10-4 11-7 8-11 4-45-3-17-11-23-11-8-16-1-12 6-10 11-5 13-4 18-2 17 11-3v-13l2-12 7 4-1 2-2 5 1 3 2 1h4l4-3-1-5-2-3-5 1-7-6 7-8 6-14-5-7 5 8-1 3-5 10-7 8-2 13 1 12 25-5 2-11 10 10 5 2 4-2 1-3-1-5-1-2-3-1h-3l-2 3-1 7-9-9 6-11 2-12-2-11-6-4-9 2-4 5 4-5 9-2 6 4 1 12-1 11-6 11-2 11-25 6-13 3-13 3-8 3c5 0 2 0 0 0l25 1 37-1 6 6 8 7 9 3 3 1-12-4-8-7-5-6-24 2 2 9 11 1 13 3h19l-6 1-12-1-13-3-12-1v15l22 2 22-3-11 2-11 1-14-1-8-1 2 8 7 5 9 1 10-3 8-2 6-7 5-11 2-14 1-15-1-13-1-4-2-9-5-12-7-10-7-6-5-4-8-1-12 7 5 7 4-6 10-1 4 4 3 12-2 11-6 11-2 11 4 15-38 1 1 12 5 12 8 11s-4 9-8 11c-39 22-79 38-119 57h-3l-6-3c-21-4-38-13-58-21 12 5 2 0 0 0 16 8 49 18 49 18s9 3 13 6h3c31-14 61-27 91-42-3-25-13-48-17-73-1-11 2-21 3-32l-1-9-5-15c-5-16-2-32 0-47-4-16-9-31-19-44-2 3 2 2 0 0-8 7-8 17-7 27 3 20 10 38 14 59l2 4c5 21 7 41 14 60-3-9-1 0 0 0l-2-4-28-117v-16c0-5 6-8 7-13 1-7-2-12-2-19 0-6-3-11-6-16l-6-6-9-11c-10-18-15-38-15-59 0 11 0 2 0 0 1 11 1 22 4 32 3 8 7 15 9 23s10 11 14 18c1-16-4-5 0 0 0-22 1-46-11-66-11-4-21-11-33-12-2-1-2 2-3 4-11 12-10 28-12 43-2 12-3 25 3 36s10 22 14 34c2 8 3 16 1 24-6 30-21 57-12 87 16 25 11 56 0 82-2 5 0 11 1 16 1 4-2 7-2 10-2 6 4 11 3 17 0-2 0-3 0 0 1-6-4-11-4-17-1-1 3-3 3-5-1-5-2-10-1-15 2-18 12-35 11-54-1-7-2-15-5-22-3-5-6-10-7-15-2-8-3-16-2-25 4-21 11-41 16-61 0-24-11-45-20-67-1-21 1-42 8-62l8-11c-2-1-2 3 0 0-5-1-10-4-12-9l-8-27c5-3 10-7 12-13-6 0-2 3 0 0-9 0-18 2-27 1-6-1-11-5-16-7 4 3 3 1 0 0 3 3 8 4 12 7 18 0 38-5 54 9h3c6-3 11-7 17-9-3 2-3 1 0 0-6 1-11 6-17 9-9-3-16-9-26-9-4 4-6 10-12 12l-2-10 1 8 10 33c1 2 4 3 7 4 13 3 24 9 36 13 5 2 11-7 11-7l-2-15-5-1-4-3 4 3 4 1-5 2-4-1-2-4h-2 2l2 4h-5v-4l-4-3 4 3v3h-5l-8 1 9-1 6 1 7 1 6-2-1-8-3 1-1 2 1-2 3-1v-6l-6-1v9l-1-6 1-3-5 1v4l-2 5 2-5v-4l-4 1h-5l-1 5-2 2 2 4 1 1-1-1-2-5-1 2h-3l3-1 3-2 1-5-5 1 19-3h5l2-17 3-7 2-3c1-3 2-8 0-11-8-9-12-19-13-31-6-8-13-14-20-21 0 5 2 1 0 0 1 7-2 14-1 21 6 6 4 14 4 21-1 9-8 20-20 19 6-1 6-1 0 0 6 1 11-2 14-5l6-11-1-20 10 8-3 3 3-3-3-2 3 2h2l4 4v12l-1 6-3 4h-3l-3-1-2-6 1-8 2-8 3-3-13-12 1-20c-9-7-19-15-31-16s-24 0-36 0c8 0 0 0 0 0 11 0 22 2 32-3 7-4 13-10 18-17 3-6 7-12 5-20-29-4-57 0-86-1-4 19 15 34 31 41-5 4-2 0 0 0-4 1-7 4-11 6-18 8-26 30-25 49 1 13 6 24 14 35 4 4 7 8 12 11 7 6 13 14 18 22 3 5 3 14 4 25l-2 11-10 23-6 18-8 18-5 17-7 28v9l8 14 4 12-1 9-9 13-5 5v8l-5 3 5-3v-8l6-5 8-12 1-10-4-13-8-13-6-16-11-1-5 15-9 9-3 15 1 15 5 8 2 6 5 7 2 3 1 7 10-4-9 5-19 14-9 13-3 17 1 12 7 14 7 5 6 5 7 1 9 3 7 2-5-10-8-7 12 1 9 2 13-1-3-2h8l10 1 9-1 2-4 2-8 1-8 5 7 1-9 2-5 3-3 2 2 2 3 1 5v5l-1 6-2 3-2 2h-3l-2-2-1-3v-4l-5-6 2-8v-7l-3-8 3 8v7l-2 7-1 8-2 8-2 4-8 1-10-1-20-1-8-2-5-5 6 5 7 2 11 1 3 2 13 1 9 5 5 2-3 7 1 6h5l6 2 4 2h5l-2 3 5 1h-7l5 6-5-6-3 1 1-5-1 5-2-1-1 2 3 4-3-5 1-7-1 3-1 4v-2l-3 2-4-2 4 2 2-2-2-2-2-4 2-1 4 1 7 1h6l1 5-1 3 2 2-4 2-4 1-3-1h-3l-3-1-4-1-3-4h1l3 7 8 10-8-10-3-7-2-8-1-6 3-7 5 2 7-3 4-5-4 5-7 3-10-4-10-5-12-1-13 1-9-2-13-1 9 7 5 10 8 4 6-2 7-4-2-9 7 21 1 10 5 6 7 3-2 3-9 10-13 33 1 11 1 6 4 8 4 10 3 13-3 11-6 10v22l-11 23 11-22 1-23 5-10 2-11-2-14-5-9-3-7-1-7v-11l1-6 6-12 5-14 11-14 1 1 11 4 11 5 12 1h-3l-9-1-11-5-11-4-7-4-6-6-1-10-4-12-8 5-7 1-8-4-6-2-9-3-7-1-6-4-7-6-7-14-1-12 4-17 8-12 18-15 10-5 15-4h2l18 2 22 13 12 19 7 20-1 10 4 13-3 7 3 9-2 8 1 13-1-13 1-8-2-10 3-6-4-13 1-10-7-21-13-18-21-13-19-3-16 5-10 4-1-7-9-16-5-8-1-15 2-10-2-11-4-6-8 20-6 20-10 21-8 12-13 24 17 15 19 6-5-3-13-3-10-7-8-9-8 13 13-23 8-14 8-12 10-19 6-21 8-20-5-11-11-30-6-18-5-20-9-13-8-13-3-9 1-13 6-14 8-11 10-10 5-8-35 10-1-4v-5l1-3 1-4v-3h3l7-1-7 1h-12 9v3l-1 3-2 4 1 5 1 4h-4l-3-4-3-2h-3l-1 2-8-8h3l2-4v-3 3l-2 4h-4l9 8-1 3-2 6-1 9-2 7-5 4-11 4-4 2 14-5 1 11-1 13 2 7 2 7 16 29-3 6-16 25-12 16 12-16 7-11 12-20 3 4 4 13 1 11-4 21-5 16-8 22-3 17 2 22 12 29 3 21-3-22-12-28-1-21 2-19 8-21 6-16 3-21-1-12-4-13-9-14-10-18-2-8-3-6 2-14-1-10-6 1-4 2-1 2h-4l-11 6-3 2h-5 5l6-4 6-3 4-2 7-3 7-2 4-4 3-6 1-10 2-6 2-5h3l3 2 4 4h6l6-3 7-2 8-2 11-3 2-4 4-10 1-5-84 2-1 4h2l2 2 3-1h-2l-3-1h-2l1-4h-12l-9-1-13-2h6l6 2 10 1 96-3v-15l-52 3-37-3v-12l1-4 2-8-2 7-1 5v12h-26 8v-6l4-4 3 1 3 4 2 5 43 3 52-3-4-12-9-17-13-15-15-7-21-3-17 4-13 7-8 8-5 10-7 18-3 8-5 9 2 5 1 6 1 6 3 7-2 9-1 5 8 2 4-1-2 6-3 2h-2l1-4-1 4h3l2-2 2-5 4-1-1 5-1 6-1 3-2-1-3 2h-2 2l2-2v-3l1 3 2 2 1-4 1-6-4 3 4-3 1-5h6l-2 6v4l-3 3 4-1-4 1 3-3v-4l-3 2 3-2 2-6h10l-3 5-2 4-4 3 4-3 1-4-5 2 6-2h-1l5-6-25 2-8-2v9l1-2v4l2 4 2-1 1-1-1 1-2 1-2-4v-4l2-2 1-2-1 2-3 4v8l6 3h6l9-2 7-5 4-6 1-5v-13l-3-2 13-4 6-2-7 1-12 5-5 1-4-1-3-2-4-3-3-5 4 5 3 3 3 2 4 1 6-1 1 2 1 4v8l-1 6-4 7-7 4-9 2h-6l-3-2-3-1-1 5 3 5 5 5 6 4 2 8-1-8h5l6-4 6-4 5 11 3 11-1 9 3 2-1 9v13l-6 12-7 13-2 14 4 10 7 4 1 11-9 11-13 14-5 6-1 1 7-8 12-12 9-13-1-10-7-4-5-9 2-15 8-12 6-13v-23l-3-2-6-2-17-12-20-11-8-9-8-9-6-9-6-12-33-45-26-35 7-8-15-14-8-12-9-20 9 20 8 11 14 15 7-5 6-7 6-11 1-9v-10l-1-10-3-8-4-8-5-5-6-4-20 23-10 6-9 8-13 7-14 6 13-6 14-8 9-7 10-6 9-11 10-12-7-4-4-4v-9l-1-3h-23l-1 4-3 7-2 5-6 2-6 5-6 7-4 8-41-21s-38 68-55 86c-20 20-65 54-91 63-25 9-79 16-105 14-22-1-66-9-87-18a318 318 0 0 1-137-127c-11-22-23-72-24-97-1-19 2-56 6-74s18-54 28-71c13-21 42-63 62-78 37-27 122-67 167-72 16-2 47 3 61 8 15 5 55 27 55 27l-35-17-21 14-22 23c-11 13-33 40-43 58l-7 10c-3 11-8 19-12 28-12 27-25 51-32 85-7 36 0 88 0 88l3 15 5 20 7 17a287 287 0 0 0 28 51c11 17 32 35 50 51l17 15c24 23 34 37 39 29 1-2-5 2-5 2l-7-6-46-41s-35-31-49-51l-20-35-7-16-7-17-5-21s-6-18-6-38v-46c1-7 4-13 4-18-2-6 2-11 4-16 2-8 3-14 7-23 15-32 32-76 52-103 8-11 16-23 23-29 2-2 4-8 6-8l2-2 1-2c1-3 3-4 5-6l12-12 24-16 34 17s73 61 89 88c20 35 51 111 53 151 1 26-21 102-21 102l42 18-2 5-4 10v9l2 9 4 10 5 6 3 7-4-6-4-1-4 1-2 1 1 4 8 1h5l5 3 7 4 5 2 4 2 6 1 6 1 5-2h3l8 1-12-1-4 3 18 25 15 28 15 23 6 10 18-9-17 9 1 5 16 27 9 17 11 11 26 20 1 2 20 15-20-15 3 14v22l-1 12v34l1 5-5 8-3 2-20-24-12-14-9-10-5-6-8-1-7 1-12 11-7 9-14 17-7 10-6 6 19 22-19-21-3 4-13 17-28 34-11 12-28 37-9 11-13 13-4 5-14 10-13 3-12 4h-8l-4 2 3 2 7 2 6 2 4 1 4-1h14l12-3 15-6 7-5 6-3 3-6 1-9 1-6 2-4-5-3h-1l-4-6 4 6 6 3 18-19 17-15 8-7 13-14 37-40 33-33 7-8 4 9 8 10 12 27 20-21 1 2 4 9 9 4 8 1-8-1-9-4-4-9-1-2 5-5-24 26-19 20-13 16-14 13-2 2 7 10-7-10-5 4-9 3-4-4-3 2 2 3-1 3-10 4-7 3-9 4-7 4h-4l-2 1v3h6l7-3 4-1 3-2 3-1-3 5-5 2-6 3-4 1h-3l-1 2 6 2 5-1 5-2 8-4 2-1 3 1-5 5-3 2-3 2-2 1 3 2 3-1 2-1 2-2 9-6 3-3 10-7 11-8 15-12 10-7 12-11 9-8 10-7 32-26 20 23-19-24 37-32-69 59 8 13 32-29-32 29 8 14 12 22 9 18 11 19 2 7 20-35-1-19-16-34-3-28-2-18 1 19 4 27 8 20 8 14 1 19 12-21-32 56-7 16-7 28v17l1 18 2 39 22-1-22 1 2 22 2 19 2 86 2 18-3 7-10 1 6-18 5-8 1 11 2-1 6-2h6l2-35v-44l5 16 15 27 6 19 12 27 7 27 12 34-3-9-10-25-4-19-37 1h37l-2-9-7-15-5-12-6-18h-11l-9-1v-85l9-11 9-14 8-13 8-29 9-30 8-19v-2l8-13-9 14-6 20-10 30-8 29 21-33 13-21 4-11 2-10-7-18 17-16-7-8-6-11-15 7-22 24-15 24-11 27-2 205 6 10v7l-6 9-7 9-14 25-11 15-11 3-5-1 9-7 9-16 7-21 10-22-2-19v-27l-65 3h-68l-3-10-8-14-6-10-107-4 106 3-12-13-13-11-9-12-3-7-6-14-1-8-1-8-1-6-14-1-1 10-2 10-2 8-12 16-14 16-11 10-13 15-5 10-5 13-3 7 1 8 6 16 8 9 117-2-118 2 2 3 11 12 17 18 8 16 3 17h35v-18l5-7 10-11 17-17 11-11v-29h14l-1-6 1 6h37l1 107-1-107 55-1v108h-107v-43l1-8 106-1-106 1v-26l-11 9-17 18-10 12-5 6v18l-35 1-2-18-9-16-17-18-11-12-9-12-6-15-1-10 3-6h-30l-207 4-3-1-6-3-6-8-2-15-8-1-2 7-1 8-4 7-8 6-3 2-7 4-5 7-4-6 2-7h16-16l-5-10-5-10-19-64-10-25-3-27-7-3-8 2 3 6v7l1 3-1-3v-7l-3-6-19 14-34 22-2-59-4-6 3-3 5-6 8-6-9 6-3 5-4 4-4 4-13 32-24 29-10 10 9-10 24-29 13-31 4-5 5 6 2 60-46 22-9 2 9-2 28-14 18-8 18-11-2-26-2-27-2-18-3-4-5-7 7 11h-2l-7-1-4-4-3-3-61 83-6-1-8 6-8 6-3 1h-6l9-1 16-11h6l2 4 8 12 4 6-4 9-7 20-1 3-3 7-5 5h-21l-7-1h-9l-9-1-9-1-3-3-2-5 1-7v-13l1-6 3-3 4-6 7-2 5-1 5-3 3-1h3l3-1-3-9-4-24-3-21v-26l3-1 6 4 1 5 21-4 30-5-2 6-16-1-20 2-14 3-1 7 3 2 2 3 8-1 9 1 5-7h19l-9 3-15 4 1 5-5 5-1 1 1 2h5l6 2 3 5 3 4 6 2 9-6 9-8 24-36 2-8v-7l-2-3 4-3-3-5-2-4-1-8-11-6-8-5-9-7-5-6v-4h-4l-18-1-8 7-4 9-11 20 14 2 12-2 9-1 8-6-13 1-17 7-13-1-6 12-2 7 19-3 9-5 32-8-20 6-19 7-21 3-1 15 23-7 19-6 14-8 8 3-16 4-50 14 3-15 2-8 6-11 11-20 4-8 8-8 31 1 6-2 6-5-5-8h-7l-8 4-26-1-10 11-19 20-18 32-5 29 3 44 2 33-3-33-2-44 5-29 18-32 19-20 11-11h10l15 1 4-2-2-5-5-5-8-3-11-3-15-14-7-14-1-13 5-17 7-12 13-11 19-9h25l19 8 12 8 6 14 2 15 3 7-3 2 1 5 1 8-2 4-3 4-4 1-3-5-1-7v-7l4-5 4-1 3 3 3-2 2 5 6 7 2 5-7 12 2 12 2 5-3 5-5 6 1-2 4-4 2-5-9 2 1 4-1 4v-8l-3 1-1 4-1 3 1-4v-3h-4l-4 8 2-3 1-5-7 1v3l-2 3 2-2v-4l-3-1h16l7-2 6-1 2 9v6l-11 1-1-2-1-2 1 2 1 2-4 1h-6l-1-2v-2l-4-2 4 2 1 3-1-3 2 3h-10l5 1h10l7-1 4-1v-1l-2-2 2 2v1h4l1 7-4 10-9 4h-8l-5-9-4-7-5-9 1-15 5-4 15-10-5 5-8 2-7-4h-8l-8-1-11 1-12-2-9-4 9 4 2-5h28l8-2 3-3 2-6 1-6 1-11-1-9 1 9-1 10-1 8-2 5-4 3-7 2h-11l-10 1-7-2h-4l-7-5 4 4h3l4 1-1 6 11 2 11-1 8 1 8 1 7 3v1l-7 6-1 14 4 10 5 7 5 9-19-8-16-14 3-15-6-2-12 3 11-3 7 2-3 16 16 13 21 17 18 17 16 13 4 2h1l4-4 7 4 3 9-4-10-6-3 3-5 11-20 11-34 1-20-2-14-9-18-15-20-5-10h2l22 26 11 24 1-45-4-36-5-9-3-10 3-1 5 11v-19l-7-13-1-7 3 1 8 10 3 32 2 48v50l11-18 6-15v-18l2-6 3 4 1 20 4-7 9-10 9-10 12-5 9 1-9 2-13 13-31 43-26 58-7 25-6 16-4 10-4 4-7-2-11-11-19-17-17-13-14-7v5l2 5 3 5-4 4 2 2v7l-2 9-24 35-13 18-13 17-6-1-15 11 8-5 7-5h6l50-66 12-17 5-2 3-1 7 11 3 19 2 27 1 25 17-12 20-14 8-3 6 5 2 26 10 24 9 26 5 18 5 21 6 10 5 10-2 7 3 7v7l1 9 2 7-3-7v-16l6-7 7-5 3-2 7-6 4-7 2-9 3-5h8l1 5v10l6 8 8 6 2 4 5 9 3 10-1 12-3 7-5 8-2 4 3 5 4 3 6 4 5 7 3 8 3 10v23h-48l4-143-4 143h-41l-3-6-2-10v-7l1-8 2-8 3-7 4-5 4-5 6-5 4-3 1-3-1-3-5-9-5-1h-14l-4-2-1-5v-9l2-6 1-4 1-2 2-2 4 3 6-1 2-1-3 1-4 1-5-3-2-7h-35 35l-3-10-2-3-2-1-3-4-4-14-2-11-5-13-4-16-5-10-5-15-4-7-4-6-3-2 9-8 12-3-12 3-9 8-5 2-13 8-77 41-14 2 14-1 24-12 24-12 19-12-3 2v13l2 9 3 11 4 10h-7l-6 4-3 4 3-4 6-4 7 1 9 12 6 12 3 7 10 14 5 6 7 7 2 5-4 1-3-1-6-2-5-5-5-6h-20 20l-4-5v-1l-2-3-4-4-6-2-4 1v-1h-7l-7-7-3-10v-4l-144-6-10-160 10 160 145 5 1-8-5-11-2-11-2-17 1 10 1 7 2 11 2 7 3 4-1 13 2 11 7 6 7 1v6l-1 4v5l-1 61-35 1 2-64 21-20-21 20-170-1 44-40-44 40-1-159 34-41-40-1v-2l12-49-13 10-22 1-40-6 40 5 23-2 11-7-11 50-6 12-34 1-8-14-6-20-19-51-10-33-4-44 2-22 10-28 22-37 17-23 10-19 17 1 17 37-56-3 56 4 17 28 11 25v1l-115-2 116 2 5 18v18l-4 26-12 35H395h105l-13 31-14 57-6 13h-34l-8-15-78 2 3-130-4 130 78-2 8 15h35l5-12h41l-34 41-169 1 36-43-36 43 2-133-2 133h170v159h170l-2 63-33 1-4 7h-5l-10-2-5 5-5 7 1 8 5 8 9 7h13l8-8 2-11-6-10-7-4 4-8-7 1H501l2 7 4 4 4 4 5 4h7l7-2 6-4 3-7-1-6-69-2 4 10 8 9 11 9 10 11-10-11-11-9-9-8-4-10 215 1h12l-1 4-4 5-3 5 2-4-4 1-1 1-7 1-6 4-3 6-2 5-1 7 1 2 21-24-13 16-7 9-11 9-9 7H532l2-1 3-5 3-3 5-2h8l5 4 6 7h-43l-9-6-5-6-5-5-89-1-1-37-3-1-2-2-6-7-6-10-6-9-4-11-5-12-3-11-3-12-1-11 7 34 4 12 6 11 5 9 6 10 8 9h3l3-103-10 7-12 5-10 4-10 2-14 3 24-5 22-8 10-8-1-38-56 2 2 172 1 21 3-1 7-14 9-13 11-11 6-6 13-9-3 2-10 6-6 7-11 11-9 13-7 13-3 4 52-1 1-17-1 18h-52l-1-23-134 1h-95 96l2-11 4-10 2-9 3-15 1-20-118 2 118-2v-25h-77l-11 1-19 1h-9l-2 18-1 18-1 12-68 62 68-62 2 9 6 22 8 16 6 9 4 6 68-1 5-7 8-14-8 14-5 8h-68l-4-6-6-9-8-16-7-22-1-19 2-21 1-14v-3h10l20-1-1-300h161l38-39-35 3-20 2-3 3-22 19-3-155 12-8-12 9 3 154-81 1v-23 24l81-1 26-23 54-5-38 39-161-1 17-20-3-4-5-13v-19l6-13 7-17 3-5 6-1 4 7 4 14-3-13-5-7h-7l-3 6-6 16-5 13v20l4 12 5 7 2 4 1 6 2 2h7l1-6 1-6v-7l4-6 4-7 2-10v-8l-2-10-2-5-2-97 78 1-76-1 18-8-8-9-6-11-4-17-1-7-25-42-16-37-20-51-4-16 1-20 1-17-1-10-20-1-3-5 7-18 31-49 20-20v-8l-2-10-2-8-7-2-14-1-8-11 6 2h22l33 1 5-1 4-7 4-10 2-8-1-8-1-6-2-11 3 10 1 7v8l-2 8-4 10-4 7-5 1-11-1-10 1-11 1h-17l-6-2-7-3-3-3 13 15-13-4 14 4 11 1 7 2h15l9 2 8 2 6 2 14 3 9-5 9-13-9 12-9 6-7-1-2 4-2 9 1 13 3 10 3 7 7 9 13 11-13-11-7-9-1-6 3 1-1-6-2-3 2 3 1 5 6 1 2 1-3-4-3-3 5 7 8 2h3l-4-6-3-2-4-1 4 1 3 1 4 8h3l-1-7-3-2 3 3 1 6h3l4-1v-8l-3-1 3-6 2-6-2 6-2 6-2-2 3 3 1 8 3-1 4-2-3-6 1-10-1 10-3-1 3 1 3 5h2l-1 11v8l-4 9-10 3-12-3-12-5-9-2-11-5-7-3-8-6-3-15-5-12v-7l-6 2-10 4-6-16 4 9 1 7h-4l-6-2-4-2-4-2-8-1-5 1-5-3-9-7-10-4-8-7-7-9-7-8-4-8-1-9V89l2-12 9-14 8-9 8-9 6-7 5-3 3-3 4-5 2-4 1-5v-4l1-3 4 3 4 5 2 3 5 4 7 1h14l8-1h8l9-1 9 1 8 3 18 7 7 6 5 11 4 7 5 16 2 10 4 11-6-2v14l-2 6-5 5-5 2-5-4-1-7v-7l3-6 6-9 4-1 4 4 1 4 6 1 3 8 4 11 5 6-2 4-3 5-2 6-3-4 1-7 5-5-5 5-1 7 3 4v10l2 7 1 8-5-1-8 2-2 1 1 4-3 7 2-5 1-3-1-3h-4v8l-2 3-1 1-1-4v-4 4l1 4 1-1 2-3v-7h-8v7l-3 2h-2 1l4-1v-5l1-3-7-1v4l-2 6-1 2 1-2 1-6v-3h-3l-1 3-3 4 3-4 1-3-4-1 18 1 11-2 7-1h4l1 7v8l2 5 3 2 8 8 5 5 3 2-12 21v1l-16 12 15-5 9-4 15-18-16 18-8 4-14 5 15-13 12-20 10-9 13-14 12-11 11 6h4l10-12 25-22-4-3-5-2 5 2 4 3h1l-11 10-15 12-9 13 6 5 4 7-4-7-7-6h-4l-2 7-33 27-15 18-9 4-15 6-20 8-17 7-14 13-28 13 27-12 16-14-26 4-18 3-22-1-7 1 7-1 23 1 17-3 26-4 17-6 18-9 17-13 12-22 10-9 13-13 14-15 12-11 14-10 12-7-1-3 4-6 3-2-8 2-6 5-6 3h-4l5-12 9-11-7 2-1-3-2-2 2 2 2 3-5 1-3-4-3-1h4l2 5-7 2-5 1-2-3-1-15 8 1v5l-2 3-3 2 5-5v-5h7l-1 3-1 3 2-3v-3l3-1 1 3v4l-3 2 3-2v-5l-1-2 6-1-1 3-1 3-2 3 2-3 1-3 2-3 5-2v-8l8-2 16-2 11 1 12-4 3-6 5-10-5 10-4 6-11 3h-12l-16 2-7 2v9l-1 6-4 1-2 3 2-3 4-1-3 8-10 11-5 12-6-1-3-3-2-4v-6l2-6-2-15V72l-3-4 2-7 3-2 3-10 3 7v7l4 6 5 2 4-5V56l-2-4 5-13v9l1 12 4 10 8 3 9 2 13-1 9-4 10-9-10 9-8 4-14 1-10-1-7-5-4-8-1-12 1-10-6 13-3-4-3-1-4 3-1 6-2-4-1-4 3-10 3-7 3-6 6-6 15-10 9-3 13-3 14-1 11 2 12 4 7 4 6 5 4 6 4 10 3 9 1 10 1 8-1 15-4 8-10 14-14 15-6 5-9 7 2 8-4 10-5 11v12l2 16 2 13 5 16 3 9 4 13-4-1-6 5 2-1 4-3h5l4 9-2 4-5-2-2 10-5 9h-2l-2 1 2-5 1-3 1-1-1-10v-6l-1-6-2-5-5-10-6-13-2-13-3-9-3-4-1-9-3-1-2 7 1 8 2 10v13l1 7 3 10 3 7 1 5-2 7-4 8-1 7-2 4-4 5-4 1v-4l3-4 2-4v-22l1-3 11 5-11-5-2-7-2-7-2-9-1-11-2-10-2-11v-14l13-16 4 1-1 7v6l-1 11 1-17 1-7 8-1 3-1 5-15-5-3-4-3 11-10 8-12 8-13-6 3-8 5-5 1-9-3-2-3 2 3 9 3 5-1 8-4 6-4 7-17 6-11-9 10-1 3-16 19 12-13 3-6 2-3 10-12 9-9 5 3 4 7v7-6l-5-8-4-3-10 9-6 13-6 17-9 14-8 10-11 11-5-5-8-1 3-6 4-13 2-14-2 14-4 12-4 7 8 2 5 3 5 4 4 4 1-1 7-4-8 5-2 7-3 7-6 2-9-1-17 22-5 5-6 8-7 10-17 20-3 5v8l-2 22-1 27h-15 15l-3 24-4 37v23l7-5 16-7 5-2-2 15 7 11 7 13-7-12-7-12 3-15 6-3 13-5 15-7 14-4 17-9 10-4 8-2 7 1 3 5v7l-1 10-15 27-8 17-20 39-8 19-11 27-9-2-9-10 8 10 10 3-14 23-9 18-12-5-22-19-5-10-2-19 1-38 3-1 27-19 36-24 14-10 4 1-1 6-7 11-17 43-12 27-13 31-7 20-11-8-10-11-5-10-3 1-15-1h18l-2-18 1-45v-9l-13-1h14l2-37-3 46-1 46 2 18 5 10 10 11 12 9 12 6 4 4 5 2 5 4 2 4-2 3h-5l-7-1h-5l-4 1-13-9 6 3 7 7 4 10-18 12-6 11-2 4-8-4 8 4 3 5 3 8-1 9v11l1 11 1 5 2 6 3 8 2 4 3 5 1 3-3-1h-3l-4-2-2-2-2-2-3-8-3-4-1-5-1-4-2-10-4-5-2-4-6-7-3-3-1-7v-5l3-4 7-4 4-2 1-5 8-21 3-7 4-7 1-3-3-5-8-7v37l-1-37h-6l-5-4-9-4-7-5-4-5v-2l1-4 5-3v-4l2-8v-16l1-13v-10l1-54-8 5-9 60 10-61 2-10-16-8-14-4-13-4 27 7 16 9v-16l5-16 5-42 7-28 5-31-21 22-12 8-10 9h-3l-11-22-6-7 6 7 11 22-56 27 29-14 3 79-19 9-10 1-16 4-25 2 10-2h15l16-4 10-1 19-9-17 52 17-51 19-64 8-29 10-9 13-9 20-23-5 33-7 29-4 40-3 93-6 6-6 3-3 3-2 11-2 12-3 10-1 10-3 7-1 3 25 2-26-2-4 5-6 4h-11l-10-2h-4" style="fill:none;stroke:#000;stroke-miterlimit:10"/></svg>