<svg xmlns="http://www.w3.org/2000/svg" viewBox="0 0 1920 1080"><path d="m1812.4 681.5-.3-4.2-2-4.3-2.5-3.9-1-.4 1-2.4.4-6.3v-3.5l-1.1-3.4-1.9-2.1-2.6-.8-3.8-.2-4.4-1.1-3.8-2-3.7-2.9-4.9-4.5-2-1.6-3-1.2h-2.8l-3 1-2.2 2.2-1.6 3-.1.2-.9-1-4.4-1.7-6-.6h-5.4l-5 1-4.2 2.6-5.3 3.5-5.3 3.6-4.2 4.2-2.3 4.8-.4 4.9.2 1.3-3 1.6-2.8 2.9-3.2 5.5-2.6 6-1.4 6-.7 4 .3 2.5.3 5.7 1.2 6.9 3.5 3.7 4.3 3 4.9 1.6.7.3-1.3 2.4-1.6 3.8.2 5.3 1.4 4.2 2.8 5.2 4 3.6 5.8 3 3.6.1 6.1-.8 7.2-1 5.4-1.7h.7l-1.2 5v5l-1.3 7-1.9 6.3-1 6.1-1.8 6.1-1.1 5.8-.1.3-.8-3-2.1-3.6-5.2-5.8-2.7-1h-1.8l-4-.1-5.8 1-9.1 3.4-5.8 4-4 4.9 3.4 1.5h1.7v2l.2 2 1.4 1-1.5 2.8.4 4 3.6 1.7 4.1-.6h.8l-.7 1.7 3.3 1.4 2.8-1 5.4-4 3-3.4 3-6.6 1.7-4 1-3.3v-.8l1.4 1.7.6 4.4.8 9.8.3 6.3.2 9.3-1.3 5.6.8 5.1 8.2.2.2-9-1-7.4 2-7 2.4-10 4-18.4 1.7-10.6.6-13.5.2-1.3 4.7 2 7.2 1 5.3-.4 7.8-2.7 5.2-4.4 3.5-5.7 1-6.3-.8-6.2-3-5.4-.4-.5 4.9-2.7 3.2-2.8 4.7-4.7 2.5-5.3 1.8-4.6.3-5-.1-5.3Zm-70.8 97.6-4.5 10.3-2.8 3.3-5.2 3.8-2.4.9-2-.9.8-2-2.2-.2-4 .6-2.8-1.3-.3-3.1 1.7-3.3-1.7-1.3-.2-1.4.1-3.2-2.6.2-1.9-1 3-3.6 5.5-4 9-3.4 5.7-.9 3.5.1.3 3.4 4 2.2v1.7l-1 3Zm22-37.4-.7 13.5-1.8 10.5-4 18.4-2.2 10-2.2 7.2 1.1 7.5-.2 8-6.3-.2-.7-4.1 1.2-5.5-.1-9.5-.3-6.3-.8-9.9-.6-4.7-2.5-3-1.6-.9-2.2-1.3-.4-2.7h1l2.2.8 5 5.6 2 3.4 1.6 6.2 1.2-3.6 1.2-5.8 1.7-6.2 1-6.1 2-6.2 1.2-7.2v-5l1.3-5 1.5.5 1.5.2-.2 1.4Zm47.7-50.2-1.7 4.6-2.4 5-4.6 4.6-3 2.7-5.9 3.1 1 1.5 3 5 .7 6-1 5.9-3.2 5.4-5 4.2-7.5 2.6-5 .4-7-.9-5-2.1v-.2l-2.2-.2-1.5-.4v-.2h-2.1l-5.6 1.7-7 1-6 .8h-3.3l-5.4-3-3.8-3.2-2.8-5.1-1.3-3.9-.2-5 1.5-3.5 1.9-3.5-6.6-2.1-4.2-3-3.2-3.4-1.1-6.5-.3-5.7-.3-2.5.7-3.8 1.3-5.9 2.6-5.7 3-5.4 2.6-2.7 3.6-2-.4-1.8.4-4.4 2.1-4.5 4.1-4.1 5.2-3.6 5.3-3.5 3.9-2.5 4.8-1h5.3l5.8.7 4 1.5 1.8 2.3.7-2 1.5-2.6 1.9-2 2.7-1h2.4l2.6 1.2 2 1.4 5 4.6 3.7 3 4 2 4.6 1.2 3.8.1 2.2.8 1.5 1.7 1 3 .1 3.4-.4 6-1.3 3.2 1.6.7 2.3 3.6 1.9 4 .3 4 .1 5.3-.3 4.7ZM1563 198.4l-1-2.2-1.3-1.5.3-.4.7-2.9-.3-3-1.6-3.4-2.1-3-4-5.1-2.6-1.7-3.2-1-3.4-.8h-2.8l-.4.3-.3-1.7-.8-1.6-1.5-1.4-1.6-.6-2 .1-1.6.5-1.7.8-.3-.6-.4-.5 4.9-2.7 3.2-2.8 4.7-4.7 2.5-5.3 1.7-4.6.4-5-.1-5.3-.4-4.2-2-4.4-2.5-3.8-1-.5 1-2.3.5-6.3v-3.6l-1.2-3.3-1.9-2.1-2.6-.9-3.8-.1-4.3-1.2-3.9-1.9-3.7-2.9-4.9-4.6-2-1.5-3-1.3h-2.7l-3.1 1.1-2.2 2.2-1.6 2.9-.1.3-.8-1.1-4.5-1.6-6-.7h-5.4l-5 1-4.2 2.7-5.3 3.4-5.3 3.7-4.2 4.2-2.3 4.8-.4 4.8.3 1.3-3.1 1.6-2.8 3-3.2 5.5-2.6 5.9-1.4 6-.7 4 .3 2.5.3 5.8 1.2 6.8 3.5 3.8 4.3 3 4.9 1.6.7.3-1.3 2.4-1.6 3.8.2 5.3 1.4 4.2 2.8 5.2 4 3.6 5.8 3 3.6.1 6.1-.8 7.2-1 5.4-1.7h.7l-1.2 5v5l-1.3 7-1.9 6.3-1 6.1-1.8 6.1-1.1 5.8-.1.3-.8-3-2-3.6-5.3-5.8-2.7-1h-1.8l-4-.1-5.8 1-9.1 3.4-5.8 4-4 4.9 3.4 1.5h1.7v2l.2 2 1.4 1-1.5 2.8.4 4 3.6 1.7 4.1-.6h.8l-.7 1.7 3.3 1.4 2.8-1 5.4-4 3-3.4 3-6.6 1.7-4 1-3.3v-.8l1.4 1.7.6 4.4.8 9.8.3 6.3.2 9.3-1.3 5.6.8 5.1 8.2.2.2-9-1-7.4 2-7 2.4-10 4-18.4 1.7-10.6.6-13.5.2-1.3 4.7 2 2.3.4 1.2 2.5 1.2 2 2.1 2.4-2.8 2.4-1.7 3.4-.7 3.7.8 3.9 2 3.5 3.9 3 2.8 1.3 4.3 1 2.7-.3-2.4 8.1-1 6.2-1.4 10.9-.7 6v4.2l-2.2 3.9-1.6 5.2 5 1.5 1.4-2.8.4-3.3 1.9-5.1 1.4-3.4 2.3-5.3 1.1-2.3.6-.3v2l.5 6.7 1 2.5 2.1 3.3 1.6 1.2 2.3-.1v-1l2.3 1.2 2.5-.3 1-2.3-.2-1.7.8-.3.6-1.1.3-1 .8.4 2.4-.3-1.2-3.6-2.5-3.4-4.3-3.7-3.2-1.7-2.2-.7-1-.4h-1.7l-4.1 2.3-1.8 1.5-.6 1 .4-2.9.2-3.6.6-3.7.1-3.7.7-4 1-2.8.2-2.8 2.8 2 3.7 2 3.3 1.6 2 .6 3.7-.6 3-1.1 2.7-2.6 1.5-1.9 1.2-3-.2-2.5-.2-1.4 3.3.1 3-.9 2.7-1.4 2-3.7 1.3-3 .6-1.4.4-2.4.4-3.7-.3-3.7-.6-3.6Zm-85.5 37.5-4.5 10.3-2.8 3.3-5.2 3.8-2.4.9-2-.9.8-2-2.2-.2-4 .6-2.8-1.4-.3-3 1.7-3.3-1.7-1.3-.2-1.5.1-3h-2.6l-1.9-.9 3-3.6 5.5-4 9-3.4 5.7-1 3.5.2.3 3.4 4 2.2v1.7l-1 3Zm22-37.4-.7 13.5-1.8 10.5-4 18.3-2.2 10.1-2.2 7.1 1.1 7.5-.2 8-6.3-.2-.7-4 1.2-5.6-.1-9.4-.3-6.4-.8-9.8-.6-4.7-2.5-3-1.6-.9-2.2-1.4-.4-2.7h1l2.2.9 5 5.6 2 3.3 1.6 6.2 1.2-3.5 1.1-5.9 1.8-6.1 1-6.1 2-6.2 1.2-7.3v-4.9l1.3-5 1.5.5 1.5.1-.2 1.5Zm8-9.1-.8 2.8v3l.4 3.3-1.5-.1-5-2.1v-.2l-2.2-.2-1.5-.5v-.1h-2.1l-5.6 1.7-7 1-6 .8h-3.3l-5.4-3-3.8-3.3-2.8-5-1.3-4-.2-5 1.5-3.5 1.9-3.4-6.6-2.1-4.2-3-3.2-3.4-1.1-6.6-.3-5.7-.3-2.4.7-3.8 1.3-6 2.6-5.7 3-5.3 2.6-2.7 3.7-2-.5-1.8.4-4.5 2.1-4.5 4.1-4 5.2-3.6 5.3-3.5 3.9-2.5 4.8-1h5.3l5.8.6 4.1 1.5 1.7 2.4.7-2 1.5-2.7 1.9-2 2.7-1h2.4l2.7 1.2 2 1.5 4.8 4.6 3.8 3 4 2 4.6 1.2 3.8.1 2.2.7 1.5 1.7 1 3 .1 3.5-.4 6-1.3 3.1 1.6.8 2.3 3.5 1.9 4 .3 4.1.1 5.2-.3 4.8-1.7 4.6-2.3 5-4.7 4.6-3 2.7-5.8 3.1 1 1.5.3.4-.9.4-2.6 1-2.3.2-2.7-.1-2-.7h-1.8l-1.4.7-1.3 1.7-.8 2.1-.2.6-.4-2-1.8-9.2-1-6.3-1.3-4-1.1-2.4v-1l.6-.8 1.2.7 1.3 3 2.3 2.1 2 3.4 2.8 2.2 2.5.3.3-1.8v-1.5l.9-.6 2-.3 2-1.8-2.1-.8-.3-.7.8-.7 1.8-.8 1.3-.3 1.3-1 .3-1.4-1-1.4-.7-1.6.2-1.3 1-1 .9-1.4-1.2-1.6-1.1-1.3.7-2.7-1.3-1.5-11 1-5.7 1-4.5 1.5-.8-.4-1.6-.4-1.7-.2-1.7-2.1-.8-1.9-.8-2.6-1.4-2.4-1.6-3.3-1.4-2.5-1.6-2-2-1.3-2 .7-3.3.7-1.4 1.6-.3 1.6-.4 1.5-.4.5-1.6.4h-2.7l-2.9.3-1.8.8-.7 2.2.9 1.3.4 3.3 1 3.2.6 3 1.5 2 1.5 1.1 6.8.1 2.7-.4h3.3l2.1.3 1.2.2v1.7l-1.4.3-3.9.8-3.5 1.3-4.9 1-3.4 1.2-3.5 1.6-1.2 1.8-.8 2.5-.8.2-1.3 2.7 1.4.6 2 1.5.6.3-.5 1.2.3 2 2.2.7 2 .9 2.3 1 1.4 1 .9 1 1.4 2.7 1.7-.3 2.2-2.2 2-2.4 1.4-2 3-4.8 2.3-3.6 1.6-3 .6-1.6h.4l.6.2-.1 1-2.3 6.4-1.8 3.7-2 5.6-.2 2.4 1.1 3.1.4 3.3 2.7.8 1.8-1.5 1.2.3 2.2 1.2.4 1.3 1.4 2h2l1.5-1.8 4.7-2 .3-.4v1.3h-.4l-2.3 1.8-1.8 2-1 2.3-1.2 3Zm-32.5-27.6-2-1.6-.6-.2.7-1.4.8-.2 1-2.8 1-1.5 3.1-1.5 3.3-1.2 5-1 3.5-1.3 3.8-.7 1.2-.4 1.2 2.8 1 1.4.9 1-.6 1.5-1.5 2.9-2.2 3.6-3.1 4.7-1.4 2-1.9 2.3-2 2h-.6l-1.2-2-1-1.1-1.5-1.3-2.4-1-2-1-1.7-.5-.2-1.1.7-1.8-1.3-.6Zm17.6-17.9h-3.5l-2.7.4h-6.4l-1.1-.8-1.2-1.8-.7-2.9-1-3.2-.4-3.3-.7-1.2.4-1.3 1.1-.5 2.8-.3h2.8l2-.5.8-.9.5-1.8.2-1.4 1-1.1 3-.6 1.7-.6 1.3.9 1.6 1.9 1.3 2.3 1.6 3.4 1.3 2.2.8 2.7.9 2 1.6 2-3.8 1.6-.7 1.3-1.2 2-3.3-.5Zm5.3 6.4-.7-1.7-.5-1.4V145l2-3 1.4-.6 1.7-1 .8-.3 1.5.2 1.3.2 1 .6.7.6 1.8 2 .4 1.5.3 1.9-.3 1.7v.7l-.7 1-1 .8-1.5 1.1-1.7.6-1.5.2-.5-.1-1.8-.6h-.9l-1.8-2.2Zm30.9-7.5.7 1-.4.6-1.3 1.3-.2 1.9 1 1.9.7 1-.2.7-.8.7-1.1.3-2 .8-1.6 1.3.8 1.7 1 .4-.6.5-2 .3-1.5 1.2.1 1.8-.1.8-1.4-.1-2.4-1.9-1.9-3.3-2.3-2.1-1.4-3.2-1.5-1 .3-2.3-.8-3.8-1.1-1.4-1-.9-.2-.1 3.8-1.4 5.6-1 10.4-.9.7.8-.8 2.7 1.5 1.7Zm-27 11.2 1 .3 1.8-.3 2-.6 1.5-1.1.2-.3v.3l1.2 2.6 1.2 3.9 1 6.2 1.9 9.3.5 2.8-1 1.6-4.6 2-1.4 1.6h-1l-1-1.4-.4-1.6-2.7-1.5-1.9-.4-1.7 1.5-1.6-.5-.3-2.7-1-3v-2l2.1-5.5 1.8-3.7 2.3-6.5.1-1Zm6.2 44.3-.3-3.1v-2.9l.7-2.6 1-2.8 1-2.2 1.7-1.8 2-1.5 1.2-.1-.2-2.2 1-3.3.6-1.9 1.1-1.4 1.1-.6h1.3l2 .7 3 .2 2.5-.3 2.7-1 1-.4 2.2 3.7.7 6-.9 5.8-1.2-1-1.2.4-1.7.2-1 .9-.2.9-.2.7-.2.2H1524.2l-1.2.4-.5 1.3.4.8v1.7l.3 1.7.2 1.6.3.5-6 2-5 .4-4.3-.6-.3-.4Zm41.8.6.3.5-1 .8-.2 1.1.4 1.1.3.6v.1l-.4.3h-.6l-1 .4-1.1.8.4 1.2h.1l-.9.1-1 .7v1.2h-.5l-1-1-.8-1.8-1-1.2-.6-1.7-.6-.6.2-1-.2-2.2-.5-.8-.3-.3 1.6-.5 2.9-.3h5.2l.1.2-.5 1.3.7 1Zm-10 1.4-.2.9v.3l-.5.4-.5.4-.8.5-.8.2H1536.2l-1-.4h-.3l-.7-1.2-.3-.8-.1-.7.1-1 1-1.5.8-.2 1-.4.3-.1h.6l.7.3.3.2.3.4.8 1 .1.7v1Zm0 9.5.5 5v1.4l-.4.6-2.5.8-.7.8h-.3l-.3-.6-.2-1-1.3-.9-1.2-.4-1 .7-.4-.2v-1.2l-.4-1.7.1-1 1.4-2.7 1.1-1.9 1.5-3.3.1-.3.3.1h1l1-.3.8-.4.4 1.1.4 2 .2 3.4Zm-18.1-3.4-1-.8v-.1l.2-.4h.5l.6-1.6.6-.7 1.6-.6 1.7-.5 2.6-.3 1.8-.5 2-.3h.5l.3 1.2.6 1 .2.3-.3.6-.9 1.5-3.2 4.1-.8 1-1 1-1.1 1-.5-1-.4-.6-.8-.8-1.2-.7-1-.5-.7-.3v-.4l.5-1-.8-.6Zm12.5-9.8-1.1 1.5-1.6-.3-1.8-.2-1.3.1-3.2-.3.4-.2 5.2-4.4 2.5-4.1.4.7.6 1.9.5 1.2.3 1.4.3 1 .6 1-1.8.7Zm-9.7 0-.2-.5-.2-1.4-.3-1.7v-1.7l-.3-.7.2-.5.5-.2h2.8l1-.1.7-.5.3-1 .2-.7.5-.4 1.5-.2.8-.2.5.4.3.4-2.7 4.5-5 4.2-.6.2Zm8.3 52.5 1.7.6 3 1.6 4.2 3.5 2.3 3.2.8 2.3-.9.2-1.5-.7-.6 1.9-.4.7-1.3.5.3 2.2-.6 1.5-1.6.2-2-1-1.6-.5v1.3l-1 .1-1-.9-2.1-3-.9-2.3-.5-6.5V252l.4-.8 2.5-.5.8-1.7Zm-7.3-17.6-.9 2.8-.7 4.2-.2 3.7-.5 3.7-.3 3.6-.5 3.6v2.8l2.5-3.6 1.6-1.5 3.8-2 1.3-.1h.3l-.6 1.2-1 .3-1.3.1-2.2 1.3-1.3 2.6-2.3 5.3-1.4 3.4-1.9 5.2-.4 3.2-1 2-3.2-1 1.3-4.1 2.2-4 .1-4.4.7-6 1.4-10.9 1-6 2.3-7.7.1-.6.6.1h.8l-.3 2.8Zm37.1-22.3-.4 2.3-.6 1.3-1.2 3-1.8 3.3-2.3 1.3-3 .8H1549.3l.4 2.4.2 2.2-1 2.6-1.4 1.8-2.5 2.3-2.7 1.1-3.5.6-1.7-.6-6.8-3.5-2.7-2-1.5-.5v.1h-.7l-1.5-.4v.2l-3 .2-4-.8-2.6-1.2-3.6-2.8-1.9-3.2-.7-3.6.6-3.4 1.5-3 2.5-2.2 1-.8-2.7-3-1-2-1-1.9 3.7.5 5.2-.4 6.4-2.2.7.7 3.6.3 1.3-.1 1.7.2 1.4.3v.4l-2.6.4-1.9.5-2.6.3-1.8.6-2 .7-.7 1-.5 1.2h-.4l-1 1.7.8.4 1 .9-.2.5.1 1.3 1.2.6 2 1 .7.7.3.5.7 1.6 1.1-.2 1.3-1.1 1.2-1.2 2.7-3.3 1.3-1.9 1-1.5.3-.7v.4l-1.5 3.2-1 1.9-1.5 2.8-.2 1.4.4 1.7v1.8l1.6.7 1-.7.5.1 1 .7v.5l.7 1.3 1.2.1 1-.9 2.5-.8.9-1.2-.5-6.7-.2-3.4-.4-2.2-.5-1.2.1-.5.1-.1.4.3.4 1.5 1.1 1.3.8 1.8 1.5 1.4 1.5.3.3-1.1v-.8l.4-.2h1.1l1.4-1.1-1.2-.7v-.1l.3-.2.8-.3.7-.1.9-.6.3-.9-.5-.8-.2-.8v-.6l.7-.5.6-.7-.6-1-.5-.7.6-1.4-.8-1h-5.8l-3 .3-2.2.6-.3-.2-1-.3-.7-.1-.6-1-.3-1-.3-1.4-.6-1.4-.6-1.8-.6-1.4.3-.6 1-6.3-.8-6.2-2.2-4 1.6-.6 1.4-.4 1.6-.2 1.2.5 1.3 1 .6 1.3.3 1.7v1.7l1.7-1.2h2.4l3.2.7 3 1 2.4 1.5 3.8 5 2.2 2.9 1.4 3 .3 2.8-.6 2.5-.7 1 1.8 1.9.8 2 .7 3.4.3 3.6-.4 3.5ZM1158.8 166l1.2 3 2.7 2.8 1.6 1.6 2.6 1.5-1.9 3-.6 3.7.4 3.4 1.8 3.4 2.8 2.7 4.4 1.7 3 .4 4-.4 2.5-1v8l.9 6 1.8 10.4 1 5.7 1 3.9-.7 4.2v5.2h5l.5-3-.6-3.2.3-5.2.3-3.5.6-5.5.4-2.4.4-.4.5 1.8 2.3 6 1.6 2 3 2.4 1.7.7 2.2-.8-.4-.9h.1l2.3.5 2.2-1 .3-2.4-.7-1.5.7-.5.2-1.2v-1l.8.1 2.2-1-2.2-2.9-3.1-2.4-5-2.2-3.5-.7h-3.1l-1.6.5-3 3.3-1.3 1.9-.3.8-.4-2.5-.8-3.4-.5-3.6-.9-3.4-.5-4v-2.8l-.5-2.6 3.1 1 3.9.8 3.4.6h2l3.2-1.6 2.4-2 1.8-3 .8-2.2.3-3.1-.9-2.3-.5-1.1 2.8-.8 2.6-1.8 2-2 .9-4 .2-3.1.2-1.5-.3-2.3-.6-3.5-1.4-3.3-1.6-3.1-1.4-1.7-1.7-1 .2-.6-.2-2.7-1.1-2.8-2.4-2.6-2.8-2.1-5-3.6-3-.7-3-.1-3.3.2-2.7.8-.2.4-.7-1.4-1.2-1.3-1.7-.8-1.7-.1-1.7.6-1.4 1-2.7 2.4-2 1.5-2.1 1-2.5.6h-2l-1.6.4-1 1.1-.9 2v5.6l.4 1.3-.4.1-1.5 2.3-1.1 2.2-.4 2.6-.1 3v2.6l1 2.9Zm38.7 43.8.2-1.8h1.6l3.2.7 4.8 2 3 2.3 1.4 1.9-.8.3-1.6-.1v1.9l-.2.7-1 .8 1 2-.3 1.5-1.4.6-2.1-.4-1.6.1.5 1.2-.8.4-1.3-.5-2.7-2.2-1.4-1.9-2.3-5.8-.5-1.7v-.8l2.3-1.2Zm-11-9 1 3.5.4 3.5.8 3.4.6 3.4.8 2.7 1.2-4.2 1-1.7 3-3 1-.4h.3l-.2 1.1-.8.6-1 .5-1.7 1.8-.5 2.7-.6 5.5-.3 3.6-.3 5.3.6 3-.4 2.1h-3.1V230l.8-4.3-1-4-1.2-5.8-1.8-10.3-.7-5.9-.1-7.6v-.6h.5l.7-.2.6 2.6-.1 2.7.5 4.1Zm-27.5-43.2.3-2.2 1-2.2 1.4-2 1-.3-.7-2-.1-3.3v-2l.7-1.5.8-.8 1.2-.4h2l2.7-.6 2.2-1 2.2-1.7 2.7-2.4 1.2-.8 1.4-.6h1.2l1.4.7 1 1 .7 1.5.5 1.5 1.2-1.5 2.2-.8 3.2-.2h2.9l2.6.7 4.9 3.5 2.7 2 2.2 2.4 1 2.5.2 2.5-.3 1.1 2 1.2 1.4 1.6 1.5 3 1.3 3.2.7 3.3.3 2.2-.2 1.3-.3 3.1-.7 3.6-1.8 1.8-2.3 1.6-2.6.7-1.3.4 1 2.2.8 2-.2 2.7-.8 2-1.6 2.8-2.1 1.8-3 1.4h-1.7l-7.1-1.2-3-1-1.6-.2v.2l-.6.2h-1.5v.2l-2.6 1-3.8.4-2.7-.3-4-1.6-2.6-2.4-1.7-3-.4-3.3.5-3.2 1.7-2.8.8-1-3.4-2-1.6-1.5-2.4-2.6-1.2-2.8-.8-2.6-.1-2.6.2-3Zm31.6 650.5 2.6-3.2 1.7-2.6.8-1.2.8-2.2 1-3.4.4-3.6v-3.5l-.5-2.2-1-1.6.4-.4 1.1-2.5.3-3.1-1-3.4-1.4-3.1-2.8-5.5-2.2-2-2.8-1.6-3-1.3-2.7-.4-.4.2v-1.7l-.4-1.6-1.2-1.5-1.3-.8-2-.3-1.5.2-3.6.9-2.5.4-2.3-.1-2.4-.6-1.8-1-1.7-.3-1.4.5-1.6 1.3-1.1 1.9-1.6 3-.1 1.4h-.5l-2.4 1.3-2 1.5-1.5 2-1.5 2.6-1.2 2.4-.5 3-.3 3.2 1 3.7.7 2.1 1.6 2.6-3 1.8-2.2 2.9-1.4 3.4v3.7l1.4 3.7 3 3.5 2.5 1.7 3.7 1.5 2.7.3-3.7 7.2-2 5.7-3.2 10-1.7 5.6-.9 3.9-2.6 3.3-2.5 4.6 4.4 2.4 1.9-2.4 1-3.1 2.6-4.5 2-3 3-4.6 1.5-1.9.5-.2-.4 1.9-.7 6.4.5 2.5 1.5 3.4 1.2 1.5 2.3.2v-.9l2 1.5 2.4.2 1.4-2V846l1-.2.7-1 .4-.8.7.4 2.3.2-.5-3.6-1.7-3.6-3.4-4.3-2.7-2.2-2-1-.7-.5-1.8-.2-4.2 1.4-2 1.2-.6.6.8-2.4.9-3.4 1.2-3.4.8-3.5 1.3-3.7 1.4-2.4.7-2.6 2.3 2.3 3 2.5 2.9 2 1.7 1h3.7l2.9-.5 3-2 1.7-1.5 1.7-2.6.3-2.4v-1.3l3 .6 3-.3 2.8-1Zm-29.9 23 1.5.8 2.5 2 3.3 4.1 1.6 3.4.4 2.3h-.9l-1.3-1-1 1.8-.4.6-1.3.2v2.1l-1 1.3h-1.5l-1.7-1.4-1.4-.7-.2 1.3h-.9l-.8-1-1.4-3.3-.4-2.3.6-6.2.4-1.8.4-.6h2.5l1-1.6Zm-3.7-17.8-1.4 2.5-1.4 3.8-.8 3.5-1.2 3.4-.8 3.3-1.1 3.3-.6 2.8 3-3.2 1.8-1 4-1.4 1.1.2.3.1-.8 1h-2.3l-2.2.9-1.6 2.1-3.1 4.6-2 3-2.6 4.6-1 3-1.3 1.7-2.7-1.5 2-3.7 2.6-3.4 1-4 1.6-5.6 3.2-10 2-5.6 3.5-6.8.3-.5.4.2.8.2-.7 2.5Zm27.9-5-4-.8v2.4l-.3 2-1.5 2.4-1.6 1.5-2.7 1.7-2.7.6-3.3-.1-1.5-.8-5.8-4.4-2.1-2.4-1.4-.8v.2l-.7-.2-1.3-.6v.2l-2.8-.3-3.6-1.4-2.2-1.6-3-3.3-1.1-3.3v-3.5l1.1-3 2-2.6 2.7-1.7 1.1-.5-2-3.3-.7-2.1-1-3.5.3-3 .4-2.7 1.2-2.3 1.5-2.5 1.3-1.9 1.9-1.4 2-1h1.2l.2-2 1.5-3 1-1.7 1.2-1.1 1.1-.4 1.2.2 1.8 1 2.7.7 2.4.1 2.8-.4 3.5-1 1.4-.1 1.5.2 1 .6 1 1.1.4 1.4v1.6l-.3 1.6 1.8-.8 2.2.4 3 1.2 2.5 1.5 2 1.7 2.7 5.4 1.5 3.1.8 3.1-.2 2.7-1 2.2-.8.9 1.2 2 .5 2v3.4l-.4 3.4-1 3.3-.7 2-.8 1.1-1.7 2.7-2.3 2.8-2.3.8-2.9.3Zm-354.7 67L829 872l-1.5-3-1.5-1.7-1.7-1 .2-.5v-2.5l-1.1-2.8-2.4-2.6-3-2.2-5-3.6-3.1-.9-3.2-.2H803l-2.8.6-.3.4-.7-1.4-1.2-1.3-1.8-.9-1.7-.2-1.8.6-1.5.7-3 2.1-2.3 1.4-2.2.8-2.6.4-2.2-.2-1.7.4-1.1 1-1 1.7-.2 2v3.4l.4 1.1-.4.2-1.8 2-1.3 2-.4 2.4-.4 2.8v2.6l.8 2.7 1.2 2.8 2.6 2.9 1.7 1.6 2.6 1.5-2 2.7-1 3.4.3 3.3 1.8 3.3 2.9 2.7 4.5 1.8 3.2.6 4.1-.2 2.8-.7v.3l-.3 7.2.6 5.7 1.4 9.8.9 5.5.9 3.7-1 3.8-.3 5 5.2.3.7-2.9-.4-3 .5-4.8.4-3.3 1-5.1.5-2.2.4-.4.5 1.8 2.2 5.7 1.6 2 3 2.4 1.8.8 2.3-.7-.3-.8 2.5.6 2.3-.8.5-2.3-.7-1.4.7-.4.3-1.2v-.8h1l2.3-.7-2.2-3-3.2-2.4-5.3-2.4-3.5-.8-2.2-.1-1.1-.2-1.6.4-3.4 2.8-1.4 1.8-.4 1-.3-2.6-.7-3.2-.4-3.4-.8-3.2-.4-3.7.2-2.7-.4-2.4 3.2 1.1 4 1 3.7.7 2 .1 3.5-1.3 2.6-1.6 2-2.8 1-2 .4-3-.8-2.2-.5-1 3-.6 2.9-1.5 2.2-1.8 1-3.7.5-3 .3-1.3-.3-2.2-.5-3.2ZM811 920h1.8l3.3.8 5 2.3 3 2.3 1.3 1.8-.8.2-1.6-.2-.1 1.8-.2.7-1.2.7 1 2-.3 1.3-1.5.5-2.4-.5h-1.5l.4 1.2-1 .2-1.2-.5-2.8-2.3-1.4-1.8-2.2-5.6-.4-1.6v-.7l2.5-1 .3-1.7Zm-10.6-4.2.4 3.4.7 3.2.4 3.2.7 2.5 1.4-3.7 1.3-1.6 3.1-2.7 1.3-.3h.2l-.2 1-1 .5-1 .4-2 1.6-.5 2.5-1 5.2-.4 3.3-.5 5 .4 3-.5 1.8-3.3-.2.2-3.9 1-4-1-3.8-.8-5.5-1.4-9.8-.6-5.5.3-7.2v-.6h1.4l.4 2.4-.2 2.6.4 3.9.8 3.2Zm29.3-34-.4 3-1 3.3-1.9 1.5-2.5 1.4-2.8.5-1.4.3 1 2.2.7 1.9-.3 2.5-.9 1.8-1.8 2.6-2.4 1.5-3.2 1.2-1.8-.1-7.5-1.6-3.1-1.2-1.6-.2v.1l-.6.2h-1.6v.1l-2.8.8-4 .1-3-.4-4.2-1.7-2.6-2.5-1.6-3-.3-3 .7-3 1.9-2.4.8-1-3.5-2-1.6-1.6-2.4-2.6-1.1-2.7-.8-2.4v-2.5l.3-2.7.4-2 1.2-2 1.5-1.7 1.1-.4-.6-1.9v-3l.2-1.9.7-1.4.9-.7 1.2-.3 2.2.1 2.8-.4 2.4-.8 2.4-1.4 3-2.2 1.3-.6 1.6-.5 1.3.1 1.4.7 1 1 .7 1.4.4 1.5 1.3-1.4 2.4-.5h3.3l3.1.2 2.8.8 5 3.5 2.8 2.1 2.2 2.4 1 2.4v2.2l-.4 1.1 2.2 1.3 1.3 1.5 1.5 3 1.2 3 .6 3.2.2 2-.3 1.3Zm37.8-304.2-1.4-2.6-2-2.4-2.3-2.3-2.4-1.4h-.4l.5-1.4.2-1.8-.6-1.7-1-1.2-1.7-1-1.5-.4-3.5-.5-2.5-.6-2-1-2-1.4-1.4-1.5-1.4-1h-1.6l-1.8.6-1.6 1.3-2.3 2.2-.6 1.1-.4-.1-2.6.2-1.7.4 1.7-2.8.3-3.7v-.2l3.2.7h2.7l4-.2 3.3-1.4 2.5-1.5 2-2.2 1.8-2.4 1.3-2 .5-3v-2.7l-.2-.5 1.1-.5 2.5-2.8 1.2-1.6.7-2.1-.3-1.8-1-1.4-2-1.6-1.8-2.3-1.3-2.3-.9-2.8-.9-4-.5-1.6-1.1-1.7-1.5-1.2-2-.8-2 .2-1.8.7v-.7l-1.8-2.5-2.8-2.7-3-2.2-2.8-1.5-7-1-4.1-.5-3.6.2-3 1.3-2 2-.2.7-2-.5-2.5.2-3.7 1.3-3.3 1.6-3 2.2-.4.4v-2.3l2.4-4.5 2.5-5.2.9-4.1-1-5.9-3 3.7-2.7 1-5.4-.2-1.3 2-3.5 1.5-3.5.6-4.5 3-2.8 5.4-5 2.4-3.8.3-3.7 3.6-1.2 4.8-2 3.6-4.1 2.7-4 3.4-1.6 3.9-1.1 3-2.9 1.6-.2.2v-.1l-1.3 1-.4-14.5.3-9.5-1.2-12v-1l4.7 1 6.9-.2 4.7-1 7-3.5 4.3-4.6 2.5-5.5.1-5.7-1.5-5.3-3.6-4.4-.4-.3 4.2-3 2.6-3 3.8-4.7 1.7-5 1-4.4-.4-4.4-.8-4.6-.9-3.6-2.4-3.6-2.9-3-.9-.3.6-2.2-.4-5.5-.6-3.2-1.4-2.8-2-1.6-2.7-.4-3.5.5-4.3-.4-3.8-1.2-3.8-2-5.2-3.3-2.2-1-3-.8-2.5.4-2.7 1.4-1.8 2.2-1.1 2.8v.3l-1-.9-4.4-.8-5.6.3-5.1.7-4.6 1.7-3.5 2.9-4.5 3.8-4.5 4-3.4 4.2-1.5 4.6.2 4.2.4 1.1-2.6 1.9-2.2 3-2.3 5.2-1.6 5.5-.5 5.5-.1 3.7.5 2.2 1.1 5 2 5.8 3.8 2.8 4.4 2.1 4.8.7.7.1-.8 2.3-1 3.5.8 4.7 1.9 3.4 3.3 4.2 4.3 2.6 5.8 1.9 3.3-.5 5.7-1.5 6.5-2 4.8-2.2h.7l-.5 4.4.6 4.4-.2 6.3-1 5.8-.2 5.5-.8 5.6-.3 5.3v.2l-1.1-2.5-2.4-2.9-5.7-4.4-2.7-.5-1.6.3-3.8.5-5.4 1.6-8 4.3-4.9 4.5-3 4.8 3.3 1 1.6-.4.2 1.8.6 1.7 1.3.7-1 2.6.9 3.5 3.6 1 3.8-1 .7-.2-.4 1.6 3.3.7 2.5-1.2 4.6-4.3 2.3-3.4 1.9-6.2 1-3.8.7-3-.2-.7 1.5 1.3 1.1 3.7 2 8.5 1.2 5.5 1.4 8.1-.4 5 1.4 4.5 7.7-1-1-8-2-6.3 1-6.3 2.2-8 .3.6 1.8 1.7 2.7 2 3.6-.4 4-1.3 3.5 1.2 3.7-.4 8.7-6.6 3.9-.5 4.1-.9 3.2-2.3 2.6-4.5 1.5-3.5 3-2.7 1-.5.3 1.3 1.1 3 2 2.8.2.2-1.3.5-2.2 1-1.8 2.6-.7 2.6-.4 3.6.8 3.2 1.9 3.6 1.9 1.6 3.4 2 4 2.4 3.5 1.4.1.2-2.1 1.5-1.8 2.3-3 2.7-3.2 2-2.7 2.4-3 2.1-2.4 2 .5-1.2.2-2.6-.7-4.6-1-1.7-1-.7-2-1.7-3.5-2-5.8-2-4.5-.4-4 .7 1.3 2.2.8.7-.6.8-.6 1 .3 1-1.6.6-1.3 2 1.3 2.4 2.3 1.4.2.1-.9.5 1.4 2.2 1.9.7 4.3.3 2.7-.4 6.2-3 1.7-1 .1.8-1.2 2.1-3 4.8-2 3-3.2 4.2-2.5 2-1.6 2.9 4.4 3.5 3.4-4.1 2-3.8 3.5-2.3 4.7-3.7 8.5-6.7 4.6-4.1 5-5.9.4-.3 1.6 2.6 3.5 3.4 2.8 1.8 5 2h4.4l1.6-.4-1.6 1.4-1.4 2.5-1.2 2.7-.3 3.8v2.3l.6 2.8-3.2.5-3 1.8-2.2 2.5-1.2 3.6v3.7l1.7 4.3 1.8 2.5 2.9 2.7 2.3 1.3-5.5 5.1-3.7 4.3-6 7.9-3.3 4.4-2 3.2-3.4 2-3.7 3.3 3.2 3.7 2.5-1.5 1.9-2.4 3.8-3 2.7-2 4.2-3 2-1.2h.5l-1 1.5-2.6 5.5-.4 2.5.3 3.7.7 1.7 2 1.1.4-.8 1.3 2.1 2.1 1 2-1.3.5-1.4.8.2 1-.7.6-.5.5.6 2.2 1 .6-3.5-.4-3.9-1.8-5-1.8-3-1.4-1.6-.6-.8-1.5-.9-4.3-.2-2.2.3-.8.3 1.6-1.9 1.8-2.7 2.1-2.6 1.8-2.9 2.4-2.8 2-1.7 1.5-2 1.3 2.9 2 3.3 2 3 1.2 1.4 3.3 1.5 3 .5 3.3-.6 2-.7 2.5-1.9 1-2 .4-1.1 2.4 1.6 3 .8 2.8.3 3.3-2 2.4-1.7 1-.7 1.6-1.8 2-2.7 1.4-3 1-3.2.3-2.3-.4-1.7.4-.2 1.9-1.8 1.2-2.7.2-3.5-.3-3.4-.9-6ZM736 497.2l-5 2.3-6.4 1.9-5.6 1.5-3 .4-5.5-1.8-4-2.3-3.2-4-1.7-3.3-.9-4.3 1-3.3 1.3-3.3-6.5-1-4.3-2-3.5-2.6-1.8-5.5-1-5-.6-2v-3.5l.6-5.4 1.6-5.3 2.1-5.1 2-2.8 3.3-2.2-.7-1.6-.2-4 1.4-4.1 3.2-4.2 4.4-3.8 4.5-3.8 3.3-2.8 4.4-1.5 5-.8 5.4-.2 4 .7 2 1.8.4-1.9 1-2.5 1.5-2 2.4-1.2 2.2-.3 2.7.6 2 1 5.2 3.3 4 2 4 1.3 4.5.4 3.5-.4 2.2.3 1.6 1.2 1.3 2.5.5 3 .5 5.3-.8 3 1.6.5 2.6 2.7 2.3 3.3.8 3.5.8 4.5.4 4.2-1 4.2-1.5 4.8-3.8 4.6-2.4 2.8-5.1 3.7 1.2 1.1 3.3 4 1.5 5.1v5.3l-2.4 5.2-4 4.4-6.8 3.3-4.6 1-6.7.3-4.9-1.2v-.2l-2.1.2-1.5-.2v-.1l-2 .3Zm-10.8 38-2.8 9.7-2.2 3.3-4.3 4-2.2 1.1-2-.4.6-2-2.2.3-3.6 1-2.8-.8-.6-2.6 1.1-3.1-1.8-1-.3-1.1-.4-2.8-2.4.4-1.8-.5 2.2-3.5 4.7-4.2 7.8-4.3 5.3-1.6 3.3-.4.7 2.9 4 1.4.3 1.4-.6 2.8Zm14.4 11.3-1 6.6 2 6.5.8 6.9-5.9.7-1-3.4.3-5-1.4-8.3-1.1-5.5-2-8.5-1.3-4-2.7-2.4-1.7-.5-2.2-1-.6-2.1.9-.2 2.1.5 5.5 4.2 2.2 2.6 2.4 5.3.6-3.4.3-5.3.8-5.6.3-5.5 1-5.7v-6.5l-.5-4.3.5-4.6 1.6.2h1.2v1.2l1.3 12-.3 9.4.4 16.5-2.4 9.3Zm50.5-27.7.1.8-1.4.8-3.2 2.8-1.7 3.7-2.3 4.2-2.9 2.1-4 .8-4 .6-8.8 6.6-3.1.3-3.6-1.2-4.3 1.3-3 .5-2.5-1.8-1.5-1.5-.6-1.2 1.8-2.1-.1-.2.2-.2 3-1.9 1.3-3.2 1.6-3.7 3.7-3.2 4.1-2.8 2.3-3.9 1.2-4.6 3.2-3.2 3.6-.2 5.5-2.8 2.8-5.3 4.1-2.8 3.5-.7 3.8-1.5 1.2-1.8 5 .2 3.3-1.3 1.6-2 .6 3.4-.7 3.8-2.5 5-2.4 4.7-.1 3.5-.3.3-.8 1.3-1.9 2.7-1.8 3.7Zm1 .1 1.7-3.3 1.6-2.4-1 3.2-1.9 2.4-.3.2Zm-9.3 43.3-1.5 1-6 2.8-2.4.4-4-.3-1.5-.6-.6-1 1.2-.6-1.3-1.1-2.2-1.3-1-1.6.9-1.3 2.1-1-.4-1.3.3-.6 1.3-1.6-1.5-1-.5-1 2.4-.3 4.3.4 5.7 2 3.3 1.8 1.6 1.4-1 1.6 1.3 2.5-.5.7Zm17.7-1.4-4.5 4-8.5 6.8-4.7 3.7-3.6 2.3-2.1 4-2.7 3.3-3-2.5 1-1.9 2.5-2 3.3-4.3 2-3 3-4.8 1.4-2.4-.2-2.5-.6-1-.6-1.5.6-1 .4.2.8 1.3.6 4.4-.2 2.3-1.5 3.9 2.3-1.5 2.7-2.1 3-2.1 2.7-2.4 3.2-2 3.1-2.9 1.7-2.1 2.3-1.7.6.8.5.5-5.5 6.3Zm23.3 3.4h-4l-4.8-1.9-2.7-1.8-3.2-3.1-1.8-2.8.1-.1-1.2-1.1-.5-.7h.1l-1.3-1-3.4-1.5-4-2.3-3.4-2-1.6-1.4-1.8-3.4-.8-3 .4-3.3.6-2.2 1.6-2.3 2-1 2.4-.9-2.8-3.8-1-2.9-.4-1.6.8-.5 2-2.7 1.7-4.7v-1l1.2-.9 2.7-2.1 3.3-1.6 3.4-1.2 2.2-.2 2.7.6.5-1.1 1.7-1.8 2.6-1.2 3.5-.2 3.9.5 6.8 1 2.8 1.3 2.7 2.2 2.8 2.5 1.5 2.3.1 2 1.3-.8 1.6-.6 1.6-.1 1.7.6 1.2.9 1 1.6.5 1.4.9 4 .9 2.8 1.4 2.6 2 2.4 1.8 1.6 1 1.1v1.3l-.4 1.7-1.2 1.5-2.2 2.6-2 1 .7 1v2.5l-.5 2.6-1.2 1.9-1.8 2.4-1.8 2-2.4 1.3-2.9 1.3-4 .3H835l-4.4-1v1.4l-.2 3.4-1.7 2.9-2.4 2.2-3.5 1.1Zm-4.8 59.8 1.1 1.3 1.7 2.7 1.7 5 .4 3.6-.4 2.1-.7-.3-1-1.3-1.4 1.2-.6.4-1.2-.3-.8 1.9-1.1.8-1.4-.6-1.2-2-1-1-.6 1.1-.8-.4-.5-1.2-.2-3.5.3-2.2 2.5-5.3 1-1.5.5-.4 2.3.9 1.4-1Zm2.1-17.5-2 1.7-2.5 3-1.8 2.8-2.1 2.6-1.8 2.8-2 2.5-1.4 2.3 3.7-1.7 2-.3 4 .2 1 .6.1.2-.9.6-1-.3-1-.5H812l-2.2 1.3-4.3 3-2.7 2-3.8 3.1-1.9 2.4-1.7 1-2-2.3 2.9-2.6 3.5-2.1 2.1-3.4 3.3-4.3 6-7.9 3.6-4.3 5.3-4.8.4-.4.4.4.6.4-1.5 2Zm47.6-16.3-1 2.3-1.7 1.6-1 .5.5 2.4-.2 1.9-1 3-1.4 3-2 2.6-1.2 1.5-1 .7-2.5 1.8-3 1.7-2.3-.2-2.7-.7-2.3-1.5-1.1-.7-.9 2.1-.8 1.8-2 1.6-2 .7-3 .6-2.6-.5-3-1.3-1.1-1.3-4-6.1-1.2-3-1-1.2v.2l-.6-.4-1-1h-.1l-2.5-1.2-2.7-2.6-1.7-2.3-1.6-4v-3.4l1-3.2 2-2.3 2.6-1.6 3-.5h1.2l-.8-3.9v-2l.2-3.6 1.2-2.6 1.2-2.3 1.8-1.6 2.1-1.7 1.8-1.2 2.1-.6 2.3-.2 1 .5.9-1.8 2.2-2.1 1.4-1.2 1.5-.5h1.1l1 .7 1.4 1.5 2.2 1.6 2.2 1 2.7.7 3.4.5 1.4.3 1.3.8.8.9.5 1.4v1.4l-.6 1.4-.8 1.3h2l1.9 1.2 2.2 2.2 2 2.2 1.2 2.4.8 5.8.4 3.4-.2 3Zm-93.8 30.4 1.7-1.5 1.1-2 .3-2.1-.3-2-1-1.7 1.1-.7 1-1 1.5-1.5.8-1.8.5-1.5v-3.4l-.2-1.3-.8-1.5-.9-1.3v-.4l.1-2.2v-1l-.4-1.2-.8-.8-1-.3h-1.2l-1.2-.3-1.3-.5-1.1-.8-1.6-1.4-.7-.5-1.1-.4h-1l-1 .4-.8.8-.3.7-1.5-.5-2-.1h-1.8l-1.6.4-3 2.1-1.7 1.3-1.3 1.4-.7 1.6v1.9l-.8.4-.9 1-1 2-.7 2-.4 1.8-.2 1.4.3 2.6.5 2.3 1.3 1.2 1.4 1 1.5.3-.7 1.8.2 1.7.5 1.5 1 1.6 1.4 1.1 2 1h1.2l4.2-.8 1.4-.5-.2 1.1v1.6l-.2 2.2-.6 2-.2 1.9-.5 2v.6l-.7-.9-1.8-1.9-1-.3h-2l-1.8.5-2.8 1.2-1.9 1.4-1.5 2 1.6.6h.2v.4l.2.7.3.3-.3.7.2 1.5 1.4.6 1-.2v.4l1.4.5 1-.4 1.8-1.4 1-1.2 1.3-3.5.2-.5.5 4.1.2 2 .2 2.9-.3 1.8.4 1.9h3.2v-3.3l-.5-2.2.5-2.2 1.6-9 .4-3.4v-4.2l1.1.4 2.5.2 1.6-.2 2.6-1Zm-15 12.4-1.3 3.3-.8 1-1.5 1.2-.6.2h-.2l.3-.9h-1.2l-1.2.2-.6-.2-.1-.7.5-1.2-.6-.5-.1-1.6-1 .1h-.2l.6-.9 1.6-1.2 2.7-1.2 1.7-.3h.8l.1.9 1.3.6v.3l-.3.9Zm.3-2.3-.4-.2v-.3l.3.2.6.6-.5-.3Zm6-5.4-.4 3.3-1 5.8-.6 3.2-.6 2.3.5 2.4v2.2h-1.3l-.2-1 .3-1.7-.2-3-.2-2-.4-3.1-.2-1.5.5.8.9 3 .6-2.3.3-1.9.5-2 .2-1.9.5-2 .3-2.3V622l.2-1.2h.3v4.4Zm4.5-4.5-2.1-.2-1.3-.5v-.1h-1l-.2-.1v-.2h-1l-1.9.7-4 .8h-1l-1.6-.8-1.2-1-.8-1.4-.5-1.1-.1-1.5.4-1 .7-1.5-2.5-.7-1.2-.8-1-1-.4-1.8-.2-1.8V604.9l.4-1.8.7-1.8.9-1.7.7-.8 1.3-.8-.2-.8V596l.6-1.3 1.1-1.2 1.6-1.2 2.8-2 1.4-.4H763.4l1.2.5.9 1 .3-1.1.5-.8.4-.6.7-.3h.7l.7.3.6.4 1.6 1.4 1.3.9 1.4.6 1.5.3h1.2l.5.2.4.4.3.8.1 1v1.8l-.5 1.3.7.3.7 1 .6 1.1.2 1.2.1 1.6v1.5l-.5 1.4-.6 1.5-1.4 1.5-.9.8-2 1.3.3.4 1.2 1.8.2 1.7-.1 1.8-1 1.6-1.4 1.3-2.2 1-1.5.1ZM243.3 805.3l-3-7.5-3.6-6.9-3.4-3.8-4.3-2.5.6-1.5-.1-5.7-2.6-6-5.5-5.8-6.8-5-6.9-4.8-5.2-3.6-7-2-7.5-.6-8 .1-6.3 1.4-1.5 1.4-.2-.7-1.8-3.5-2.6-2.9-4-1.7-3.8-.4-4.2 1.2-3.2 1.6-7.1 4.9-5.4 3.1-5.4 1.8-6.3 1-5.2-.4-3.7.7-2.6 2.1-2 4-.4 4.4-.1 7.5 1.1 3-1.4.5-4 4.4-3 4.8-1 5.1-.7 6.4-.1 6 2 6 2.7 6.3 6.1 6.4 4 3.7 6.6 4-.7.6-4.6 6-1.8 7.4.6 7.5 4.1 7.4 6.6 6 10.5 4.2 7.3 1.1 9.8-.2 7.1-2v1.7L165 888l1.3 12.9 1 20.3-2.4-1.7-.1.2-.2-.1-4.5-2.2-2-4-2.7-5.1-6-4.4-6.2-3.3-3.4-4.9-2.2-6.3-5.6-4.6h-5.7l-7.5-3.1-4.6-7-6.6-3.8-5.2-.6-5.4-1.7-2-2.6-7.8.6-4.3-1.2-4.2-4.4-.9 7.5 1.6 5.4 4.2 7 3.8 6 .6 6.1 2.9 6.3 3 3.5 4.2 2 4.9 3.5 2.6 4.7 4 5.6 4.7 3 6.3 1 5.7.4 7.1 4.5 6.3 3.9 5.2.2 5-2 6.2 1.5 5 .4 3.8-3 2.2-2.2.6-1.5 4.1 11.3 2.3 8.5-2.4 8.8-.6 10.8 11 .7 1.5-6-1-6.8 1.1-11.2 1.1-7.6 2.2-11.7 1.2-5.3 2.6-2.3-.2 1.5 1.2 4.1 1.9 5 3.3 8.1 3.6 4.6 7 5.4 3.8 1.6 4.5-1.2-.8-2.1h1.2l5.7 1.2 5-1.6.8-4.6-1.7-3.6 2-1.2.6-2.3.2-2.6 2.5.4 4.5-1.5-4.6-6-7.5-5.7-12.2-5.3-8.1-1.8-5.3-.4-2.5-.3-3.5.9-7.9 6.4-3.2 4-1.7 4.2-.2-1-1-7.2-1.7-7.5-.9-7.7-1.9-7.5-.9-8.7.5-6-1.3-6.4 1.3.1 7.4 2.8 9.6 2 8.4 1.8 4.8.3 8-3 5.9-3.6 4.6-6.2 2.3-4.6.9-6.5-2-4.8-1.5-3.1 8-1.5 6.4-3.3 5.1-4 2.3-8.2 1-6.8.7-3-.5-5-1.3-7.3Zm-77 120.4-2.1 2-3.5 2.8-4.5-.4-6.5-1.5-5 2-4.8-.2-13.4-8.4-5.8-.4-6-.9-4.5-2.7-3.8-5.6-2.7-4.7-5.1-3.8-4-1.9-3-3.2-2.6-6-.7-6.2-4-6.2-4-6.8-1.5-5.2.6-5.2 2.9 3 4.7 1.4 7.4-.6 2 2.5 5.7 1.7 5 .6 6.3 3.6 4.7 7 7.8 3.3h5.7l5 4.2 2.2 6.2 3.7 5.2 6.2 3.4 5.9 4.2 2.6 5 2.1 4.2 4.6 2.2.4.4-.2.2 2.9 2.9-.7 1.9Zm32-18.7 5 .3 7.9 1.8 12 5.3 7.2 5.5 3.8 4.8-3 1-3.3-.5-.3 3.6-.4 1.8-2.4 1.4 2 4-.8 3.8-4.1 1.4-5.6-1.2-2.7-.1 1 2.5-3.2.8-3.3-1.3-6.8-5.3-3.5-4.3-3.3-8-1.9-5-1-3.9.3-2.1 5.6-2.2.8-4Zm-26.1-31.4-.5 6 1 8.9 1.9 7.5.9 7.7 1.6 7.5 1 7.3 1.1 3.8 2.7-6.8 3-3.8 7.5-6.2 3.3-.8 1.6.2-.8 3.3-2.6 1.2-2.7 1-4 3.4-1.3 5.6-2.1 11.7-1.1 7.7-1.2 11.3 1 6.8-1.3 5-9.1-.6.5-9.7 2.4-9-2.3-8.8-4.5-12.5-1-22.5L166 888l.6-16.5v-1.8h2l2.4-.5 1.3 6.4Zm71.3-55.1-1 6.7-2.2 7.8-4.8 3.8-6.1 3-6.7 1.4-2.5.5 2 4.2 1.9 4.5-.8 6-2.2 4.5-4.4 5.9-5.7 3.5-7.8 2.8-4.5-.2-8.3-1.7-9.5-2-7.4-2.8-2.8-.3v.1l-2.2.4h-3v.2l-7.3 2-9.6.2-7-1-10.3-4.1-6.4-5.8-3.9-7-.6-7.2 1.6-7 4.6-5.8 1.5-1.6-7.6-4.4-3.9-3.7-6-6.1-2.6-6.3-1.9-5.8.1-5.7.7-6.3 1-4.9 2.9-4.6 3.7-4 2.1-.8-1.4-3.8v-7.3l.5-4.2 1.8-3.6 2.3-1.8 3.3-.7 5.1.4 6.5-1 5.6-1.8 5.5-3.2 7.1-4.9 3-1.6 4-1 3.3.2 3.7 1.6 2.4 2.6 1.7 3.4.7 2.2 2.4-2.4 5.9-1.3h8l7.4.6 6.6 1.8 5.1 3.5 7 4.8 6.6 5 5.3 5.4 2.4 5.7.1 5.4-.7 2.2 4.7 2.7 3.3 3.7 3.6 6.8 3 7.2 1.2 7.3.5 4.7-.6 3Zm-92.5-267 .3 2 1 2 1 1.2 1.4.6 1.4 1 1 1.4 1.2 1.8 1.7 1h3.5l4.2 2.5 1.7-.1 1.4-.8 1.8.3h1.6l1.2-1.3.4-.6 1.2 2.8.9 2.8-.5 3 .1 3.9 3.9-.1.3-2.4-.5-2.3.1-3.7.1-2.5.4-4 .2-1.7v-.1l.4 1 1.9 4.3 1.2 1.5 2.3 1.7 1.4.5 1.7-.7-.2-.6 1.6.3 1.7-.9.1-1.8-.5-1 .5-.4v-1.4h.5l1.8-.9-1.8-2.2-2.4-1.7-3.8-1.4-2.6-.5h-2.3l-1.2.5-2.2 2.5-.9 1.4v.1l-.3-1.3-.6-2.4-.5-2.5-.8-2.5-.4-2.8v-2l-.5-1.7 2.1.6 2.9.4 2.5.4h1.5l2.4-1.3 1.7-1.5 1.3-2.3.5-1.6.1-2.4-.7-1.6-.3-.7 1.9-.6 2-1.3 1.4-1.6.5-3 .1-2.2.1-1-.2-1.8-.6-2.5-1.1-2.4-1.3-2.2-1.1-1.2-1.2-.6.1-.4-.2-2-.9-2-1.9-1.9-2.1-1.4-3.8-2.5-2.2-.5h-2.3l-2.4.3-2 .7-.1.1-.5-.8-.9-1-1.4-.5h-1.1l-1.4.5-1 .7-2 1.8-1.4 1.2-1.4.7-1.8.5h-1.5l-1.3.5-.7.8-.6 1.5v1.6l.1 2.5.4.8-.2.1-1.2 1.7-.7 1.7-.2 1.9v4.2l.8 2 1 2 2 2.1 1.3 1.1 1.8 1-1.2 2.1-.4 2.7.4 2.6 1.4 2.4 2.2 1.9 3.3 1.2 2.3.2 2.9-.4 1.7-.7.2 5.6.8 4.2.7 6h-.1l-1.4-.6-1.6-2.8-2-1.4-1.8-.9-1-1.4-.9-2-2-1.6-1.7.2-2-.8-1.6-2.2-2.1-1-1.7-.2-1.4-.3-.8-.9-2.4.5-1-.3-2-1.9v3.4l.6 1.9 2.7 4Zm33.6 4.9.1-1.3h1l2.4.4 3.6 1.3 2.2 1.6 1 1.1-.5.2h-1.2v1.9l-.9.7.8 1.4v1l-1 .5-1.6-.2h-1.3l.4 1-.5.2-.8-.3-2-1.5-1.1-1.3-1.8-4.1-.4-1.2v-.5l1.6-.9Zm-11.3-13.8v.2l-1.7.8-2.8.3-2-.1-3-1-1.9-1.7-1.3-2.1-.3-2.3.3-2.3 1.1-2 .6-.8-2.6-1.5-1.2-1-1.9-1.8-.9-2-.6-1.8-.2-1.9v-2l.2-1.7.7-1.5 1-1.4.7-.4-.6-1.5-.1-2.3v-1.4l.4-1 .5-.7.8-.2h1.5l2-.6 1.6-.8 1.6-1.3 2-1.8.8-.6 1-.4h.8l1 .4.7.7.5 1 .5 1.3 1-1.3 1.5-.6 2.3-.2h2.2l1.8.3 3.7 2.4 2 1.4 1.7 1.6.8 1.8.2 1.7-.2 1 1.6.8 1 1 1.2 2.1 1 2.3.6 2.4.3 1.5-.3 3.2-.4 2.6-1.2 1.3-1.7 1.1-1.7.6v-.3l-4.3-5.3-2.1-2.7-1.6-1.5-1-.8-.3-.4v-.2h.5l1.2 1 1.6.4 1.7 1 2 .4 1.4-.7-.4-1.1-.4-.6.2-.4.8-.7.5-1.8-1.4.2v-.5l.6-.7.4-.5.4-1-.2-.9-.9-.4-.7-.5-.2-.5.2-.8v-1l-1-.4-.8-.3-.3-1.5-1.3-.4-4.6 3.4-2.2 2-1.4 1.9h-.5l-.8.3-.6.3-1.2-.5-.7-.6-1-1-1.3-.8-1.5-1.1-1.3-.8-1.2-.5-1.4-.2-.8 1-1.3 1.3-.2 1.2.3.9.2.8v.2l-.5.5-1.2.7-1.2 1-.6 1 .3 1.3.7.4 1 1.5 1.3 1.2 1 1.2 1.2.6 1.2.2 3-1.9 1-.9 1.4-.8 1.3-.6.3.5-1.9 1.8-1.1 1.5-2 1.8-1.1 1.5-1 1.8-.1 1.2.2 1.3-.3.3.2 1.9H168.4v.6l.9 1 1.3-.2 2.2-.3.9.1.5.2 1.5 1 .8-.8.4-1.7.3-1.7.2-4.4v-2.3l-.1-1.8-.1-.8.2.3.6 3.6.2 2.2.5 3.1.6 1.2 1.3 1.3 1 1.5 1.8-.4.4-1.2.4-.1h1.1l.4.4 1.4.6 1-.6.2-1.3 1.1-1.5.1.2.6 1.4v2l-.5 1.4-1.1 2-1.5 1.3-2.1 1.1h-1.2l-5.3-.7-2.2-.7h-1.4v.2h-.3l-1.2.2Zm-6.3-9.9v-.9l1-1.5 1-1.4 2-1.8 1-1.5 1.5-1.4.3-.3 1 .9 1 .4.4.1.1.8.1 1.7-.1 5.3v1.3l-.3 1.6-.3 1.3-1-.5-.7-.3-1.1-.2-1.3.2-1.2.2h-.7l-.2-.2-.2-1.2h-.9l-1.3-.1v-.5l.2-.3-.3-1.7Zm5.7-11.7v.7l-1.5.7-1.6 1-1 .8-2.7 1.6h-.5l-.9-.5-1-1.1-1.2-1.2-1-1.4-.7-.5v-.5l.2-.4 1.1-.9 1.2-.7.8-.9.1-.7-.2-1-.3-.7.1-.7 1.1-1 .5-.6h.7l1 .5 1.2.7 1.6 1.1 1 .7 1.1 1 .9.7 1 .5-1 1.6v1.2Zm2.7 3-.7-.6-.5-.5-.6-1V523l.1-.9.4-.6.5-.9.2-.3.6-.3.6-.2h.5l.4.1 1.2.5.5.4.6.8.3.9.2.3v.5h-.1l-.2.7-.3.8-.6.7-.5.4-1.1.3-.4.2-1.2-.5Zm11.7-9 1 .8.5.2V518.6l-.5.5-.6.8-.5 1.3 1 .8h.3l-.8.6-.4 1 .6 1v.2l-.3.1-1.4-.2-1.6-1-1.6-.4-1.4-1-.9-.1-.3-1-1.5-1.7-.9-.4-.4-.1 1-1.4 2.1-2 4.2-3h.2l.4 1.5 1.1.4.5.2-.2 1.3.4 1Zm-8.6 9.9.8-.7.6-.8.4-.8 1 .7 1.4 1.5 2.1 2.6 3.2 3.9.9 1.1v.4h-.2l.2.4-1.4 2.1-.3 1.2h-.2l-.6-.2-.6-.7H184l-1.1.4-.4 1.2h-.5l-.7-1-1.2-1.1-.5-1-.5-3-.2-2.2-.7-3.6v-.3l.2-.1Zm-3.8 24.5-.2-5.5v-.3l.6-.2.4 1.7v2l.6 3 .7 2.5.5 2.5.7 2.4.5 2.5.8 2.4.8-3.5.8-1.3 2-2.2.8-.3-.1.6-.6.4-.7.4-1.3 1.4-.2 2-.4 4v2.6l-.2 3.9.5 2.2-.2 1.3h-2l-.1-2.7.5-3.2-1-3-1.6-3.9-.9-7.5-.7-4.2Zm-26-4.9.4.4 1.6.4 2-.4.6.7 1.8.4h1.5l1.8 1 1.6 2.3 2.6.9 1.5-.2 1.4 1.1.8 2 1.3 1.7 2 1 1.7 1.2 1.6 2.9 1.5.6v.1l.8.8-.1.4-.5.7-.8.9h-1.1l-2.1-.3-1.5.8H168l-4.1-2.3h-3.5l-1.3-.8-1.2-1.7-.9-1.5-1.7-1.2-1.2-.5-.8-.9-1-1.8-.3-2-2.7-4.2-.6-1.6v-.9Zm350.5 307 2.6-3.3 2-5.7-4.3 1.9-3-.4-4.6-2.7-2.2 1.2-3.6-.5-3.5-1-5.4.6-5 3.3-5.4-.1-3.6-1.6-5 1.4-3.3 3.7-3.5 2.2-4.8.5-5.1 1.2-3.3 2.6-2.4 2-3.3.2h-.2l-1.7.3 6.5-13 4.8-8.3 4.5-11.1.5-1 3.6 3.2 6.2 3 4.7 1.4 7.9.2 6-2 4.7-3.7 2.7-5 1.2-5.5-1.1-5.4-.2-.5 5.1-.7 3.7-1.3 5.6-2.5 3.8-3.6 3-3.4 1.7-4 1.5-4.5 1-3.7-.6-4.2-1-4-.8-.7 1.5-1.6 2.3-5.2 1-3V766l-1-2.4-2.1-1.5-3.4-1.4-3.5-2.3-2.9-2.8-2.4-3.6-3-5.4-1.4-2-2.3-2-2.4-.8h-3.1l-2.6 1-2.3 2-.2.2-.4-1.2-3.4-2.7-5.2-2.4-4.8-1.8-5-.7-4.3.9-5.8 1.2-5.8 1.4-5 2.2-3.5 3.3-1.8 3.9-.1 1.2-3.2.3-3.3 1.6-4.5 3.7-4 4-3.1 4.6-1.8 3.1-.6 2.3-1.4 5-1 6 2 4.3 3 3.9 4 2.9.5.4-1.9 1.6-2.6 2.6-1.4 4.6v3.9l1 5.3 2.6 4.2 4.1 4.3 3.3 1.3 5.7 1.3 6.6 1.4 5.4.3.6.2-2.6 3.7-1.5 4.2-3.1 5.5-3.6 4.6-2.8 4.8-3.3 4.5-2.7 4.5-.2.2.2-2.7-.8-3.6-2.9-6.5-2-1.8-1.7-.5-3.5-1.4-5.6-1h-9l-2.7.6 1.5-1 2.2-3.4 1-2.3.5-3.5-.8-2.6-.6-1.3 3.4-.8 3-1.8 2.4-2.1 1.1-4.4.5-3.5.3-1.6-.2-2.6-.5-3.9-1.3-3.8-1.7-3.5-1.5-2-1.8-1.3.2-.6v-3l-1.2-3.2-2.5-3-3-2.6-3.2-2.5-2.3-1.8-3.2-1-3.5-.3H380l-3 .9-.4.4-.8-1.7-1.2-1.6-1.9-1-1.8-.1-2 .6-1.5 1-3.3 2.5-2.4 1.6-2.4 1-2.8.5-2.4-.2-1.8.4-1.2 1.2-1 2.1-.2 2.4-.1 4 .4 1.3-.5.2-1.9 2.4-1.3 2.5-.6 2.8-.3 3.3-.1 3 .9 3.2 1.1 3.3 2.9 3.4 1.7 1.9 2.8 1.8-2.3 3.3-.9 4 .3 4 1.8 3.8 3 3.1 4.8 2.2 3.4.6 4.5-.2 3-1v.6l-.4 8.5.5 6.7.3 10-.6-.5-2-1.1-1-2-1.2-2.7-2.8-2.2-2.7-1.7-1.5-2.4-1-3.3-2.6-2.5H355l-3.2-1.5-2-3.6-3-1.9-2.6-.3-2.2-.8-1-1.4-3.6.3-1.8-.5-2.3-2.8-.5 4.6.7 2.9 3.5 6.7.3 3 1.2 3.4 1.5 1.8 1.9 1 2.1 1.8 1.2 2.4 1.7 3 2.3 1.6 3 .4 2.4.2 6 4.3h2.6l2.2-1 2.8.7 2.4.2 1.8-1.7 1-1.1v-.1l1.6 5 1 4.4-1.1 4.6-.4 5.8 5.5.3.8-3.3-.5-3.6.6-5.8.6-3.9 1-6 .6-2.7.5-.6.5 2.2 2.3 6.8 1.7 2.3 3.1 2.9 2 .9 2.3-.8-.3-1 2.8.6 2.5-1 .4-2.5-.7-1.8.9-.5.3-1.3V867l1 .1 2.4-1-2.3-3.2-1.2-1.1 3.5-1 3.6-2 4.6-4.5 2.7-2.8 2-2.4.2-.7.7 1.8-.8 3.8-2.2 8.5-1.6 5.4-2.6 7.8-2.6 4.2-1 4.6 7.4 2.8 2.9-7.5 1.1-6.5 4-5 5.6-6v.6l.7 2.3 1.5 3.1 3.3 1.2 4.3.8 2.3 2.6 3.5 1.5 10.9-1.8 3.6 1.4 4.2 1.3 3.8-.7 4.4-2.7 3-2.3 4-1h3l3.1-1.5 3.7-3.4 2.3-4 4.2-2.9 4.6-3.3Zm-126.6 13-1 1.1-1.4 1.3h-1.9l-3-.9-2.3 1h-2l-6-4.2-2.8-.2-2.6-.4-1.9-1.3-1.7-2.8-1.2-2.5-2.4-2-1.7-1-1.3-1.5-1.1-3-.3-3.2-3.6-6.8-.6-2.6.2-2 1 1 2.2.8 3.3-.3.8 1.2 2.6.9 2.3.3 2.8 1.7 2 3.7 3.8 1.7h2.4l2.2 2 .9 3 1.7 2.9 2.8 1.7 2.6 2.1 1.1 2.5 1 2.3 2.1 1.1.2.2h-.2l1.3 1.5-.3.8Zm69.8-44.2-5.5-.3-6.6-1.4-5.6-1.3-2.9-1-4-4.2-2.4-4-1-5v-3.7l1.3-4.2 2.4-2.4 2.8-2.4-5.3-3.9-2.9-3.8-1.8-3.9 1-5.7 1.3-4.9.5-2 1.7-3 3-4.6 4-4 4.3-3.5 3-1.4 3.9-.5.2-1.7 1.6-3.6 3.2-3 4.9-2.1 5.6-1.4 5.8-1.3 4.2-.8 4.6.7 4.7 1.7 5 2.3 3.2 2.5.9 2.5 1.2-1.4 2-1.8 2.3-1h2.7l2.1.8 2.1 1.8 1.4 1.8 3 5.4 2.4 3.7 3 3 3.7 2.4 3.4 1.3 1.8 1.3.8 1.9v2.8l-1 2.9-2 4.9-2.1 2.2 1.2 1.2 1 3.7.4 3.9-.8 3.5-1.4 4.3-1.7 4-2.9 3.2-3.5 3.4-5.5 2.4-3.5 1.3-6.2.8.5 1.6 1 5.2-1 5.1-2.6 4.6-4.5 3.5-5.6 2-7.5-.2-4.6-1.3-6-3-3.7-3.3v-.1l-2-.9-1.2-.8.1-.2-2-.6Zm-69.9 14.6v.1l-3 1-4.4.2-3-.5-4.6-2-2.8-2.9-1.7-3.5-.2-3.7.8-3.5 2-3 .9-1-3.7-2.4-1.7-1.8-2.6-3.1-1.2-3.2-.8-3 .1-3 .4-3.1.4-2.5 1.3-2.4 1.7-2 1.1-.5-.7-2.1.1-3.8.2-2.1.8-1.8 1-.9 1.4-.3 2.3.1 3-.5 2.5-1 2.6-1.7 3.3-2.6 1.3-.8 1.7-.6 1.4.2 1.6.7 1 1.3.7 1.6.4 1.7 1.4-1.6 2.6-.7h3.6l3.3.2 2.9.9 5.3 4.2 3 2.5 2.3 2.7 1 3v2.7l-.3 1.2 2.3 1.5 1.4 1.8 1.5 3.4 1.3 3.7.5 3.8.2 2.4-.2 1.5-.6 3.5-1 4-2 1.8-2.8 1.7-3 .7-1.4.3 1 2.4.7 2.3-.4 3-1 2.3-2 3-2.5 1.9-3.4 1.4h-2l-3.7-.9-4.2-1-3.4-1.4-1.7-.2v.2l-.7.2h-1.6Zm17.7 13-2.1 1.9-.9 3.5 1 .8h-.8l-1.2-.2-1.7.5-3.6 3.4-1.5 2.2-.5 1.2-.3-3.2-.8-3.8-.3-4-.9-3.9-.3-4.4.2-3.2-.5-3h.2l3.4 1.4 4.3 1 3.8.8h.9l-2.4 1.4 2.5 2.5 1.6.4-.7 1.8-.3 1.7.9 1.3Zm-6.1 9.5-2 2-.6 2.9-1 6.1-.6 4-.6 5.9.4 3.5-.5 2.3-3.7-.2.3-4.7 1.2-4.8-1-4.6-2-6.4-.3-11.6-.6-6.6.4-8.6v-.7h.6l1-.2.4 3-.2 3.2.4 4.6.8 3.8.3 4 .8 3.9.4 3.8.7 2.8 1.5-4.3 1.4-2 3.4-3.2 1.3-.4h.4l-.3 1.5-1 .5-1.3.5Zm17.6 4 1.5 2.3-1 .3-1.7-.2-.1 2-.2 1-1.2.7.9 2.2-.3 1.8-1.7.6-2.4-.5h-1.7l.5 1.3-1.1.4-1.4-.7-3-2.6-1.5-2.2-2.2-6.6-.5-2 .2-1 2.5-1 .4-2.1h1.5l.7.8 3.9.8.6.2-1.1 1.2 2.6 2.2 2.9.1 1.3-.3 1.6 1.4Zm-7-3.4.8-.8 3 1.5.7.6h-2.9l-1.6-1.3Zm22-11.5-1.7 2.3-7.1 7.2-3.5 1.8-4 1.1-1.3-1-5.5-2.7-3.8-1h-.2l-1.3-1.3.7-2.5 2.5-2.3-1.1-1.7.2-1.2 1-2.6-2.4-.7-1.4-1.4 3.7-2 6.1-1.6h8.9l5.4 1 3.1 1.2-.7 3 2.9 3-.4 1.4Zm12.2 12-6.5 7-4.1 5.3-1.2 6.7-2.5 6.5-5.6-2.1.6-3.6 2.7-4.2 2.7-8 1.6-5.4 2.2-8.5.8-4-1.3-3.4-1.2-1.3-1.5-1.8.4-2.2.9.2 1.7 1.5 2.8 6.2.8 3.4-.4 5.8 2.1-2.7 2.8-4.5 3.3-4.6 2.8-4.8 3.5-4.6 3.3-5.7 1.4-4 2.7-3.8 1.3 1 1 .4-.5 1.2-4.5 11-4.7 8.3-7.4 14.7Zm60.8-1.6-2.3 4-3.5 3.3-2.7 1.3h-3.1l-4.2 1-3.2 2.5-4 2.6-3.6.6-3.9-1.2-3.8-1.4-10.9 1.7-2.9-1.2-2.5-2.8-4.5-.8-3-1-1.2-2.8-.7-2 .1-1.3 2.6-1v-.3l.3-.1 3.5-.2 2.7-2.2 3-2.5 4.8-1.1 5-.5 3.8-2.4 3.3-3.6 4.3-1.3 3.4 1.5 6 .2 5-3.4 5-.6 3.4 1.1 4 .5 2-1.1 4.2 2.5 3.6.5 2.4-1.1-1 3.3-2.5 3-4.6 3.3-4.3 3Zm134.5 102.9-.5-1.5h.5l3.6.8 3.3-1.4.5-3.5-1-2.5 1.1-.9.4-1.7v-1.8l1.5.2 3-1.3-3-4.4-4.8-4-7.8-3.6-5.2-1.2h-3.4l-1.6-.3-2.4.8-4.9 5-2 3-.8 2.5-.7-5.3-1.1-5.5-.7-5.6-1.3-5.4-.6-6.3.2-4.5-.8-4.4h.6l4.6 1.8 6.1 1.3 5.4 1 3 .1 5.2-2.3 3.7-2.9 2.9-4.7 1.4-3.4.5-4.8-1.3-3.5-1-2.2 5-1.2 4-2.6 3.3-3 1.4-6.2.5-5 .4-2.2-.4-3.7-.9-5.4-2-5.3-2.3-5-2.2-2.7-2.7-1.7.3-1-.1-4.2-1.7-4.4-3.6-4.2-4.3-3.4-4.4-3.4-3.3-2.5-4.5-1.2-4.9-.3-5 .2-4.1 1.2-.7.9-1.3-2.7-1.7-2-2.6-1.3-2.5-.2-2.7 1-2 1.3-4.5 3.7-3.4 2.4-3.3 1.4-4 .9-3.2-.1-2.4.6-1.7 1.6-1.2 3-.3 3.3v5.4l.8 2.2-.8.4-2.5 3.3-1.9 3.6-.6 3.8-.4 4.7v4.3l1.3 4.4 1.8 4.6 4 4.6 2.5 2.6 4.2 2.7-.4.4-2.9 4.4-1 5.6.5 5.5 2.6 5.3 4.3 4.3 6.7 2.8 4.7.7 6.2-.4 4.3-1.6v1l-.2 12.2 1 9.3.8 14.6-1.2-1v.2l-3-1.6-1.3-2.8-1.8-3.7-3.9-3.1-3.8-2.3-2.2-3.4-1.5-4.6-3.7-3.3-3.6.1-4.6-2-3-5-4.4-2.7-3.3-.3-3.3-1-1.3-2-5 .7-2.6-.7-3-3.5-.3 4-3-1.6-1.6-.6-2.3-.4-1.9.4-2 1.1-1.2 1.7-.8 2-.5-.4-3.3-.4-4.2.5-3.8.8-3.3 1.3-5.7 5.2-3.2 3-2.3 3.2-1 3.4.3 3 .3.7-1.8 1.4-1.5 2.2-1.5 4-1 4-.2 4v2.5l.5 1.6 1 3.6 1.7 4.1 3 1.9 3.3 1.3 3.6.3h.3l-.5 1.5-.7 2.6.9 3.3 1.5 2.4 2.6 3 3.3 1.6 4.4 1 2.5-.4 4-1.3 4.8-1.7 3.5-1.8h.3l-.2 3 .6 3v4.6l-.4 4.1v4l-.4 4v3.5l-.7-1.3-2-2-4.2-2.9-2.1-.3-1.3.3-2.7.5-4 1.4-5.7 3.4-3.5 3.4-2.2 3.8 2.7.6 1-.3.3 1.2.5 1.2 1 .4-.7 1.9.8 2.5 2.8.6 2.8-1h.3l-.3 1 2.7.5 1.9-1 3.2-3.3 1.6-2.6 1.2-4.5.7-2.8.3-2.2v-.1l.8.6.9 2.5 1.8 6 1 3.8 1.3 5.8-.1 3.6 1.2 3.2 6-1-1-5.9-1.8-4.4.6-4.5.3-6.6.3-12-.1-6.8-1.3-8.5-.1-.5 3.4.5 5-.4 3.6-1 5-2.8 3-3.5 1.8-4.2-.2-4-1.3-3.8-2.8-3-.2-.1 2.9-2.2 1.6-2 .2.5 3.2 2.2 4 .5 3.6.1 8.6 5.9h3.4l3-1.5 4 .9 3.2.1 2.5-2.3 1.3-1.7.3-.6 2.5 7.6 1.5 6.2-1.4 6.5 1 16.2-2.7 9.1 3.7 8.3-1.3 22 6 .1 1.4-32.2-1-9.7.8-10.1-.7-5 .6-8.2.6-5.6 1.3-8.6.7-3.9 1.2-1.3-.1.6.8 3 3.4 9.5 2.4 3.3 4.5 3.8 2.5 1.1 3-1Zm-87.1-54.7 1.6 1.9 3 1 4.7-.7 1.1 1.6-1.8.3h-3l-3-.7-2.8-1.3.2-2Zm-14 92.3-1.7 7-1.5 2.4-3 3-1.5.9-1.3-.2.4-1.5-1.9.3-2.6 1-2-.5-.4-1.7.7-2.4-1.4-.6-.3-.7-.4-2.2-1.8.5-1.2-.3 1.4-2.4 3.3-3.2 5.6-3.3 3.8-1.4 2.3-.4.6 2 3 .8.3.9-.3 2Zm11.6-17.8.1 6.8-.3 11.9-.3 6.5-.6 4.8 1.7 4.5.9 4.8-4.2.7-.8-2.2v-3.6l-1.2-5.9-1-3.9-1.9-6-1-2.8-2.2-1.6-1.2-.3-1.6-.5-.5-1.4h.5l1.6.1 4 2.8 1.8 1.7 2 4 .5-2.8v-3.8l.4-4v-4l.5-4.1v-4.7l-.7-3 .2-3.1H533.3l1.4 9.1Zm19.1-34.3-3.8 2.9 1.1.9 2.6 2.7 1.2 3.5.2 3.7-1.5 3.8-2.9 3.2-4.8 2.7-3.3 1-4.9.4-3.5-.6v-.2l-1.7.2h-1v-.2l-1.6.4-3.6 1.8-4.7 1.7-4 1.3-2.2.4-4-1-3-1.5-2.6-2.7-1.3-2.2-.8-3 .6-2.3.9-2.6-5-.4-3.2-1.3-2.6-1.6-1.5-3.8-1-3.5-.5-1.4V947l.2-3.8 1-3.8 1.4-3.8 1.3-2 2.4-1.8-.6-1.2-.3-2.7.9-3 2.2-3 3.1-3 3.2-3 2.3-2 3.1-1.3 3.7-.7 4-.5 3 .4 1.6 1.3.2-1.5.7-1.9 1-1.4 1.7-1 1.5-.3 2 .3 1.5.6 3.3 1.8v.9l1 4 2.8 5 2.4 4.2.5 4.5 1.8 4.5 2 2.5 2.8 1.4 3 2.4 1.7 3.3 1.7 2.8-1.7 2Zm2.3-3-1.4-2.3-1.8-3.4-3.3-2.6-2.6-1.4-1.8-2.2-1.8-4.3-.4-4.4-2.6-4.6-2.7-4.8-1-3.8v-.2l2.7 1.1 3.1.7 3.3.1 2.6-.4 1.6.1 1.2.8 1 1.6.5 2.1.5 3.8-.6 2.2 1.3.3 2 1.8 1.8 2.2.7 2.4.8 3.2.4 3-.6 3-1 3.4-1.9 2.6Zm36.2 5.9-1.3 1.5-2 2h-2.8l-4.2-1-3.2 1.5H576l-8.5-5.8-3.8-.2-3.8-.4-2.7-1.9-.4-.6 2.2-3 1-3.8.7-3.2-.4-3.2-.8-3.2-.8-2.5-2-2.5-2.2-2.1-.6-.1.4-1.5-.6-4-.4-2.2-1.2-1.8 2.5.3 3.9 2.4 3 5 5.2 2.3 3.4-.2 3.2 2.9 1.4 4.4 2.4 3.8 4 2.3 3.7 3 1.7 3.4 1.4 3.1 3 1.6.2.2-.1.2 1.8 2-.4 1.3Zm-1.1-41.8v.1l-4.4 1.6-6.1.5-4.4-.7-6.4-2.7-4-4-2.6-5-.4-5.2.9-5.1 2.8-4.3 1-1.3-5-3.2-2.4-2.5-3.8-4.3-1.8-4.5-1.2-4.2v-4.2l.4-4.6.5-3.5 1.8-3.4 2.3-3.1 1.4-.6-1-2.9V836l.2-3 1.1-2.7 1.4-1.3 2-.6 3.2.1 4.2-.8 3.5-1.5 3.5-2.5 4.4-3.8 2-1.2 2.3-.8h2l2.3 1.1 1.5 1.8 1.1 2.4.6 2 1.7-2.1 3.6-1.1 5-.3 4.7.3 4.1 1.2 3.3 2.4 4.4 3.3 4.2 3.4 3.4 3.9 1.6 4 .1 4-.5 1.6 3.1 2 2 2.5 2.4 4.8 2 5.2.8 5.3.4 3.5-.4 2.2-.6 5-1.3 5.7-2.9 2.8-3.8 2.4-4.2 1-1.7.5 1.4 3.2 1.1 3.3-.4 4.3-1.3 3.3-2.7 4.4-3.5 2.7-4.9 2.3-2.7-.1-5.3-1-6-1.3-4.7-1.8-2-.2v.2l-1.3.3h-2Zm16.8 31.3-2.5 2.7-.8 4.2-1.3 8.7-.6 5.6-.6 8.3.7 5-.8 10 1 9.8-.9 20.3-.4 10.9h-4l1.2-21.4-3.6-8.1 2.7-9-1.1-16.2 1.4-6.6-1.5-6.5-3-9-.9-16.4-1-9.3.3-12v-1.3h1l1.4-.4.8 4.5-.2 4.4.7 6.4 1.3 5.5.6 5.6 1.2 5.4.7 5.3.9 3.4 1.8-5.6 1.8-2.8 4.7-4.7 2-.7.7.1-.4 2.3-1.6.9-1.7.7Zm6.9 17.6-2.3-3-2-5.9-1.3-3.5-.8-2.8.2-1.5 3.6-1.7.4-3 3 .1 5 1.1 7.5 3.5 4.6 3.8 2.4 3.3-1.7.7-2.2-.2-.2 2.7-.2 1.3-1.6 1.1 1.3 3-.4 2.7-2.5 1-3.4-.7h-2l.6 1.9-1.7.6-2-.9-4.3-3.6Zm127.8-54.6-2-1.6-3.5-1.3-3.5-2.3-2.9-2.8-2.4-3.6-3-5.4-1.4-2-2.3-2-2.4-.8h-3l-2.7 1-2.3 2-.2.2-.3-1.2-3.5-2.7-5.2-2.4-4.8-1.8-5-.7-4.3.9-5.8 1.2-5.8 1.4-5 2.2-3.4 3.3-1.9 3.9-.1 1.1-3.2.4-3.3 1.6-4.5 3.6-4 4-3.1 4.7-1.8 3.1-.5 2.3-1.4 4.9-1 6.1 2 4.3 3 3.9 3.8 2.9.6.4-1.8 1.6-2.6 2.6-1.5 4.6v3.9l1 5.3 2.6 4.2 4.2 4.3 3.2 1.3 5.7 1.3 6.7 1.4 5.3.2.6.3-2.5 3.7-1.6 4.1-3.1 5.6-3.5 4.6-2.8 4.7-3.4 4.6-2.7 4.5-.1.2.2-2.8-.8-3.6-3-6.5-2-1.7-1.7-.6-3.5-1.3-5.6-1h-9l-6.5 1.6-5 2.8 2.6 2.4 1.5.5-.6 1.7-.3 1.7.8 1.3-2 1.8-1 3.5 2.8 2.6 3.9.8.6.2-1.1 1.2 2.6 2.2 2.9.1 6-1.6 3.6-2 4.6-4.5 2.7-2.8 1.9-2.4.2-.7.8 1.8-.8 3.8-2.2 8.5-1.6 5.4-2.6 7.8-2.7 4.2-.9 4.6 7.3 2.8 3-7.5 1.1-6.5 4-5 5.6-6.1-.1.7.8 2.3 1.4 3 3.4 1.3 4.3.8 2.3 2.6 3.5 1.5 10.9-1.8 3.6 1.4 4.2 1.2 3.8-.6 4.4-2.7 3-2.4 3.9-.9 3.1-.1 3-1.4 3.8-3.4 2.3-4 4.1-2.9 4.7-3.4 2.6-3.2 2-5.7-4.3 1.9-3-.4-4.6-2.7-2.2 1.2-3.6-.4-3.5-1.1-5.4.6-5 3.3h-5.4l-3.6-1.7-5 1.5-3.3 3.6-3.5 2.2-4.8.5-5.1 1.2-3.3 2.6-2.4 2-3.3.2-.2.1v-.1l-1.7.3 6.5-13 4.8-8.3 4.5-11.1.5-1 3.6 3.2 6.2 3.1 4.7 1.3 7.9.3 5.9-2.1 4.8-3.7 2.7-5 1.2-5.5-1.1-5.4-.2-.5 5.1-.7 3.7-1.3 5.6-2.4 3.8-3.7 3-3.3 1.7-4.1 1.5-4.5 1-3.7-.6-4.2-1.1-4-.7-.7 1.5-1.5 2.3-5.2 1-3V905l-1-2.4ZM650 987.5l-1.8 2.3-7.1 7.2-3.4 1.8-5.8 1.6h-2.4L628 999l1.3-1.4-2-.9-3.7-.7-2-2 .6-2.6 2.5-2.3-1.1-1.6.2-1.3 1-2.6-2.3-.7-1.4-1.3 3.6-2.1 6.1-1.6h8.9l5.4 1 3.2 1.2-.8 3 2.9 3-.4 1.4Zm15.6 11.8v-.2h.3l3.5-.3 2.7-2.2 3-2.5 4.9-1.1 5-.5 3.7-2.4 3.3-3.6 4.3-1.3 3.4 1.5 6 .2 5-3.4 5-.6 3.4 1.1 4 .5 2-1.1 4.2 2.5 3.6.5 2.4-1.1-1 3.3-2.5 3-4.6 3.3-4.3 3-2.3 4-3.5 3.3-2.7 1.2-3.1.1-4.2 1-3.2 2.5-4 2.6-3.5.5-4-1.1-3.8-1.5-10.9 1.8-2.9-1.2-2.5-2.8-4.5-.8-3-1.1-1.2-2.7-.7-2 .1-1.4 2.6-1Zm13.1-33.8-4.5 11-4.7 8.3-7.4 14.7-6.5 7-4.1 5.3-1.2 6.7-2.5 6.5-5.6-2.1.7-3.6 2.6-4.1 2.7-8 1.6-5.5 2.2-8.5.8-4-1.3-3.4-1.2-1.3-1.5-1.8.4-2.2.9.2 1.7 1.5 2.8 6.2.8 3.4-.4 5.8 2.1-2.7 2.8-4.5 3.3-4.6 2.8-4.8 3.6-4.6 3.2-5.6 1.5-4.1 2.6-3.8 1.3 1 1 .4-.5 1.2Zm63-54.6-2.1 4.9-2.2 2.2 1.2 1.1 1 3.7.5 4-.9 3.5-1.4 4.3-1.6 4-2.9 3.2-3.5 3.4-5.5 2.4-3.5 1.3-6.2.8.5 1.6 1 5.2-1 5.1-2.6 4.6-4.5 3.5-5.6 2-7.5-.2-4.6-1.3-6-3-3.7-3.3v-.1l-2-.9-1.2-.8.1-.2-2-.6-5.4-.3-6.6-1.4-5.6-1.3-2.9-1-4-4.2-2.4-4-1-5v-3.7l1.3-4.2 2.4-2.4 2.8-2.4-5.3-3.9-2.8-3.8-2-3.8 1-5.8 1.4-4.9.5-2 1.7-3 3-4.6 4-4 4.3-3.4 3-1.5 3.9-.5.2-1.7 1.7-3.6 3.1-3 4.9-2.1 5.6-1.4 5.8-1.2 4.2-.9 4.6.7 4.7 1.7 5 2.3 3.2 2.5.9 2.6 1.2-1.5 2.1-1.8 2.2-1h2.8l2 .8 2.1 1.8 1.4 1.9 3 5.3 2.5 3.7 3 3 3.7 2.4 3.3 1.3 1.8 1.3.9 1.9v2.8l-1 2.9ZM622 582.7l2.6 3 1.4.7-.3.5.3 3.1.7 2.8 1.5 2.4 2 2.8 2 2.3 3 1.8 3.1 1.6 4.4.6 2.7.1 3.4-.5.5 4 2 3.6 3 2.8 4 1.6 4.6.2 5-1.7 2.9-1.9 3.2-3.3 1.6-2.8 6 7 5 4.7 7.2 7.2h-.8v.2h-.1l-2.2.5-2-.9-2.8-1-3.7.1-3.2.7-2.8-.8-3-1.8h-3.7l-2 1.8-3.4 1.2-4-1.3-3.6.7-2 1.5-2.3 1-1.8-.4-2.4 2.8-1.8.8-3.5-.4 2.7 3.6 2.5 1.8 7.4 2.5 2.3 2.1 3.2 1.6 2.5.4 2-.6 2.8-.2 2.5 1 3.5 1 2.8-.4 2.4-1.7 2-1.6 7.5-1 2-1.7.9-2.3 2.6-1.4 1.9-1.5.2-2.5V627.4l4.6 2.7 3.7 2.6 2.4 4.2 3.7 4.5 4.3-3.5-1.6-3-2.9-2.4-3.5-4.7-2.3-3.3-3.5-5.3-1.4-2.4v-.8l2 1.3 6.4 3.5 3 .6 4.2-.1 2-.7 1.3-2.2-1-.5 2.5-1.5 1.3-2.4-1.5-2.3-1.7-.8.2-1-.7-1.2-.7-.8.8-.6 1.2-2.3-4-1-4.6.2-6 1.9-3.5 1.9-1.9 1.5-.9.7-1 1.7-.4 5 .3 2.6.6 1.3-2.5-2.2-3.2-2.3-3-2.7-3.4-2.4-3.3-3-2-2.5-2.5-2h.2l3.5-1.4 4-2.2 3.4-2 1.7-1.5 1.7-3.8.8-3.5-.7-3.9-.9-2.5-2-2.8-2.4-1.4-1.4-.6 2-3 1-3.4.3-3.2-2.2-4-2-3-.9-1.4-2-1.8-3-2.5-3.7-2-3.7-1.5-2.6-.4-2.1.4-.3-.6-2.1-2.3-3-1.6-4-.5-4.1.2-4 .3-3 .3-3.2 1.5-2.8 2.2-2.7 2.6-1.7 2.7v.6l-1.8-.8-2-.3-2 .6-1.5 1.1-1 1.9-.6 1.8-.7 4.1-.7 3-1.1 2.3-1.8 2.3-1.8 1.5-1 1.6-.2 1.8.7 2.2 1.5 2Zm73.3 48.4-1.5 1.2-2.9 1.5-1 2.4-1.5 1.4-7.5 1-2.1 1.7-2.3 1.6-2.3.3-3.2-1-2.7-1-3.1.3-2 .5-2-.3-3-1.5-2.3-2.1-7.4-2.6-2.3-1.5-1.3-1.7 1.5.2 2.1-1 2.3-2.6 1.5.3 2.6-1.1 2-1.4 3.2-.6 4 1.3 4-1.3 1.8-1.8h3l3 1.7 3.1 1 3.3-.7 3.4-.2 2.6 1 2.3 1 2.4-.6h.2v.2l1.9.2.3.8v1.4l-.1 2Zm6.4-22.3 3.3-1.8 5.8-1.8 4.3-.2 2.7.7-.5 1-1.5 1 1.3 1.6.5.8-.3 1.4 2.2 1 1 1.5-.9 1.7-2.1 1.2-1.3 1.2 1.3.7-.6 1-1.5.5h-4l-2.7-.5-6.3-3.4-1.7-1.1-.5-.8 1-2.7-1-1.7 1.5-1.3Zm-22-2.5 2 2.5 3.5 3.2 3.3 2.3 3 2.7 3.2 2.4 3 2.6 2.4 1.6-1.8-4.3-.4-2.4.4-4.7.7-1.3.3-.2.8 1.3-.4 1.1-.6 1.2-.2 2.8 1.6 2.7 3.5 5.3 2.3 3.3 3.6 4.8 2.8 2.3 1.2 2.1-3 2.4-3-3.7-2.4-4.3-4-2.8-5.8-3.4-8.4-8.4-5-4.6-5.6-6.6-.5-.5.5-.5.5-.8 2.5 2ZM621 577.1l.9-1.2 1.8-1.5 1.9-2.5 1.2-2.5.8-3.1.6-4.1.5-1.6.9-1.6 1-.9 1.8-.5 1.6.2 1.7.8 1.5.9v-2.1l1.4-2.3 2.6-2.6 2.7-2 2.8-1.4 6.9-.6 4-.2 3.6.4 2.8 1.4 1.9 2 .6 1.2 2.7-.4 2.3.3 3.5 1.5 3.5 1.8 3 2.5 1.9 1.7.8 1.3 2 3 2 3.6-.2 2.9-1 3.1-1.8 2.6-.8 1.3 2.5 1 2.1 1.2 1.8 2.6.9 2.3.6 3.7-.7 3.1-1.5 3.5-1.6 1.3-3.3 2-4 2.2-3.4 1.3-1.4 1 .2.1-.5.7-1.2 1 .1.2-1.6 2.9-3.1 3.1-2.7 1.8-4.8 1.6-4-.2-3.8-1.4-2.7-2.6-2-3.2-.4-3.6v-1.4l-4.4.8-2.6-.2-4.1-.5-3.1-1.6-2.6-1.6-2-2.2-2-2.7-1.4-2.2-.6-2.6-.2-2.7.5-1.1-2-1.2-2.5-2.8-1.3-1.8-.7-1.8.1-1.4ZM381.4 428.7l.4.2-.4 1.4v1.7l.8 2.8 1 2.5 1.4 2.3 1 1.3 1 .8 1.9 1.5 2.5 1.7 2.4-.1 2.3-.6 2-1.2.3.8.7 1.7 1.8 1.5 1.8.8 2.6.6 2.3-.3 2.8-1 1.3-1.3 3.5-5 1.1-2.2 1 1.5 1.5 1.5 1.8 2.4 1.4 2.5 1.5 2 1.4 2.4.9 1.3-.2-.1-2-.4H420l-1.3.7-.6.6-1.3 1.4-1.6 2.3-1.7 4-.6 3.2.3 3 2-.8.3-.4.5.5.8.5.6-.1.3 1 1.5 1.2 2-.7 1-1.6.2.6 1.8-.8.7-1.3.4-3.1-.1-2-1.9-4.7-.6-1.1h.3l1.5 1 3.2 2.5 2 1.7 3 2.6 1.3 2 17.6 13.3-.4 6.5 7.5.4 1.1-4.3-.7-4.9.9-7.9.7-5.3 1.5-8.3.8-3.7 1.3-1.2v.5l.7 3 3.4 9.2 2.4 3.3 4.5 3.8 2.7 1.2 3.2-1-.5-1.4h.5l3.8.8 3.4-1.2.6-3.4-1-2.4 1.2-.8.4-1.7v-1.7l1.6.2 3.2-1.1-3.1-4.4-5-4-8-3.7-5.4-1.3-3.4-.2-1.7-.2-2.5.6-5.1 4.6-2.2 2.8-1 2.5-.6-5.2-1-5.2-.6-5.5-1.2-5.3-.6-6 .4-4.4-.8-4.3h.6l4.8 2 6.3 1.4 5.6 1.2 3.2.2 5.3-2.1 4-2.7 3-4.4 1.6-3.3.6-4.6-1.2-3.5-1-2 5.1-1 4.3-2.5 3.4-2.8 1.6-5.9.7-4.7.5-2.2-.4-3.5-.8-5.2-2-5.3-2.3-4.9-2.3-2.7-2.7-1.7.4-1v-4L489 347l-3.7-4.2-4.4-3.4-4.6-3.4-3.4-2.5-4.5-1.4-5-.4H458l-4.2 1.1-.8.8-1.2-2.7-1.8-2-2.7-1.3-2.5-.2-2.8.8-2.2 1.2-4.7 3.5-3.5 2.2-3.6 1.3-4 .7-3.5-.2-2.5.5-1.7 1.5-1.4 2.8-.3 3.2-.1 5.4.7 2-.9.3-2.6 3.2-2 3.3-.7 3.7-.5 4.5-.1 4.3 1.2 4.2 1.8 4.5 4 4.6 2.6 2.5 4.2 2.7-3.4 4.6-1.2 5.3.4 5.4 2.6 5.2 4.4 4.2 7 3 4.8.8 6.4-.2 4.5-1.4v1l-.4 11.7.8 9 2.2 16 1.3 8.8 1.5 6-1 3.7-16.2-14-2.6-1.6-1.4-2.7-2.5-3.7-4.4-6.6-2.8-3.6-4-4.1v-.2l1.7-.8 2.7-2.2 1.4-1.9 1.7-3.4.3-3.2-.7-2.8-1.7-2.2-2.2-1.6-2.7-.6.6-2 .1-2v-3l-.9-2.4-.9-1.9-1.5-1.7-1.7-1.4-1.3-1.1-2.1-.7-2.1-.3-.2.1-.3-.7-2-2-1-1-1.6-.7h-1.3l-1.1.7-1.3 1.2-1.6 1-1.8.8-2 .4-3 .3-1 .3-1.4.6-1 1-.7 1.5v1.3l.4 1.2h-.3l-1.9 1-2.1 1.9-1.8 1.9-1.2 1.9-1 5-.6 2.8v2.7l.8 2.2 1.4 1.6Zm42.7 31.4.1 1.8-.4 2.7-.4 1-.5.2-.5-1-1 1-1 1.5-1 .4-1-.6-.5-1.7-1 .2-.4-.2-1.1-1.1-1 1-.4.2-.2-1.6.5-2.9 1.7-3.8 1.4-2.2 1-1 1 .9 2-.7.3.3.6 1.1 1.8 4.5Zm45.5-16.9 3.1.2 5.2 1.3 7.8 3.6 4.7 3.8 2.3 3.2-1.7.7-2.3-.4-.2 2.7-.3 1.2-1.7 1 1.3 3-.4 2.5-2.6 1-3.6-.8-2-.1.6 1.8-1.9.6-2-1-4.5-3.6-2.2-3-2.1-5.7-1.3-3.4-.7-2.7.3-1.4 3.7-1.6.5-2.8ZM447.8 416v.2l-4.5 1.4-6.3.3-4.6-.8-6.7-2.8-4.1-4-2.5-4.8-.4-5.1 1-5 3-4 1.2-1.3-5.1-3.1-2.5-2.6-4-4.3-1.6-4.4-1.2-4v-4l.6-4.5.6-3.4 1.9-3.2 2.4-2.9 1.5-.5-1-2.8.2-5.2.3-2.9 1.1-2.5 1.5-1.3 2-.4 3.5.2 4.3-.7 3.6-1.3 3.8-2.3 4.7-3.5 2-1 2.5-.9 2 .2 2.4 1.1 1.6 1.8 1 2.3.6 1.9 1.8-2 3.8-.9h5.2l4.9.4 4.2 1.2 7.9 5.8 4.3 3.4 3.5 3.9 1.5 4v3.7l-.5 1.6 3.2 2 2.1 2.5 2.4 4.8 1.8 5 .8 5.2.3 3.3-.4 2-.7 4.8-1.5 5.5-3 2.6-4.1 2.2-4.4 1-1.8.3 1.4 3.2 1.2 3.1-.6 4.2-1.4 3.1-3 4.2-3.6 2.5-5 2-3-.2-5.4-1.1-6.3-1.4-4.8-2-2.1-.2v.2l-1.3.2H448Zm4.7 61.3.5-2.8 1.2-4.7-1.5-6.2-1.3-8.8-2.2-15.9-.8-9 .5-11.6V417h1.2l1.4-.3.8 4.4-.4 4.2.6 6.2 1.2 5.4.6 5.4 1 5.2.7 5.2.8 3.2 2-5.2 2-2.7 5-4.4 2-.6.8.1-.5 2.2-1.6.8-1.8.6-2.7 2.6-.9 4-1.5 8.3-.7 5.4-.8 8 .6 4.8-.8 3.3-5.7-.3.3-5.7Zm-30.9-35.4 2.7 3.6 4.4 6.6 2.4 3.6 1.5 2.8 2.8 1.9 16.6 14.2-.4 1.5-17-12.7-1.2-2-3-2.7-2.1-1.7-3.3-2.6-1.7-1.2h-1.9l-.8.3-1 .3-.5-.4 1-.5h3.1l1.6.2 3.1 1.6-1.1-2.2-1.5-2-1.3-2.4-1.6-2-1.3-2.5-2-2.5-1.4-1.4-1-1.6.5-.3.2-.2 4.2 4.3Zm-41.4-19.5.5-2.7 1-4.8 1.1-1.8 1.7-1.7 2-1.7 1.6-1 1.6.2-.6-1.2-.3-1.2v-1l.4-1.2.7-.7 1.1-.5 1-.2 3-.4 2-.3 2-.8 1.8-1.2 1.3-1.2.8-.5h.8l1.2.5 1 .9 1.7 1.8.7 1.5.9-.3 1.7.2 1.8.5 1.2 1 1.7 1.5 1.3 1.4.9 1.8.8 2.2v2.8l-.1 1.7-1 3.2h.6l3 .6 1.9 1.4 1.5 1.9.6 2.5-.2 2.8-1.5 3.2-1.4 1.7-2.4 2-2 1v-.2l-1 .9-.4.2v-.1l-1 1-1.2 2.3-3.4 4.9-1 1-2.5 1-2.1.2-2.4-.5-1.5-.6-1.5-1.3-.6-1.5-.6-2-3 1.8-2 .5h-2l-2.3-1.4-1.9-1.5-.8-.6-.9-1.3-1.4-2-1-2.5-.6-2.5v-1.6l.5-2-.9-.4-1.1-1.4-.7-1.8v-2.5Zm941.5 436.1-1.7-3.6-2.2-3.2-.8-.4.8-1.8.4-5.3v-3l-1-2.7-1.7-1.8-2.3-.7-3.4-.2-3.8-1-3.4-1.5-3.2-2.4-4.3-3.8-1.8-1.3-2.6-1h-2.4l-2.7.9-2 1.8-1.4 2.4v.2l-.8-.9-3.9-1.3-5.2-.6h-4.8l-4.5.9-8.3 5-4.6 3-3.7 3.5-2 4-.5 4 .3 1-2.6 1.4-2.5 2.4-2.8 4.6-2.3 4.8-1.2 5-.6 3.4.2 2.1.3 4.8 1 5.7 3.1 3.1 3.8 2.5 4.3 1.4.6.1-1.1 2-1.5 3.1.2 4.4 1.2 3.5 2.5 4.4 3.6 3 5 2.4 3.2.1 5.4-.6 6.3-.9 4.7-1.4h.6l-1.1 4v4.2l-1 5.8-1.7 5.2-1 5-1.5 5.1-1 4.8-.7-2.2-1.8-3-4.6-5-2.4-.8h-5.1l-5.2.8-8 2.9-5 3.3-3.6 4.1 3 1.4h1.5v1.6l.2 1.6 1.2.9-1.2 2.2v.2l-.7-.4-5-1.7-3.3-.4h-3.1l-1.4.5-3 2.8-1.2 1.7-.2.7-.5-2-1-2.9-.5-3-1-2.7-.7-3.3V939l-.6-2 3 .7 3.8.5 3.4.4h1.9l3.2-1.5 2.2-1.6 1.7-2.7.8-1.8v-2.7l-.9-2-.5-.7 2.7-.8 2.5-1.5 2-1.8.6-3.3.2-2.7.1-1.2-.3-2-.8-2.8-1.5-2.8-1.6-2.5-1.6-1.4-1.6-.8.2-.4-.3-2.2-1.2-2.4-2.5-2.1-2.8-1.7-5-2.8-3-.6h-3l-3.1.3-2.6.8-.3.3-.7-1.1-1.2-1.1-1.8-.6h-1.5l-1.7.6-1.3.8-2.6 2-2 1.4-2 .9-2.3.5h-2l-1.6.5-1 1-.7 1.6-.1 1.9.2 2.8.5 1-.4.1-1.4 2-1 1.9-.3 2.1v2.5l.1 2.3 1 2.4 1.3 2.4 2.7 2.3 1.7 1.3 2.4 1.1-1.6 2.4-.5 3.2.5 2.9 1.9 2.8 2.9 2.1 4.3 1.3 3 .2 3.8-.4 2.5-.9.3 6.7 1 4.9 2.2 8.5 1.2 4.8 1.2 3.1-.7 3.4.2 4.5h4.8l.5-2.7-.7-2.7.1-4.2.2-3 .4-4.5.3-2 .4-.4.6 1.5 2.4 5 1.7 1.6 3 2 1.7.4 2.1-.7-.3-.7 2.3.3 2.1-1 .2-2-.7-1.2.6-.4.2-1v-.7h.7l.9-.4 3.6-.5h.5l-.6 1.4 3 1.2 2.5-.8 4.8-3.3 2.6-2.9 2.6-5.5 1.5-3.3 1-2.7v-.5l1 1.3.6 3.6.7 8 .3 5.3v7.7l-1 4.6.7 4.3 7.3.2.2-7.6-1-6 2-5.8 2-8.4 3.4-15.2 1.6-8.7.5-11.2.1-1 4.1 1.7 6.4.8 4.6-.4 6.9-2.1 4.6-3.7 3-4.8 1-5.3-.7-5-2.7-4.6-.3-.3 4.2-2.2 2.8-2.3 4.2-3.9 2.2-4.4 1.5-3.8.3-4.3-.1-4.3-.3-3.5Zm-110.6 78-2.5 1-3.7.4-2.7-.2-4-1.2-2.7-1.9-1.7-2.4-.5-2.7.4-2.6 1.5-2.3.8-1-3.4-1.6-1.7-1.2-2.5-2.1-1.2-2.3-.9-2-.1-2.2v-2.4l.2-1.9 1-1.7 1.2-1.7 1-.4-.8-1.7-.2-2.7v-1.5l.5-1.3.8-.7 1.1-.4h2.1l2.5-.6 2.2-1 2.1-1.4 2.6-2 1-.8 1.5-.5h1.2l1.4.5 1 .8.7 1.2.5 1.2 1.2-1.3 2.1-.6 3-.3h3l2.5.4 5 2.8 2.7 1.6 2.2 2 1.1 2 .2 1.9-.2 1 2.1 1 1.4 1.2 1.6 2.4 1.4 2.7.7 2.7.3 1.7-.1 1.2-.2 2.5-.5 3-1.7 1.5-2.2 1.4-3.9 1.1 1.2 1.9.8 1.6-.1 2.2-.7 1.7-1.5 2.3-2 1.5-2.9 1.3h-1.6l-7-.8-3-.8h-1.7v.2l-.4.1-1.6.1Zm11.8 15.9-1.6 1.6-.3 2.3-.5 4.6-.1 3-.1 4.4.6 2.5-.3 1.6-3 .1-.1-3.4.6-3.6-1.2-3.3-1.2-4.7-2.2-8.5-1-4.9-.3-6.3v-.4h.5l.7-.2.6 2v2.4l.7 3.4 1 2.8.6 3 1 2.7.6 2.8.9 2.3 1-3.5 1-1.5 2.7-2.6 1.1-.4h.2v.8l-1 .5-1 .5Zm14.6 3.6v2.2l-1 .7 1 1.7-.2 1.2-1.3.5-2.2-.2h-1.5l.5 1.1-.8.3-1.2-.4-2.8-1.7-1.5-1.5-2.4-4.7-.5-1.4v-.6l2.1-1 .2-1.5h1.6l3.1.3 4.9 1.6 1.2.8.2 1.9 1.7.8h-1Zm.3-1.4v-.6l.6.4.8.8-1.4-.6Zm22-12-4 8.6-2.5 2.7-4.5 3.1-2.1.7-1.7-.6.8-1.8h-2.1l-2.8.3-1.8-2-1.5-.8v-.7l1.5-2.7-1.5-1.2-.2-1v-2.7h-2.3l-1.6-.7 2.6-2.9 4.8-3.2 7.8-2.8 5-.8h3.1l.3 2.9 3.4 1.8.1 1.3-.9 2.6Zm19.2-30.8-.6 11.2-1.5 8.6-3.5 15.2-2 8.3-2 6 1 6.2-.1 6.4h-5.5l-.5-3.4 1-4.5-.1-7.9-.3-5.2-.7-8.2-.5-3.9-2.2-2.5-1.5-.7-1.9-1.1-.3-2.1h.8l2 .7 4.3 4.6 1.7 2.8 1.5 5.3 1.1-3.2 1-4.8 1.5-5 1-5.2 1.7-5.1 1-6v-4l1.2-4.1 1.4.4h1v1.2Zm41.9-41.6-1.5 3.8-2 4.1-4.1 3.8-2.7 2.2-5.2 2.7 1 1.3 2.5 4.2.7 4.8-.8 4.9-2.9 4.4-4.3 3.5-6.6 2.1-4.4.4-6.1-.8-4.3-1.7v-.2l-2-.1-1.3-.4v-.2h-2l-4.8 1.5-6.2.8-5.3.7-2.9-.1-4.7-2.4-3.3-2.7-2.4-4.2-1.2-3.2-.1-4 1.3-3 1.7-2.9-6-1.8-3.6-2.4-2.8-2.8-1-5.4-.2-4.7-.2-2 .6-3.2 1.2-4.9 2.2-4.7 2.7-4.4 2.2-2.2 3.3-1.6-.4-1.6.3-3.7 1.8-3.7 3.6-3.3 4.6-3 4.6-2.9 3.4-2 4.2-.9h4.7l5 .6 3.6 1.2 1.6 2 .7-1.7 1.3-2.2 1.6-1.6 2.3-.8h2l2.4 1 1.8 1.1 4.3 3.8 3.3 2.5 3.6 1.7 4 1h3.3l2 .7 1.2 1.3 1 2.5v2.8l-.4 5-1.2 2.6 1.5.7 2 2.9 1.6 3.3.3 3.3.2 4.3-.3 4Zm-.8 60.8-1.4-3.6-1.2-1.4-1.6-1.3-1.8-1-1.7-.6v-.7l-.1-1-.7-1.1-.8-.7-1.2-.3-1-.1-2.3.2h-1.5l-1.4-.2-1.4-.6-1-.8-1-.4-1 .2-1.2.7-.8 1-1.2 1.8-.1.6h-.2l-1.6.6-1.3.7-1.1 1.1-1.2 1.4-.8 1.4-.6 1.8-.4 1.9.4 2.3.3 1.4.7 1.5-1.7.7-1.6 1.6-1 1.9-.3 2.5.5 2.3 1.7 2.4 1.4 1.3 2.2 1.3 1.4.4-2.5 3.7-1.7 3.2-2.6 5.7-1.4 3.2-.7 2.2-1.8 1.8-2 2.6 2.8 2 1.4-1.3.9-1.8 1.9-2.4 1.3-1.6 2.2-2.5 1-.9-.3.8-.9 3.7.2 1.6.6 2.3.8 1 1.6.5v-.4l1 .9 1.6.3 1-1.2.2-.8h.4l.6-.6.2-.3.3.2 1.7.4-.1-2.5-.8-2.4-1.8-2.9-1.6-1.6-1-.7-.5-.4-1.2-.4-2.6.5-1.3.5.4-.8.7-2 1-1.9.7-2 1-2 1-1.3.5-1.3 1 1.4 3.4 3.3 1 .7 2.3.5 1.8-.1 2.1-1 1.2-.7 1.3-1.5.3-1.5v-.5l1.6.6h2l1.8-.2 1.8-1.7 1.2-1.4.6-.6.7-1.4.9-2 .4-2 .3-2.2-.2-1.4-.5-1 1-1.5.5-2-.4-2-.7-2.1Zm-25.5 32.4.7.5 1.4 1.4 1.8 2.7.7 2.1v1.1h-.2l-.9-.8-.7 1-.3.4h-.9l-.2 1.4-.5.5-.8-.2-.9-.9-1-.7-.3.8h-.3l-.4-.6-.6-2-.1-1.4.8-3.6.3-1 .2-.2 1.5.2.7-.7Zm-1.3-11.4-1 1.3-1.1 2.2-.7 2-1 2-.7 1.9-.9 1.8-.7 2.2 2.5-2 1.1-.4 2.4-.4.6.2-.3.2h-.5l-.8-.2h-.1l-1.4.3-1.2 1.2-2.2 2.5-1.4 1.6-1.9 2.5-.8 1.7-.7.8-1.3-1 1.3-1.8 1.9-1.8.8-2.4 4-8.9 1.6-3 2.6-3.8v-.1l.4.2-.5 1.2Zm26.5-15.4-.7 1.2-.7.6.7 1.4.2 1.2-.2 2-.4 2-.9 1.8-.5 1.1-1.7 2-1.6 1.4-1.4.2h-1.7l-2.6-1-.2 1.7-.3 1.2-1 1.2-1 .7-1.7.8h-1.7l-2-.3-.7-.6-3.2-3.1-1.2-1.6-1-.8v.1l-1.2-.6-1.6-.3-2-1.2-1.2-1-1.6-2.3-.4-2 .1-2 1-1.6 1.2-1.4 1.7-.7 1-.3-1.1-2.3-.3-1.3-.4-2.2.4-1.7.4-1.5.9-1.3 1-1.3.9-1 1.2-.6 1.3-.5.8.2.3-1.3 1-1.6.8-1 .7-.4.6-.1.7.2 1 .7 1.6.7 1.6.3h1.7l2.2-.2h.8l.9.3.5.4.5.7.1.8-.1.9-.4 1.3 1.4-.4 1.3.4 1.7 1 1.4 1 1 1.3.6 1.4 1.5 4 .3 1.9-.3 1.5Zm-180.2-136.7v-2l-.4-2.2-.3-1.7-1.1-1.8-1.3-1.5-.2-.1.2-.8-.1-2.6-.2-1.5-.7-1.4-1-1-1.2-.2-1.6.2-1.8-.3-1.6-.6-1.6-1-2.3-1.6-1-.5-1.4-.5-1.1.2-1.3.6-.9 1-.4 1h-.2l-2-.5h-2.5l-2.3.3-2 .7-3.8 3-2 1.7-1.5 2-.8 2.2v2l.1.4-1 .7-1 1.4-1.1 2.5-.8 2.6-.3 2.5v1.7l.2 1 .4 2.4.8 2.8 1.8 1.5 1.9 1 2.1.5-.3.7-.5 1.7.4 2.2.8 1.8 1.4 2 2 1.3 2.6 1 1.5-.1 5.5-1.4 2-.9-.3 1.7.2 2-.1 3-.5 2.6-.2 2.6-.4 2.6v1.3l-1.1-1.5-2.6-2.2-1.2-.4-2.5.3-2.4.7-3.6 1.9-2.3 2-1.6 2.5 1.9.6h.4v.5l.3.9.5.3-.4 1 .4 1.9 1.8.6 1.6-.4-.2.6 1.8.5 1.3-.6 2-2 1.2-1.5 1.4-4.7.3-1.1.1.1.4 1.7.8 4 .4 2.5.5 3.7-.2 2.4.6 2.3 4-.4-.4-4-.8-2.9.5-2.9 1.2-12 .3-4.3-.4-5.6v-.1l1.6.5h3.2l2.1-.4 3.2-1.5 2-2.1 1.2-2.6.2-2.8-.6-2.5-1.6-2.1 1.6-1.1 1.3-1.4 1.7-2.1.8-2.4.5-2.1Zm-25.4 39-1.4 4.4-1 1.4-1.8 1.7-.8.4-.5-.1.3-1h-1.4l-1.6.5-1-.3-.1-1 .5-1.6-.8-.5-.1-.4-.2-1.6-1.3.2-.4-.1.8-1.3 2-1.8 3.5-1.8 2.2-.7h1.3l.2 1.2 1.7.7.1.5-.2 1.2Zm7.3-6.3-.7 7.6-.4 4.2-.6 3 .8 3.1.3 3-2.1.2-.4-1.4.3-2.2-.6-4-.4-2.5-.8-4-.5-2-1.2-1.1-.8-.4-.9-.4-.1-.6.8.2 2.3 2 1 1.2 1.2 3.3.5-2.5.2-2.4.4-2.6.2-2.5.5-2.7.1-3-.2-2 .3-1.8h.7l.4 5.9-.2 4.4Zm16.7-30.9-.7 2.1-1.7 2-1.1 1.3-2.5 1.7.4.5 1.7 2.2.6 2.3-.1 2.3-1 2.3-1.8 1.9-3 1.4-2 .4h-2.7l-2-.6v-.2h-1.5v-.2l-1.2.2-2.3 1-5.2 1.3-1.3.1-2.3-.8-1.6-1.1-1.3-1.9-.7-1.5-.3-1.9.4-1.4.7-1.8-3.1-.7-1.8-1-1.4-1.1-.7-2.5-.4-2.3-.3-1 .1-1.5.3-2.4.8-2.4 1-2.3.8-1.2 1.6-1-.3-1v-1.7l.5-1.8 1.4-1.8 2-1.7 3.5-2.9 1.8-.6 2.1-.2h2.4l1.6.3 1.2 1.2.3-1.3.5-1.1.6-.8 1-.5.8-.1 1 .3 1 .5 2.1 1.6 1.7 1 2 .7 1.9.3 1.5-.1.9.1.6.6.5 1 .2 1.4.1 2.4-.4 1.6.8.3 1 1.2 1 1.5.3 1.6.3 2 .1 2-.4 1.9Zm653-122.8-1.4-1.2-.3-1.4.5-1.5.3-1.5-1.7-1-1.6-.9-.4-2.9-2-1-10.2 5.3-5 3.3-3.8 3.3-1-.1-1.7.3-1.7.5-2.5-1.4-1.6-1.5-1.8-2.2-2.3-1.7-2.9-2.7-2.3-1.7-2.4-1.3-2.4-.5-1.8 1.5-2.8 1.9-.7 2 .3 1.7.3 1.7-.3.7-1.3 1-2.6 1-2.8 1.5-1.4 1.5.2 2.3 1.4 1 1.7 3 2.3 2.7 1.7 2.5 2.3 1.5 2 .4 6.5-2.6 2.4-1.5 3.3-1.2 2.2-.6 1.2-.3.7 1.6-1.2 1-3.5 2.2-2.9 2.6-4.3 3-2.9 2.5-2.7 3-.4 2.2.1 2.7-.6.5-.2 3h1.5l2.6.8h.7v1.3l1.2 1.8 2.4-.1h4.8l1.8.5 1.3.7 2.5 1.9 1.4-1 1.3-3 1-3 .5-2.5 1-5.8.8-4.4.3-3.5v-1.8l.4-.2h.6l.4 1 .4 7-.3 4.3.2 6.2.8 2.4 2.3 2.6 1.7 3 3-.3 1-2.1 1.4-.3 2.7.3.8 1.1 2.2 1.4 1.8-.8.8-2.3 3.8-3.8.4-2.6-1.8-2.8-5.5-8.3-3.6-5.6-2.8-3.4-2-1.9-.4-1 .2-1 1.5.3 2.5 2.3 3.1 1.2 3.3 2.5 3.6 1 2.5-.8-.4-1.8-.7-1.4.6-1 2-1.1 1-2.5h-2.3l-.5-.5.5-1 1.5-1.5 1.1-.8.8-1.5-.2-1.4-1.5-1Zm-33.8 5-.2 2.1-.3 1.8-3.5.9-3.4 1.3-2.4 1.5-6.3 2.5-1.4-.3-1.9-1.2-1.8-2.5-2.2-2.7-1.7-3.1-1.2-.8-.2-1.5 1-1 2.6-1.3 2.6-1.1 1.7-1.3.5-1.2-.3-2-.3-1.3.5-1.5 2.7-1.8 1.4-1.3 1.7.4 2.3 1.2 2.2 1.7 2.9 2.7 2.2 1.6 1.8 2.2 1.6 1.6 2.4 1.3-3 3.1Zm5.6 16.3-.7 4.3-1 5.8-.6 2.5-1 3-1 2.6-.7.4-2-1.5-1.3-.8-2-.5-2.8-.1h-2.4l-1.8.1-.7-1v-2l-1.5-.1-2.6-.7h-.6v-1.6l.8-.5-.2-3.1.4-2 2.4-2.6 2.8-2.5 4.3-2.9 3-2.6 3.4-2.3 1-.8 2.3 2.2 1.7 1 1.1.5v1.8l-.2 3.3Zm1.6-6.4-.9.3-1-.5-1.6-.9-1.4-1.3-1-1.2-.4-1.1-.4-1 .2-1.2.1-.7.3-1.8 1.2-1.2 1.3-1.5.6-.7 1.5-.4 1.4-.3 1.1.1 1 .4 2.6 1.2 1 1.2 1 1.7.5 1.8.2.7-.3 1.2-.6 1.3-1 1.6-1.5 1.3-1.3.7-2.6.3Zm9.7-1.3 2.7 3.2 3.5 5.6 5.6 8.3 1.6 2.5-.3 2-2.3 2.2-1.5 1.5-.7 2-1 .4-1.5-.9-1-1.3-3.3-.4-2 .4-1 2-1.7.2-1.4-2.5-2.3-2.5-.7-2-.2-6 .3-4.3-.4-7.1-.3-1.1 1.2-.2 1.5-.9 1.6-1.4 1.1-1.7.2-.4.1.4 2.2 2Zm17-10.4-1 .8-1.5 1.5-1 2 1.4 1.2h1.1l-.3.8-1.9 1-1 1.8.9 1.7.2.8-1.4.4-3.1-.8-3.3-2.5-3-1.1-2.6-2.5-2-.3-.5-2.3-2.4-3.4-1.6-.9-1.3-.5h-.3l3.3-3 5-3.1 9.7-5 1 .4.3 3 2 1 1.2.7-.1.8-.7 1.7.5 2 1.7 1.4 1.2.8v.6l-.4 1Zm-621.6-522.3.8 1.7 1.2 1.6 1 1.6 1.2 1 1.2.3 3.8-1.5 1.3-.8 1.8-.6 1.6-.4.3.6-.6.5-2 1.2-1.6 1.5-2.5 1.6-1.6 1.4-1.6 1.7-.3 1.4v1.5l-.3.3-.2 2 1 .1 1.4.5h.2v.6l.7 1.3h4.1l1 .4.5.3 1.5 1.3 1-.6.8-1.8.6-1.8 1-4.8.6-2.6.2-2v-1h.2l.1.5v4l-.2 2.5v3.7l.4 1.4 1.2 1.6 1 1.9 1.9-.1.6-1.3h.6l1.3.1.4.6 1.3 1 1.3-.5.4-1.4 2.2-2.2.3-1.6-3.8-6.6-1.8-3.4-1.5-2-1-1.2-.2-.5v-.3l.6.1 1.2 1.4 1.8.8 1.7 1.5 2.1.7 1.7-.5-.3-1.2-.3-.8.3-.4 1-.6 1-1.8h-1.6l-.1-.2.2-.5.8-.7.6-.4.6-1-.1-1-.9-.7-.7-.7-.1-.6.3-.8.3-1-1.1-.8-.8-.5-.1-1.7-1.3-.7-5.8 3-2.9 1.7-2 1.8h-.6l-1 .1-.8.2-1.2-.8-.8-.8-1-1.4-1.2-1-1.5-1.6-1.3-1.1-1.3-.8-1.5-.4-1 .9-1.7 1-.4 1.4.1 1 .1 1-.1.2-.7.5-1.4.6-1.6.8-.9 1v1.4l.9.7Zm16.9 9.3-.5 2.5-.7 3.4-.4 1.4-.6 1.7-.6 1.5h-.1l-1-.8-.7-.4-1.2-.4-1.5-.1h-2.2l-.3-.5V176l-1-.1-1.3-.4h-.2v-.7l.5-.3v-1.9l.2-1 1.3-1.5 1.6-1.3 2.4-1.7 1.7-1.4 2-1.3.3-.3 1 1.2 1 .6.5.3v.9l-.2 2Zm6.3-4 1.4 1.9 1.9 3.3 2.8 5 .8 1.4-.2 1-2.1 2-.4 1.2-.3.1-.7-.4-.6-.9-2-.3-1.2.2-.6 1.2h-.6l-.7-1.3-1.2-1.6-.3-1v-3.6l.2-2.5v-4.1l-.1-.5h.4l1-.6 1-.7.5-1 1 1.2Zm-1.7-9.2 2.8-1.7 5.3-2.7.3.2.2 1.7 1.2.7.5.4v.2l-.5 1 .3 1.3.9 1 .6.4v.2l-.3.5-.5.4-.9.8-.7 1.3.9 1h.4l-1 .7-.8 1 .5 1.2v.3l-.4.1-1.6-.5-1.7-1.5-1.7-.7-1.3-1.5-1-.2-.3-1.3-1.2-2-1-.7-.5-.2 1.5-1.4Zm-5 2.6.3-.3.8-.2.8-.2.5.2.5.1 1.3.8.5.7.5 1 .2 1 .1.3-.2.7-.3.7-.6.9-.8.6-.7.4-1.3.1-.5.1-1.2-.7-.7-.8-.5-.7-.4-1.2.4-2 .6-.6.7-.9Zm-16-1 1.5-.7 1.5-.6 1-.8.3-.7v-1.2l-.2-.8.3-.8 1.4-1 .7-.5.8.2 1.1.7 1.2 1 1.6 1.6 1 1 1 1.3 1 1 1 .7-1.5 1.6-.2 1-.2 1.2-1.8.4-2 .8-1.3.8-3.4 1.3-.6-.2-1-.7-.9-1.5-1.2-1.6-.8-1.7-.7-.6v-.7l.5-.5Zm132 705.1-1-1-.3-1 .5-1.1.4-1.4-1.5-1-1.3-.6-.3-2.4-1.6-.8-8.8 4-4.3 2.4-3.3 2.6-.9-.2-1.3.2-1.4.4-2-1.3-1.3-1.2-1.5-1.8-1.9-1.5-2.3-2.2-1.9-1.5-2-1.1-2-.5-1.5 1.2-2.5 1.4-.7 1.7.2 1.4.2 1.3-.2.5-1.2.8-2.2.8-2.3 1-1.3 1.2.1 2 1.2.9 1.2 2.4 1.9 2.3 1.4 2 1.9 1.4 1.6.4 5.7-1.9 2-1.1 2.8-1 2.8-.5.5 1.2-1 .6-3 1.8-2.5 2-3.7 2.2-2.5 2-2.3 2.3-.5 1.9v2l-.5.5-.2 2.5 1.3.2 2.1.6h.6v1l.9 1.6h4l2.1.2 1.5.4 1 .5 2 1.7 1.4-.7 1.1-2.5 1-2.4.5-2 1-4.7.8-3.5.4-2.8v-1.5h.7l.3.8v5.6l-.3 3.4v5l.6 2 2 2.2 1.3 2.5 2.5-.1 1-1.7 1-.2 2.3.4.6.9 1.9 1.1 1.6-.6.7-1.8 3.4-3 .4-2.1-5.9-9.3-2.8-4.6-2.3-2.8-1.6-1.6-.3-.8.3-.7 1.1.3 2 2 2.6 1 2.6 2 3 1 2.3-.5-.3-1.6-.5-1.1.5-.8 1.6-.8 1.2-2.1h-2.1l-.4-.5.5-.7 1.2-1.1 1-.7.7-1.2-.1-1.2-1.3-.9Zm-28.5 3-.2 1.3-.4 1.9-2.9.6-2.9 1-2 1-5.3 1.9-1.2-.3-1.5-1-1.4-2.1-1.8-2.2-1.4-2.6-1-.7v-1l.8-.8 2.2-1 2.2-.8 1.5-1 .5-1-.2-1.6-.2-1.1.4-1.2 2.3-1.3 1.2-1 1.4.4 1.8 1 1.8 1.5 2.4 2.2 1.8 1.4 1.4 1.8 1.3 1.3 1.9 1.1-2.5 2.4Zm4.2 13.4-.7 3.5-1.1 4.7-.5 2-1 2.3-1 2-.4.3-1.6-1.3-1.1-.6-1.7-.5-2.3-.2h-3.5l-.5-.8.1-1.7h-1.3l-2.2-.7h-.5l.1-1.1.7-.5-.1-2.5.4-1.5 2-2 2.4-2 3.8-2.2 2.5-2 3-1.7.8-.6 1.8 1.8 1.4.8.9.5v1.3l-.4 2.7Zm1.6-5.1-.7.2-2.2-1.2-1-1.1-.8-1-.7-1.7.7-2.9 1-.9 1-1.2.6-.5 1.3-.3 1.2-.2.8.1.8.4 2.1 1 .8 1 .9 1.4.3 1.5.2.5-.4 1-.5 1-.9 1.2-1.2 1-1.2.5-2.1.1Zm8-.6 2.3 2.7 2.8 4.6 4.3 6.8 1.3 2-.3 1.5-2 1.8-1.3 1.1-.6 1.7-.7.2-1.3-.7-.8-1.2-2.8-.4-1.7.3-1 1.6-1.3.1-1-2-1.9-2.1-.5-1.6v-5l.4-3.3-.1-5.8-.3-.8h.8l1.5-.8 1.4-1 1-1.4v-.2l.1.2 1.8 1.7Zm14.7-8-.9.5-1.3 1.2-1 1.6 1.2 1.2h.9l-.2.5-1.6.8-1 1.4.7 1.5.1.5-1 .3-2.6-.7-2.6-2.1-2.6-1-2-2.1-1.6-.3-.4-1.9-2-2.9-1.3-.7-1-.4h-.1l2.6-2.2 4.3-2.4 8.3-3.7.7.4.2 2.3 1.8 1 .8.5-.1.5-.6 1.4.4 1.7 1.3 1.2 1 .7v.4l-.4.7Zm11.7 71.3-.5-.9-4-.5h-2l-1.5.1-.1-.1-1-.5-.4-.6-.2-.6v-1l-.4-.9-.3-1.2-.4-1-.4-.8-.7-.7h-2.1l-.8.6-.4 1h-.4l-1-.2-1-.1-.9.1-.5 1 .3.6-.1 1 .1 1.2v1l.4.9.6.6 2.5.6h.8l1.1.3.8.3H1299.8l-1.2.1h-1.8l-1.2.1-1.4.4-.6.5-.4.7h-.2l-.9 1.2.7.5.5.6-.1.2v1l.8.4 1.3 1 .4.3.1.3.4 1.2h1l1-.6.8-.6 2.8-2.9-.3.5-.8 1.1-1.1 1.7-.3 1 .2 1.1v1.3l1.1.7.7-.4h.2l.6.5v.3l.5 1 .9.3.7-.5 1.8-.4.7-.8V942l-.2-1.4-.2-.8.3 1 .7 1 .4 1.1 1 1.1 1.2.4.3-.8v-.4h.9l1.3-.7-.9-.6.5-.1h.6l.6-.3.4-.7-.3-.6-.2-.5.1-.2.4-.3.5-.5-.6-1.2.4-.9Zm-13-1-1.2-.3h-.9l-2-.6-.3-.2-.2-.6v-1l-.2-1v-1.6l.2-.1h.9l1 .3h.8l.5-.4.3-.6.1-.4.2-.1h1.5l.2.2.4.6.3.9.3 1.2.3.8.1 1 .2.7.2.5-1 .2-.8.8-1-.3Zm.3 4.9-1 1-1.9 1.8-.7.6-.7.4-.2-.5-.2-.5-.5-.6-.8-.6-1-.6v-.1l.5-.7-.7-.5-.5-.6h.3l.6-1 .3-.3 1-.3 1.2-.1h1.8l1.2-.1h1.5l.1.7.5.9-.8 1Zm4.5 7.8-.2.2-1.7.3-.5.4-.2-.3v-.6l-1-.8-.8-.4-.7.3h-.1v-.8l-.1-1v-.6l1-1.6 1-1 1.1-2h1.5l.4-.2.1.6.2 1.3v6.2Zm.4-10.2-.2.5v.2l-.2.1-.8.4-.6.1h-.5l-.6-.4h-.3l-.4-.8v-.5l-.1-.5v-.5l.8-.7 1.2-.3.8.3.2.1.6 1v1Zm6.3.7-.3.9.2.8.1.3h-.5l-.7.1-1 .5.3.8h-.3l-.9.3v.7h-.1l-.6-.7-.4-1.2-.7-.9-.2-1.1-.4-.4.2-.6v-1.4l-.4-.7h2.7l3.4.5-.4.8.5 1-.6.3Zm-98-8.7.2-1.9v-1.8l-.5-4.7-.3-2.5-.4-1.9-.3-.8.2-.1.3.4 1.3 3.6.6 2.3 1.1 3.2.9 1.2 1.7 1 1.5 1.4 1.8-.7.3-1.4.5-.3 1.5-.3.5.4 1.6.4 1-.8.1-1.4 1.5-2.7-.3-1.6-5.9-4.7-2.9-2.4-2-1.3-1.5-.6-.3-.4v-.3h.6l1.7.7 2 .1 2.2.8 2.2-.1 1.5-1-.7-1-.5-.6.1-.5.9-1 .3-1.8-1.6.4h-.1v-.5l.6-1 .5-.6.2-1-.4-1-1-.2-1-.4-.3-.5v-1.8l-1.3-.4-1-.1-.6-1.5-1.5-.2-4.8 4.6-2.2 2.6-1.5 2.3-.5.1-1 .5-.7.5-1.5-.3-1-.5-1.4-.8-1.6-.6-2-.9-1.6-.5-1.6-.3-1.5.1-.7 1.2-1.3 1.6v1.3l.4.9.4.8v.2l-.5.7-1.3 1-1.2 1.3-.7 1.2.6 1.3 1 .3 1.3 1.3 1.8 1 1.4 1 1.6.6 1.2-.2 3.2-2.5 1.1-1.2 1.6-1.2 1.5-1 .4.5-.4.5-1.5 1.8-1.2 1.9-1.9 2.3-1.1 1.8-1 2.1.1 1.3.5 1.4-.3.4.5 2 1-.3 1.6-.1h.2l.2.5 1 .9 1.4-.6 1.3-.4 1.4-.3h1.7l1.8.7.8-1Zm3.4-16.5 2 1.2 2.9 2.4 4.3 3.4 1.3 1 .1 1-1.4 2.5v1.2l-.4.2-.8-.1-.8-.6-2 .3-1.1.6-.3 1.3-.7.3-1-1-1.7-1-.7-.8-1-3.1-.6-2.3-1.4-3.8-.2-.3.3-.1.8-.9.7-1 .3-1 1.4.6Zm-4.7-7.6 2.2-2.5 4.5-4.3.3.1.7 1.5 1.4.2.6.1v1.3l.6 1.1 1.3.6.7.1v.7l-.5.6-.6 1-.3 1.5 1.2.5h.4l-.8.8-.4 1.3.9.8v.2l-.4.3-1.7.1-2.1-.7-2-.1-1.7-.9-1 .2-.7-1-2-1.6-1-.2h-.6l1-1.7Zm-6 5.7.2.9.1 1.2-1.6 1-1.7 1.3-1 1.2-3 2.3h-.7l-1.2-.2-1.4-1-1.7-1-1.4-1.4-.8-.3-.2-.5.3-.6 1.2-1.1 1.2-1 .8-1 .1-1-.5-1-.4-.6v-.8l1.2-1.3.5-.8.9-.1 1.3.2 1.5.5 2 1 1.5.4 1.4.9 1.1.5 1.3.3-1 2Zm1.1.1.4-.7.4-1 .3-.5.6-.4.8-.4.5-.1h.6l1.5.2.7.5.9.7.5.8.2.3v.6l-.1.7-.3 1-.5.9-.6.6-1.3.5-.4.3-1.6-.3-1-.4-.6-.5-.8-.9-.2-1.9Zm5.2 17.9-.1.1-1.2-.4-1-.2-1.2.1-1.5.4-1.3.4-.9.4-.4-.4-.4-1.2-1 .3-1.5.1h-.2l-.1-.5.3-.4-.6-1.7-.1-1 .8-1.7 1.1-1.8 2-2.3 1-1.8 1.6-1.8.3-.5 1.4.7 1.2.2.6.1.2.8.4 1.8.3 2.4.4 3.3.1 1.4v1.7l-.2 1.5Zm-25-142.9.7-.8-.7-1.2-.6-.8.6-1.6-.9-1.2h-7l-3.5.4-2.7.7-.4-.2-1.1-.4-1-.1-.8-1.4-.4-1.1-.4-1.7-.7-1.5-.8-2.2-.8-1.6-.9-1.3-1.2-1-1.4.3-2.1.3-1 1-.3 1-.3.9-.2.2-1 .1H1156.2l-1.3.4-.6 1.4.5 1v2l.5 2 .3 1.8.8 1.5 1 .8 4.2.4 1.7-.1 2 .2 1.8.4v.7l-.7.1-2.5.3-2.2.6-3 .4-2.3.5-2.2 1-.9 1-.6 1.4-.5.1-1 1.8.9.6 1.1 1 .3.1-.3.6v1.5l1.5.6 1.2.6 1.3.7.8.7.4.6.9 1.8h1.2l1.5-1.4 1.4-1.3 3-4 1.7-2.1 1-1.8.5-.8h.3l-.1.5-1.7 3.8-1.3 2.1-1.6 3.4-.2 1.6.5 2v2l1.9.8 1.2-.8.6.2 1.2.8.2.7.9 1.5h1.3l1-1 3.1-1 1-1.4-.9-7.8-.3-4-.6-2.5-.5-1.5v-.6l.3-.2.5.4.6 1.8 1.4 1.5 1 2.2 1.7 1.6 1.8.3.3-1.3v-.8l.5-.3h1.3l1.5-1.3-1.4-.7v-.2l.4-.3 1-.4.8-.1 1-.7.3-1-.5-.9-.4-1 .1-.6.7-.6Zm-23-2.8-2.3-.2-1.6.1-3.9-.4-.5-.4-.7-1.1-.2-1.8-.5-2v-2l-.4-.9.2-.6.7-.2h1.6l1.8.1 1.3-.2.6-.6.4-1.1.2-.8.6-.6 1.8-.2 1-.3.7.6.8 1.2.7 1.5.9 2.2.7 1.4.3 1.6.5 1.3.7 1.2-2.2.7-.5.8-.8 1.1-2-.4Zm2.8 7-1.1 1.7-1.5 2-2.2 2.8-1 1.2-1.2 1.3-1.3 1h-.2l-.6-1.2-.5-.7-1-.9-1.4-.8-1.2-.6-1-.4v-.6l.6-1.2-.9-.5-1.1-1-.2-.1.3-.6h.5l.8-1.8.6-.9 2-.7 2-.6 3.2-.3 2.2-.6 2.4-.3.6-.1.5 1.6.6 1 .4.5-.4.8Zm7.4 3.3.3 3.9.7 5.8.1 1.7-.5.8-3 1-.9.8h-.4l-.5-.8-.2-1-1.6-1.1-1.3-.4-1.2.8-.7-.3V804l-.5-2 .1-1.2 1.5-3.2 1.3-2.2 1.8-3.8v-.5l.5.2h1.2l1.2-.4 1-.6.5 1.6.6 2.4Zm-.4-6.3v.4l-.5.5-.6.5-1 .6-1 .2h-1.1l-1.1-.5h-.5l-1-1.4-.3-1-.2-1 .1-1.2 1.3-1.6.9-.3 1-.5.5-.2.9.2.8.2.4.4.4.4 1 1.3.2.8.1 1.2-.3 1Zm11.6-1-.2 1.2.5 1.3.3.7v.2l-.5.3-.7.1-1.2.4-1.3.9.5 1.3.4.2-1.3.1-1.2.7v1.5h-.7l-1.3-1.3-1-2.1-1.3-1.4-.7-2-.9-.7.4-1.3-.4-2.5-.6-1-.5-.4 2.1-.6 3.4-.3h6.4l.3.3-.6 1.6.8 1.2.4.6-.2.2-.9.8Zm-58 11.9.5-.4.3-.9-.2-.8-.7-.4-.5-.4-.2-.4.2-.6v-.8l-1.5-.7-.3-1.2-1-.4-4 2.8-1.8 1.7-1.2 1.4h-.3l-.7.3-.6.2-.8-.4-.7-.5-.8-.8-1-.7-1.3-1-1-.6-1-.5-1.3-.1-.7.8-1 1-.3 1 .2.8.2.6v.2l-.4.4-1 .6-1 .7-.6.9.3 1.2.6.3.8 1.2 1 1 .9 1 1 .6 1 .1 2.6-1.5.8-.7 1.2-.7 1-.4.2.2-1.6 1.5-1 1.2-1.5 1.4-1 1.3-1 1.4v1.1l.1 1-.2.2.1 1.7h.9l1 .1.1.4.7.9 1.1-.2 1.9-.2h.6l.5.3 1.2.8.8-.7.4-1.4.2-1.4.2-3.6v-2.9l.4 2 .1 1.9.4 2.6.5 1 1 1 1 1.4 1.5-.4.3-1h1.2l.3.3 1.2.6 1-.6.1-1 1.3-1.9v-1.3l-2-2.6-3.2-4-1.3-1.3-.8-.6-.2-.3h.3l1 .7 1.3.4 1.4.9 1.7.3 1.3-.6-.4-1-.3-.5.1-.2.7-.6.5-1.6-1.2.2v-.3l.5-.5Zm-13.6 1.4v1.6l-1.2.4-1.3.8-.8.7-2.3 1.3h-.3l-.8-.4-.8-1-1-1-.8-1.1-.5-.4v-.3l.2-.4.9-.6 1-.6.7-.7.1-.7-.2-.9-.2-.5.1-.5 1-.8.3-.5h.5l.8.4 1 .6 1.3 1 .9.6.8.8.8.6.7.3-.8 1.3Zm2.9 11-.1 1-.2 1.2-.3 1.1-.7-.4-.6-.3-1-.1-2 .2-.5.1-.2-.2v-1h-1l-1-.1v-.3l.3-.3-.3-1.4v-.7l.8-1.1 1-1.2 1.6-1.4 1-1.2 1.2-1.2.2-.1.7.6.8.4h.3l.1.6v1.4l-.1 4.4Zm.7-7.4-.3.1-1-.4-.5-.4-.4-.4-.4-.8v-1.4l.4-.5.5-.7.1-.2 1-.4h.3l1.4.5.3.3.5.7.3.7V801.5l-.1.5-.3.7-.5.6-.4.3-1 .2Zm3.5-.5 1.3 1.2 5 6.3v.6l-1.3 1.6-.2 1h-.1l-.5-.2-.5-.6h-1.4l-1 .3-.3 1h-.3l-.6-.8-1-1-.3-.7-.4-2.4-.1-1.9-.5-3-.1-.1h.2l.6-.6.6-.7.3-.6.6.6Zm5.8-5.2-.5.7-.4 1.1.8.7-.4.3-.4 1 .5.8-.2.2-1-.2-1.4-.9-1.3-.3-1.2-1h-.7l-.2-.7-1.2-1.5-.8-.3h-.2l.8-1 1.7-1.6 3.5-2.5.4 1.2 1 .4.2.2-.2 1 .4.9.8.6.4.2v.4l-.4.3Zm-311 73.6.7-.5.4-1.2-.2-1-1-.5-1-.6-.2-.7.2-1v-1l-1.2-.7-1-.4-.4-1.7-1.4-.6-6 4.2-2.8 2.4-2 2.3h-.6l-1 .3-1 .4-1.5-.6-1-.8-1.3-1.3-1.5-.9-2-1.4-1.6-1-1.5-.6-1.7-.2-1 1.2-1.7 1.4-.2 1.5.3 1 .3 1-.1.4-.7.6-1.5 1-1.5 1-.9 1.1.4 1.6 1 .5 1.2 1.8 1.5 1.5 1.3 1.5 1.5.8 1.4.1 3.9-2.2 1.3-1 2-1 1.7-.8.4.7-.5.6-2 1.7-1.5 1.8-2.5 2.2-1.5 1.8-1.4 2-.2 1.6.3 1.6-.3.3.1 2.2h1.1l1.7.1h.2v.7l1 1.2 1.6-.3 1.4-.2h2.6l.8.3 1.7 1.1 1-.8.6-2 .3-2 .4-5.4.1-2.8v-2.2l-.2-1 .3-.1.2.5.8 4.3.1 2.7.6 3.9.7 1.4 1.6 1.5 1.4 1.9 2-.5.5-1.4.6-.2h1.6l.5.5 1.6.8 1.2-.7.3-1.5 2-2.8v-1.7l-5.2-6.5-2.6-3.2-2-2-1.4-1-.2-.5v-.4h.7l1.6 1.3 2 .5 2.2 1.4 2.4.3 1.7-.7-.4-1.3-.5-.8.2-.5 1-.8.7-2-1.6.2-.2-.1.2-.6.7-1Zm-20.6 2.5v2.4l-2 .8-2 1.1-1.4 1.1-3.5 2h-.8l-1.2-.7-1.3-1.4-1.5-1.5-1.2-1.7-.9-.5-.1-.8.4-.6 1.4-1 1.6-.9 1-1 .2-.8-.3-1.3-.3-.8.2-.8 1.4-1.3.7-.8h1l1.4.6 1.4 1 2 1.4 1.4.8 1.3 1.3 1.1.8 1.4.6-1.5 2Zm4.5 12.6-.2 3.7-.2 1.6-.3 1.8-.5 1.8-.2.1-1.2-.7-.9-.4-1.4-.2-1.6.1-1.5.2-1 .2-.4-.5-.1-1.3h-1l-1.7-.2h-.2v-.7l.3-.4-.4-2 .1-1.1 1.3-1.8 1.4-1.7 2.5-2.2 1.6-1.8 1.9-1.7.4-.5 1.4 1.1 1.2.5.6.2.2 1v2.1l-.1 2.8Zm.7-7-.5.2-1.6-.6-.9-.7-.6-.7-.7-1.2.1-.7v-1.5l.6-.8.7-1 .3-.5.8-.4.8-.2h.7l.5.1 1.7.6.6.6.8 1 .4 1 .1.4v.7l-.4.9-.4 1-.8.9-.7.5-1.5.3Zm5.7-1.3 1.9 1.8 2.6 3.3 4 4.7 1 1.4v1.1l-2 2.6-.2 1.3-.4.3-.8-.4-.8-.8h-2l-1.4.4-.5 1.4-.8.1-1-1.3-1.5-1.4-.6-1.2-.6-3.7-.2-2.7-.7-4.4-.2-.5.5-.2 1-.7.8-1 .5-1.1 1.4 1Zm8.2-6.4-.6 1.5 1.2.9.5-.1v.1l-1.1.8-.6 1.3.7 1.1.1.3-.5.3-1.9-.3-2.1-1.3-2-.4-1.8-1.4h-1.1l-.5-1.4-1.7-2-1.1-.4-.8-.2 1.5-1.8 2.8-2.4 5.5-3.8.4.2.5 1.8 1.4.5.6.3v.3l-.3 1.2.5 1.3 1.2.8.7.4v.3l-.1.5-.6.6-.8 1Zm-91.2 44.3 1.1-3-1.2-1.7h-12l-6.1.5-5.1 1.3-.8-.6-1.8-.6-1.7-.3-1.6-2.6-.6-2.1-.6-3-1.2-2.7-1.3-3.8-1.2-2.8-1.5-2.4-1.9-1.7-2.3.6-3.6.4-1.6 1.6-.5 1.7-.7 1.7-.6.5-1.7.3-2.9-.3h-3.2l-2 .7-1 2.3.8 1.5v3.7l.7 3.6.3 3.3 1.3 2.4 1.5 1.4 7.3.7 3-.2 3.5.4 2.3.6 1.2.3-.2 1.9-1.6.3-4.2.4-4 1-5.4.6-3.8 1-4 1.5-1.4 1.8-1.3 2.7-.8.1-1.7 2.7 1.3.8 2 2 .6.3-.6 1.3v2.2l2.3 1 2.1 1.1 2.3 1.4 1.4 1.3.8 1.2 1.2 3 1.8-.2 2.7-2.2 2.4-2.3 1.7-2.1 4-5 2.8-3.7 2-3 1-1.9.5.1.6.3-.3 1.2-3.2 6.8-2.4 3.8-3 5.9-.4 2.7.8 3.4v3.7l2.8 1.1 2-1.5 1.4.5 2.3 1.6.1 1.4 1.4 2.3 2 .2 1.8-1.8 5.4-1.7 1.6-2.2-.2-3.5-.8-10.4-.3-7-.9-4.5-.9-2.8.2-1.2.8-.8 1.2 1 1 3.4 2.3 2.6 1.6 3.9 2.8 2.7 2.7.5.5-1.8v-1.7l1.2-.7h2.2l2.3-1.8-2.1-1-.3-.9 1.1-.8 2-.6 1.4-.2 1.5-1 .5-1.4-.8-1.6-.6-1.9.3-1.4 1.3-1.1 1-1.3-1-1.8-1-1.6Zm-39-.1-3.7-.5-3 .3-6.9-.8-1-1-1.2-2-.3-3.2-.7-3.6v-3.8l-.6-1.4.6-1.4 1.3-.5h3l3 .3 2.2-.4 1-.8.7-2 .5-1.5 1.2-1.2 3.3-.3 1.9-.5 1.4 1.2 1.4 2.2 1.1 2.7 1.3 3.9 1.2 2.5.5 3 .7 2.2 1.5 2.5-4.3 1.5-1.3 1.9-1.2 1.5-3.6-.9Zm5 12.3-2 3-2.9 3.7-4 5-1.6 2-2.4 2.3-2.4 2h-.7l-1-2.4-1-1.3-1.4-1.5-2.4-1.5-2.2-1.1-1.7-.8-.1-1.3 1-1.9-1.3-.8-2-1.9-.6-.3.9-1.5 1-.1 1.3-3 1.3-1.6 3.6-1.4 3.7-1 5.4-.5 4-1 4.2-.5 1.3-.3 1 3.2 1 1.7.8 1-.9 1.8Zm12.8 5.7.3 7 .8 10.3.2 3.2-1.2 1.7-5.3 1.7-1.7 1.6-1-.1-1-1.6-.2-1.8-2.7-2-2-.6-2 1.5-1.7-.7v-3l-.8-3.5.4-2.2 2.9-5.8 2.4-3.9 3.2-6.8.3-1.2 1.1.4 1.9-.1 2.2-.5 1.8-1 .4-.4-.1.5 1 2.9.8 4.3Zm-.3-11v.7l-1 1-1.3 1-1.6 1-2 .4-1.6.1-.6-.2-1.9-.8-.9-.2-.7-1-1-1.5-.6-2-.2-1.6.1-1.2.2-1.2.8-1 .4-.6 1.2-1.5 1.6-.5 2-.9 1-.3 1.5.3 1.4.4 1 .7.6.8 1.7 2.5.3 1.5.1 2.2-.5 1.9Zm21.8-3-1.4 1.4-.5 2 .7 2.1.7 1.4-.2.7-1 .6-1.3.2-2.2.7-1.9 1.3.6 1.9 1.1.6-.7.5-2.2.1-1.8 1.1v2l-.3 1-1.5-.3-2.4-2.3-1.6-4-2.3-2.5-1-3.5-1.6-1.3.7-2.5-.5-4.2-1-1.7-1-1-.1-.3 4.3-1.1 6.1-.6h11.4l.6 1-1.1 3 1.3 1.9.7 1.2-.6.7ZM594.6 892l.5-2.5 1-5.7.7-4.3.3-3.3v-1.8l.4-.2h.5l.3 1 .4 6.9-.3 4.1.2 6.1.8 2.3 2.2 2.5 1.6 3 2.8-.3 1-2.1 1.2-.2 2.6.3.7 1 2.1 1.3 1.8-.7.7-2.2 3.6-3.8.4-2.5-1.7-2.8-5.2-8-3.4-5.5-2.6-3.3-2-1.8-.3-1 .2-1 1.4.3 2.3 2.2 3 1.1 3 2.5 3.4 1 2.5-.8-.4-1.7-.7-1.4.6-1 1.8-1 1-2.5h-2.2l-.5-.5.6-1 1.3-1.4 1-.8.8-1.5-.2-1.4-1.4-1-1.3-1.1-.3-1.3.5-1.5.3-1.5-1.7-1-1.5-.9-.4-2.8-1.8-1-9.7 5.2-4.7 3.2-3.6 3.2-1-.1-1.5.3-1.6.5-2.3-1.4-1.5-1.4-1.7-2.2-2.2-1.6-2.7-2.6-2.2-1.7-2.2-1.3-2.4-.5-1.6 1.5-2.7 1.9-.7 2 .4 1.6.2 1.7-.3.6-1.2 1-2.5 1-2.6 1.4-1.3 1.5.2 2.2 1.3 1 1.6 3 2.1 2.5 1.7 2.5 2.1 1.5 1.9.4 6.2-2.5 2.3-1.5 3.1-1.2 2-.6 1.1-.3.6 1.6-1 .9-3.3 2.2-2.8 2.6-4 2.8-2.7 2.5-2.6 2.9-.4 2.2.2 2.6-.7.5-.1 3h1.4l2.5.7h.6v1.3l1 1.8 2.4-.1h4.6l1.7.5 1.1.6 2.4 1.9 1.4-1 1.2-2.9.9-3Zm11.8-20 2.6 3.1 3.3 5.5 5.2 8 1.5 2.5-.2 1.9-3.5 3.6-.7 2-.9.4-1.4-.8-1-1.4-3-.3-2 .3-1 2.1-1.5.1-1.3-2.4-2.2-2.4-.7-2-.1-6 .2-4-.3-7-.3-1 1-.2 1.5-1 1.6-1.3 1-1.7v-.3l.2.2 2 2Zm-4-15.3 4.7-3 9.2-5 .9.5.3 2.8 2 1 1 .7-.1.8-.7 1.7.6 1.8 1.5 1.5 1.1.7.1.7-.5 1-1 .7-1.4 1.4-1 2 1.4 1.2h1l-.3.7-1.7 1-1 1.8.8 1.6.2.9-1.3.3-2.8-.7-3.1-2.5-2.9-1-2.4-2.5-1.8-.3-.6-2.3-2.2-3.3-1.5-.8-1.3-.5-.2-.1 3-2.8Zm-7.9 4 1.4-.4 1.4-.3 1 .2 1 .3 2.3 1.3 1 1.1 1 1.7.4 1.7.2.7-.3 1.2-.6 1.2-.9 1.6-1.4 1.2-1.2.8-2.5.2-.8.3-2.4-1.3-1.3-1.3-1-1.2-.4-1-.4-1.1.7-3.6 1-1 1.2-1.6.6-.7Zm-4 2.9v1.4l-.5 2.4-3.2.8-3.2 1.3-2.3 1.5-6 2.4-1.2-.3-1.8-1.2-1.7-2.4-2.1-2.6-1.6-3-1.1-.9-.2-1.4.9-1 2.5-1.3 2.5-1 1.6-1.3.4-1.1-.2-2-.3-1.4.4-1.4 2.5-1.7 1.4-1.2 1.6.3 2 1.2 2.2 1.6 2.7 2.6 2 1.6 1.8 2.2 1.5 1.5 2.3 1.3-2.8 3Zm2.2 31-1 2.6-.6.4-1.8-1.5-1.3-.7-2-.5-2.5-.1h-2.2l-1.8.1-.6-1v-2h-1.4l-2.4-.7h-.7l.1-1.6.7-.5-.2-3 .4-1.8 2.3-2.7 2.5-2.4 4.1-2.8 2.8-2.6 3.2-2.2 1-.8 2 2.2 1.7.9 1 .5.1 1.7-.3 3.3-.7 4.3-1 5.6-.5 2.5-1 2.8Zm-53 52.7-3.5-3-2.5-1.7-1.7-.8-.4-.5v-.5h.9l2 1 2.4.1 2.8 1h2.6l1.8-1-.7-1.3-.7-.8.2-.7 1.1-1 .4-2.1-1.8.5-.3-.2.2-.7.7-1 .6-.9.3-1.2-.4-1-1.3-.4-1.1-.5-.5-.7.1-1v-1.3l-1.5-.3-1.2-.3-.8-1.8-1.6-.3-6.2 5.5-2.8 3.1-2 2.8-.6.1-1.2.6-1 .6-1.9-.4-1.3-.7-1.7-1-1.8-.8-2.5-1.1-2-.7-1.9-.5-1.8.2-.9 1.4-1.6 1.8-.1 1.6.5 1 .5 1v.4l-.8.9-1.5 1.2-1.7 1.4-.7 1.4.6 1.6 1.2.4 1.6 1.6 2.1 1.3 1.7 1.4 2 .6 1.3-.1 4.1-3 1.4-1.5 2-1.4 2-1.2.6.7-.6.8-1.9 2.1-1.5 2.3-2.5 2.7-1.5 2.2-1.3 2.5.1 1.6.6 1.7-.3.4.5 2.3 1.1-.3h2l.3-.1.2.7 1.2 1 1.7-.5 1.6-.4 1.8-.5h1.3l.9.2 2.1.8 1-1 .2-2.3.2-2.1-.4-5.8-.3-3-.5-2.4-.3-1 .2-.2h.3l.3.5 1.5 4.4.6 2.9 1.3 4 1 1.4 2.1 1.3 1.8 1.7 2-.8.4-1.6.8-.4 1.8-.3.7.5 2 .5 1.1-1 .1-1.6 2-3.2-.3-2-7-5.8Zm-12.1-13.2 2.8-3 5.7-5h.6l.8 1.8 1.6.4.8.2v.4l-.1 1.3.8 1.2 1.4.7 1 .2v.3l-.1.7-.6.7-.7 1.2-.5 1.7 1.4.6.6-.1v.2l-1 1-.5 1.5 1 1 .2.4-.8.4h-2.2l-2.6-1h-2.3l-2.2-1.2-1.4.1-.7-1.3-2.3-1.8-1.3-.3h-1l1.6-2.3Zm-7.4 8 .1 1.4-2 1.2-2.2 1.6-1.4 1.4-3.8 2.8h-.9l-1.5-.4-1.6-1.3-2-1.3-1.8-1.7-1-.3-.3-.7.5-.7 1.5-1.4 1.6-1.2 1-1.2v-1l-.5-1.3-.4-.8v-1l1.5-1.6.7-1 1.2-.1 1.7.3 1.8.7 2.5 1.2 1.8.6 1.6 1.1 1.4.7 1.7.4-1.4 2.4.2 1.1Zm6.9 11.4.3 4 .1 1.7-.1 2-.3 2-.2.2-1.6-.6-1.1-.2h-1.5l-1.9.5-1.6.5-1.2.4-.6-.5-.3-1.4-1.2.3h-2.2l-.2-.7.4-.5-.7-2v-1.3l1-2.2 1.5-2 2.5-2.8 1.5-2.3 1.9-2 .5-.7 1.8 1 1.4.2.8.1.3 1 .4 2.3.3 3Zm-.3-7.6-.5.4-2-.4-1.1-.6-.9-.6-1-1.2-.1-2.4.5-.9.6-1.2.3-.6 1-.5.8-.5h1.5l2 .3.8.6 1 .8.6 1.1.3.3v.9l-.2.9-.4 1.2-.7 1-.8.8-1.7.6Zm17.3 12.1-.1 1.5-.5.3-1.1-.2-1-.7-2.3.3-1.4.7-.4 1.6-1 .3-1.3-1.3-2-1.2-.8-1-1.3-4-.6-2.8-1.5-4.6-.3-.5.5-.2 1-1 1-1.2.3-1.4 1.9 1 2.4 1.5 3.5 3 5.2 4.3 1.5 1.3.2 1.2-1.9 3.1Zm-95.6-150.9 2.2-2.2 1.6-2 3.5-4.7 2.6-3.6 1.8-3 .7-1.6h.5l.6.3v1.1l-2.7 6.5-2 3.6-2.6 5.6-.2 2.6 1.1 3.3.3 3.4 2.8 1 2-1.4 1.4.4 2.4 1.5.3 1.4 1.5 2.1 2 .2 1.7-1.7 5.3-1.7 1.5-2.1-.5-3.4-1.7-9.8-1-6.6-1.2-4.3-1.2-2.6.1-1 .7-.8 1.3 1 1.3 3.1 2.5 2.4 2 3.8 3 2.5 2.7.5.4-2-.1-1.4 1-.7h2.3l2.1-1.7-2.2-1-.3-.8 1-.7 2-.6 1.4-.2 1.3-1 .5-1.4-1-1.6-.8-1.7.2-1.3 1.2-1 1-1.3-1.3-1.7-1.1-1.5.8-2.8-1.4-1.7-11.9.1-6.1.6-5 1.3-1-.6-1.7-.5-1.8-.3-1.8-2.4-.8-2-.8-2.9-1.4-2.5-1.6-3.6-1.5-2.7-1.7-2.2-2-1.5-2.3.5-3.5.4-1.6 1.6-.4 1.6-.5 1.6-.5.5-1.7.2-3-.1h-3l-2 .6-.9 2.2 1 1.5.2 3.3 1 3.6.7 3 1.4 2.4 1.6 1.2 7.4.7 3-.2 3.6.3 2.2.5 1.3.3v1.7l-1.5.3-4.2.5-4 1-5.3.6-3.7 1-3.8 1.4-1.4 1.8-1 2.5-.9.1-1.4 2.7 1.3.7 2.3 1.8.6.3-.6 1.2.3 2.1 2.3 1 2.3 1 2.3 1.3 1.5 1.2 1 1.2 1.4 2.7 1.8-.1 2.5-2.1Zm23-14.8 1.1 4.2 1 6.5 1.7 9.9.4 3-1 1.5-5.2 1.6-1.5 1.6-1.1-.1-1.1-1.5-.4-1.7-2.8-1.8-2-.6-2 1.4-1.7-.6-.3-2.9-1-3.2.1-2.1 2.4-5.5 2-3.7 2.8-6.5.1-1.1 1.2.4 1.8-.1 2.2-.5 1.7-1 .4-.4v.5l1.1 2.8Zm2.5-15.8 6-.6h11.4l.7.8-.8 2.8 1.5 1.8.7 1.2-.4.6-1.4 1.2-.3 2 1 2 .7 1.2-.2.7-.9.6-1.3.2-2 .6-2 1.3.9 1.8 1 .6-.6.4-2.1.1-1.8 1.1.1 2-.2.8-1.5-.3-2.6-2.1-2-3.7-2.4-2.4-1.4-3.3-1.7-1.2.5-2.5-.8-4-1.2-1.5-1-1-.2-.2 4.2-1Zm-9.7-.1 1.6.3 1.5.3 1 .6.8.8 1.9 2.3.4 1.5.3 2-.4 1.8v.7l-.8 1-1.2.8-1.6 1-2 .5h-1.5l-.6-.1-2-.8-1-.1-.7-1-1.1-1.5-.8-1.8-.4-1.5V782l.1-1 .7-1 .4-.5 1-1.5 1.6-.5 2-.8.8-.3Zm-11 3-3.7-.3-3 .3-7-.7-1.2-.9-1.2-2-.7-3-1-3.4-.3-3.5-.7-1.3.4-1.3 1.3-.5h3l3.1.2 2-.3 1-.9.6-1.8.3-1.4 1.1-1.1 3.3-.4 1.9-.5 1.5 1.1 1.6 2.1 1.4 2.6 1.6 3.6 1.3 2.4.9 2.8.8 2.1 1.7 2.3-4.1 1.4-1.1 1.8-1.1 1.5-3.7-.8Zm-8.4 29-1.3-2.3-1-1.3-1.6-1.4-2.6-1.3-2.2-1-1.8-.8-.2-1.3.9-1.7-1.4-.7-2.3-1.9-.5-.3.7-1.3 1-.2 1-2.8 1.2-1.5 3.5-1.3 3.6-1 5.4-.6 3.9-1 4.2-.5 1.3-.2 1.2 3 1.2 1.6.9 1-.7 1.6-1.7 2.8-2.6 3.6-3.5 4.6-1.5 2-2.2 2.2-2.2 1.9h-.7Zm-68.4 17.5.5-2.3.3-2.2.1-5.8v-3l-.1-2.5-.3-1.1.2-.1h.2l.3.5 1 4.7.2 3 .8 4.2.8 1.5 1.8 1.6 1.4 2 2-.6.5-1.6.7-.3h1.7l.5.6 1.7.8 1.3-.8.2-1.7 2-3v-2l-5.9-6.8-2.8-3.5-2.2-2-1.5-1-.3-.6v-.5h.8l1.7 1.3 2.2.5 2.3 1.4 2.5.3 1.8-.8-.6-1.3-.5-.9.2-.7 1.1-.9.6-2-1.7.2-.3-.2.2-.7.7-1 .6-.6.5-1.3-.3-1-1.2-.6-1-.6-.3-.8.2-1v-1.3l-1.3-.5-1-.4-.6-2-1.4-.5-6 4.7-3 2.8-2 2.5h-.5l-1 .5-1 .4-1.7-.7-1-.8-1.5-1.3-1.6-1-2.1-1.5-1.7-1-1.7-.6-1.7-.1-1 1.3-1.7 1.6-.2 1.5.4 1.2.3 1v.4l-.8.8-1.5 1-1.6 1.3-.8 1.2.4 1.7 1 .5 1.4 1.9 1.7 1.6 1.4 1.5 1.7.9 1.4.1 4-2.5 1.3-1.2 2-1.2 1.8-.9.5.9-.6.6-2 2-1.5 2-2.5 2.4-1.5 2-1.4 2.4v1.6l.3 1.8-.3.4.2 2.3 1.1-.2 1.8.2h.3v.8l1 1.2 1.7-.3 1.5-.3 1.6-.2 1.1.2.8.3 2 1.1.9-.9Zm6.3-19.6 2 2 2.9 3.4 4.3 5 1.3 1.6v1.2l-1.9 2.9-.3 1.5-.4.3-.9-.4-.8-.9h-2.2l-1.4.6-.4 1.5-.9.2-1-1.5-1.7-1.4-.7-1.3-.8-4-.3-3-1-4.8-.2-.6.6-.2.9-.8.9-1.1.5-1.3 1.5 1.1Zm-4.2-10.2 2.8-2.6 5.6-4.4.4.2.6 2 1.5.5.7.3v.4l-.3 1.3.6 1.3 1.3.9.7.4.1.3-.2.7-.5.6-.8 1.1-.6 1.6 1.2.9.6-.1v.2l-1.1 1-.5 1.3.7 1.2.2.4-.6.3-2-.2-2.3-1.4-2-.4-2-1.5h-1.2l-.5-1.4-2-2.2-1.1-.4-.9-.2 1.6-2Zm-5.1 4.1.3-.4.8-.4.9-.4h.6l.6.1 1.8.6.7.7.8 1 .5 1.2.2.4v.9h-.1l-.2.9-.5 1.1-.7 1-.8.6-1.5.4-.5.3-1.7-.6-1-.8-.7-.7-.8-1.3v-2.5l.6-.8.7-1.2ZM371 802l.1 1.5v1.2l-2 .9-2 1.2-1.4 1.3-3.7 2.3h-.8l-1.3-.7-1.3-1.5-1.7-1.6-1.4-1.9-.9-.5-.2-.8.4-.7 1.5-1.2 1.5-1 1-1.1.2-1-.3-1.3-.4-.9.2-1 1.4-1.4.7-1 1 .1 1.5.6 1.6 1 2.1 1.5 1.6.8 1.4 1.3 1.2 1 1.5.6-1.5 2.3Zm3 22.8-1-.4-1.4-.2-1.7.2-1.6.3-1 .2-.4-.5-.3-1.5-1 .1-1.8-.2h-.2l-.1-.8.4-.5-.5-2V818l1.3-2 1.4-2 2.5-2.4 1.5-2 2-2 .4-.4 1.5 1.1 1.3.5.7.3.2 1 .1 2.4v7l-.1 1.8-.3 2-.4 2-.2.1-1.3-.8Zm-157.7-31-2-2-.7-2.1 1-2.4.4-2.2-2.5-1.6-2.6-1.3-.6-4.5-2.6-1.4-15.2 8.2-7.6 5-5.7 5.2-1.7-.2-2.4.5-2.6.8-4-2.3-2.3-2.3-2.7-3.5-3.4-2.6-4.4-4-3.4-2.8-3.6-2-3.4-.8-2.6 2.4-4.2 2.9-1 3 .5 2.5.3 2.7-.4 1.2-2 1.6-4 1.7-4.1 2.2-2 2.2.3 3.3 2 1.5 2.5 4.6 3.5 4.2 2.7 4 3.2 2.2 2.8.7 9.8-4 3.7-2.4 5-2 3.2-.9 2-.5.5 1.3.7 1.6-2 1.6-5.1 3.5-4.4 4.1-6.6 4.5-4.2 4-4 4.5-.6 3.4.2 4.3-1 .8-.2 4.2 2 .1 4 1.1h1.2v2.3l1.6 2.6 3.5-.2h3.5l3.8.1 2.8.8 2 1 3.5 2.9 2-1.3 1.8-4.6 1.4-4.7.8-3.9 1.7-9 1.1-6.8.5-5.4-.1-3 .9-.4h1.1l.6 2 .6 10.9-.4 6.5.3 9.7 1.2 3.5 3.4 4 2.5 4.5 4.1-.4 1.7-3.4 2-.4 4.3.6 1.3 1.8 3.1 1.9 2.5-1.1 1.2-3.5 5.7-6 .5-3.7-2.6-4.3-8.3-12.8-5.3-8.8-4.2-5.1-3.1-3-.7-1.7.5-1.9 2.5.5 3.7 3.6 4.7 1.8 5 4 5.2 1.4 3.5-1-.5-2.6-1.1-2.3 1-1.8 2.8-1.7 1.6-3.3H214l-1.1-1 1-2 2.1-2.2 1.7-1.2 1.1-2.2-.2-2-2.2-1.5Zm-50.5 11-.6 2.9-2 .5-3.3.9-5 2-3.7 2.4-5 2-4.5 1.8-2.2-.4-3-2-2.6-4-3.4-4-2.5-4.8-2-1.4-.2-2.5 1.6-1.6 4-2.2 3.9-1.7 2.5-1.9.6-1.6-.4-3-.5-2.3.8-2.5 4-2.7 2.3-2 2.7.5 3.4 2 3.4 2.6 4.3 4.1 3.3 2.5 2.8 3.5 2.4 2.4 3.8 2.2-.5.6-4 4.4-.4 3.3Zm8.7 21.8-1 6.8-1.7 9-.8 3.8-1.5 4.6-1.7 4.3-1 .7-3.1-2.4-2.1-1.1-3-.9-4-.1h-3.6l-2.9.2-1.1-1.8v-3h-2l-4-1.1H140l.1-3 1-.7-.2-4.7.6-3 3.7-4.4 4.2-3.8 6.5-4.5 4.4-4 5.1-3.6 1.7-1.4 1.4 1.4.3.3 1.9 2 2.4 1.3 1.9 1 .1 2.9-.5 5.2Zm2.1-9.6-1.3.5-1.7-.9-2.4-1.3-2-2.1-1.6-2-.7-1.6-.7-1.8.4-1.8.2-1 .5-3 1.7-1.8 2-2.5 1-1 2.4-.8 2.1-.4 1.8.2 1.4.6 4 2 1.4 1.9 1.7 2.7.7 2.8.4 1-.6 2.2-1 2-1 1.7-.4.8-2.3 2-2 1.2-1 .2-3 .2Zm14.7-2.5 4.1 5.1 5.3 8.7 8.3 12.8 2.5 4-.4 3.1-3.5 3.7-2.2 2.2-1 3.3-1.7.7-2.5-1.5-1.5-2-4.8-.7-2.7.6-1.7 3.3-2.8.3-2.2-4-3.4-4-1.1-3.1-.3-9.6.4-6.5-.6-11-.5-2 2-.3 2.2-1.4.3-.1 2.2-2 1.5-2.6.5-1.1.4 1 3.2 3.2Zm25.7-15.7-1.6 1.2-2.3 2.3-1.5 2.8 2 1.8h2l-.7 1.6-2.8 1.7-1.5 2.5 1.3 2.5.3 1.6-2.3.7-4.8-1.2-4.9-4-4.6-1.6-3.8-3.8-3-.6-.9-3.8-3.4-5.1-2.4-1.3-2-.7-.7-.4 5.1-4.7 7.5-5 14.8-7.8 1.6.8.6 4.5 3 1.6 1.9 1.2-.3 1.4-1 2.6.8 2.8 2.3 2.2 2 1.3.1 1.3-.8 1.6Zm170-375 .6 1 .8.4.7.5V426.6l-.2 1.2-.3 1.5.2 1 1.1.9.8-.1 1.7.4 1.7.2 1.6.2 1.2-.2 1-.6.9-3.3v-1.2l.5-1.5.6-1.2.4.2v2.5l.1 1.8-.1 2.5.1 1.8.4 2 .8 1 1 .8v.4l1.5 1.3.6-.7 1-.6.4.3 1.3.2.7-1 1.4-1.5.7-.4.5-.2 1.7-.2.1-1.1-.9-1.5-.9-1.4-2.8-3.4-1.5-1.7-1.3-1.3-.5-.5 3 2.4 1.6 1.5 2.5 2 1.2.6 1.8.1 1.8.5 1-1.4-.6-1 .2-.4.8-.7.6.1 1.3-.4.4-1.1-.7-1-.4-2.7-1-1-6.5-1.4-3.3-.7-2.2-.2H405l-.5-.1v-.2l.2-.2h1.6l1.3-.7 1.9-.2 1.6-1 .6-1.4-1-.6-.7-.2-.2-.4.2-1-.8-1.6-.9 1-.3-.4-.1-.9v-.7l-.4-.9-.7-.5-1 .2h-.7l-.6-.2-.4-.7-.6-.7-1 .2-.7.3-1.3-.9-1.2.4-1 5.4-.1 2.9.2 2.2-.3.2-.4.8-.3.6-1 .3h-1l-1.5-.1-1.3.2h-1.9l-1.4.2-1.2.4-1.1.7v3Zm19.1-4.4 2 .1 3.3.8 4.8 1 1.3.2.6.6.4 2.5.6 1v.1l-.6.2-1-.2-1.1 1-.6 1 .5 1.2-.2.3-1.2-.4h-1.6l-1-.5-2.4-2-1.6-1.5-2.8-2.3-.4-.1.2-.3v-2l-.3-.7h1.1Zm-1.6 5 1.2 1.2 3.4 4 .8 1 .9 1.4.7 1.2-1 .1-.7.2-.8.6-1 .9-.6.8-.4.5h-.4l-.9-.9-.6.7-1 .6-.4-.3v-.4l-1.3-1-.6-.7-.4-1.7-.1-1.7.1-2.5-.2-1.8.1-2v-.3H402.6l1-.2.4-.2.6.5Zm-5.2-11.9.8-4.8h.2l1.2.8 1.1-.3.5-.2.7 1.1 1 .5h1.1l.6-.2.1.2.2.4v.5l.2 1 .5 1.3h1.2l.2-.2-.2.9.5 1 1 .4.2.1-.1.3-1.1.7-1.9.2-1.3.6h-1.8l-.6.5-1-.5-1-.2-1-.2-1 .3-.4.2-.1-1.7.2-2.7Zm-.8 6.4.3-.5.3-.3.4-.2 1.1-.4h.7l1 .3.8.4.2.2.4.4.3.7.3.8v1.5l-.6.8-.1.3-1.1.4H401l-1-.5-1.2-1.3v-.8l-.3-1v-.3l.1-.5Zm-10.5 2.4.4-.3 1-.3 1.3-.2h2l1.2-.2h2.4l1.1-.2.3 1.9 1.3 1.4-.6 1.3-.5 1.7v1.3l-.9 2.8-.4.2-1 .2-1.4-.2-1.6-.1-1.8-.5h-.6l-.5-.3v-.5l.1-1.2.4-1.3v-1.1l-.3-.6-1-.7-.6-.3-.4-.6.1-1.4v-.8Zm63.7-19.3 1-3.2.5-2.7 1.2-6.3.7-4.7.4-3.7-.1-2 .5-.2h.6l.4 1.2.4 7.5-.3 4.6.2 6.6.8 2.5 2.4 2.8 1.8 3.2 3-.3 1.1-2.3 1.4-.3 2.8.4.8 1.2 2.3 1.4 1.9-.8.8-2.4 4-4.2.3-2.7-1.9-3-5.7-8.9-3.6-6-3-3.6-2-2-.5-1.1.3-1.1 1.6.3 2.5 2.5 3.2 1.2 3.4 2.7 3.8 1 2.6-.7-.5-2-.7-1.5.7-1.1 2-1.2 1-2.5h-2.3l-.6-.6.6-1.2 1.5-1.5 1-.9 1-1.6-.2-1.5-1.6-1-1.4-1.3-.4-1.5.6-1.6.3-1.6-1.8-1.1-1.7-1-.4-3-2-1-10.5 5.6-5.2 3.5-4 3.5-1-.1-1.7.3-1.8.6-2.6-1.6-1.6-1.5-1.9-2.4-2.3-1.8-3-2.9-2.4-1.9-2.5-1.4-2.5-.5-1.8 1.6-3 2-.6 2.3.3 1.7.3 1.8-.3.8-1.4 1-2.7 1.2-2.8 1.5-1.5 1.6.3 2.5 1.4 1 1.7 3.2 2.4 2.9 1.8 2.7 2.3 1.6 2 .5 6.8-2.8 2.5-1.6 3.4-1.4 2.3-.6 1.2-.3.7 1.8-1.2 1-3.6 2.4-3 2.8-4.5 3.1-3 2.8-2.7 3.1-.5 2.5.2 2.9-.7.5-.1 3.2h1.5l2.7.8h.7v1.5l1.2 1.9 2.5-.2h5l1.9.6 1.3.7 2.5 2 1.5-1 1.3-3.2Zm14-25.2 2.9 3.5 3.6 6 5.7 8.8 1.7 2.7-.3 2-3.9 4.1-.7 2.2-1 .5-1.6-1-1-1.5-3.5-.4-2 .4-1 2.3-1.9.2-1.4-2.7-2.4-2.7-.7-2.2-.2-6.5.3-4.6-.4-7.6-.4-1.2 1.3-.1 1.6-1 1.7-1.5 1-1.9.2-.4.2.3 2.2 2.3Zm-4.4-16.8 5-3.4 10.2-5.4 1 .6.4 3 2.1 1.2 1.2.7-.2 1-.7 1.7.6 2 1.7 1.6 1.2.8.1.8-.5 1-1 .9-1.7 1.6-1 2 1.4 1.5h1.2l-.3.8-2 1.1-1 1.8.9 1.9.2 1-1.5.4-3.1-.9-3.4-2.7-3.2-1.2-2.6-2.6-2-.4-.6-2.5-2.5-3.6-1.6-1-1.4-.4-.3-.2 3.4-3Zm-8.7 4.5 1.6-.5 1.5-.3 1.1.1 1 .4 2.7 1.4 1 1.3 1.1 1.8.5 2 .2.6-.3 1.4-.7 1.4-1 1.7-1.5 1.4-1.4.8-2.7.2-.9.4-1-.6-1.7-1-1.4-1.3-1-1.3-1-2.4.3-1.2.1-.7.4-2 1.1-1.2 1.4-1.7.6-.7Zm-4.2 3.1-.3 2.3-.3 2-3.6.9-3.5 1.4-2.5 1.6-6.5 2.6-1.4-.3-2-1.3-1.8-2.7-2.4-2.9-1.7-3.2-1.3-1-.2-1.5 1-1.1 2.7-1.5 2.7-1.2 1.8-1.3.5-1.2-.3-2.1-.3-1.6.5-1.6 2.7-1.9 1.5-1.3 1.8.3 2.3 1.3 2.3 1.9 3 2.8 2.2 1.7 2 2.4 1.6 1.7 2.5 1.4-3 3.4Zm.5 37.4-2-1.6-1.4-.8-2.1-.6-2.8-.1h-2.5l-1.9.1-.7-1.1v-2.1l-1.5-.1-2.7-.7h-.7l.1-1.8.7-.6-.1-3.3.4-2 2.5-3 2.8-2.6 4.5-3 3-2.9 3.6-2.4 1-.9 2.4 2.4 1.7 1 1.2.6v1.9l-.2 3.6-.8 4.6-1.1 6.3-.6 2.6-1 3.2-1.1 2.9-.6.4Zm289.8 70.2 1.8 7.7 1.5 2.7 3.2 2.6 2.6 3.4 3-1 .7-3 1.4-.6 3-.2 1.3 1.2 2.7 1.1 1.8-1.3.2-3 3.2-5.6-.2-3.2-2.7-3-8.1-9-5.4-6.3-3.9-3.5-2.7-1.9-.8-1.3v-1.4h1.8l3.3 2.3 3.7.8 4.2 2.4 4.3.4 2.5-1.5-.9-2-1.1-1.6.4-1.6 1.8-1.8.6-3-2.4.5-1-.6.5-1.6 1.2-2.1 1-1.3.5-2-.6-1.6-1.9-.8-1.8-1.3-.8-1.6.3-2v-2l-2.2-.8-2-.7-1.2-3.5-2.3-.7-9.8 8.8-4.7 5.2-3.3 5h-1.2l-1.8.9-1.7 1-3.1-1.3-2.1-1.4-2.6-2.4-3-1.6-3.7-2.6-3-1.7-3-1-2.8-.2-1.5 2.3-2.6 3-.2 2.7.8 2 .7 2-.2 1-1.2 1.5-2.6 2-2.6 2.4-1.1 2 .8 2.8 1.7.8 2.6 3.4 3.2 2.8 2.6 2.8 2.8 1.3 2.2.1 6.6-4.7 2.3-2.4 3.3-2.3 2.2-1.2 1.2-.7 1.3 2-1.1 1.6-3.2 3.6-2.5 3.9-4 4.6-2.5 3.8-2.2 4.2v2.9l1 3.4-.6.8.6 3.5 1.6-.2 3 .2h.8l.4 1.6 1.6 2 2.6-.8 2.6-.5 2.8-.5 2 .2 1.6.5 3.2 1.9 1.3-1.5.6-4 .3-4v-3.2l-.3-7.5-.3-5.6-.6-4.4-.6-2.4.6-.3.6-.2.8 1.4 2.2 8.7.8 5.3Zm-3.3-38.6 4.6-5.1 9.4-8.5 1.3.4 1.1 3.5 2.5.9 1.5.6v1.2l-.2 2.2 1 2.1 2.1 1.5 1.6.7.3 1-.3 1.3-1 1.2-1.3 2.3-.6 2.5 1.8 1.2 1.4-.3-.2 1.3-1.8 1.7-.7 2.3 1.4 1.9.5 1.1-1.5.9-3.6-.3-4.2-2.4-3.6-.7-3.5-2.5h-2.2l-1.3-2.8-3.4-3.6-2-.8-1.5-.2-.5-.2 3-4.4ZM724 451v2.4l-3.5 1.8-3.4 2.5-2.3 2.4-6.2 4.5H707l-2.5-1.2-2.6-2.8-3.1-2.8-2.6-3.3-1.6-1-.6-1.8.8-1.5 2.5-2.3 2.6-2 1.6-2 .2-1.4-.8-2.3-.7-1.8.1-2 2.5-2.8 1.2-2h2l2.8 1.1 2.9 1.6 3.8 2.7 2.8 1.5 2.6 2.3 2.2 1.6 3 1.2-2.4 4.7.3 2.7Zm10 16.2.3 5.6.3 7.5v3.1l-.3 4-.5 3.6-.6.6-2.5-1.4-1.7-.6-2.4-.3-3 .5-2.6.6-2 .6-1-1.3-.6-2.4-1.6.2-3-.2-.8.1-.3-2.2.6-.8-1-3.7v-2.5l2-4 2.4-3.7 4-4.6 2.5-4 3.2-3.5 1-1.3 3 2.3 2 .8 1.5.4.6 2.3.5 4.3Zm0-8.1-.8.5-1.3-.4-2-.7-1.9-1.4-1.4-1.3-.8-1.2-.7-1.3v-1.5l-.1-.9-.1-2.4 1-1.7 1-2.2.5-1 1.6-1 1.5-.6h1.2l1.1.1 3.2 1 1.4 1.3 1.7 2 .9 2 .5.9v1.7h-.2l-.3 1.7-.6 2.3-1.3 2-1.3 1.2-.6.2-2.2.6Zm2 .4 1.4-.4 1.4-1.5 1.5-2.1.7-2.3.1-.7.3.4 2.9 2.1 3.8 3.4 5.3 6.2 8.2 9 2.4 2.8.2 2.6-3 5.5-.4 2.8-1 .7-1.9-.7-1.5-1.5-3.6.3-2 .8-.7 3-1.9.5-2.2-2.8-3.1-2.6-1.4-2.4-1.7-7.6-.8-5.3-2.3-8.8-.7-1.4ZM633.1 584.4l1.2.7 1.2.8.3.5v1.2l-.6 2-.5 2.3.2 1.6 1.6 1.2 1.3-.2 2.7.7 2.7.2 2.5.5 2-.4 1.3-1 1.6-5 .2-2.1.8-2.5 1-2.2 1.2.5v1l-.2 3.2.2 3-.3 4 .2 3 .5 3 1.2 1.5 1.8 1.4v.6l1.8 1.9.9-1 1.6-1 .3-.2.8.7 1.7.3 1.1-1.4 1.1-1.3 1.3-1.3 1.1-.7 1-.3 2.5-.3.1-1.5-1.2-2.4-1.4-2.2-4.4-5.4-2.4-2.8-2-2.1-1-1v-.2l.2-.2.7.4 4.5 3.6 2.5 2.5 4 3.3 1.8.8 2.8.2 2.7.7 1.4-1.9-.9-1.8.5-.8 1.4-1.2 1.1.2 2-.6.4-1.5-1-1.7-.6-4.2-1.5-1.6-10.3-2-5.2-1.2-3.5-.3H661l-.8-.3-.4-.6.7-.5h2.6l2.2-1.1 3.1-.4 2.5-1.5.8-2-1.4-.8-1.1-.3-.4-1 .3-1.5-1-2.1-1.2 1.3h-.5l-.4-.8-.2-1.5v-1.1l-.5-1.3-1-.7-1.4.3h-1.4l-1-.4-.6-1.1-.8-1-1.6.3-1.2.4-2-1.3-1.6.5-1.7 8.6-.5 4.5.3 3.8-.5.4-.7 1.2-.5 1.1-2 .6h-1.6l-2.3-.2-2.1.3-3 .2-2.3.3-2 .5-1.5 1.2v1.8l-.1 2.7 1 1.5Zm27.4-.8 1.9 2 2.3 2.8 3 3.8 1.4 1.6 1.3 2.1 1.1 2v.4l-1.8.3-1.1.3-1.4.8-1.4 1.5-1.1 1.3-.8 1-.9-.2-1.2-1.1-.9.8-1.6 1-.3.3-.9-.8v-.7l-2-1.6-1-1.2-.5-2.8-.1-2.8.3-4-.2-3 .2-3v-1h2.3l1.4-.4.8-.3 1.1 1Zm2.6-8.2 3.3.2 5.2 1.2 7.7 1.5 2.3.5 1 1.1.6 4 1 1.6-.3.6-1.1.3-1.4-.2-1.8 1.6-.9 1.4.8 1.8-.6.8-2.1-.5-2.7-.2-1.5-.7-3.9-3.2-2.5-2.5-4.6-3.7-.7-.3.4-.7.2-1.6V577l-.6-1.6h2.2ZM652 564.6l1.5-8 .7-.2 2 1.4 1.6-.6 1-.2.3.5.8 1.3 1.4.8 1.8-.1 1-.2.4.3.4.7v1l.1 1.7.7 1.7 1.7-.1.4-.6.3.5-.3 1.6.6 1.6 1.5.4.6.3-.4.9-1.9 1.2-3 .4-2.2 1h-2.8l-1.1 1-1.7-1-1.4-.3-1.8-.3-1.4.4-1 .5-.2-3.2.4-4.4Zm-1.5 10.2.5-.9.6-.5.6-.3 2-.7 1.2.1 1.6.3 1.3.8.5.2.6.9.5 1 .5 1.4v1.5l-.1 1-1 1.6-.3.6-2 .6h-2.7l-1.7-.8-2-2.3V578l-.4-1.6-.1-.7.4-1Zm-17.2 4 1-.6 1.7-.6 2.1-.3 3-.1 2.1-.3 2.3.2h1.7l2-.6.4 3.3.9.9 1.3 1.5-1.1 2.3-.9 2.6-.2 2.1-1.5 4.7-.7.6-1.7.3-2.4-.4-2.7-.2-2.8-.7-1 .1-1-.6-.1-1 .4-2.2.6-2V586l-.4-.8-1.4-1-1-.6-.7-1.1.2-2.4-.1-1.4ZM826 535.4l.3-.8.6-.4.6.7.2 2.5 1.2 2.2.6 3 1.6 2.5 2 .7.7-1.4.3-1.3.9-.3 1.6.1 2-1.1-1.4-1.1v-.5l.8-.5 1.5-.2h1l1.3-.7.7-1-.4-1.4-.2-1.3.5-1 1-.7 1-1-.4-1.5-.5-1.2 1.2-2-.6-1.7-8.7-1.2-4.6-.1-3.7.4-.5-.4-1.2-.7-1.1-.4-.7-2-.1-1.5v-2.4l-.4-2-.3-3-.4-2.3-.7-2-1.2-1.4-1.9.2H816l-1.5 1-.7 1.2-.7 1.2-.4.3h-1.2l-2.1-.4-2.4-.3-1.5.3-1.1 1.6.3 1.3-.6 2.7v2.8l-.3 2.5.5 2 1 1.2 5.1 1.3h2.2l2.5.7 2.2 1-.4 1.1-1.1.1h-3.1l-3 .3h-4l-3 .3-3 .7-1.4 1.3-1.3 1.8h-.6l-1.7 2 .9.8 1 1.6.4.3-.6.8-.3 1.8 1.5 1 1.4 1 1.3 1.2.8 1.1.4 1 .4 2.4 1.5.1 2.3-1.4 2.1-1.5 5.2-4.7 2.7-2.5 2-2.1.8-1.2h.3l.2.2-.3.8-3.4 4.7-2.3 2.6-3 4.1-.8 2v2.7l-.6 2.8 2 1.2 1.7-.9.8.4 1.3 1.3v1.2l.6 1.9 1.5.3 1.7-1.1 4.1-.8 1.6-1.5 1.4-10.5.9-5.3v-3.4l-.1-2.2Zm4.9-9.7 4.4.2 8 1 .3.7-1.2 2 .6 1.7.3.9-.5.4-1.2.8-.7 1.5.2 1.7.3 1-.3.5-.8.4h-1l-1.6.3-1.6.8.1 1.6.6.5-.4.2-1.6-.1-1.6.6-.3 1.6-.3.5-.9-.3-1.3-1.8-.6-3-1.1-2.2-.3-2.7-.9-1.1.9-1.7.4-3.3-.5-1.3-.6-1 3.2-.4Zm-15.5 0-2.7-.7h-2l-4.9-1.3-.5-.7-.5-1.6.3-2.4v-2.8l.6-2.8-.2-1 .6-1 1-.2 2.1.3 2.2.5h1.6l.8-.6 1-1.4.5-1.1 1-.7h2.4l1.4-.2.7 1 .6 1.7.4 2 .3 3.1.5 2-.1 2.3.1 1.7.7 2-3.2.6-1 1-1.3 1.3-2.4-1Zm1.4 9.7-1.9 2-2.6 2.5-3.6 3.3-1.5 1.4-2 1.5-2 1.2h-.4l-.4-1.8-.4-1-.9-1.4-1.5-1.3-1.4-1-1-.8.1-.9 1-1.3-.8-.8-1.1-1.6-.3-.3.7-.8h.7l1.5-2.2 1.2-1 2.7-.7 2.8-.3h4l3-.3h4V530.7l.1 1.4.5 1.4.4.8-.9 1.1Zm8.4 5.5-.9 5.2-1 7.9-.4 2.3-1 1-4 .8-1.6 1h-.6l-.4-1.2.1-1.4-1.7-1.8-1.4-.7-1.7.9-1-.6.6-2.2v-2.6l.5-1.6 3-4 2.3-2.7 3.5-4.8.3-.7.7.4H822l1.4-.1 1.5-.7.2 2.3v3.3Zm.5-7-1 .5-1.4.6-1.4.1h-1.1l-1.6-1-.6-.2-.8-2v-2.7l.6-1.8 2.2-2 1.2-.2 1.5-.5.7-.1 1 .4 1 .4.5.6.3.6.8 2v1.1l-.2 1.6-.7 1.4-.2.5-.8.6Zm35.3 53-6.9-2.5-3.6-1-3.1-.4-.3-.4-.9-.8-.8-.5-.2-1.7.2-1.3.4-1.8v-1.8l.3-2.6v-1.9l-.2-1.7-.7-1.5-1.6-.2-2.1-.5-1.5.6-.7.9-.8.8-.4.1-1-.2-1.5-.7-1.8-.7h-1.5l-1.2 1.1v1.1l-1 2.1-.5 2.2-.7 2 .1 1.7.6 1.3 4 2 1.7.5 1.9 1 1.6 1.1-.5.8-.8-.1-2.6-.7-2.5-.2-3.2-.9-2.4-.2H824l-1.4.8-1.3 1.2-.5-.1-1.9 1.3.7 1 .6 1.4.2.3-.7.4-.5 1.5 1 1.2 1 1 .9 1.3.4 1 .1.8v2.1l1.2.4 2.1-.7 2-.9 5.1-2.8 2.6-1.6 2-1.3.8-.8.3.2-.4.5-3.5 3.2-2.4 1.7-3.2 2.8-1 1.4-.4 2.2-1 2.2 1.4 1.5 1.6-.4.5.4.8 1.3-.2.9.2 1.7 1.2.6 1.6-.6 3.5.2 1.6-1 3-8.3 1.7-4.1.7-2.8.2-1.7.3-.6.5-.2.3.6-.3 2.1.6 2-.1 2.7 1 2.2 1.5 1 .9-1.1.4-1h.7l1.3.4 2-.6-1-1.3v-.3l.7-.1h1.3l.9.2 1.1-.3.8-.8V594l.5-.7 1-.4 1-.6V591l-.2-1 1.4-1.4-.3-1.5Zm-23.9 2.5-1.9 1.3-2.6 1.5-3.5 2-1.5.8-1.9.8-1.8.7-.2-.1v-2.5l-.6-1.1-1-1.4-1-1.2-.6-.7.2-.6 1.2-1-.7-.8-.6-1.5-.1-.2.7-.5h.5l1.6-1.4 1.1-.6h2.3l2.4.2 3.2.9 2.5.2 2.5.7h.6l-.3 2 .2 1.2.1.6-.8.7Zm.6-8.1-2-1-1.7-.6-3.6-1.8-.4-.7v-1.4l.6-1.9.5-2.1 1-2.2v-1l.6-.5h.8l1.7.6 1.6.8 1.4.3.9-.3 1-1 .5-.8 1-.4 1.9.5 1 .2.5.8.2 1.5v1.8l-.3 2.5v1.7l-.5 1.8-.2 1.5.2 1.5h-2.7l-.9.6-1.3.7-1.7-1.2Zm5.8 11.5-.6 2.7-1.6 4-2.3 6.2-.7 1.8-1 .7-3.5-.2-1.3.5-.4-.1v-1l.3-1.1-1.1-1.8-1.1-1-1.5.5-.6-.6.7-1.6.5-2.1.8-1.2 3-2.7 2.4-1.7 3.7-3.2.3-.5.4.4 1.2.3 1.4.2 1.2-.2-.2 1.7Zm2-3.7-.1.4-.8.3-.9.3-1.2.2-1.2-.2-.8-.2-1.1-1.1-.5-.3-.2-1.7.1-1.2.3-1 .8-1.2 2.1-1.2h2.9l.7.4.7.6.3.5.2.6.3 1.7-.3.9-.4 1.2-.8 1Zm13.3.5.3 1.5v.7l-.3.2-1.2.5-.9 1.1-.1 1.5v.8l-.2.3-.7.1-.8-.1-1.4-.1-1.5.4-.2 1.4.3.4h-.2l-1.3-.3-1.4.2-.6 1.2-.3.4-.5-.4-.8-1.7.1-2.6-.6-2 .4-2.2-.6-1 1-1.2.9-2.6-.2-1.2-.2-.8 2.5.2 3.5 1 6.3 2.4.1.5-1.4 1.4Z"/></svg>