<svg xmlns="http://www.w3.org/2000/svg" viewBox="0 0 1920 1080"><path d="m1824.7 721-3-10.1-3.7-6.8-4-6.5-3.8-5.4-2.8-3 .6-2.7-2.4-6-4-5.5-3.2-7.6-3.8-5-5.1-5.2-5.8-3.9-6.3-1.2-6.5-.9-5.2 2.7-4.8 3-2.6 3.6.4-1.9 2.6-8.5 3.9-9.2 4.7-6.1 2.7-6-8.5 2.9-5 5.3-5.8 9.2-5.2 11.8-4 19.4-.9 17.3.2 19.8 3 28.2.7 17.8 2.2 19.2 1.6 17.5.9 14.7.1 7 6.3-.5-.4-10.2-1-9.7-.4-5.8-.6-5.5-.5-8.7-.6-8.5-.6-15.7-.4-5.5v-6.4l.4-7.1v-6.9l.5-6.5-.2-13.1.5-7.2 2-17.3-.4-5.2 1.5-6 1.8-4.8 2.4-4.7 3.3-3.7 1.7-1.3 3.2-1 5 .4 4.5 1 4 2 6.8 5.2 3.6 4 1.8 2.6.4 1.8-1 .6-1.5 1.7-1 3-.5 2-.1 5.4.8 3.6.4 2.6-2 4-1.7 4.8-1.6 6.4-1 6v7l2 7.9 2.2 5 2.7 4 2.6-.1 1.9-1.4 1.8 2.7 2.5 3.2 4.4.3 2.2-2.2 2.3-4.2.9-3.9 1.1.4h2.8l1-1.8 1.4-1.2 2.8 2.2 2.9-.2.4-4.4-.5-7Zm-31.3-33.8v-5.1l.6-2 .8-2.7 1.3-1.4 1.5-.9-.5-2.6-2-2.8-3.6-4.2-7.1-5.3-4-2.1-4.9-1-5.2-.5-3.4 1.1-2 1.4-3.5 3.9-2.5 5-1.8 4.9-1.6 6.2.5 5.1-2 17.3-.6 7.3.2 13.1-.5 6.5v6.9l-.3 7v6.5l.3 5.6.6 15.7.6 8.5.5 8.7.6 5.5.4 5.8 1 9.7.4 9.2-4.3.3-.1-6-.9-14.7-1.6-17.4-2.3-19.2-.5-17.9-3.1-28.1-.2-19.7 1-17.2 3.8-19.2 5.2-11.7 5.6-9 4.8-5.2 6-2-1.6 3.7-4.7 6.2-4 9.4-2.7 8.6-1 6.2 4.9-6.9 4.7-2.9 4.9-2.6 6.1.9 6 1.1 5.6 3.7 5 5.2 3.7 4.8 3.1 7.6 4 5.4 2.3 5.7-.5 2.5-2.3.5-4.7 1.4h-3l-2.3-.7-.7-3Zm30.5 44.3-1.7.1-3.1-2.5-2 1.8-1 1.4h-2l-2-.5-1.1 4.7-2.1 4-1.8 1.8-3.5-.3-2.3-2.8-2.3-3.6-2.5 1.9h-1.8l-2.3-3.4-2-4.8-2-7.6v-6.9l1-6 1.5-6.2 1.8-4.7 2-4.3-.3-2.1 1.8.6 2.2-.1h1.3l4.5-1.3 2.6-.7 2.6 2.8 3.8 5.4 4 6.4 3.7 6.6 2.8 10 .6 6.8-.4 3.5Zm-496.6 167.8-1.3-4.5-1.2-2.5.9-1.7-.3-4.8-1.4-4.4-.5-6-1.4-4-2.1-4.7-2.9-3.7-3.7-2-4-1.8-3.8 1-3.5 1.4-1.7 1.4.2-.5 3.3-5.5 4.2-5.7 4-3.5 3.1-4-6.2.6-4.2 2.9-5.4 5.5-5.5 7.4-6.2 12.9-4 12-3 11.5-2.3.2-3.9 1.8-4.4 3.3-4.1 4.4-3.7 7.7-1.6 7.2-.8 8.2.7 11.7-.4 7.4.6 8 .2 7.3v6l-.4 3.2 4.4.3-.1.4 4.3.9 1.8-7.4 1.3-7 .8-4.1.7-4 1.4-6.1 1.3-6 2.7-11.2.8-4 1.3-4.4 1.6-4.9 1.3-4.8.6-1.6 3 .7 2.5 1.2 4.5 2.6 2.2 2 1 1 .1.4-.4.1-1.2.7-.9 1.2-.4.8-.4 2.4.4 1.5.1 1-1.4 1.4-1.5 1.8-1.4 2.5-1 2.4-.4 3 1 3.5 1.3 2.3 1.7 2 1.9.1 1.3-.4 1 1.2 1.7 1.6 3 .5 1.6-.8 1.8-1.6.8-1.4.8.3 1.9.2.8-.7.9-.4 1.8 1.2 2.1.2.6-2v-3l-1.5-4.6-2.4-3.1-2.4-3-2.4-2.6-1.5-1.3.4-1-1.4-2.8-2.5-2.6-1.8-3.3-2.4-2.4-3.3-2.6-3.8-2-4.2-1-.6-.2 2.4-9.1 1.7-5 4.7-11.9.7-3.6 2-3.9 2-3 2.5-3 2.7-2 1.3-.5 2.1-.2 2.9 1.2 2.6 1.4 2 2 3.3 4.8 1.4 3.5.6 2-.2 1.3-.6.2-1.3 1-1.2 1.9-.7 1.3-1.2 3.8-.1 2.7-.3 1.8-2 2.5-2 3.1-2.2 4.2-1.8 4-1.4 5-.3 5.9.4 3.9.9 3.3 1.8.5 1.3-.6.5 2 1 2.7 2.8 1 2-1.2 2.2-2.6 1.2-2.3.4.3 2 .5 1-1.1.9-.5 1.2 2 2.1.4 1.2-3.2 1-5 .2-7.7-1-5.3-1.2-5.3Zm-45.9-1.8h.9l-.8.8-.3.2.2-1Zm-16.4 44-.3 2.7-.1 2.2-.4 6.5v7.2l.1 2.3v2.4l.3 4-.2 3.5-2.7-.2.2-2.2.2-6.1-.3-7.3-.6-8 .5-7.4-.8-11.7.8-8 1.5-7 3.5-7.4 4-4.3 4.3-3.2 3.5-1.7 1.9-.2-.4 1.4v.2l-2 1.2-3.3 3.6-2.3 3.4-1.3 3.1 4.1-2.7 3.3-.8v.8l-1 .3-2.5 1.3-2.2 1.9-1.5 2-1.4 2.4.1 2.2-2.2 6.9-.7 3-.5 5.3-.7 2.7-.3 2.8-.6 2.9Zm14.7-41-1 5.4-.4.1-3.4.9-1.6 1 2.2-3.3 3-3.4 1.2-.7Zm-14.4 64.3v-2.5l-.1-2.2V953l.4-6.5v-2.3l.4-2.6.6-2.9.3-2.7.6-2.7.5-5.3.7-3 2.3-7v-2l1.2-2.2 1.4-1.8 1.9-1.7 2.3-1.2.4-.2-1.8 10.4-3.1 12.6-2.3 13.9-2.5 12.5-2.3 10.4-.8 3.1.2-3-.3-4Zm18-54.4-1.3 4.8-1.6 5-1.3 4.5-.9 3.9-2.7 11.1-1.2 6-1.4 6.3-.8 4-.8 4-1.2 7-1.6 6.4-2.4-.5 1-4 2.4-10.5 2.4-12.5 2.3-13.8 3.2-12.6 1.9-10.9 2-.1 2.5.4-.5 1.5Zm.9-2.4-2.9-.5-1.8.2.1-.9 2.4-.4 2.6.5-.4 1Zm22.1 18 2.3 2.5 2.4 3 2.2 3 1.4 4.2v2.7l-.3 1.1h-1l-2-1.3-1.5.5-.7.6-1.4-.2-1.4-.4-1 1.9-1.6 1.4-1.3.6-2.4-.4-1.4-1.3-1.4-1.7-1.8.6-1.2-.1-1.4-1.6-1.2-2-1-3.2.4-2.7 1-2.3 1.3-2.4 1.4-1.7 1.7-1.7v-.7l.8.3 2.5.3 5-.3 1.6 1.4Zm-20-18.8 4 1 3.6 1.9 3.2 2.5 2.2 2.3 1.8 3.3 2.5 2.6 1.1 2.3-.3.6-4.7.3-2.1-.3-1.5-.4-.3-1.1.3-2 .4-.7.7-1 .8-.4 1.3-.3-.3-1.6-1.2-1.3-2.4-2-4.6-2.8-2.7-1.2-3-.7.4-1.1.7.1Zm30.3-18.7 1-3.5.7-1.3 1-1.7 1-.8 1.2-.4.2-2-.7-2.3-1.4-3.6-3.4-5-2-2.2-3-1.5-3.1-1.3-2.4.2-1.6.7-2.9 2.1-2.6 3-2 3.2-2.2 4-.7 3.8-4.7 11.8-1.7 5-2.4 9.2-2.9-.6-2.2.4 1-5.9 1.2-.7 2.8-2.9-3.1.3 3-11.1 3.9-12 6.1-12.7 5.5-7.3 5.2-5.3 4-2.8 3.7-.4-1.6 2.2-4.1 3.4-4.3 6-3.4 5.6-2.2 4.9 5-4.5 3.4-1.3 3.5-1 3.6 1.7 3.4 1.8 2.7 3.5 2 4.5 1.4 3.9.5 5.9 1.4 4.4.3 4.4-.8 1.6h-1.4l-3 .1-2-.5-1-.8v-2.2Zm11.8 29-1 4.9-1 2.2-.8-.1-1.5-2.4-1.7 1-.8.8-1.1-.3-1.3-.9-1.7 3.3-2 2.4-1.4.9-2-.7-.8-2.3-.8-3.1-2 1-1-.3-.7-2.7-.3-3.7.2-5.7 1.4-4.7 1.7-4 2.2-4.1 2-3 2.1-2.7.2-1.4.7.6 1.5.4.8.2 3.1-.1h1.6l1 2.2 1.3 4.4 1.2 5.2 1 5.2-.1 7.5ZM405.1 872l.6-12.7 1.2-14.1-.3-13 1.5-20.6-.7-14.4-1.5-12.6-4-13.8-4.8-8.5-5.2-6.5-4.3-3.6-7.3-1.8 2.5 4.5 4.2 4.3 3.5 6.5 2.6 6 .2 1-2-2.1-4.2-2.1-4.4-1.8-5.3 1-5 1-4.7 3.2-4.1 4.1-2.9 3.7-2.4 5.8-3 4-1.8 4.7.5 1.9-2.2 2.2-2.9 4.2-3 4.9-2.8 5-2 7.5-.2 4.6-3.8-3.6-5.8-3-5.3-1.8-4-.5-5.8 1.7 3.4 1.8 4.1 1 4.2 2.3 3.4 2.5-1.5-.3-3.4.3-3.5.6-3.3 2.5-3 2.4-2.3 3.6-1.6 3.8-.8 3.2v4l-.8 3.4.1 3.4 1 .8-.9 2-.7 3.4-.6 3.9-.5 3.9.9 5 1.4 3 1.4 1.9 1.8-1 1-1.7h.9l1 .4 1.5-.9.5-.5 1.2 1 2.3 1 1.9.3 2.3-1.6.7-2.2.3-1.5h1.3l1.5-1 .5-2.5v-2.8l-.8-3.6-1.7-3-2-2.1-2.5-2-2-1.4-2-.9-.3-1-.4-1.6-1.3-2.2-1-.8-1.2-.9-1.3-.2h-.5l-.1-.4.3-1.5 1-2.7 2.4-4.3 1.7-2 2.2-1.9 2.6-1.8 1.9-.6h1.2l2.6.3 2.3 1 2.1 1.4 2.2 1.8 1 2 5.2 6.4 2 2.6 3 5.3 1.8 2.4 1.6 2.8 1.9 2.6 1.5 2.5 1.1 2.3 3.4 6.4 1.7 3.6 1.8 3.5 1 2.4 1.1 2.4 1.8 4.2 2.3 4.4 3.9-2-1.7-3-3-6.1-3.3-7.4-3.4-8.4-3.9-7.2-5-12.2-4.6-7.9-4.1-5.7 1.7-1.4 1 .7 1 1.3h2.3l1-.4.8 2.6 2 3 2 1.6 3.7-.4 2-2.5 1.4-2 1.5 1 2.2-.1 2.1-3 1.6-4 1.4-5.7-.3-5.2-1.1-4.3-1.6-4.6-1.6-3.4-1.8-2.8.3-1.8.5-2.7-.3-3.9-.5-1.6-.8-2-1.4-1.2-.8-.4.2-1.2 1.3-1.8 2.8-3.2 5.4-4 3.2-1.7 3.7-.9 4.1-.6 2.6.7 1.5.8 2.8 2.5 2.2 3.3 1.7 3.4 1.5 4.3-.2 3.7 2.3 12.5.8 5.2.3 9.6.7 4.6.2 5.1.6 5 .3 4.7v15.5l-.1 6.2v6.3l-.3 4-.2 4.3-.4 7v7.7h5.5l-.2-5.2.1-10.7Zm-85-21.6 2.2 1 2 1.3 2.4 2 1.9 2 1.6 2.6.7 3.5v2.6l-.4 2-1 .5-1.7.1-.5 2.2-.5 1.8-1.8 1.2h-1.3l-2-1-1.8-1.5-1 1-1.1.6-.7-.3h-1.7l-1.1 2-.8.4-.9-1-1.3-2.9-.8-4.8.5-3.7.5-3.8.8-3.3.7-2 4.3-1.4 1.9-1 .7-.8.2.7Zm27.5-16 4.6 7.8 5 12.2 3.9 7.2 3.3 8.3 3.3 7.5 3 6.1 1.3 2.1-2 1.1-2-3.4-1.7-4.2-1.1-2.4-1-2.4-1.8-3.6-1.7-3.6-3.4-6.4-1.2-2.3-1.5-2.6-1.9-2.6-1.6-2.8-1.8-2.3-3-5.4-2-2.7-5.2-6.1-1-2.3-2.4-2-2.2-1.4-2.5-1-2.9-.5h-1.4l-2.1.7-2.9 2-2.2 1.9-1.8 2.2-2.6 4.4-1 3-.4 1.7.5 1.5h2.2l1 .8.6.5 1.2 2 .3 1.2-1 1-1.6 1-2.8.9-1.3.5-.6-.6-.2-2.9.9-3.4v-4l.7-3 1.5-3.6 2.1-3.3 3-2.4 3-2.3 3.3-.6 3.2-.3 4.9 1.2-2.7-2.7-3.5-2.5-4.3-2.4-4-1-1.3-.6 3.3-1 3.6.5 5.2 1.7 5.5 3 4.6 4.2.4 2.5h2l4.2 6Zm-5.4-7.3.3.4h-.3v-.3Zm24.4-25.3 1.6 3.3 1.5 4.5 1 4.2.4 5-1.3 5.5-1.6 3.7-1.7 2.5H365l-2-1.2-1.9 2.7-1.7 2.2-2.9.3-1.5-1.2-1.9-2.8-1-3.4-1.8.6h-1.7l-.7-.9-1.8-1.3-2.3 1.8-1.9-1.8v-5.4l2-7.3 2.8-5 3-4.8 2.9-4 2-2.2 6 1.1h2.8l1.4-.6-.1 1.5 1.9 3Zm37.5 85H401l-.1-6.5.4-7 .2-4.3.2-4v-6.3l.3-6.3-.2-11.4v-4l-.2-4.8-.6-5-.2-5.1-.7-4.6-.4-9.7-.7-5.2-2.3-12.4.1-3.8-1.5-4.5-1.7-3.6-2.3-3.3-3-2.7-1.6-1-3-.7-4.4.6-3.8.9-3.5 1.8-5.5 4-3 3.4-1.4 2-.4 2.2 1.4.6 1 1 .8 1.8.5 1.4.3 3.7-.5 2.2-1.7.6h-2.6l-3.9-.7-1.8-.3-.5-1.6 1.6-4.2 3-4 2.4-5.8 2.8-3.5 4-4 4.4-3 4.9-1 5-1 4.1 1.6 4 2 4.6 5-1.3-5-2.6-6.1-3.5-6.6-4.2-4.3-1.4-2.4 4.9 1.2 4 3.4 5 6.3 4.8 8.3 4 13.7 1.4 12.4.7 14.3-1.5 20.7.3 13-1.2 14-.6 12.8-.1 10.7.1 4.2ZM166.6 533.5l4.2 12.3 1.8 8.1 3 8.4 2.4 7.7 1.8 6.6.7 3.4 4-1-1.2-4.9-1.4-4.2-.8-2.6-.8-2.4-1-4-1-3.7-1.8-7-.6-2.5-.6-2.8-.4-3.3-.6-3-.3-3.1-1.2-6-.4-3.2-.3-8-.7-2.4.3-2.7.6-2.4 1-2.4 1.4-2 1-.7 1.6-.8 2.8-.3h2.7l2.3.4 4.4 1.6 2.4 1.4 1.1 1 .3.4-.4.3-.8 1-.3 1.5-.1 1 .4 2.6.8 1.6.4 1-.7 2-.6 2.4-.3 3v3l.5 3.1 1.9 3.5 1.6 2 2 1.6 1.7-.3.8-.8 1.2 1 1.8 1.2 2.6-.4 1.2-1.3.9-2.2.2-1.7h.5l1.7-.3.5-1 .5-.6 1.8.7 1.8-.4-.1-2.3-1-3.2-2.5-4.3-2.8-2.8-2.9-2.5-2.6-2-1.8-1 .1-1.2-2-2.6-2.7-2-2.5-3.1-2.6-2-3.4-1.7-3.8-1.2-3.6.1-3.9.4-2.7 1.8-2.5 1.9-.8 1.2.8-4 1.3-4.6 2.2-3.2 1.2-3.7-5 2.4-2.5 3.1-2.5 4.9-2 5.9-.5 9.3 1 8 1.7 9Zm35.8-17 2.6 2 2.8 2.6 2.7 2.5 2.4 4.2.9 3v1.3l-.7.2-2-.8-1 1-.4.8-1.1.2h-1.4l-.2 2.4-.8 2-.9.9-1.9.2-1.4-1-1.8-1.4-1.3 1.2-.9.1-1.5-1.2-1.5-1.9-1.8-3.2-.5-3v-2.7l.3-3 .6-2.3.9-2.3-.3-.6h.8l1.1-.2.8-.2 4-1.7 1.5 1Zm-37-9 1.8-5.9 2.5-4.6 2.2-2.8 2.8-1.4-.5 1.3-2 3.2-1.6 4.8-.8 4.3v3.8l2.5-4.3 2.4-1.8 2.5-1.7 3.6-.3 3.4-.1 3.5 1 3.3 1.8 2.4 1.8 2.5 3 2.7 2 1.7 2.3v.9l-3.6 1.5-1.8.4h-1.2l-.6-1.2-.4-2.3.1-.8.3-1.3.5-.7 1-.7-.7-1.5-1.4-1-2.5-1.5-4.5-1.7-2.6-.5-2.8.1-3 .3-2 1-1 .8-1.6 2.2-1.1 2.6-.6 2.5-.4 3 .7 2.3.4 8 .3 3.4 1.3 6 .2 3 .6 3 .5 3.3.5 3 .7 2.4 1.7 7 1 3.8 1 4 .9 2.4.8 2.6 1.4 4.2.9 3.9-2 .5-.5-2.4-1.8-6.6-2.4-7.8-3-8.4-1.9-8-4.1-12.4-1.9-8.9-1-7.8.6-9ZM465 850.6l-1.3-3.4-1-1.8.7-.9-.3-3.3-1.4-3.4-.5-4-1.4-3.2-2.2-3.6-2.7-3-3.5-2.2-3.7-2-3.7-.2h-3.4l-1.6.7 3.1-3 4-2.9 3.8-1.3 3.3-2.3-6-1-4.1 1-5.1 2.4-5.3 3.7-6 7.3-3.7 7.1-3.5 8.5-3.3 12.7-2.9 7.8-2.1 8.7-2.2 7.7-2.2 6.5-1.3 3.2 4.2 1.6 1.7-4.8 1.2-4.3.8-2.6.6-2.4 1.3-3.9 1.2-3.7 2.5-6.8.8-2.4 1.2-2.7 1.5-3 1.2-2.8 1.5-2.7 2.2-5.6 1.6-2.9 4.4-6.8.7-2.3 1.9-2 1.9-1.6 2.3-1.4 2.5-.7 1.3-.1 2 .3 2.9 1.5 2.5 1.6 2 1.8 3.1 4 1.4 2.6.6 1.4-.1.5h-.4l-1.4.4-1.2 1-.6.8-1.2 2.3-.1 1.9-.2 1-1.8 1.2-2 1.6-2.1 2.3-1.7 2.3-1.4 3-.2 4 .4 2.7.9 2.6 1.6.6h1.3l.6 1.4 1 2 2.5 1.4 1.8-.4 2.2-1.3 1.2-1.3.5.4 1.7.7 1-.5 1-.1 1.2 1.6 1.9.7 1.1-1.9 1-3.2.2-5.2-1-3.9-1.3-3.8Zm-10.4-9.5 1-2.1.5-.6 1-1 1-.2h1.2l.2-1.6-.7-1.7-1.5-2.8-3.2-4-2-2-2.7-1.7-3-1.5-2.4-.4h-1.4l-2.8.8-2.5 1.5-2 1.7-2.1 2.3-.7 2.3-4.3 6.8-1.7 3-2.2 5.6-1.5 2.6-1.2 3-1.5 2.8-1.2 2.8-.9 2.4-2.5 6.8-1.1 3.8-1.3 3.8-.7 2.5-.8 2.6-1.1 4.3-1.4 3.7-2.3-.8 1-2.3 2.1-6.5 2.3-7.8 2-8.7 3-7.7 3.3-12.7 3.4-8.4 3.7-7 5.8-7 5-3.6 5-2.4 3.8-1 3.5.6-1.2.8-3.9 1.4-4.1 3-3.2 3-2.3 3 4.8-1.9h3.2l3.4.2 3.5 1.9 3.3 2 2.7 3 2 3.4 1.3 2.9.5 4 1.4 3.3.3 2.9-.6.7-4.3-1-1.9-.8-1.1-.8.1-1.2Zm11.5 22-1 3-.6 1.2-.9-.3-1.4-2-1.6.3-.8.4-1.2-.5-1.2-.8-1.5 1.8-2 1.1-1.3.3-2-1-.8-1.7-.8-2.2-1.8.2-1-.4-.7-2-.4-2.5.2-3.6 1.3-2.9 1.6-2.1 2-2.3 1.9-1.5 2-1.4.2-.7.7.5 1.3.6.8.3 4.7 1 1 1.8 1.2 3.2 1.2 3.7 1 3.7-.1 4.9ZM673 989.7l-1.3-3.4-1-1.8.7-.9-.3-3.3-1.4-3.4-.5-4-1.4-3.2-2.2-3.6-2.7-3-3.5-2.2-3.7-2-3.7-.2h-3.4l-1.6.7 3.1-3 4-2.9 3.8-1.3 3.3-2.3-6-1-4.1 1-5.1 2.4-5.3 3.7-6 7.3-3.7 7.1-3.5 8.5-3.3 12.7-2.9 7.8-2.1 8.7-2.2 7.7-2.2 6.5-1.3 3.2 4.2 1.6 1.7-4.8 1.2-4.3.8-2.6.6-2.4 1.3-3.9 1.2-3.7 2.5-6.8.8-2.4 1.2-2.7 1.5-3 1.2-2.8 1.5-2.7 2.2-5.6 1.6-2.9 4.4-6.8.7-2.3 1.9-2 1.9-1.6 2.3-1.4 2.5-.7 1.3-.1 2 .3 2.9 1.5 2.5 1.6 2 1.8 3.1 4 1.4 2.6.6 1.4-.1.5h-.5l-1.3.4-1.2 1-.6.8-1.2 2.3-.1 1.9-.2 1-1.8 1.2-2 1.6-2.1 2.3-1.7 2.3-1.4 3-.2 4 .4 2.7.9 2.5 1.6.7 1.3-.1.6 1.5 1 2 2.5 1.4 1.8-.4 2.2-1.3 1.2-1.3.5.4 1.7.7 1-.5 1-.1 1.2 1.6 1.9.7 1.1-1.9 1-3.2.2-5.2-1-3.9-1.3-3.8Zm-10.4-9.5 1-2.1.5-.6 1-1 1-.2h1.2l.2-1.6-.7-1.7-1.4-2.8-3.3-4-2-2-2.7-1.7-3-1.5-2.4-.4h-1.4l-2.7.8-2.6 1.5-2 1.7-2.1 2.3-.7 2.3-4.3 6.8-1.7 3-2.2 5.6-1.5 2.6-1.2 3-1.5 2.8-1.2 2.8-.9 2.4-2.5 6.8-1.1 3.8-1.3 3.8-.7 2.5-.8 2.6-1.1 4.3-1.4 3.7-2.3-.8 1-2.3 2.1-6.5 2.3-7.8 2-8.7 3-7.7 3.3-12.7 3.4-8.4 3.7-7 5.8-7 5-3.6 5-2.4 3.8-1 3.5.6-1.2.8-3.9 1.4-4.1 3-3.2 3-2.3 3 4.8-1.9h3.2l3.4.2 3.5 1.9 3.3 2 2.7 3 2 3.4 1.3 2.9.5 4 1.4 3.3.3 2.9-.6.7-4.3-1-1.9-.8-1.1-.8.1-1.3Zm11.5 22-1 3-.6 1.2-.9-.3-1.4-2-1.6.3-.8.4-1.2-.5-1.2-.8-1.6 1.8-1.9 1.1-1.3.3-2-1-.8-1.7-.8-2.2-1.8.2-1-.4-.7-2-.4-2.5.2-3.6 1.3-2.9 1.6-2.1 2-2.3 1.9-1.5 2-1.4.2-.7.7.5 1.3.6.8.3 4.7 1 1 1.8 1.2 3.2 1.2 3.7 1 3.7-.1 4.9Zm-114.3-41-3.3-8.8-4.1-5.5-4.4-4-3.7-2.3-6.8-1.2 2.5 3.2 3.6 2.7 3 4 2 3.8.1.3-1.5-1.2-3.7-1.4-3.8-1-4.8.6-4.3.7-4.4 2-3.6 2.6-2.6 2.4-2.2 3.7-2.7 2.5-1.8 3.1.4 1.2-1.9 1.3-2.6 2.7-2.8 3-2.6 3.3-2 4.8-.2 3.5.4 2.2h2.2l2-1 1 .4.8.8h2l.8-.3.6 1.5 1.8 2 1.8 1 3.1-.2 1.9-1.6 1.2-1.3 1.4.6h1.9l1.9-2 1.5-2.4 1.4-3.8-.2-3.3-.9-2.9-1.3-2.9-1.4-2.2-1.4-1.7.2-1 .6-1.7-.2-2.5-.5-1.1-.7-1.4-1.2-.8-.6-.2.1-.5 1.2-1 2.5-2 4.9-2.7 2.8-1 3.3-.6 3.7-.4 2.3.4 1.3.5 2.4 1.6 1.8 2 1.4 2.1 1.1 2.7-.2 2.3 1.8 8 .6 3.2v6.2l.6 2.9v3.2l.5 3.2.2 2.9-.2 2.6v7.2l-.4 4-.1 4-.4 2.5-.2 2.7-.5 4.5-.1 5h4.9v-3.4l.3-6.8.8-8 1.2-9v-8.2l1.8-13.2-.3-9.2-1-7.9Zm-35 11.2 1.3 2 1.2 2.9.8 2.6.2 3-1.3 3.5-1.4 2.2-1.5 1.7h-1.3l-1.9-.8-1.6 1.7-1.6 1.4-2.5.2-1.3-.7-1.6-1.7-.9-2.3-1.5.4h-1.5l-.6-.5-1.6-.8-2.2 1.2h-1.2l-.2-1.3.2-3.1 1.8-4.6 2.6-3 2.7-3.2 2.6-2.5 1.9-1.4 5.2.7h2.4l1.2-.4-.2.8 1.7 2Zm33.6 19v8.1l-1.3 9-.8 8-.4 7v2.4h-2.8v-4l.6-4.4.2-2.7.4-2.6.1-4 .3-4 .2-7.2v-5.6l-.5-3.2-.1-3.3-.5-2.8-.1-6.2-.5-3.3-1.8-7.9.2-2.4-1.3-3-1.5-2.2-1.9-2.1-2.6-1.8-1.5-.6-2.6-.4-3.8.4-3.4.6-3 1.1-5 2.7-2.6 2-1.4 1.4-.4 1.7 1.3.4.9.6.6 1 .4 1 .1 2.1-.4 1.3-1.5.4h-2.3l-3.4-.4-1.6-.2-.3-.8 1.4-2.5 2.7-2.6 2.3-3.6 2.4-2.3 3.6-2.5 4-2 4.3-.6 4.5-.6 3.6 1 3.4 1.2 4.1 3.3-1.2-3.6-2.1-3.9-3-4.1-3.6-2.8-.9-1 4 .6 3.5 2.1 4.3 4 4 5.2 3.1 8.6 1 7.8.3 9-1.7 13.2Zm57.8-30.4 2.3 2.5h3.8l1.8-1.8 1.8-3.6.6-3 1 .2 2.4-.2.8-1.5 1-1 2.5 1.8 2.5-.3.3-3.7-.7-5.7-2.9-8.2-3.5-5.4-3.6-5.1-3.4-4.3-2.5-2.3.4-2.2-2.3-4.9-3.6-4.3-3-6-3.4-4-4.5-4-5.1-3-5.4-.8-5.6-.4-4.3 2.4-4 2.6-2 2.8.2-1.2 2-7 3-7.7 3.7-5.1 2.2-5.3-7.3 2.8-4 4.6-4.6 7.7-4 9.8-2.7 16-.2 14.1.8 16.1 3.7 22.8 1 14.5 2.7 15.6 2 14.1 1.2 12 .4 5.7 5.5-.6-.7-8.4-1.2-7.8-.6-4.8-.7-4.4-.7-7-.9-7-1-12.7-.5-4.5-.2-5.2v-5.8l-.2-5.5.2-5.4-.6-10.6.1-6 1.2-14.1-.6-4.2 1-4.9 1.4-4 2-3.9 2.5-3.1 1.5-1 2.6-1 4.2.1 4 .6 3.3 1.5 6 4 3.2 3.2 1.6 2 .4 1.3-.8.5-1.2 1.4-.8 2.5-.4 1.7.1 4.4 1 3 .3 2-1.5 3.3-1.3 4-1.1 5.3-.7 5 .2 5.7 2 6.3 2 4 2.5 3.2 2.3-.1 1.5-1.2 1.6 2Zm-7.8-42.7V914l.3-1.5.6-2.2 1-1.2 1.3-.8-.5-2.2-1.8-2.3-3.3-3.3-6.2-4-3.5-1.6-4.2-.6-4.5-.3-2.9 1.1-1.7 1.2-2.7 3.3-2 4.2-1.4 4-1.2 5.2.6 4.2-1 14.1-.3 6 .7 10.7-.2 5.3.2 5.6v5.8l.2 5.2.5 4.5 1 12.8.9 6.9.7 7 .7 4.5.6 4.7 1.2 7.8.6 7.4-3.5.4-.3-4.7-1.2-12-2-14.2-2.6-15.5-1.2-14.5-3.6-22.8-.8-16 .2-14 2.6-15.8 4-9.7 4.4-7.5 3.9-4.4 4.9-1.8-1.2 3-3.8 5-3 8-2 7-.8 5.5 4.2-6 3.8-2.6 4-2.2 5.3.4 5 .7 5 2.8 4.4 4 3.3 3.8 3 6 3.6 4.3 2 4.6-.3 1.9-1.8.5-4 1.3h-2.5l-2-.4-.6-2.4Zm4.3 40.8h-1.4l-2-2.6-2-3.9-2-6-.2-5.6.6-4.8 1.1-5.2 1.3-4 1.7-3.5-.4-1.6 1.5.4 2-.2h.9l4-1.3 2-.6 2.3 2.1 3.4 4.3 3.6 5 3.4 5.3 2.8 8 .7 5.5-.2 2.8-1.3.1-2.8-2-1.7 1.6-.7 1.2-1.7.1-1.8-.4-.8 3.9-1.6 3.3-1.5 1.5h-3l-2-2.2-2-2.9-2.2 1.6Zm-347.6-67.7-4-5.5-4.1-5.2-4-4.4-3-2.4.7-1.9-2.5-4.9-4.2-4.4-3.2-6-4.1-4-5.6-4.5-6.4-3.3-7-1.5-7.3-1.2-6 1.6-5.7 1.9-3.4 2.6.5-1.3 3.5-6.2 4.9-6.5 5.7-4.2 3.7-4.6-9.8 1.4-6 3.7-7.2 6.4-6.6 8.4-5.6 14.2-2.1 13-1 15 2 21.3-.3 13.5 1.5 14.6.9 13.2v.7l-.8-4.6-2.5-18-2-20.2-4-18-3.3-29.5-4.9-20-5.7-17.1-10-18.1-9.8-10.3-9.8-7.4-7.5-3.6-11.4-.2 5 5 7.6 4.8 7.3 8 5.6 7.6 1.1 2.2-4.6-3-7-1.5-7.3-1-8 3-7.5 3.1-6.5 5.8-5.2 7.1-3.5 6-2.2 8.9-3.6 6.6-1.6 7.1 1.4 2.5-2.8 4-3.5 6.7-3.3 7.8-3.1 8-1.2 11.2L66 901l1.7 4.3 3.5-.8 3-3.2 2.2.8 1.7 1.4 3.4-.8 1.6-.9 2.1 3.6 4 3.5 3.4 1.6 5.3-1.7 2.5-4 1.6-3.5 3 .9 3.1-.8 2.4-4.8 1.5-5.8.5-8.5-1.9-7.2-2.8-5.7-3.7-5.9-3.5-4.3L97 856l-.2-2.7.2-3.9-1.5-5.4-1.2-2-2-2.6-2.3-1.2-1.5-.3v-2l1.6-3 3.5-5.2 7.5-7.5 4.6-3.4 5.6-2.5 6.3-2.2 4.4.1 2.7.7 5 2.7 4.4 3.8 3.5 4.3 3.5 5.6.7 5.2 7.1 16.8 2.6 7.1 1.5 6.4 1.6 7 2.3 6.2 1.8 7 2.2 7 1.7 6.4 1 5.7 3.3 16 1.4 8.7 1.7 9 .6 5.6 1 6 .7 6-2.5-6.9-2.7-8.4-3.3-7.2-4-12.3-4-8-4.2-6.6-6.3-6.6-5.7-3.2-5.3-2-4-.6-6 1.5 3.3 2 4.1 1 4 2.5 3.3 2.5.1.1-1.6-.4-3.6.2-3.4.5-3.8 2.3-3.3 2.3-2.7 3.4-1.9 3.7-1.1 3-.4 4.2-1.1 3.2-.2 3.5.8.8-1 2-1 3.3-1 3.8-.9 3.8.4 5 1.2 3 1.3 2 2-.9 1-1.7h1l1 .5 1.6-.9.6-.4 1.2 1 2.2 1.2 2 .2 2.5-1.5.8-2 .5-1.6h1.3l1.6-.8.8-2.4.2-2.8-.4-3.7-1.5-3-2-2.2-2.2-2-2-1.5-1.9-1-.3-.9-.2-1.7-1.2-2.2-.8-.8-1.2-1-1.4-.2h-.5v-.4l.4-1.4 1.2-2.7 3-4.1 1.9-2 2.4-1.8 2.8-1.7 2-.5h1.3l2.6.5 2.4 1 2 1.4 2 1.9.8 2 4.8 6.5 1.8 2.7 2.6 5.4 1.6 2.3 1.4 2.8 1.7 2.7 1.3 2.5 1 2.3 2.8 6.5 1.4 3.6 1.5 3.6.8 2.4 1 2.4 1.4 4.2 2 4.5 1.8-.9.8 3.8 7.8-1.6-.4-1.6 4 .1V959l-.6-7.3-.2-4.4-.3-4.1v-6.6l-.3-6.5.2-11.8V914l.3-4.8.8-5.3.4-5.2 1-4.8.4-9.9 1-5.3 3.3-12.9-.2-3.9 2-4.2 2.3-3.5 3-3.3 4-2.5 2-.8 3.8-.6 5.8.8 5.1 1.1 4.5 2 7.6 4.4 3.9 3.4 1.9 2 .2 1.1-1 .4-2 1.1-1.2 2.2-.7 1.5-.5 4.2.8 2.7.3 1.9-2.4 2.8-2.3 3.5-2.2 4.7-1.4 4.4-.5 5.4 2 6.1 2 3.9 3 3.3 2.8.1 2.3-1 2 2.4 2.7 2.5 4.8.6 2.6-1.4 2.9-3 1.2-2.8 1.4.4 3.1.2 1.3-1.2 1.7-.9 3.1 2h3.2l.8-3.3-.2-5.3-2.8-8ZM99.8 859.9l3.5 4.2 3.6 5.8 2.8 5.6 1.8 6.9-.5 8.2-1.4 5.6-2.2 4.3-2.5.6-3.4-1-2 4.2-2.2 3.6-4.6 1.5-3-1.3-3.6-3.3-2.6-4.3-2.3 1.2-2.8.7-1.4-1.1-3-1.2-3.3 3.5-2.4.5-1.4-3.3-1-7.1 1-11 3-7.8 3.4-7.8 3.4-6.6 2.8-3.9 3.6-.1 6-.2 1.7-.4 2.8-.6 2.4-1.4v2.4l3.8 3.6Zm25.5 68 2.2 1.1 2 1.4 2.1 2 1.8 2 1.4 2.7.4 3.4-.2 2.6-.6 2-1 .5h-1.9l-.6 2.2-.8 1.7-1.9 1.2-1.4-.2-2-1-1.6-1.6-1.2 1-1.1.6-.7-.3-1.7-.1-1.4 2-.8.3-.8-1-1-2.9-.5-4.7.8-3.7 1-3.8 1-3.2 1-1.9 4.6-1.3 2-1 .7-.7.2.7Zm47.7 37.7-1.6-3.5-1.4-4.2-1-2.4-.8-2.4-1.5-3.6-1.4-3.7-2.9-6.4-1-2.3-1.3-2.6-1.6-2.7-1.5-2.8-1.6-2.4-2.6-5.4-1.8-2.7-4.7-6.3-.8-2.2-2.4-2.1-2-1.5-2.5-1.1-3-.6h-1.3l-2.3.6-3 1.8-2.6 1.8-2 2.2-3 4.3-1.3 2.8-.6 1.7.3 1.6 1.3-.1 1 .2 1 .7.6.6 1 2 .2 1.2-1 .8-1.2.7-.6.3-3 .8-1.4.5-.6-.6.1-2.8 1.2-3.3.3-4 1.1-3 1.8-3.5 2.6-3.2 3.2-2.3 3.4-2.2 3.3-.4 3.4-.3 4.8 1.4-2.5-2.7-3.4-2.7-4.1-2.5-4.2-1-1.1-.7 3.4-.9 3.8.6 5.1 1.9 5.4 3 6.2 6.5 4 6.5 4 7.9 4 12.2 3.4 7.3 2.6 8.4 2.7 7.4 1.2 3v.2l1.2 5.7-1 .5Zm2-1-.3-1 .5 1h-.2Zm.8 4-.6-3 1.3-.6-1.4-3-1.3-3.1-1.2-9.7-.9-6-.6-5.7-1.7-9-1.4-8.7-3.3-16-1-5.7-1.7-6.5-2.3-7-1.8-7-2.3-6.2-1.6-7-1.5-6.4-2.5-7.1-7.1-16.7-.7-5.3-3.7-5.8-3.6-4.4-4.4-4-5.4-2.8-2.8-.8h-4.8l-6.5 2.2-5.7 2.5-4.8 3.5L93 827l-3.6 5.5-1.7 3.3v3l2.1.4 2 1 1.8 2.4 1.2 1.8 1.4 5.1-.1 3.4-2.8 1.5-2.8.7-1.2.3-6.4.1-3.1.2-1.3-2.3 1.4-6.5 3.6-6.6 2.2-8.8 3.4-6 5.1-6.9 6.3-5.6 7.3-3.1 7.8-3 7 1 6.8 1.5 7.6 5-2.9-5.6-5.7-7.8-7.3-8-7.7-4.8-3.2-3.3 8.7.2 7.3 3.5 9.6 7.2 9.7 10.1 9.9 18 5.7 17 4.9 19.9 3.3 29.4 3.8 18 2 20.1 2.6 18.1 1.9 10.7v4.2l-.2 5.3 2.2.1.2.8-5.9 1.3Zm4.5-3 .2-3.2.7 3.2h-.9Zm53.7-94.4.4-3.8.6-1.4 1.1-1.9 1.6-1 1.8-.5-.5-2.4-2-2.2-4.1-3.5-7.7-4.5-4.6-2-5.3-1-6-.9-3.9.6-2.3.8-4.1 2.6-3.3 3.6-2.3 3.6-2.2 4.5.3 4-3.3 12.7-1 5.5-.3 4.8-.2 5-1 4.9-.3 5.1-.8 5.3-.4 4.9v4.1l-.2 12 .3 6.3v6.7l.4 4.1.2 4.4.6 7.3-.1 6.8h-3.1l-1-4.4-.8-4.4-.1-6.8-.9-13.3-1.5-14.5.3-13.5-2-21.3 1-14.8 2-12.9 5.5-14 6.5-8.2 7-6.3 5.8-3.4 7-1.1-1.9 2.4-5.7 4.2-5 6.8-3.6 6.3-1.7 4.6 5.9-4.6 5.5-1.8 5.8-1.5 7.1 1.1 6.8 1.4 6.2 3.3 5.5 4.3 4 3.9 3.1 6 4.3 4.4 2.2 4.4-.7 1.6-2.6.2-5.4.6-3.6-.2-2.7-.7-.6-2.3Zm32.6 35.7h-2.1l-3.4-2.2-2.3 1.2-1 1-2.6-.2-2.2-.6-1.5 3.4-2.6 2.8-2.2 1.3-4.2-.6-2.4-2.3-2.4-2.8-2.8 1.2-2.3-.2-2.5-2.8-2-3.7-1.9-5.9.5-5 1.4-4.3 2.1-4.6 2.3-3.3 2.6-3.1-.2-1.7 2 .7 2.7.1 1.4.1 5.2-.6 3.1-.3 3 2.4 3.9 4.4 4.2 5.1 3.8 5.3 2.7 7.6.2 5.2-.5 2.4Zm238-490.7.9-1.5 1-.9 2.4 1.6 2.6-.3.2-3.6-.8-5.4-3-7.7-3.5-5-3.7-4.9-3.5-4-2.5-2.1.4-2-2.4-4.7-3.6-4-3.1-5.7-3.5-3.6-4.6-3.9-5.1-2.7-5.4-.6-5.6-.3-4.3 2.4-4 2.5-1.8 2.7.1-1.1 1.9-6.7 2.8-7.3 3.7-5 2.1-5-7.2 2.7-4 4.5-4.5 7.4-3.9 9.4-2.5 15.2V390l1.1 15.4 4 21.5 1.3 13.8 2.8 14.7 2.2 13.4L453 480l.4 5.4 5.5-.6-.8-8-1.3-7.4-.6-4.5-.8-4.2-.8-6.7-1-6.5-1.2-12.1-.5-4.3-.3-4.9v-5.5l-.4-5.3.2-5-.8-10.2v-5.6l1-13.5-.6-3.9 1-4.6 1.2-3.9 1.9-3.7 2.6-3 1.4-1 2.6-1h4.2l4 .5 3.4 1.4 6 3.6 3.3 3 1.6 1.8.4 1.3-.8.4-1.2 1.4-.7 2.4-.4 1.7.2 4.1.9 2.8.4 2-1.4 3.1-1.3 3.9-1 5-.6 4.7.3 5.4 2 6 2 3.7 2.6 3 2.3-.1 1.5-1.2 1.6 2 2.4 2.3h3.8l1.8-1.8 1.7-3.4.6-3 1 .3 2.3-.2Zm-21.9-34.6-.2-4 .4-1.4.6-2.1 1-1.2 1.2-.8-.6-2.2-1.8-2-3.3-3-6.3-3.8-3.5-1.4-4.2-.5-4.4-.2-3 1.1-1.6 1.2-2.7 3.2-2 4-1.3 3.9-1 4.9.6 4-1 13.4v5.7l.8 10-.2 5.1.4 5.3v5.5l.3 5 .5 4.3 1.3 12 1 6.6.7 6.8.8 4.1.6 4.5 1.3 7.4.7 7-3.4.4-.4-4.4-1.4-11.4-2.2-13.4-2.8-14.7-1.3-13.7-4-21.6-1-15.2v-13.3l2.4-15 3.8-9.3 4.4-7.2 3.8-4.2 4.8-1.9-1.1 2.8-3.7 5-3 7.5-1.9 6.8-.7 5.2 4.1-5.8 3.8-2.5 4-2.2 5.3.3 5.1.6 5 2.6 4.4 3.7 3.3 3.5 3.1 5.7 3.6 4 2.2 4.2-.3 1.8-1.9.6-3.8 1.2-2.6.2-2-.4-.7-2.3Zm17.8 33.4-.7 3.7-1.6 3.2-1.4 1.4h-3l-2-2-2.2-2.7-2 1.6-1.5.1-2.1-2.5-2-3.6-2-5.7-.3-5.3.6-4.6 1-4.9 1.2-3.7 1.6-3.5-.3-1.5 1.4.4 2-.2h1l3.8-1.3 2.1-.7 2.4 2 3.4 4 3.7 4.7 3.4 5 3 7.4.7 5.3-.2 2.6-1.3.1-2.8-1.7-1.6 1.5-.7 1.1-1.8.2-1.8-.4Zm266.3 255.7 1.7-2.5 2.8-4 2.7-3.8 5.1-7 1.8-2.4 2.2-2.7 2.6-3 2.4-2.9 2.5-2.6 4.4-5.7 2.7-3 6.9-6.7 1.6-2.4 2.6-2 2.4-1.4 2.7-1.2 2.6-.5h1l1.7.7 1.9 1.8 1.6 2 1 2.1 1 4.5.1 3v1.6l-.5.7h-.5l-1.2.2-1.5 1-1 .7-2 2.3-.8 1.8-.7 1.2-2.2 1-2.4 1.6-3 2.2-2.4 2.2-2.5 3-1.9 4.2-.8 2.9-.3 2.7 1.4 1h1l-.1 1.6v2.3l1.9 1.8 1.8-.2 2.4-1 1.6-1.3.2.4 1.4 1 1.1-.4h.7l.4 1.8 1.6 1 1.8-1.8 2.2-3.2 2.3-5.4.8-4.3.5-4.1.3-3.7-.1-2.1 1-1 1.2-3.4.2-3.8 1.3-4.3v-3.5l-.2-4-1.2-3.7-2.2-2.7-2.6-2.7-3.2-.6-3.1-.4-1.4.4 4-2.7 4.9-2.6 4-1 3.8-2-5.2-1.8-4 .6-5.7 2-6.2 3.3-8.5 7-6.4 7.1-6.8 8.6-8.4 13.1-6 7.9-5.6 9-5.4 8-4.7 6.6-2.5 3.2 3.2 2.3 3.5-4.7 3-4.5 1.8-2.7Zm56.3-21.3-.6 4-.7 4.1-2.2 5.3-2 3-1.3 1.3-.5-.4-.5-2.3-1.7.1-.8.3-.8-.6-.7-1.1-2.3 1.8-2.2 1h-1.3l-1.2-1v-2l.3-2.5h-1.9l-.6-.5.2-2.1.8-2.8 1.8-3.9 2.3-2.8 2.5-2.2 2.8-2.2 2.3-1.4 2.4-1.2.5-.8.3.6 1 .8.5.4 2.5 1 1.2.6.1 1.9-.2 3.6Zm-61.8 27.9-3 3.9-1.5-1 1.9-2.5 4.7-6.6 5.4-8 5.7-9 5.9-8 8.4-13 6.7-8.5 6.4-7 8.2-7 6.2-3.2 5.5-2 3.7-.5 2.8 1-1.6.8-4 1-5 2.7-4.2 2.8-3.4 3 5.4-1.6 3 .4 2.8.5 2.3 2.4 2 2.5 1.2 3.4.3 4-.1 3.2-1.3 4.3-.2 3.7-1 3.2-1 .7-3.3-1.5-1.3-1-.6-.9.7-1.4 1.8-2.2.8-.6 1.2-.8 1-.2 1 .1.8-1.4.2-2-.1-3-1.2-4.8-1-2.3-1.7-2.1-2-2-2-.8h-1.4l-2.8.4-2.9 1.3-2.5 1.5-2.8 2.1-1.6 2.5-6.8 6.7-2.8 3-4.4 5.6-2.5 2.6-2.4 3-2.6 3-2.2 2.7-1.8 2.5-5.2 7-2.6 3.8-2.9 3.9-1.6 2.5-1.8 2.7-3 4.5Zm-2-76.7 2.8-3.8 5.4-6.9 1.8-2.4 2.3-2.7 2.6-2.8 2.5-3 2.5-2.5 4.6-5.6 2.7-2.8 7-6.6 1.7-2.3 2.7-2 2.4-1.4 2.7-1.1 2.6-.4h1.1l1.6.7 1.9 1.9 1.5 2 1 2.1 1 4.6v3l-.2 1.5-.4.8-.5-.1-1.2.2-1.6.9-1 .7-2 2.2-.9 1.9-.7 1.2-2.2 1-2.5 1.4-3 2.1-2.5 2.2-2.5 3-2 4-1 3-.2 2.7 1.3 1h1l-.2 1.6v2.4l1.8 1.8 1.8-.2 2.5-1 1.6-1.2.2.4 1.4 1 1.1-.3h.7l.4 1.8 1.5 1 2-1.8 2.2-3.1 2.4-5.4.8-4.2.7-4.2.4-3.6-.1-2.1 1.1-1 1.2-3.4.3-3.7 1.4-4.3.2-3.5-.3-4-1-3.7-2.2-2.8-2.5-2.7-3.2-.7-3.1-.5-1.4.4 4.1-2.7 4.9-2.5 4-.9 3.9-1.9-5.1-1.9-4.1.5-5.7 1.9-6.4 3.1-8.6 6.9-6.5 7-7 8.4-8.7 12.9-6.1 7.7-6 8.9-5.5 7.9-4.8 6.5-2.6 3.1 3.1 2.3 3.7-4.6 3-4.4 1.9-2.6 1.6-2.5 3-3.9Zm52.2-13.8-.6 4.1-.8 4-2.3 5.2-2.2 3-1.3 1.3-.5-.4-.4-2.3h-1.7l-.8.4-.7-.6-.8-1.2-2.3 1.7-2.2 1h-1.3l-1.2-1.1V600l.4-2.5-1.8-.1-.6-.5.2-2.1.8-2.7 2-4 2.3-2.7 2.5-2.2 2.9-2 2.4-1.4 2.4-1.1.5-.8.3.5 1 .9.5.4 2.4 1 1.2.6.1 2-.3 3.5ZM754 606.3l-2 2.6-3 4.4-3 3.9-1.4-1.1 1.9-2.4 4.9-6.5 5.5-8 5.9-8.8 6.1-7.7 8.7-13 7-8.3 6.4-6.9 8.5-6.7 6.2-3 5.5-1.9 3.8-.5 2.7 1-1.6.9-4 .9-5.2 2.6-4.2 2.7-3.4 2.9 5.4-1.4 3 .4 2.8.6 2.2 2.5 2 2.5 1 3.4.3 4-.2 3.2-1.4 4.3-.2 3.7-1.1 3.1-1 .7-3.3-1.5-1.3-1-.6-1 .8-1.4 1.8-2.1.9-.6 1.2-.8 1-.2 1 .2.8-1.4.3-2v-3l-1.1-4.9-1-2.3-1.6-2.2-2-2-2-.8-1.4-.1-2.8.4-2.9 1.2-2.5 1.5-2.8 2-1.8 2.4-7 6.6-2.8 2.9-4.5 5.6-2.6 2.6-2.4 2.9-2.7 2.8-2.3 2.7-1.8 2.5-5.3 6.8-2.8 3.8-3 3.9-1.6 2.5Zm21.1 13.1-.5 2-.3 1.8v2l1 2.4.7 1.4 1.2 1.4 1.2-.1.5-.3.5.6 1 1h1.8l.9-.8.8-1.3.2-1 .2.1h1.2l.4-.7.3-.2.9.6 1.4-.1.1-1.7-.2-2-1.2-3-1.5-2-1.5-2-1.5-1.5-.8-.7.1-.7-1-1.8-1.5-1.6-1.2-2.2-1.5-1.5-1.9-1.4-2.1-1.1-2.4-.3-2.4-.2-2 1-1.6.9.5-1.6 1.2-2.7 1.6-1.8 1.3-2.6-3.7 1.2-1.9 1.8-2 2.8-1.7 3.5-1.3 5.8-.1 5.1.3 5.8 1.4 8.1.4 5.3 1 5.5.7 5 .5 4.3.1 2.4 3-.3-.3-3.3-.5-2.8-.2-1.7-.3-1.6-.3-2.5-.3-2.5-.4-4.5-.1-1.6v-3.9l-.1-2 .1-2-.2-3.7.1-2.1.5-5.2-.2-1.4.5-1.7.5-1.3.8-1.4 1-1 .6-.4 1-.3h1.8l1.6.2 1.3.6 2.5 1.4 1.3 1 .6.7v.1l-.7.7-.4 1-.1.7v1.6l.3 1.1.2.6-.6 1.1-.6 1.5Zm2-7 .4-.3.8-.4-.3-1.2-.9-.8-1.3-1.2-2.7-1.5-1.5-.6-1.8-.2-2-.1-1.2.4-.8.4-1.2 1.2-1 1.6-.6 1.5-.5 2 .2 1.5-.5 5-.1 2.2.2 3.7-.1 2v6l.6 6.1.4 2.5.2 2.6.3 1.5.2 1.7.5 2.8.2 2.3-1 .1v-1.4l-.5-4.3-.7-5-1-5.6-.4-5.2-1.4-8-.3-5.8.2-5 1.1-5.6 1.7-3.3 1.9-2.7 1.6-1.5 1.3-.4-.1.3-1.6 1.8-1.4 3-.9 2.5-.6 3.1 2.5-3 1.6-.8 1.6-.8 2.1.1 2.1.3 2 1 1.8 1.4 1.3 1.3 1.2 2 1.5 1.7.8 1.4-.1.4-2.2.6H777l-.2-.7v-1.4l.4-1.2Zm-.5 6 .8-1.4v-.2H778.7l2.5-.7.8.6 1.3 1.5 1.5 1.8 1.4 1.9 1 2.7.3 2v.6h-.3l-1.2-.7-.9.7-.2.4h-.6l-1-.2-.4 1.6-.6 1.1-.5.5h-1l-.8-.7-1-1.3-1 .7h-.5l-.7-.8-.7-1.3-.8-2.1v-1.9l.2-1.7.5-1.8.5-1.3Zm-66.9 16-2.9-4.2-3-4.8-3.3-4-4.6-7-3.9-4.4-3.7-3.4-5.1-3-4.2-1.2-3.7-.3-2.6.3-4 2.3 2.8.7h2.8l2.9.8 1.8.8h-.3l-2.3.7-2 1-2.1 2.1-1.7 2-1.2 2.7-.6 2.7-.3 2.2.5 2.6-.2 2.3.5 2.3.6.3-.3 1.3-.1 2.3v2.5l.1 2.6 1 3.1 1.4 1.8 1.3 1 1.2-1 .4-1.1.5-.1h.7l1-.8.2-.3.7.4 1.8.3 1.3-.2 1.4-1.4.2-1.6v-.9l.8-.2 1-.8V633l-.3-1.9-.9-2.2-1.4-1.6-1.7-1.1-1.8-1-1.5-.5-1.3-.3-.2-.4-.5-1-1.1-1.3-.8-.4-.9-.4-.9.1h-.2v-1l.3-1.8 1.2-3 .8-1.6 1.3-1.6 1.4-1.5 1.2-.7.8-.2 1.7-.1 1.5.2 1.5.5 1.6.8.8 1.2 4.1 3.2 1.6 1.4 2.5 3 1.4 1.1 1.4 1.5 1.5 1.4 1.2 1.4 3.9 4.8 1.4 2 1.6 2 .9 1.4 1 1.3 1.6 2.5 2.1 2.6 2.5-2.2-1.5-1.7-2.6-3.4Zm-34.8-9.3.1.2 1.6.3 1.5.5 1.7.9 1.4 1 1.3 1.4.8 2 .3 1.6v1.3l-.5.4-1.3.4v1.6l-.2 1.1-1 1-.8.1-1.3-.2-1.5-.8-.6.9-.6.5h-.4l-1.2.2-.6 1.5-.3.3-.5-.4-1.1-1.6-1-2.8-.1-2.5v-4.7l.3-1.3 2.7-1.6 1-1 .3-.3Zm36.6 15.2-1.5-1.8-1.5-2.4-1-1.3-1-1.4-1.5-2-1.5-2-2.9-3.6-1-1.3-1.3-1.4-1.4-1.4-1.4-1.5-1.4-1.2-2.6-3-1.6-1.4-4-3-.9-1.4-1.8-.9-1.6-.6-1.8-.3-2 .2-.9.3-1.4.7-1.6 1.7-1.4 1.7-.9 1.7-1.2 3.2-.3 2-.1 1.2.5 1.2 1-.3.5-.1.7.3.5.2 1 1 .2.6-.5.7-1 .8-1.7 1.1-.7.5-.3-.2-.4-1.7.3-2.3-.5-2.6.2-2 .5-2.5 1.1-2.4 1.6-2 1.8-2 2-.7 2-.8h4l-2.7-1.6-2.6-1-3-1-2.8.1h-.4l1.6-1 2.4-.3 3.5.3 4 1 4.9 3 3.6 3.3 3.8 4.3 4.6 7 3.2 4 3.1 4.8 3 4.2 2.6 3.5.9 1-1 .8Zm25.2-18-2-2.5-2-1.4-2-1.3-1.7-1-1-.4-.1-.7-1.5-1.4-1.8-1-1.8-1.6-1.8-1-2-.7-2.4-.4-2 .5-2 .6-1.4 1.5-1 1.3v-4.5l.7-2.2.1-2.8-2.8 2.4-.9 2.2-.6 3.2-.2 3.9 1 5.8 1.8 4.8 2.3 5.3 4 7.1 2.3 4.8 2.8 4.8 2.5 4.5 1.9 3.8 1 2.2 2.4-1.2-1.4-3-1.4-2.5-.8-1.5-.8-1.4-1.1-2.3-1.2-2.2-2-4.1-.7-1.4-.7-1.7-.7-2-.8-1.8-.6-1.8-1.5-3.5-.7-2-1.3-4.9-.7-1.3-.3-1.7v-1.5l.2-1.5.5-1.3.3-.5.7-.6 1.4-.5 1.4-.3h1.3l2.6.6 1.4.7.7.4.2.1-.4 1v1l.1.5.6 1.6.7.9.3.5v2.8l.2 2 .5 1.8.7 1.8 1.6 2 1.2 1 1.5 1 1-.5.2-.4.6.3 1.2.6 1.6-.5.5-1 .2-1.6-.1-.8 1-.5.2-.7v-.2l1 .2 1.2-.6-.5-1.5-1-1.9ZM722 611.8l-1.5-.6-2.8-.6h-1.5l-1.6.2-1.5.5-1 .9-.5.6-.6 1.6-.2 1.8v1.5l.3 1.9.7 1.4 1.4 4.9.7 2 1.5 3.5.6 1.8.8 1.9.7 2 .7 1.7 2.7 5.6 1.1 2.2 1.2 2.3.8 1.4.8 1.5 1.3 2.4 1 2.1-.6.3-.5-1.2-2-3.9-2.4-4.5-2.8-4.8-2.2-4.8-4.1-7.1-2.3-5.2-1.7-4.7-1-5.6.2-3.7.6-3 .7-2 .9-.7v.4l-.7 2.2v3.1l.1 2.7.7 3.2 1-3.7 1-1.3 1-1.2 1.8-.6 1.8-.4 2 .3 2 .8 1.6.8.6.6-.8-.5Zm2.1 5.6-.4-.5-.5-1.3-.1-1.3.1-.4.5-.6-.6-.8.9.8 1.8 1 1.1 1.1.1.4-1.6 1.2-.8.4h-.5Zm12.7 7.7-1.3-.3-.5 1-.1.3-.4.2-1 .1.3 1.7-.2 1.2-.2.6-.8.2-.8-.3-1.4-.9-.6 1-.3.1-.9-.5-1-1-1.5-1.7-.7-1.8-.4-1.7-.2-1.8v-3.1l1-.5 1.9-1.3.8.3 1.7 1 1.9 1.2 1.8 1.3 2 2.2.8 1.7.2.7h-.1Zm6.3-86.4.1-2.1.4-2.4.1-2.3.4-2.2.3-4.3.4-2.4 1.2-5.7v-1.7l.7-1.9.8-1.5 1-1.4 1.3-1.1.7-.3 1.2-.3 1.8.3 1.7.5 1.4.7 2.5 2 1.3 1.4.5.8v.3l-.8.6-.6 1.1-.2.7-.2 2 .2 1.1v.8l-.7 1.2-.9 1.6-.8 2.1-.5 2-.2 2.4.6 2.8.6 1.7 1.1 1.6 1.3.1.6-.3.5.7 1 1.3 1.8.3 1-.8 1.1-1.4.4-1 1.5.1.5-.6.3-.2 1 .7h1.5l.3-1.7v-2.4l-.9-3.5-1.3-2.5-1.4-2.3-1.3-2-.9-.9.3-.8-.9-2.2-1.4-2-1-2.6-1.4-1.8-1.8-2-2.2-1.5-2.5-.6-2.6-.5-2.2.8-2 .8v.1l.8-1.9 1.7-2.9 2-1.8 1.6-2.7-4.1.9-2.2 1.7-2.5 3-2.3 3.7-2.1 6.5-.9 5.7-.5 6.7.5 9.4-.3 6 .4 6.4.1 5.9v4.9l-.2 2.6 3 .1.2-3.8-.1-3.2v-2l-.1-1.8V546l.2-5.3v-1.8Zm22.5-16.8 1.3 2 1.3 2.2 1.3 2.3.8 3.3v2.2l-.1.8h-.4l-1.2-1-1 .7-.3.4h-.7l-1-.4-.6 1.7-.9 1.2-.6.5-1.1-.2-.7-.9-1-1.5-1.2.7h-.4l-.7-1.1-.7-1.6-.5-2.6.2-2.1.5-2 .7-2 .8-1.4 1-1.5v-.3h.2l1.5.2 2.7-.5.8.9Zm-22.9 9.9-.1 2.3-.4 2.3-.2 2.2-.2 7.1v7.6l.1 2 .1 3.2v2.8h-1.1v-1.7l.1-5-.1-5.8-.4-6.5.3-6-.4-9.4.4-6.5.8-5.7 2-6.2 2.3-3.6 2.4-2.8 2-1.5 1.5-.4-.3.6-2 1.8-1.8 3.1-1.3 2.9-1 3.2 3-3 1.8-.8 1.9-.6 2.3.4 2.2.6 2 1.3 1.8 1.9 1.2 1.6 1 2.6 1.5 2 .6 1.8-.1.5-2.6.4-1-.1-.7-.2-.2-.8.2-1.6.6-1.4.4-.4.8-.3-.2-1.3-.7-1-1.3-1.5-2.7-2.1-1.5-.8-2-.5-2-.4-1.5.3-.8.4-1.5 1.3-1.2 1.6-.9 1.7-.8 2v1.8l-1.2 5.7-.4 2.4-.2 4.3-.4 2.2Zm-65.6 13 .5 2.7.7.3-.4 1.7-.3 3-.2 3.2v3.2l1.1 3.7 1.5 2 1.6 1.1 1.3-1.2.7-1.8.8-.2h.9l1.3-1.3.3-.5 1 .4 2.2.1 1.6-.4 1.8-2 .3-2 .1-1.2 1-.4 1.3-1.2.2-2.2-.2-2.1-1-3-1.8-1.6-2-1.1-2.3-.9-2-.4h-1.5l-.3-.6-.4-1.2-1.4-1.4-1-.4-1.1-.3-1.1.3-.4.2v-.2l.1-1.2.6-2.4 1.7-4.2 1.2-2.1 1.7-2.2 2-2.3 1.6-1 1-.5 2.3-.5h2l1.9.4 2 .7.8 1.3 5.1 3.3 1.9 1.4 3 3.3 1.7 1.3 1.7 1.6 1.8 1.5 1.5 1.5 1.2 1.4 3.4 4 1.7 2.3 1.9 2.2 1 1.5 1.2 1.6 1.9 2.8 2.4 2.8 3.1-2.9-1.8-1.9-3-3.8-3.5-4.8-3.6-5.6-3.9-4.4-5.4-8-4.6-4.8-4.5-3.7-6.3-2.9-5.3-.6-4.7.3-3.3.9-5 3.3 3.6.4 3.4-.6 3.7.5 2.8.8-1 .1-3 1.4-2.8 1.6-2.6 3-2.3 2.9-1.7 3.5-1 3.5-.4 2.8.4 3.1-.4 3Zm7.7-1.6.2.4 2 .1 1.9.4 2 .8 1.8 1 1.6 1.4.9 2.5.2 2-.2 1.7-.7.7-1.5.7-.2 1.8-.3 1.6-1.4 1.6-1.1.3h-1.8l-1.7-.7-.7 1-1 1h-.5l-1.4.4-.8 2-.6.6-.7-.5-1.4-1.8-1-3.4v-3.1l.2-3.2.3-2.8.5-1.8 3.5-2.6 1.4-1.4.5-.7Zm-6.3-7.2 1-3.3 1.5-3.3 2.2-2.8 2.5-2.9 2.7-1.4 2.7-1.3 4.3-.6-2.7-1.4-3.3-1-4-.5-3.4.6h-.7l2.5-1.8 3.1-.8 4.5-.3 5 .6 6 2.8 4.4 3.6 4.6 4.6 5.3 8 4 4.5 3.5 5.5 3.5 4.8 3.1 3.9 1.1 1.2-1.6 1.5-1.7-2-1.9-2.8-1.2-1.5-1-1.6-1.9-2.3-1.7-2.3-3.5-4-1.2-1.4-1.5-1.5-1.8-1.5-1.7-1.7-1.7-1.3-3-3.2-2-1.5-4.9-3.2-1-1.5-2.4-.8-2-.4H692l-2.5.5-1.2.5-1.7 1.2-2.1 2.4-1.9 2.3-1.2 2.3-1.8 4.2-.6 2.6-.2 1.6.7 1.3 1.1-.6.8-.2.9.3.6.2 1.1 1 .3.9-.7 1-1.3 1.3-2.4 1.7-1 .8-.4-.2-.4-2.1.5-3-.5-3.1.5-2.6Zm455.1 308-.6-6.7-.5-7.5-1-6.8-.9-11-1.4-7.6-1.7-6.5-3.2-7-3.3-4.2-3.2-3-2.6-1.6-4.7-.4 2 2.6 2.6 2 2.3 3 1.5 2.5-.3-.3-2.5-.8-2.5-.6-2.9 1-2.5.9-2.4 2-2 2.6-1.2 2.1-.8 3.3-1.3 2.3-.7 2.8.4.8-.9 1.3-1.2 2.4-1.3 2.9-1.1 2.8-.6 4.3.4 2.7.6 2 1.6-.3 1-1 .4.2.7.7 1.3-.3.3-.1.5 1 1.4 1.6 1.3.8 2.1-.6 1-1.6.4-1 .8.4 1.3-.2 1-2 .6-2.1.3-3.2-.6-2.8-1-2.2-1.1-2.3-1.2-1.7-1-1.3V806l-.4-2.1-.5-.9-.6-1-.8-.6-.4-.1v-.4l.5-1 1.3-1.9 2.5-2.5 1.6-1 1.8-.8 2.1-.6 1.4.1.8.3 1.6 1.1 1.4 1.5 1.1 1.7 1.1 2 .2 2 2.2 6.4.8 2.7.9 5 .7 2.4.5 2.7.7 2.6.5 2.4 1.2 8.1.3 3.3.5 3.3.2 2.2.2 2.2.3 3.8.7 4.2 3.3-.5-.5-3-.8-5.6Zm-26.2-33.8 1.1 1.6 1.2 2.2.8 2 .6 2.7-.3 2.9-.5 2-.7 1.4h-.6l-1.4-.5-.8 1.8-.7 1.1-1.3.4-.8-.5-1.2-1.2-1-2-1 .6-.7.1-.3-.3-1.3-.7-1.3 1.3h-.4l-.3-1-.3-2.6.5-3.9 1-2.8 1.3-2.7 1.2-2.4.8-1.2 3.2.2 1.5-.3.5-.2v.5l1.2 1.4Zm25 41.8-.5-3.2-.3-3.8-.2-2.2-.2-2.2-.5-3.3-.3-3.4-1-6-.3-2.1-.4-2.5-.7-2.6-.6-2.7-.7-2.3-.9-5-.8-2.8-2.1-6.3-.2-2-1.2-2.4-1.2-1.7-1.5-1.6-1.8-1.3-1-.4-1.8-.1-2.3.6-2 .8-1.7 1.3-2.7 2.5-1.3 2-.7 1.3v1.4l.9.3.6.4.5.8.3.7.4 1.8v1l-.8.4-1.3.3-2-.1h-1l-.2-.6.5-2.3 1.3-2.3.8-3.2 1.2-2 1.8-2.5 2.1-1.8 2.5-1 2.5-.8 2.3.6 2.2.7 3.5 2.8-1.4-3.4-1.9-3-2.4-3.2-2.6-2-.5-.7 2 .2 2.4 1.4 3.1 3 3.1 3.9 3.1 6.8 1.7 6.5 1.5 7.4.7 11 1.1 6.8.5 7.5.6 6.8.8 5.7.3 1.9-1.3.2Zm51.6-52.7-2-3.6-2-3-1.5-1.6.5-1.3-1.2-3.3-2.1-3-1.5-4-2-3-2.9-3-3.4-2.4-3.8-1-4-1-3.4 1-3 1.2-1.4 1.2 2.2-4.2 2.9-4.3 3.2-2.7 2.4-3.4-5.8 1-3.6 2.3-4 4.2-4 5.6-3.6 9.6-1.6 8.6-1 10 .1 14.4-.7 9 .3 9.8v8.9l-.4 7.4-.4 3.8 4.3.3v-.6l1.8.8 1.2-2.6.7-2.1.5-1.3.4-1.2.7-1.8.7-1.9 1.5-3.3.5-1.1.6-1.3.9-1.4.7-1.4.8-1.3 1.3-2.7.9-1.4 2.4-3.3.4-1.1 1-1 1-.6 1-.6 1.3-.3h.6l.9.2 1.3.8 1.2.9.9.9 1.4 2 .6 1.3.2.7h-.1l-.8.1-.6.6-.4.3-.6 1.2-.2 1-.1.4-.9.5-1 .8-1.2 1-.9 1.2-.8 1.5-.3 2.1.1 1.3.4 1.5 1 .4h.5l.2.6.4 1.2 1.4.8 1-.2 1.2-.5.5-.5 1 .5.7-.2h.2l.5.7 1.2.5.8-1 .6-1.7.3-2.7-.4-2-.5-2-.5-1.6-.4-.8.4-.4-.1-1.8-.6-1.7-.1-2-.6-1.7-1-2-1.2-1.6-1.7-1.2-1.9-1.1-1.8-.2-1.6-.1.8-.7 2-1.3 2-.5 2.3-1.4-3.7-.9-2.1.4-2.7 1.1-2.7 1.7-3.3 3.6-2 3.4-2.1 4.2-2 6.2-1.8 3.8-1.3 4.2-1.4 3.8-1.2 3.1v.1l.1-2.8v-10.7l.3-4.4V828l.6-8 .2-2.7.3-3.2.7-3.6.4-3.4.7-3.3.6-6.5.8-3.6 2.3-8.6v-2.6l1.2-2.8 1.4-2.3 1.7-2.1 2.2-1.6 1.1-.5 2-.3 3 .6 2.7.8 2.3 1.3 3.9 3 1.9 2.3.9 1.4v.6l-.4.2-1.1.8-.8 1.5-.5 1-.4 2.8.3 1.9.1 1.2-1.4 1.8-1.4 2.4-1.3 3-1 3-.5 3.7.8 4.1 1 2.6 1.6 2.4 1.7.2 1.1-.6.9 1.4 1.4 1.9 2.8.5 1.6-1 1.6-2 .8-1.8.5.2 1.9.2.7-.8.8-.4 1.5 1.2 2 .2.6-2.4v-3.7l-1.1-5.3-2-3.8Zm-13.8 36.6.5 1.8.3 1.9-.2 2.3-.5 1.4-.3.4-.1-.1-.7-1h-1l-.3.2-.5-.2-.7-.6-1 1-.9.4-.5.1-.8-.4-.3-.8-.4-1.3h-1l-.4-.1-.2-1-.1-1 .2-1.9.7-1.3.8-1 1-1 1-.7 1.2-.6v-.1l1.1.5 2.2.7.4.7.5 1.7Zm-1.2-6.6.6 1.7v1.3l-.1.1-2-.5-.3-.1-.5-.3-.4-.3v-.5l.6-1 .7-.5.4-.1h.8l.1-.8v1Zm-5.9-8.8 1.7 1 1.5 1.1 1.1 1.5 1 1.8.5 1.4v.4l-.2-.6-.7-1.5-1.5-2.1-1-1-1.3-1-1.4-.9-.8-.2 1.1.1Zm-21.4 30 1.3-3.2 1.4-3.9 1.3-4.2 1.7-3.8 2-6.2 2-4 2-3.3 3.1-3.4 2.6-1.6 2.5-1 1.8-.3 1 .2-1.9.6-2.2 1.4-1.8 1.5-1.8 2 3.3-1h.7l-1.3.3-1.4.7-1.1.8-1.2 1.1-.4 1.2-2.4 3.2-.9 1.5-1.3 2.7-.8 1.3-.7 1.3-.9 1.5-.7 1.3-2 4.5-.6 1.9-.8 1.9-.4 1.2-.5 1.3-.7 2-.7 1.6-.6-.3.4-.8Zm28.6-63.9.4-.9.7-1.2.8-.6 1.1-.4-.2-1.7-1-1.6-2-2.3-4.1-3.2-2.4-1.4-3-.9-3.1-.6-2.2.3-1.4.6-2.3 1.7-2 2.4-1.4 2.4-1.3 3v2.7l-2.3 8.5-.8 3.6-.6 6.6-.7 3.3-.4 3.4-.7 3.6-.4 3.2-.1 2.8-.6 8v4.3l-.3 4.4v10.6l-.3 4.5-2.3-.2.3-2.7.3-7.5v-9l-.2-9.7.7-9-.2-14.3 1-10 1.7-8.5 3.5-9.3 3.8-5.4 4-4.1 3.1-2.2 3.4-.6-1 1.3-3.2 2.7-3 4.6-2.2 4.1-1.3 3.9 4-3.6 3-1.1 3-1 3.8 1 3.5 1 3.2 2.2 2.7 2.9 2 2.6 1.4 4 2.2 3 1 3-.4 1-4.2.4-1.9-.2-1.2-.5-.3-1.4.4-2.5Zm15.8 25.3-.4 1.5-.8-.1-1.9-1.5-1.4.8-.6.6-1.2-.1-1.3-.5-1 2.4-1.5 1.8-1.2.7-2-.3-1.1-1.5-1.3-2.1-1.7.8-1-.1-1.2-1.8-1-2.5-.7-4 .4-3.3 1-2.9 1.3-3 1.3-2.2 1.6-2v-.9l.7.3 1.3.1 1 .2 4.3-.5 1.4 1.5 2 3 2 3.5 1.9 3.5 1.1 5.2v3.4Zm-350.3 94.2-1.6-2.6-1.6-2.2-1-1 .3-1-.9-2.4-1.6-2.2-1.1-3-1.7-2-2.1-2.2-2.6-1.8-3-.8-3-.7-2.6.7-2.3.8-.6.5 1.3-2.4 2.2-3.1 2.4-2 2-2.7-4.7.7-2.8 1.8-3 3-3 4-2.7 7-1.2 6.2-.8 7.3.2 10.3-.5 6.6.3 7v6.5l-.3 5.4-.2 2.8 3.5.2.3-4-.1-3.6V933l.2-3.2v-3l.4-5.8.1-2 .3-2.3.5-2.6.2-2.4.6-2.4.4-4.7.6-2.6 1.7-6.3V894l.9-2 1-1.6 1.3-1.5 1.6-1.2.9-.3 1.4-.2 2.2.4 2.1.6 1.7 1 3 2.2 1.4 1.6.7 1v.3h-.2l-1 .7-.5 1-.4.8-.3 2.1.3 1.4v.8l-1 1.3-1 1.7-1 2.2-.8 2.2-.3 2.7.6 3 .8 2 1.2 1.7 1.4.2.8-.4.6 1 1.1 1.3 2.2.4 1.2-.7 1.3-1.5.5-1.2.3.1 1.5.2.6-.6.5-.3 1.2 1h1.6l.5-1.8V913l-.9-3.9-1.5-2.8Zm-10.4-9 .7-1.5.6-.4 1-.3-.2-1.4-.9-1.2-1.6-1.8-3-2.3-1.8-1-2.3-.6-2.5-.5-1.6.2-1 .4-1.9 1.3-1.5 1.7-1 1.8-1.1 2.2v2l-1.7 6-.5 2.7-.5 4.7-.5 2.4-.3 2.5-.5 2.6-.3 2.3-.5 7.8v3.1l-.2 3.3v7.6l-.1 3h-1.5l.2-1.8.2-5.5v-6.4l-.2-7 .5-6.6-.3-10.3.8-7.2 1.2-6.1 2.6-6.7 2.8-4 3-2.9 2.4-1.5 2.2-.3-.5.6-2.4 2-2.3 3.2-1.7 3-1.1 3.3 3.3-2.9 2.2-.7 2.4-.7 2.8.6 2.6.8 2.4 1.6 2.1 2.1 1.5 1.9 1.1 2.9 1.7 2.2.7 2-.2.6-3.1.3-1.4-.2-.9-.3-.2-.9.3-1.8Zm11.8 18.2-.2 1h-.6l-1.4-1.2-1.1.6-.5.4h-.8l-1.1-.5-.8 1.9-1 1.3-.9.4-1.4-.2-.9-1-1-1.7-1.4.6h-.7l-.8-1.3-.7-1.8-.6-2.8.3-2.3.7-2.1 1-2.1 1-1.6 1.2-1.6v-.4l.3.1 1.8.2 3.3-.3 1 1 1.5 2.2 1.5 2.5 1.5 2.6.9 3.7-.1 2.4Zm-39 23.1-.5-4.8-.3-5.3-1-4.8-.6-7.8-1.2-5.3-1.5-4.5-3-4.8-3-2.8-3-1.8-2.4-1-4.5.2 2.1 1.9 2.4 1.2 2.1 2 1 1.3-2.4-.5-2.3-.2-2.6 1-2.4.8-2.3 1.8-1.8 2-1.1 1.5-.9 2.5-1.2 1.7-.7 2.2.3.5-.8 1-1.2 1.8-1.2 2.1-1 2.2-.6 3.1.2 2 .6 1.5 1.5-.3 1-.8.4.1.6.4 1.2-.2.3-.2.5.7 1.2 1 1.3.4 1.9-.6.9-1.2.4-.7.8.2 1.2-.3.9-1.4.6-1.7.3-2.4-.5-2-.9-1.6-1-1.5-1.1-1.2-1-.7v-.5l.2-1.1-.4-1.5-1.1-1.4-.8-.3h-.2l.5-.8 1.1-1.5 2.4-2 1.5-1 1.8-.6 2-.7h1.3l.7.2 1.5.6 1.2.9 1 1 1 1.4.1 1.3 2 4.5.7 1.8.8 3.6.6 1.6.5 1.8.6 1.8.4 1.7 1 5.7.3 2.3.4 2.3.1 1.6.2 1.5.2 2.8.6 3 3.2-.6-.5-2.2-.6-4Zm-24-21.8 1 1 1 1.5.7 1.4.5 1.7-.3 2-.5 1.5-.7 1-.6.2-1.2-.3-.8 1.3-.6 1-1.3.3-.8-.3-1-.7-.9-1.3-1 .4-.7.2-.3-.2-1.1-.4-1.2 1-.4.1-.2-.5-.3-1.8.5-2.8 1-2 1.2-2.1 1.2-1.8.8-1 3-.1 1.4-.3.3-.2v.2l1.3 1Zm22.7 27.4-.4-2-.2-2.7-.2-1.6-.1-1.5-.4-2.4-.3-2.3-.8-4.2-.3-1.6-.4-1.7-.6-1.8-.5-1.9-.6-1.6-.8-3.6-.7-1.9-1.9-4.3-.2-1.4-1.1-1.6-1.1-1.2-1.3-1-1.8-.8-1-.2h-1.4l-2.3.8-1.9.7-1.5 1-2.6 2.2-1.2 1.5-.7 1v1.2l1 .2.4.2.4.5.4.4.3 1.2v.6l-.7.3-1.3.3-2 .2h-.8l-.1-.2.5-1.5 1.2-1.8.8-2.4 1.1-1.5 1.7-1.9 2-1.5 2.3-1 2.5-.8 2 .2 2 .3 3.4 1.8-1.5-2.6-1.7-2-2.1-2.1-2.4-1.2-.2-.2h1.7l2.2.7 2.8 1.8 2.9 2.6 2.8 4.6 1.5 4.3 1.2 5.2.6 7.8 1 4.8.2 5.3.6 4.8.6 4 .2 1.2-1.1.3Zm459.5-16.8-1-6.3-2.8-7-3.5-4.3-3.7-3.2-3-1.7-1.3-.2.6-6V884l-.6-12.6-2.5-14.1-3.5-8.7-3.8-6.7-3.2-3.9-6-2.3 1.9 4.7 3.1 4.5 2.5 6.6 1.7 6.2.1.6-1.1-1.7-3.3-2.4-3.5-2-4.3.7-4 .8-4 2.9-3.4 3.9-2.4 3.5-2.1 5.6-2.6 3.9-1.6 4.6.3 1.9-1.8 2.2-2.5 4-2.6 4.6-2.4 4.9-2 7.5-.3 5.2.3 3.2 2.1.2 1.8-1.6.7.7.7 1.4h2l.6-.2.5 2.5 1.4 3.1 1.6 1.8 3-.2 1.8-2.4 1-1.8 1.2 1h1.9l1.8-3 1.4-3.7 1.3-5.6v-5.3l-.7-4.3-1-4.7-1.2-3.5-1.2-2.9.2-1.8.6-2.6v-4l-.4-1.5-.6-2-1-1.4-.7-.4.2-1.3 1.2-1.7 2.3-3 4.4-3.7 2.6-1.5 3-.7 3.2-.4 2 .8 1 .9 2.2 2.6 1.6 3.4 1.1 3.5 1 4.4-.3 3.7 1.4 12.6.3 5.2-.1 9.7.3 4.6v4.2l-3.1.6-3.6 1.7-3 2.1-2 1.9-1.8 3-2.2 2-1.5 2.6.3.9-1.4 1-2.2 2.2-2.2 2.5-2 2.6-1.7 3.9-.2 2.8.5 1.8h1.9l1.6-.9.7.3.7.7 1.8-.1.5-.2.5 1.1 1.5 1.6 1.5.8 2.7-.2 1.5-1.4 1-1 1 .5h1.7l1.6-1.7 1.2-2 1-3-.1-2.7-.8-2.3-1.1-2.3-1.2-1.7-1.1-1.3v-.7l.5-1.4-.1-2-.5-1-.6-1-1-.6-.4-.2v-.2l1-.9 2-1.6 4-2.1 2.2-1 1-.1.1 3v4.6l-.2 4-.4 11.5-.4 6.2-.3 6.3-.4 4-.3 4.2-.7 7-.2 7.6 4.5.3v-5.1l.6-10.7 1-12.7 1.6-14 .3-13 .4-3.8 1 .2 1 .3 2 1.2 1.5 1.6 1.2 1.6 1 2-.2 2 1.7 6.2.4 2.5.2 5 .4 2.2.2 2.6.4 2.5.1 2.3v7.7l-.2 3.2v3.2l-.3 2-.2 2.1-.4 3.6v4.1l4.3-.1-.1-2.8.1-5.4.6-6.4 1-7.2-.2-6.4 1.2-10.5-.3-7.3Zm-47.3-40.9 1.1 3.5 1 4.5.7 4.3v5l-1.2 5.5-1.4 3.5-1.5 2.5h-1l-1.7-1.5-1.6 2.7-1.5 2-2 .2-1.2-1.3-1.3-2.8-.8-3.6-1.5.5h-1.2l-.5-1-1.5-1.5-2.1 2-.9-.1-.2-2.4.3-5 2-7.2 2.3-4.8 2.6-4.7 2.4-3.9 1.7-2 4.6 1.5h2.3l1-.3-.2 1.3 1.3 3.1Zm17.5 44.1 1.1 1.6 1 2.2.8 2.1.1 2.4-1 2.7-1 1.8-1.3 1.3h-1l-1.5-.6-1.4 1.4-1.2 1.1-2 .3-1.1-.6-1.3-1.3-.8-1.8-1.3.3h-1.2l-.5-.3-1.4-.7-1.8 1h-.8l-.3-.9.2-2.4 1.4-3.6 2-2.5 2.2-2.5 2.1-2 1.5-1.2 4.4.5 2-.1.8-.3-.1.5 1.4 1.6Zm6.5-15.5-2.4 1-4.1 2.2-2.1 1.7-1.2 1-.3 1.5 1.1.4.7.4.6.9.3.6.1 1.7-.3 1-1.1.2-1.9.2-2.8-.4h-1.3l-.2-.6 1.1-2 2.2-2 1.8-3 2-1.8 2.8-2 3.3-1.6 2.9-.6v1l-1.2.2Zm5.5 4-.3 13-1.5 14-1 12.6-.6 10.8-.1 4h-2.5l.3-6.6.6-7.1.3-4.2.4-4 .3-6.3.4-6.3.4-11.4.2-4v-4.7l-.1-3.2.7-.1 3-.4-.5 3.9Zm.5-5-3.1.5-.7.1v-1l3.3-.4.6.1v.8Zm.8-7.8-.4-.2-.5-.7 1 .2-.1.8Zm-3.4-2.3 2.3 2.7 1 .8-.5 5-.6-.2-3.4.5v-4.1l-.4-4.7.2-9.6-.3-5.3-1.4-12.5.3-3.8-1-4.5-1.2-3.7-1.6-3.5-2.2-2.8-1.4-1-2.4-1-3.5.4-3 .7-2.9 1.6-4.5 3.8-2.5 3.2-1.2 1.8-.5 2.2 1 .7.9 1 .5 1.9.3 1.4.1 3.8-.5 2.1-1.3.5h-2l-3-1-1.4-.4-.3-1.7 1.5-4.1 2.5-3.9 2.2-5.6 2.3-3.4 3.3-3.8 3.6-2.6 3.8-.9 4-.6 3.1 1.9 3 2 3.8 5.8-.9-5.4-1.8-6.3-2.5-6.7-3.1-4.5-1-2.5 3.6 1.4 3 3.6 3.7 6.6 3.4 8.4 2.5 14 .7 12.5-.2 14.3-.6 6-3.5-.5Zm5.3 4.9 2.4 3 1.7 2.9-1-.7-3-1-1.6-.4.4-4.6 1 .8Zm12.8 36.2v6.4l-1 7.1-.5 6.5-.1 5.4v1.9h-2.1v-3l.3-3.6.2-2.1.2-2v-3.2l.3-3.2V947.4l-.1-2.4-.4-2.5-.2-2.6-.4-2.3-.2-4.8-.5-2.7-1.6-6.2.2-2-1.2-2.3-1.2-1.7-1.6-1.7-2.3-1.4-1.1-.4-1.2-.2v-.6l1.4.3 2.9 1 3.6 2.6-1.1-3.1-1.9-3-2.5-3.3-1.7-1.2.1-1.3 1 .1 3 1.7 3.5 3 3.3 4 2.7 6.8 1 6.2.3 7.1-1.2 10.5Zm-57.3-711.3.1-1.1.7-4.3.6-2.6.4-2.4.9-3.9.7-3.7 1.7-7 .5-2.3.8-2.8 1.1-3 .8-3 1.1-2.7 1.5-5.7 1.2-3 3.1-7.3.5-2.3 1.4-2.3 1.4-1.8 1.8-1.7 2-1 .8-.4h1.6l2.2.9 2 1 1.6 1.4 2.6 3.1 1.2 2.3.5 1.2v.6h-.4l-1 .6-1 1.3-.4.8-.8 2.4v1.7l-.2 1-1.4 1.5-1.4 1.9-1.6 2.5-1.2 2.5-1 3v3.9l.4 2.4.9 2.3 1.4.4 1-.3.4 1.2.8 1.8 2.2.8 1.5-.7 1.6-1.5.8-1.4.3.2 1.6.4.7-.7.6-.2 1 1.3 1.7.3.8-2 .7-3.2-.1-4.8-1-3.6-1-3.3-1.2-3-.9-1.5.6-1-.4-3-1.2-3-.6-3.7-1.2-2.8-1.7-3-2.3-2.5-3-1.4-3-1.3-2.8.4-2.7.7-.8.5 2-3 3-3.4 3-2 2.5-2.7h-5l-3.2 1.8-3.9 3.2-4 4.4-4.3 8-2.6 7.3-2.4 8.6-2 12.6-2 7.8-1.4 8.6-1.4 7.8-1.5 6.5v.6l3.8-.2Zm39.7-41 1 3.3 1 3.3v4.7l-.5 3-.5 1.2-.6-.2-1.2-1.5-1.3.5-.6.5-.8-.2-1.1-.7-1.2 2-1.5 1.4-1 .5-1.4-.5-.6-1.4-.8-2.1-1.5.5-.7-.2-.6-1.6-.4-2.3v-3.6l.9-2.8 1.2-2.4 1.5-2.5 1.4-1.8 1.6-1.6v-.7l.4.3 1.2.3.6.2 3.6.1.8 1.4 1 2.9Zm-41 34.3 1.4-7.8 1.4-8.6 2-7.8 2-12.6 2.4-8.5 2.6-7.3 4.2-7.7 3.9-4.3 3.8-3.1 2.8-1.5 2.5-.1-.8 1-3 1.9-3.1 3.6-2.4 3.4-1.8 3.5 4-2.9 2.5-.6 2.6-.4 2.7 1.2 2.7 1.2 2.1 2.4 1.7 2.9 1.1 2.5.6 3.7 1.2 2.9.3 2.6-.4.8-3.3-.1-1.4-.4-.9-.5V185l.7-2.1.5-.7.7-1 .7-.4 1-.2V179l-.5-1.5-1.2-2.3-2.8-3.4-1.6-1.4-2.3-1.2-2.4-1-1.9.1-1.1.3-2.2 1.3-2 1.8-1.4 2-1.5 2.4-.5 2.4-3.1 7.1-1.2 3.1-1.5 5.7-1.1 2.8-.9 3-1 3-.9 2.8-.5 2.4-1.7 7-.7 3.7-1 3.8-.3 2.5-.6 2.5-.7 4.4v.3l-1.7.1 1.3-5.9Zm-58.1-32 .9.8 1.8-.3.7-.3.8 1.7 2 2 1.8 1.1 2.9-.8 1.3-2.2.8-1.5 1.3.4 1.8-.3 1.3-2.6.8-3.2.4-4.5-.9-4-1.3-3.1-1.8-3.3-1.7-2.5-1.6-1.8v-1.4l.1-2-.7-3-.6-1.2-.9-1.4-1.2-.9-.7-.2v-.8l.9-1.5 1.8-2.7 3.7-3.7 2.3-1.6 2.8-1.2 3.1-.9 2.1.2 1.3.4 2.4 1.6 2.1 2.1 1.7 2.5 1.6 3 .3 2.8 3.3 9.3 1.1 3.8 1.4 7.3 1 3.4.9 3.8 1 3.8.7 3.5.5 3 1.4 8.7.5 4.7.7 4.8.3 3.1.4 3.2.4 5.5 1 5.9 4.4-.7-.7-4-1.1-8.2-1-9.7-.8-10.9-1.6-9.8-1.3-15.8-2.2-11-2.6-9.3-4.7-10-4.8-6-4.8-4.2-3.8-2.3-6.2-.5 2.7 3.3 3.8 2.8 3.4 4.5 2.7 4.2.1.3-1.4-1-3.6-1.2-3.6-.8-4.2 1.4-3.7 1.4-3.4 3-2.8 3.7-1.8 3-1.2 4.8-1.9 3.4-.9 3.8.6 1.4-1.4 2-1.8 3.4-1.8 4.1-1.6 4.1-.8 6v.1l.5 4 .8 2.6 2.1-.3 1.5-1.6.9.4Zm2.8-29.7 2-3.3 1.1-4.7 1.8-3 2.6-3.6 3.1-2.7 3.7-1.4 3.8-1.3 3.4.7 3.3 1 4.4 3.5-1.7-4-2.7-4.4-3.6-4.5-3.8-2.8-1.2-1.5 3.7.3 3.5 2.1 4.7 4.2 4.6 5.7 4.7 9.9 2.5 9.3 2.2 10.7 1.2 16 1.7 9.7.7 10.8 1 9.8 1.2 8.2.5 3-2.4.4-.8-4.8-.5-5.5-.3-3.2-.3-3-.7-5-.6-4.7-1.4-8.6-.4-3.1-.8-3.6-1-3.8-.8-3.8-1-3.4-1.4-7.3-1.2-4-3.3-9-.2-2.9-1.8-3.3-1.8-2.5-2.1-2.3-2.7-1.7-1.4-.5-2.5-.3-3.4 1-2.8 1.2-2.5 1.8-3.9 3.8-2 2.9-.9 1.7v1.8l1.2.4.9.6.8 1.2.5 1 .7 2.8-.1 1.6-1.3.6-1.3.3h-5.2l-.5-1 .8-3.4Zm-5.6 29.9-1 .1-.5-1.6-.5-3.8.7-5.8 1.7-4 1.7-4.1 1.8-3.4 1.3-1.9 4.8.2 2.2-.4 1-.5v1l1.8 2 1.6 2.4 1.7 3.2 1.3 3 .8 3.8-.3 4.3-.8 2.9-1 2.1-1.1.2-1.9-.7-1.1 2.3-1.1 1.8-2.1.6-1.3-.7-1.8-1.8-1.3-2.6-1.3.7-1.3.2-.6-.5-1.6-.9-1.8 1.9Zm458.2-73.7-3-5.5-2.9-4.7-2.2-2.6 1-1.8-1.5-5-3.1-4.6-2-6.1-3-4.4-4.1-4.8-5.1-4-5.9-2-6.1-1.9-5.4 1-5 1.2-3.1 2 .5-1 3.7-5.6 5.1-6 5.4-3.4 3.8-4.1-8.7.5-5.7 2.9-6.9 5.5-6.8 7.5-6.6 13.4-3.5 12.3-2.7 14.4-1 20.9-2 13-1.3 10.7-1-3.5-5.3-8.9-5.8-6.8-5-3.8-8.7-2.3 2.9 4.7 4.8 4.6 3.8 6.7 2.7 6.3.3 1.2-2.5-2.5-5-2.4-5.2-2-6.6.7-6 .8-6.1 3-5.2 3.9-3.8 3.5-3.3 5.7-4 3.9-2.5 4.7.6 1.9-2.9 2.2-3.8 4-4 4.8-3.8 4.8-3 7.6-.6 5.3.5 3.4 3 .1 2.8-1.7 1.3 1 1 1.2h2.8l1.3-.2.8 2.6 2.3 3.2 2.3 1.7 4.4-.2 2.6-2.4 1.8-2 2 1 2.5.1 2.7-2.9 2.3-3.8 2-5.7v-5.3l-1-4.5-1.7-4.7-1.8-3.6-2-2.9.5-1.7.9-2.7-.1-4-.6-1.7-1-2.1-1.5-1.3-1-.4.3-1.2 1.8-1.7 3.6-3 7-3.8 4-1.6 4.6-.7 5.1-.3 3.3.8 1.8 1 3.2 2.6 2.5 3.4 1.8 3.6 1.5 4.4-.5 3.7 2 12.8.6 5.3-.2 9.7.5 4.7v5.1l.3 5.2v4.7l-.3 4-.6 11.6-.6 6.3-.5 6.4-.6 4-.4 4.3-1 7.2-.5 7.7 6.4.2.1-5.1 1-10.9 1.5-12.8 2.3-14.2.6-13.1 3.2-20.8v-6.6l1-5.8.3-7.2.4-4.2.2-4 .9-6.5.6-6.2 1.7-11.5.5-4 1-4.6 1.3-5 1-5 1.4-4.7 1.7-9.4 1.5-5.1 4.5-12.1.3-3.9 2.3-4 2.4-3 3-3 3.7-2 2-.6 3.2-.2 4.7 1.4 4.3 1.6 3.6 2.2 5.8 5 3 3.7 1.3 2.1V96l-.9.2-1.8 1-1.3 2-.8 1.3-1 4 .4 2.8v1.8l-2.4 2.5-2.5 3.2-2.4 4.3-1.8 4-1.1 5.3.8 6.1 1.3 4 2.1 3.5 2.5.4 2-.7 1.4 2.4 2 2.8 4.2 1 2.4-1.1 2.8-2.7 1.4-2.5 1.1.4 2.7.5 1.3-1 1.4-.6 2.5 2.1 2.8.5 1-3.2.6-5.2v-.1l-1.4-7.9-2.7-5.7Zm-124 63.7 1.7 3.5 1.6 4.6 1 4.3v5l-2 5.5-2 3.6-2.4 2.6h-2l-2.4-1.4-2.3 2.5-2.3 2.1-3.6.2-1.9-1.3-2-3-1.2-3.4-2 .5h-2.2l-.8-1-2-1.4-3.2 1.8-1.8-.1-.3-2.4.5-5 3-7.3 3.7-4.8 4-4.8 3.7-4 2.8-2 2.6.5 4.6 1h3.5l1.8-.4-.3 1.5 2.1 3.1Zm48.9.4-.3 6.5h.2v5.2l-3.2 20.8-.6 13-2.3 14.3-1.6 12.8-.9 11v4.1l-4.4-.2.3-6.6 1-7.1.5-4.3.6-4 .5-6.5.6-6.3.6-11.5.4-4.1v-4.8l-.4-5.2v-5.1l-.5-4.7.2-9.7-.5-5.4-2-12.7.4-3.8-1.6-4.7-1.9-3.7-2.5-3.5-3.5-2.9-2-1-3.5-1-5.3.5-4.7.7-4.3 1.6-7 3.9-3.8 3-2 2-.5 2.3 1.5.7 1.3 1 .8 2 .5 1.4.1 3.7-.7 2.2-2.3.5h-3.1l-4.8-1-2.3-.5-.4-1.6 2.2-4.2 4-3.9 3.3-5.6 3.6-3.5 5-3.8 5.8-2.8 6-.8 6.3-.6 5 1.9 4.7 2.1 5 5-1.2-4.8-2.7-6.3-4-6.9-4.7-4.6-1.6-2.5 6 1.5 4.9 3.7 5.7 6.7 5.2 8.6 1.7 5.8-.1 1 2.7 12.2.3 3.6v.7l.3 5v1.2Zm54.5-84.6.8-1.3 1.2-1.7 1.4-.8 1.7-.4-.2-2.3-1.5-2.4-3-3.8-6-5.1-3.6-2.3-4.5-1.7-5-1.4-3.4.2-2.1.6-4 2.2-3.2 3-2.4 3.3-2.5 4.2-.3 3.9-4.4 12-1.6 5.2-1.7 9.5-1.4 4.6-1 5-1.4 5-1 4.7-.4 4-1.7 11.5-.6 6.3-.9 6.4-.2 4-.4 4.4-.2 4.3-.2-2.6v-.1l-.4-4.4-.4-5-2.2-8.1 1.4-13.2 2-13 1.1-21 2.7-14.2 3.4-12.2 6.5-13 6.7-7.5 6.8-5.4 5.3-2.7 6.1-.4-2 2.2-5.4 3.5-5.2 6-3.9 5.8-2 4.5 5.7-4 5-1.3 5.1-.9 6 1.8 5.5 2 5 3.8 4 4.7 2.9 4.1 2 6.1 3 4.7 1.3 4.5-.7 1.5h-7l-3-.5-2.1-1-.3-2.2.8-3.7Zm23.1 39.1-.8 2.3-1.6-.3-2.7-2.3-2.1.8-1.1 1-2-.5-2-.8-1.7 3.2-2.6 2.5-2 1-3.4-1-1.8-2.4-1.7-3-2.6.8-1.8-.3-1.8-3-1.3-3.8-.8-5.8 1-5 1.8-4 2.4-4.1 2.4-3.1 2.7-2.7V108l1.5.8 2.2.4 1.3.2H1584.5l2.2 2.5 2.8 4.6 2.9 5.4 2.6 5.5 1.4 7.7-.5 5Z"/></svg>