<svg xmlns="http://www.w3.org/2000/svg" viewBox="0 0 1920 1080"><path d="m1646.2 153.8 1.8-2-.7-3.2-3.7-2.8-3.2-2 2.6-3.9 3.2-5.3-1.8-3.4-5.1-2.3-4-1.3-1.6-.3.8-4 2.3-6.1.9-4-3.6-1.3-6-.7-2.3.5 1-3.7.1-4.4-.9-3.4-3.4-1-6.7.7-3 .9-1.2.1.3-2.8-2.1-6.8-1.2-3-3.2-.6-4.6 1.8-2.1 1.4-2.6-3.9-2-3.5-2-1.7-3 1.9-3.8 2.8-2.4 2.2-1.6 2.2-2.5-4-3.2-4-3.2-2.9-5.8 3.9-2 4.5-5-3.4-3.3-1.8-3.3 2.4-2.7 6.8-.8 3.2-3.5-1-5.9-3-4.2-.7-2 5v5.8l.2 1.4-6-2-4.1.2-2.1.2.3 4.5 1 6.2 1.3 3 .2 1.2-4.2-.4-5.5.8-3 1.3-2 4.4 3.5 4.5 1.3 2-6 2-4 2.8 1 3.7 5.3 6 2 1.6-3.3 2.8-4.2 3.6-3 3 2.3 3.4 5.3 3.3 1.7.6-3.3 1.8-2.3 3.2-1.3 3.7 4.2 2.7 6.5 2.7 2 .3-2 3.5-1.6 4-.6 3.6v2.2l6.3 2 3.3-.1v3.8l1 7.2 6.3.4 6-1.3 2-.7-.5 5.2 2 6.4.7 3.5 6.8-2.3 2.9-.8 1.9-.6.7 3.8-1.6 3.8-4.2 13.6-3 7.1-7 13.7-1.2-8-1.6-6-3.1-6.8-5.4-8.3-6.7-6-6.5-3.5 3 7 2.4 7 2.2 7.9 2.4 6 2.4 5 4 4.3 4 3.4 3 .7-2.7 5-4.4 6.6-1.8 3.9 10.2 3.8 3.3-6.2 3.7-3 8.2-2 7-.1 10 4 .7.7-4.4 3.7-4.8 5.3-2.6 4-2.3 5.4-1.3 7.8.6 6.8 4.5-1.8 1-.6 1.3 6.6 2.3 4.2 2.6 1 4.1-3.6 3 3 3.4 2.2 2.7-1.5 2.1-4.5 6.5 1.6 3.3-3.6.2-2.3 5.1 1.8 3.3-1.6-.3-6 .4-1.1 3.6.6 3.2-.2.6-5-1.2-2.7 3-.5 3.6-2-2.1-5.5-1-1 3.9-2.4 2.7-2.2-3-4.3-3-2.3 4.2-4.2 1-3.7-4.7-2.4-6.7-1.5 2.2-2.7.1-3-7-.5-10.1 1.7-9.2 5.3-4.8 4.1-2.1 3.2-5-1.7-7-2-12 .1-5 .6 1.4-4 6.6-14 4.5-9.3 2.3-7.8 2-6 1.6-2.8 3.4-3.5 1.3-1.6 5.6 9.1 3.5 2.1 3.1-2.3 3.5-5 1.2-1.6 3.3 3.1 4.4 3 2.9.1 2.4-4.8 1.5-3.8.4-2.4 6.4 1.7 4.9 2.3 3.2.1 1.3-4.6.4-2.7-.4-3.7 6 .8 4.7-.3 2.2-5-1-4.6-1.6-3.7 7.2-1.8 4.2-.8 3-1.9-1.9-5-1.4-3.5-1.5-1.2 6.3-1.7 5.1-2-1.2-3.6-2.6-4.2-4-3.9-1.5-.8 5-3.5 3.4-3.3Zm-112.6 101.6-3.8-3.3-3.8-4-2.4-5-2.4-6-2.2-7.8-2.3-7-2-4.4 3.8 2 6.5 5.9 5.4 8.1 3 6.6 1.6 6 1.3 9.3v.2l-2.7-.6Zm77.8 4.2 4 2-.8 2.6-4.8 4.9 3.8 2.8 2.3 3.4-1.9 1.6-4.9 3.1 1.7 1.6 1.8 4.6-2.6 1.5-4.2.7 1.5 3.6-.4 3.9-2.3.1-4.3-.7-.7 2 .3 5.6-2.4 1.2-6-2.2-.2 3.3-2.6 2.9-6.7-1.7-2.3 5-2 1-2.7-1.7-3.6-3.7-4.4 4-1.7-.8-2-3.6-1.3-7 4.8-4 3-4.6 2.1-2.6 1.4 2.4 4 3.4 1.8-3.5.3-3.9 2 1 1.2.6 3.7 1.2h.1l-.6-2.5-.8-3.4 3.8 1 1 .3 2.7-.9-2.6-5.6 5.2-.1h.1l1.6-3-1.3-1.7-1.2-1.5 3.2-1.5 2.3-.9-.8-1.5-.5-1.5-1.5-.8-.4-.2 4.2-3.6 1.7-1.3 2-2.9 7 1.6Zm24.6-98.8 2.8 1.4 3.8 3.7 2.5 4 .9 2.7-4.2 1.6-8.2 2.2 3 2.2 1.2 3.2 1.6 4.4-2 1.3-4.2.8-8.3 2 1.9 4.7 1 4.2-1.9 4.1-3.9.3-7.2-1 .5 5-.4 2.5-1 3.7h-2.2l-4.8-2.3-7.6-2-.5 3.3-1.5 3.7-2.1 4.2-2-.2-4.1-2.6-4-3.9-2 2.5-3.2 4.9-2.6 1.8-2.7-1.6-6.2-10.1-2.1 2.7-3.5 3.4-1.7 3.1-2 6-2.3 7.9-4.5 9.1-6.6 14.1-2 5.6 6.5-.8h11.8l6.9 1.9 5.7 2 2.4-3.8 4.7-4 8.9-5 9.8-1.8 6 .4v1.8l-2.6 3-2.2 3-1.5 1.3-3 2.3-1.7 1.9-.3.3-.2.2 1.6.8 1.2.9.4.9.2.5-1.2.6-4.7 1.7 2.3 2.8.8 1.1-1 1.9-2.7-.2-3.6.2 1.2 2.5 1.7 3.6-1.4.5-2.7-.9-3.3-.8h-.2l1.3 5 .2.8-1.9-.6-1.3-.6-3.2-1.7v.2l-.4 4.9-1.2 2.4-2.6-2.2-2-3.2-.3-.6h-.1l-2.8 3.5-7.8 8.7-1.8 1.1-3.2 1.3-.5-5.4 1.3-7.4 2.2-5.3 2.5-4 4.7-5 5.2-4.5-1.6-1.4-10.3-4.3-7.3.1-8.6 2.1-4 3.2-3 5.6-8.4-3 1.3-2.9 4.4-6.6 3.2-6v-.5l7.6-15 3-7.1 4.3-13.6 1.7-4-1-5.3-3 1-2.8.8-5.8 2-.6-2.5-1.8-6.3.6-6.4-3.5 1-5.7 1.3-5.4-.3-.8-6.4v-4.7l-4.2.1-5.5-1.7v-1.4l.6-3.4 1.4-3.8 2.9-4.8-3.4-.4-6.3-2.7-3.5-2.2 1-2.8 2-2.9 5.1-2.8-3.6-1.3-5-3-1.8-2.7 2.4-2.4 4.2-3.5 4.3-3.7-3-2.1-5.1-5.9-.7-2.8 3.1-2.3 7.3-2.4-2-3-3.3-4.1 1.7-3.5 2.4-1.1 5.4-.7 5.3.4-.4-2.4-1.3-3.2-1-6-.2-3.5 5-.3 7.2 2.5-.2-2.9V96l1.6-4 3.2.6 5.8 2.9 4.6 1.4 1-4.2 2.7-6.5 2.5-1.8 2.6 1.4 6 4.1 2.4-5.3 4.9-3.3 2.5 2.3 3.2 4 3.3 5.1 2.3-3.3 2.3-2 3.7-2.9 2.4-1.4 1.2 1 2 3.5 3.2 4.7 2.8-1.9 4.4-1.7 2.3.4 1 2.6 2 6.5-.4 4 2.6-.4 3-1 6.3-.6 2.8.8.7 2.7-.2 4-1.3 5.3 3.7-.7 5.6.6 2.8 1-.7 3-2.3 6.1-1 5 2.4.6 4 1.3 4.7 2.1 1.4 2.6-2.9 4.8-3.2 4.8 4 2.5 3.4 2.5.6 2.3-1.5 1.6-3.2 3.3-6.3 4.4ZM476.6 457l.4.1-1.8 3.4-1.8 4.6-.7 3.4-.2 4.1 1 5.3 1.9 4.7 2.6-2.4.3-.5 2 3.8 2.5 2.4h2l1.6-3.3 2.3 1.2 2.7.7 1.5-1.7.3-3.5 4.2-.4 1.3-3.3-.4-1.4h3.4l1.8-2-1.5-4v-.6l2.1-.5 2.1-1-.7-3.5-1.2-1.4 1.5-1 1.9-2.2-2.6-3.3-.7-.4 1.8-2.4 1.2-2.2-2.8-2.2-2.3-.8 1.6-3.6-.2-2.9-3.6-.4-4.2.6.7-2.1-.6-2.3-4.6 1.4-5.8 3.6-4.5 5.7-2 3.9-.6 2.5h-3.3l-4.6.4-7.4 3-2.6 1.3v-2.7l.8-10.8.8-7.1-.4-5.8v-4.4l.3-2.2 1.3-3 .3-1.2 5.3 4.5 2.7.6 1.5-2.3 1-4.2.4-1.1 2.4 1.1 3.4 1 2-.7.5-3.8v-3l-.2-1.5 4-.3 3.6.4 2-.8-.1-3.5-.4-1.8-1-2.3 3.7-.8 2.9-1.4.2-4-1.7-2.8-1.6-2 3.8-2.7 2.4-1.6 1.5-2-2.3-3-1.6-2-1-.3 3.3-2.5 2.7-2.6-1.6-2.2-2.5-2.2-3.3-1.6-1-.2 2.2-3.3 1.3-3 .7-1.8-1.2-2-3-1-2.2-.5.8-3.1.7-4.3-1.9-2-3.7-.3-2.8.1-.8.2-.4-2.7v-4.6l-.3-2.9h-2.7l-3.7 1-1.2.6-.2-2.4-.8-2.9-1.4-2.2-2.4.2-4 2-1.6 1.4-.5.3-.4-1.7-2.8-4-1.5-2-2.2.5-2.5 2.3-.9 1.3-2.2-1.8-2-1.8-1.8-.8-1.5 2.1-1.7 2.8-1 2-.4 1.6-2.2-1.8-2.9-2-2.7-1.2-2.8 4.1-.2 3.3-3.6-1-2.5-.4-1.6 2.5-.1 5.1.2 2.2-2.2.1-4.3-.5-2.8.6-.1 3.8 1.3 4 .3.6-3.8.1-2.6 1.1-1.4.7 1.3 3 2 3.9 1.4 1.7.3.6-2.4.6-3.3 1.9-1.6 1.6-.3 3.5 3.2 2.2 1.1.9-3.1 2.7-1.8 2.8 1.4 2.3 4.7 2.8 1.4.5-3.1 5.8-1.2 2.8 2.2 1.8 4 1h.9l-1.4 1.7-.8 2.7v3l3.4.7 4.6.3 1-.3-.5 2.6v3l.4 2.6.5 1.6 4.4-.2 2-.8.7 2.3 2.2 4.7 4.1-1.3 3.4-2.3 1-.8.7 3.2 2.6 4 1.3 2.2 3.8-3.2 1.6-1.3.8-.7 1.2 2.2-.1 2.8.4 10-.3 5.4-1.2 10.1-2.2-4.5-2.3-3.6-3.4-3.7-5.1-4.2-5.5-2.4-5.2-1 3.7 4.3 3 4 3 4.7 2.8 3.4 2.6 2.8 3.5 1.9 3.2 1.3 1.7-.2-.5 3.7-1.2 5.5-.3 3 7.5.2.6-5 1.5-2.8 4.6-3.2 4.2-1.8 6.8.4Zm-24.8-.8-3-1.2-3.1-1.8-2.5-2.6-2.8-3.4-3-4.6-3-4.1-1.9-2.2 2.3.4 5.2 2.3 5 4 3.3 3.7 2.2 3.5 2.8 5.8-1.5.2Zm48.3-15.4 2.6.4.1 1.7-1.8 4.5 3 1 2 1.6-.7 1.4-2.4 3.3 1.5.7 2 2.6-1.2 1.4-2.5 1.6 1.8 2 .6 2.6-1.2.6-3 .5v1.7l1.4 3.6-1 1.1H497l.7 2.4-1 2.4-4.4.5-.4 4-.8 1-2-.5-3.1-1.7-1.8 3.7h-1l-2-2-2.2-4.1 2-3.8.8-3.7.6-2 1.2 1.1 3.4 1.4.4-3v-.1l-.6-2.3 2 .2h2.8l-2-3.7 2.2-.2h.7l1.7-1.4-2.8-3 2.7-1.2.4-.1.3-2.5-1.2-.8-1-.7 1.5-1.6 1.3-1.2-.8-1-.7-.9-1.2-.1 1.6-3.3.8-1.2.6-2.3 4.4-.6Zm-35 16.7-4.8 3.4-1.8 3-.6 4.4h-5.4l.2-2 1.2-5.5.6-4.7-.1-.3 1.4-11.7.2-5.4-.4-10 .2-3-1.9-3.6-3.3 2.8-3 2.5-.7-1.3-2.5-3.7-1-4.6-2.2 1.6-3.2 2.3-3.2 1-1.8-3.9-1.1-3.3-2.7 1.2-3.5.1-.2-.8-.4-2.4V411l.7-4-2.3.6-4.4-.3-2.5-.6v-2l.6-2.3 2.7-3.3H417l-3.6-.8-1.5-1.2.8-2 3.7-7-2.4-.7-4.4-2.6-1-1.6 1.4-2.2 4-3.4-2-1.6-2.9-1.9.2-2.6 1.3-1.2 3-1.7 3.5-1-.8-1.7-1.5-1.8-2-3.7-.8-2.1 2.8-1.3 5.2-.1-.9-2-1.2-3.7v-3l2-.3 4.2.5 3.3-.2-.3-3.1.1-4.9 1-1.7 1.9.3 4.7 1.4.3-4.3 2.2-3.2 1.9 1 2.7 1.7 3.4 2.8.7-3 1-1.8 1.6-2.8 1-1.4.9.3 2 1.8 3 2.5 1.5-2 2.2-2.1 1.3-.3 1 1.4 2.7 3.8.7 2.8 1.7-1 1.6-1.2 3.7-2h1.7l1 1.5.7 2.6.4 4 2.4-1.5 3.4-.9h1.7l.3 2v4.6l.4 3.8 1.8-.3 2.6-.1 3.4.3 1.2 1.3-.6 3.7-1 4 3.2.8 2.5.8.8 1.3-.5 1.4-1.2 2.9-3 4.5 2.2.4 3 1.4 2.4 2 1.1 1.5-2 2-4.8 3.6 2.5.8 3.3 4.2-1 1.2-2.3 1.5-4.7 3.4 2.3 2.7 1.5 2.5-.2 3.1-2.2 1-4.8 1.2 1.4 3.2.4 1.7.1 2.7-1.1.4-3.5-.3-5.2.4.4 2.5v2.8l-.4 3.1-1.1.4-3-.8-3.5-1.7-.7 2.3-.9 4-1 1.7-1.9-.4-6.2-5.4-.7 2.5-1.4 3.2-.4 2.5.1 4.4.4 5.7-.8 7.1-1 10.9.1 4.4 4-2.2 7.2-2.8 4.5-.4h4.1l.7-3.2 2-3.6 4.2-5.5 5.6-3.5 3.5-1 .2 1-.8 2.5-.7 2.5-.6 1.2-1.3 2.2-.7 1.6-.2.5v.2l1.3.2.9.2.4.5.1.2-.5.6-2.5 2.4 2 1.4.7.5-.1 1.2-1.6.6-2.4 1 3.2 3.4-.6.5h-1.8l-2.4.3h-.2l2 3.3.2.3h-1l-3.5-.5v.1l1 3.5-.2 1.7-1.8-.8-2-1.6-.5-.5-1 3.2-2.9 7.6-.8 1.2-1.5 1.4-1.3-3.2-.9-5.2.2-4 .7-3.1 1.7-4.5 2.3-4.3-1.5-.6-7.4-.4-4.4 1.8ZM569.7 1013l-2.6-3.2-.7-.4 1.8-2.4 1.2-2.2-2.8-2.2-2.3-.8 1.6-3.6-.2-3-3.6-.4-4.2.6.7-2.1-.6-2.3-4.5 1.5-5.9 3.5-4.5 5.8-2 3.8-.6 2.5h-3.2l-4.7.5-7.4 2.9-2.6 1.4v-2.7l.8-10.8.8-7.2-.3-5.7-.1-4.4.3-2.2 1.4-3.2.3-1 5.2 4.5 2.8.6 1.5-2.4 1-4.2.3-1 2.4 1 3.5 1 2-.6.4-3.9v-3l-.2-1.4 4-.4 3.7.4 2-.8-.2-3.4-.3-1.9-1-2.3 3.6-.8 2.9-1.4.3-4-1.7-2.8-1.7-2 3.8-2.7 2.4-1.5 1.6-2.1-2.4-3-1.6-2-1-.3 3.3-2.5 2.8-2.6-1.7-2.2-2.5-2.2-3.3-1.6-.9-.1 2.2-3.4 1.3-3 .6-1.8-1.2-2-3-1-2.1-.5.7-3 .7-4.4-1.9-2-3.7-.2h-2.8l-.8.2-.3-2.7v-4.6l-.4-2.9h-2.7l-3.6 1-1.2.7-.2-2.4-.9-3-1.4-2.1-2.3.1-4 2-1.7 1.4-.5.3-.4-1.6-2.8-4.1-1.4-1.9-2.3.4-2.4 2.4-1 1.3-2.2-1.9-2-1.8-1.8-.7-1.5 2-1.7 2.8-1 2-.4 1.6-2.2-1.8-2.8-1.9-2.8-1.2-2.7 4-.3 3.4-3.6-1-2.5-.5-1.5 2.5-.2 5.2.2 2.2h-2.1l-4.3-.4-2.8.5-.2 3.9 1.3 3.9.3.7h-3.7l-2.6 1.2-1.4.6 1.2 3 2 3.9 1.4 1.8.3.5-2.4.7-3.3 1.8-1.6 1.7-.3 3.5 3.3 2.2 1 .8-3 2.7-2 2.9 1.5 2.3 4.7 2.7 1.4.5-3.1 5.9-1.2 2.8 2.2 1.7 4 1h.9l-1.4 1.7-.8 2.8v2.9l3.4.7 4.6.3 1-.2-.5 2.6v3l.4 2.5.6 1.6 4.3-.2 2-.8.7 2.4 2.2 4.6 4.1-1.2 3.4-2.4 1-.7.7 3.2 2.6 3.9 1.3 2.3 3.8-3.3 1.6-1.2.9-.7 1.1 2.1-.1 2.9.4 10-.3 5.3-1.2 10.1-2.2-4.4-2.3-3.7-3.4-3.7-5.1-4.2-5.4-2.4-5.3-.9 3.7 4.3 3 4 3 4.7 2.9 3.4 2.5 2.7 3.5 2 3.2 1.3 1.7-.2-.5 3.6-1.2 5.5-.3 3.1 7.5.1.6-5 1.5-2.7 4.6-3.3 4.2-1.7 6.8.3.4.2-1.8 3.4-1.7 4.6-.7 3.3-.2 4.2.8 5.3 2 4.7 2.6-2.5.3-.4 2 3.8 2.5 2.3 2 .1 1.7-3.3 2.3 1.2 2.7.7 1.4-1.8.3-3.4 4.3-.5 1.2-3.3-.3-1.4h3.4l1.7-2-1.5-4v-.6l2.2-.4 2-1-.7-3.5-1.2-1.4 1.6-1 1.8-2.3Zm-55.9-1.8-3-1.2-3.1-1.8-2.5-2.6-2.8-3.3-3-4.7-3-4-1.9-2.2 2.3.4 5.2 2.2 5 4.1 3.3 3.6 2.2 3.5 2.9 5.8-1.6.2Zm26.3 22.2-.8 1.2-1.5 1.4-1.4-3.2-.8-5.2.1-4 .7-3.1 1.7-4.5 2.3-4.3-1.5-.6-7.3-.5-4.4 1.9-4.8 3.4-1.8 3.1-.6 4.4h-5.5l.2-2 1.2-5.5.6-4.7-.1-.3 1.4-11.7.3-5.5-.4-10 .1-3-1.8-3.5-3.4 2.7-3 2.5-.7-1.3-2.5-3.7-1-4.6-2.2 1.7-3.2 2.2-3.1 1-1.9-3.8-1-3.3-2.7 1.1-3.5.1-.3-.7-.4-2.4v-2.8l.8-4-2.4.5-4.4-.3-2.5-.5v-2l.6-2.3 2.7-3.3H479l-3.7-.8-1.5-1.3.9-2 3.6-7-2.4-.7-4.4-2.6-1-1.6 1.4-2.1 4-3.4-2-1.7-2.9-1.9.3-2.6 1.2-1.2 3-1.7 3.5-1-.8-1.7-1.5-1.8-1.9-3.7-.9-2.1 2.8-1.3 5.2-.1-.9-2-1.2-3.7.1-3 1.9-.3 4.2.5 3.3-.2-.3-3.1.1-4.9 1.1-1.6 1.8.3 4.7 1.3.3-4.3 2.2-3.2 1.9 1 2.7 1.7 3.4 2.8.8-3 .9-1.8 1.6-2.7 1-1.5.9.3 2 1.8 3 2.6 1.5-2.1 2.2-2.1 1.3-.3 1 1.4 2.7 3.8.7 2.9 1.7-1 1.6-1.3 3.7-2h1.7l1 1.5.8 2.6.3 4 2.4-1.5 3.4-.9h1.7l.3 2v4.6l.4 3.8 1.8-.3h2.7l3.3.2 1.3 1.3-.7 3.8-1 4 3.2.7 2.5.8.8 1.4-.5 1.3-1.2 2.9-3 4.6 2.2.3 3.1 1.5 2.4 2 1 1.5-2 2-4.8 3.5 2.5.8 3.3 4.2-.9 1.3-2.3 1.5-4.8 3.3 2.3 2.8 1.5 2.5-.2 3-2.2 1.1-4.8 1 1.5 3.3.3 1.8.1 2.6-1.1.5-3.5-.4-5.2.4.4 2.5v2.8l-.4 3.2-1 .3-3.1-.8-3.5-1.6-.7 2.2-.9 4-1 1.7-1.9-.4-6.2-5.3-.7 2.5-1.4 3.1-.3 2.5v4.5l.4 5.7-.8 7-.9 11v4.3l4-2.2 7.2-2.8 4.6-.4h4l.7-3.1 2-3.7 4.2-5.5 5.6-3.4 3.5-1.1.3 1-.9 2.5-.7 2.5-.6 1.2-1.3 2.2-.6 1.7-.2.4v.2l1.2.2.9.3.4.4.2.2-.6.6-2.5 2.4 2.1 1.4.7.5-.2 1.3-1.6.5-2.3 1 3.1 3.4-.6.5h-1.8l-2.4.4h-.2l2 3.2.2.3h-1l-3.5-.5v.1l1 3.6-.2 1.6-1.8-.7-2-1.6-.4-.5h-.1l-1 3.2-2.8 7.6Zm24.6-17.4 1.8 2.1.6 2.5-1.2.6-3 .6v1.6l1.5 3.6-1.1 1.2h-4.2l.6 2.3-1 2.4-4.4.6-.3 3.9-.9 1-2-.5-3-1.7-1.9 3.7h-1l-2-1.9-2.2-4.2 2-3.7.8-3.8.6-2 1.2 1.2 3.5 1.4.3-3.1-.6-2.4 2.1.3h2.7v-.1h.1l-2.1-3.6 2.2-.2h.7l1.7-1.4-2.8-3 2.7-1.2.4-.2.3-2.4-2.1-1.5 1.5-1.6 1.2-1.3-.8-.9-.7-.9-1.2-.1 1.6-3.3.8-1.2.6-2.3 4.4-.6 2.7.3v1.8l-1.8 4.4 3 1 2 1.6-.7 1.4-2.4 3.4 1.5.7 2 2.5-1.1 1.4-2.5 1.6Zm181.9-64 .6-.5 3-2.5 2-3.5-2.2-1.9-4-1.8-2-1.3 1.3-1.9 2.5-4.4-.2-3-2.4-1-3.8-1 1.5-3-.4-5-3.1-.3h-3.5l-3 .5.5-1.5.2-2.4-.1-3.3-.3-2.5-1.8-.3-2.8.5-3 .4-.2-1.6-1-3.4-1.7-1.5-2.3.8-4.4 2-1.4 1.3-.3-.5-.7-2-2.5-3.8-2.1-1.5-2.3 1-2.3 2-1.5 2.1-.6-1.1-2.8-2.9-2.5-1.4-1.8 2.4-2.3 3.8-1.7 2.2-.7-.6-2.4-1.5-3.5-1.7-2.7.6-1.5 4.1-1 3-2.2-.7-3-.7-2.2 1.1-.3 2-.4 3.3.2 4-.7-.4-3.9-.4-3.3.5-2.7 1 1.2 3.8 1.6 3.8-1-.2-6.1 2.2.2 2.4 1.5 2.8 2 4.4-2.5.8-3 1.5-1.7 3.6 1.8 2.6 2.9 2.7-2 1.4-1.4 1.5-1.9 2.8 1.4 1.7 3.4 1.6 3.5 2.5-1 1.1-1.4 2.7-1.6 3.5 1.5 1.6 3.5 1 2.8.3-.3 1.1-1.2 4.1.1 3 2.8.9 7-1.1-.3 1.1-.4 3.4-.8 2-2.3 3.8-3.3 4.8-3 6.5-4.6 9.7-1.4 2.4-1.7-2.7-5-6.3-4.1-2.9-3-1.8.8-2.3.2-4.6-1-7-3.4-6.3-3.4-3.7-1.7 1.6-.5 2.2-3.4-2.7-3.5-1.5-1.6 2.3-.5 4-2.3-.6-3.7.4v2.7l.3 2.9h-.7l-4 1.4.4 2.7 1 1.9-1.8.5-2.6 2.7 1.3 1.8 1.9 1.6-.4.6-3.4 2.6.6 2.6 3 1.8-1 1-.5 3.6 3.5 2.6-1.5 3.1.4 2.3 2.7.8 2.8.2-.3 3.8 1.9 1 3.2-.7 4-2.3v.7l1 3.4 4-2.9 3.6-4.2 2-3.8 1.1-3.2.8-4.9v-3.8l.5.1 6.4 3.3 2.8 3.8 2.4 5.2v3.2l-2 4.6 6.7 3.8 1.4-2.9 1.6-5.2 1.5-3.5 1.4 1.1 3.6.6 4 .2 3.8-1 4.3-1.5 5-2.4 4.7-1.9 5.5-1.7-5-2-6.1-.8-6.9 1-5 1.3-3.8 2-4.3 2.7 4.1-9.4 2.5-4.8 5.5-8.4 1.3-2.5 2.2-1.3 1.2 3 1.7 4.8 2.3-1.2 4.2-1.9 2.5-2.5.5 1.2 1.7 3.7 3 3.3 4.5-2.8 1.8-1.6 1.2 1.6 4 2.6 1.3-1.1 1.7-2 1.5-2.6.8-2.5.8.8 4.4 2.3 3.2 1 1.5-2.4.8-2.7-.4-2.3.7.4 4 1.3 3-.3.4-3.1.2-6.7 1.4.4h5.7l2.4-1.2v-3.2l-1.6-4.2 1.4-.1 4-.2 1.6-3.2-.6-2.1-2-3.4-1.8-2 .5-.2 2.1-.7 3.9-2.4 2.6-1.9-2.5-3.5-3.5-2.2Zm-116.7 69.4-.2 4.5-4.1 2.4-2.8.5-1-.5.3-4.1-3.6-.3-2-.6-.2-1.3 1.7-3.6-3.8-2.8.4-2.5 1.8-1.7-3.8-2.3-.4-1.6 3-2.3 1-1.5-2.4-2-.8-1.1 1.8-1.9 2.7-.8-1.4-2.7-.4-1.9 3.1-1h1.7l-.4-4v-1.7l2.7-.2 3.2.7.6-4.8 1-1.5 2.6 1.1 3.6 3-.6 2.2v1.5l-.2 3.6-1.1-.5-1.1.4-1.2.4.5 1.7.5 2.2-2.7.1-1 2.3.1.1 2 2.7-4 1.1.8 2 2.5 1.9-1.4.7-2.3 1.2v.1l2.5 1.5 2 .9-1.7 1.6-1.4 3 3.7.6 1.8-.4-.4 1.9-1.2 3.7Zm39.8-5 3.7-2 4.8-1.3 6.7-.8 5.8.8 2.3.8-2.9 1-4.7 1.8-5 2.4-4.2 1.4-3.6 1-3.8-.2-3.3-.5-1.3-1 5.5-3.4Zm81.5-58.9-1.8 1.3-3.7 2.3-2.1.7-1.7 1 2.6 2.7 1.9 3 .4 1.8-1.1 2.3-3.5.2-2.7.3 1.9 5v2.6l-1.6.9-5.3-.1-2.5-.6-.2 7.8-.3 2.3-2 .2-3.7-1.2-2.5-1.5.7 4.2-.6 2.3-1 1.7-2.5-.8-4.2-2.1-1.8-1.8-1.3 3.8-1.4 2.5-1.6 1.8-.7.6-3-2-1.8-2.4-2.7 2.2-3.6 2.4-2.4-2.5-1.6-3.6-1.1-2.6-3.3 3.4-4.1 1.9-1.4.7-1.3-3.8-.8-1.8-.8-2.2-3.5 2-1.4 2.6-5.5 8.5-2.5 4.8-4.7 10.8-.3.2-1.8 4.4-1.7 5.2-.8 1.9-5-2.9 1.7-3.9v-3.7l-2.5-5.5-3-4-6.7-3.5-1.8-.3-.1 4.9-.8 4.7-1 3-1.9 3.7-3.4 4-2.8 2-.6-2-.2-1.4 1.3-8 .8-3.3h-.1l-3.2.4-2-.3.7-1.5 2.6-2.5v-.1l-2.4-1-.9-.4-1-.6 3.8-1.9h-.1l-2-1.6-1.3-.8-.3-.2-.3-.7 4.6-1.3-1.6-2.1-1.1-1.3.5-1.2 3.4-.2-1-3.4-.2-.8.8-.2 1 .2 1.2.6v-.3l.4-2.3v-3.8l.7-2.6.5-2.6.8-.7 2.6 2.8 3.2 6 1 6.9-.1 4.2-1 3 3.6 2.2 4 2.8 4.8 6.2 2.5 4 2.3-3.8 4.7-9.8 3-6.4 3.2-4.8 2.3-3.9 1-2.1.3-3.5.7-2.6-8.3 1.3-1.9-.6v-2l1.2-4 .5-2.3-3.9-.3-3.1-1-.9-.9 1.3-2.8 1.4-2.5 1.6-2-4.5-3.1-3.2-1.5-.8-1 1.5-2.1 1.2-1.4 3-2-3.8-3.5-1.4-2.1 1.3-2.7 2.6-1.4 3.5-1.1-2.5-5.5-1.3-2.5-.2-1.5 2.9-1.1 2.2-.7 2.6.6-2.4-5.6-.8-2.8 1.6-.7 3.2-.5 3.5.4 2.2.8-.4-5.4.4-3.2.2-1.4 1.4-.8 2.6.6 3.3 1.1 1.2-4 1.3-3.5 1.8-.5 3 1.5 2.4 1.6 1.5 1.1 2.4-3 2.2-3.9 1.3-1.6 1.5 1 2.7 2.5 1.3 2.6 2.4-3.3 2-1.9 1.7-.8 1.5 1 2.3 3.6.8 2 1 1.7 2-2 4.3-2 1.7-.5 1 .9 1 3 .2 2.5 4-.5 2.7-.5 1 .1.1 1.8.1 3.2-.1 2.1-.9 3 4.4-.6 3.4-.1 2.2.2.3 4-1.9 3.7 4.9 1.4 1.8.7v2l-2.2 4.2-2 2.6 3 2 4 1.7 1.5 1.3-1.4 2.6-3 2.5-1.8 1.3 4.5 2.8 1.6 2.1.3.5ZM616.8 955l-1.5 2.7-1.6 4-.6 2.8-.1 3.5.7 4.5 1.8 4 2.3-2.1.3-.3 1.7 3.1 2.2 2h1.9l1.4-2.7 2 1 2.4.6 1.3-1.5.3-2.9 3.7-.4 1.1-2.8-.3-1.1h3l1.6-1.8-1.4-3.4v-.4l1.9-.3 2-1-.8-3-1-1.1 1.3-.8 1.7-2-2.3-2.7-.5-.3 1.4-2 1.1-2-2.5-1.8-2-.6 1.4-3-.1-2.6-3.3-.3-3.6.4.6-1.7-.6-2-4 1.3-5.2 3-4 4.9-1.8 3.2-.5 2-2.8.1-4.2.3-6.5 2.5-2.2 1.1v-2.1l.7-9.1.7-6-.3-4.9v-3.7l.2-1.8 1.2-2.7.3-.8 4.5 3.8 2.5.5 1.4-2 .8-3.6.3-.9 2.2 1 3 .7 1.8-.5.4-3.3v-2.5l-.1-1.2 3.4-.2 3.2.3 1.9-.7-.2-3-.3-1.6-.8-1.8 3-.7 2.7-1.2.2-3.4-1.5-2.4-1.4-1.6 3.3-2.3 2.1-1.3 1.4-1.8-3.5-4.2-.7-.3 2.7-2 2.5-2.2-1.5-2-2.2-1.8-3-1.3-.6-.2 1.8-2.7 1.2-2.5.6-1.6-1.2-1.8-2.6-.8-1.8-.4.6-2.5.6-3.7-1.7-1.7-3.3-.2h-2.5l-.7.2-.2-2.2v-3.9l-.3-2.5h-2.5l-3.2.8-1 .6-.2-2-.7-2.4-1.3-2-2.1.2-3.6 1.7-1.4 1.2-.4.2-.3-1.3-2.5-3.5-1.3-1.6-2 .4-2.2 2-.8 1-2-1.5-1.7-1.5-1.6-.7-1.4 1.8-1.5 2.4-.8 1.6-.4 1.3-1.8-1.5-2.6-1.6-2.4-1-2.5 3.5-.2 2.7-3.1-.8-2.3-.4-1.4 2.1-.1 4.4.2 1.8h-1.9l-3.8-.4-2.5.5-.2 3.3 1.2 3.3.2.5H562l-2.3 1-1.3.6 1.2 2.7 1.7 3.2 1.3 1.5.2.4-2 .5-3 1.5-1.4 1.5-.3 3 2.9 1.9.9.7-2.7 2.1-1.7 2.5 1.3 2 4.1 2.4 1.2.3-2.7 4.9-1 2.4 2 1.6 3.5.8h.6l-1 1.3-.8 2.4v2.5l3 .6 4.1.3.8-.2-.4 2v2.6l.4 2.2.5 1.4 3.9-.2 1.6-.6.7 1.9 2 4 3.6-1.1 3-2 .8-.6.6 2.6 2.3 3.3 1.2 2 3.4-2.8 2.1-1.6 1 1.8-.1 2.3.3 8.4-.2 4.6-1 8.3-2-3.6-2-3.1-3-3.1-4.5-3.6-4.8-2-4.8-.8 3.4 3.7 2.6 3.4 2.7 4 2.5 2.9 2.3 2.3 3 1.6 2.9 1.1 1.5-.1-.5 3-1 4.6 2.3 63.5 4.7.1v-65.1l1.3-2.3 4-2.7 3.7-1.5 6 .3.3.1Zm-22-1-2.6-1-2.9-1.4-2.2-2.3-2.4-2.8-2.7-3.9-2.6-3.4-1.5-1.7 1.8.3 4.6 2 4.4 3.4 2.9 3 2 3 2.4 4.7-1.3.2Zm42.5-12.7 2.3.2v1.5l-1.6 3.7 2.7 1 1.8 1.2-.6 1.1-2.2 3 1.4.6 1.7 2-1 1.2-2.3 1.3 1.7 1.9.5 2-1 .5-2.7.4v1.5l1.2 3-.8 1h-3.8l.5 2-.8 2-4 .4-.2 3.3-.7.8-1.7-.4-2.8-1.4-1.6 3.1h-.9l-1.7-1.5-2-3.5 1.8-3.1.7-3.2.5-1.5 1 .8 3.2 1.2.3-2.7-.5-1.9 1.7.2h2.6l-1.9-3 1.9-.2h.6l1.6-1.3-2.4-2.5 2.3-1h.3l.3-2.3-1.8-1.2 1.2-1.3 1.2-1-.8-1-.6-.7-1-.1 1.4-2.6.6-1 .6-2 3.8-.5Zm-27 12.3-3.8 1.5-4.3 3-1.7 2.7v64.4l-2.7-.1-2.2-62.5 1-4.5.6-4-.2-.3 1.3-9.8.2-4.6-.3-8.4.1-2.6-1.7-3-3 2.3-2.5 2-.7-1-2.1-3-1-4-2 1.4-2.7 2-2.8.7-1.6-3.1-1-2.9-2.4 1-3 .1-.2-.6-.4-2V916l.7-3.5-2.2.5-3.8-.3-2.2-.4v-1.6l.5-2 2.5-2.8h-2.6l-3.2-.7-1.3-1 .7-1.7 3.3-5.9-2.2-.6-3.9-2.2-.8-1.3 1.2-1.7 3.6-3-2-1.4-2.4-1.6.2-2 1-1.1 2.8-1.4 3.1-1-.8-1.4-1.3-1.5-1.7-3.2-.7-1.7 2.4-1 4.6-.1-.8-1.8-1-3.1v-2.3l1.6-.3 3.8.4 3-.2-.3-2.7v-4l1-1.4 1.5.2 4.3 1.2.3-3.7 1.8-2.6 1.6.7 2.5 1.5 3 2.5.7-2.7.8-1.5 1.4-2.3 1-1.2.6.3 1.7 1.5 2.8 2.1 1.3-1.7 2-1.8 1-.2 1 1.1 2.3 3.2.6 2.5 1.6-.9 1.4-1 3.2-1.7h1.5l.8 1.2.7 2.2.3 3.5 2.2-1.3 3-.8h1.5l.2 1.6v3.9l.3 3.2 1.7-.2 2.3-.1 3 .2 1 1-.6 3.2-.8 3.5 2.8.6 2.2.7.7 1-.4 1.1-1.1 2.5-2.7 4 2 .2 2.8 1.2 2 1.8 1 1-1.9 1.7-4.3 3.1 2.4.8 2.8 3.4-.7 1-2 1.2-4.3 3 2 2.3 1.4 2-.2 2.6-2 .9-4.2.9 1.3 2.8.3 1.4.1 2.2-1 .4-3-.3-4.7.3.4 2.2v2.4l-.4 2.6-.9.2-2.6-.6-3.1-1.4-.6 2-.8 3.3-1 1.4-1.5-.3-5.6-4.6-.6 2.2-1.2 2.6-.3 2.2v3.8l.3 4.7-.7 6-.8 9.2.1 3.8 3.6-1.9 6.3-2.4 4-.3h3.6l.6-2.7 1.7-3 3.8-4.7 4.9-2.9 3-1 .3.8-.8 2.2-.6 2-.5 1-1.2 2-.6 1.3-.2.5v.2l1.2.2.8.2.3.3.1.1-2.7 2.6 2 1.2.5.4-.2 1-1.3.4-2.2 1 2.8 2.8-.5.3-1.5.1-2.4.3 1.9 2.8v.1h-.7l-3.2-.4.8 3.2-.1 1.2-1.5-.6-1.7-1.3-.5-.5h-.1l-1 2.8-2.4 6.4-.7 1-1.3 1-1.1-2.5-.8-4.4.2-3.3.6-2.6 1.5-3.8 2-3.7-1.3-.6-6.5-.3ZM696.9 435l1.3 2 4.1 2.4 1.2.4-2.7 4.8-1.1 2.4 2 1.6 3.6.8h.6l-1.1 1.3-.7 2.4v2.5l3 .7 4.1.2.8-.2-.4 2.1v2.5l.4 2.2.4 1.4 4-.2 1.6-.6.7 1.9 2 4 3.6-1 3-2 .7-.6.7 2.5 2.3 3.4 1.2 2 3.4-2.8 2.1-1.6 1 1.7-.1 2.4.3 8.4-.2 4.5-1 8.3-2-3.6-2-3-3-3.2-4.5-3.5-4.8-2-4.8-.8 3.4 3.7 2.6 3.4 2.7 4 2.5 2.8 2.2 2.3 3.1 1.7 2.9 1.1 1.4-.2-.4 3-1 4.6 2.3 63.6h4.6v-65l1.4-2.3 4-2.7 3.6-1.5 6 .3.3.1-1.5 2.8-1.6 3.9-.6 2.8-.2 3.5.8 4.5 1.8 4 2.3-2 .3-.4 1.7 3.2 2.2 2h1.8l1.5-2.8 2 1 2.4.6 1.3-1.5.3-2.9 3.7-.4 1.1-2.8-.3-1.1h3l1.6-1.7-1.4-3.4v-.5l1.9-.3 2-.9-.8-3-1-1.2 1.3-.8 1.7-2-2.3-2.7-.5-.3 1.4-2 1.1-1.9-2.5-1.9-2-.6 1.4-3-.1-2.5-3.3-.4-3.5.5.5-1.7-.6-2-4 1.2-5.2 3-4 4.9-1.8 3.2-.5 2.1h-2.8l-4.1.4-6.6 2.4-2.2 1.2V496l.8-9 .6-6.1-.3-4.9v-3.6l.3-2 1.1-2.5.3-.8 4.6 3.7 2.4.5 1.4-2 .9-3.6.2-.8 2.2 1 3 .7 1.8-.5.4-3.3v-2.5l-.1-1.2 3.5-.3 3.1.3 1.9-.7-.2-3-.3-1.5-.8-1.9 3-.6 2.7-1.2.2-3.4-1.5-2.5-1.4-1.6 3.3-2.2 2.1-1.3 1.4-1.8-2-2.6-1.5-1.7-.7-.2 2.7-2 2.5-2.3-1.5-1.9-2.2-1.8-3-1.4-.6-.1 1.8-2.7 1.2-2.6.6-1.5-1.1-1.8-2.7-.8-1.8-.4.6-2.6.6-3.6-1.7-1.7-3.3-.3-2.5.1-.6.1-.3-2.2v-3.8l-.3-2.5H762l-3.2.7-1 .6-.2-2-.7-2.4-1.3-1.9-2 .2-3.6 1.7-1.5 1.1-.4.2-.3-1.3-2.5-3.5-1.3-1.5-2 .3-2.2 2-.8 1-2-1.5-1.7-1.5-1.6-.6-1.4 1.8-1.4 2.3-.9 1.7-.3 1.3-2-1.5-2.5-1.6-2.4-1.1-2.5 3.5-.2 2.7-3.1-.8-2.2-.4-1.5 2.2-.1 4.4.2 1.7-1.9.1-3.8-.4-2.5.5-.1 3.3 1.1 3.3.3.5h-3.3l-2.3 1-1.3.6 1.2 2.6 1.7 3.3 1.3 1.5.2.3-2 .5-3 1.6-1.4 1.4-.3 3 2.9 2 .9.6-2.7 2.2-1.7 2.5Zm39.2 61.6-2.6-1-2.8-1.5-2.2-2.2-2.4-2.8-2.7-4-2.6-3.4-1.5-1.6 1.8.3 4.5 1.9 4.5 3.4 2.8 3 2 3 2.4 4.8-1.2.1Zm42.6-12.8 2.3.3v1.4l-1.6 3.8 2.7.9 1.8 1.3-.7 1.1-2.1 2.9 1.3.6 1.8 2-1 1.2-2.3 1.4 1.6 1.8.5 2-1 .5-2.6.5v1.5l1.2 3-.9.9h-3.8l.6 2-.8 2-4 .4-.3 3.4-.7.8-1.6-.4-2.9-1.4-1.6 3.1h-.8l-1.8-1.6-1.9-3.4 1.7-3.2.8-3.1.5-1.6 1 .9 3.1 1.2.3-2.7-.5-2 1.8.3h2.5v-.1h.1l-1.9-3 1.9-.2h.6l1.5-1.2-2.4-2.6 2.3-.9.4-.1.3-2.2-1.9-1.2 1.3-1.3 1.2-1.1-.8-.9-.6-.7-1-.2 1.3-2.6.7-1 .5-2 3.9-.4Zm-75.9-53.4-1.9-1.5-2.4-1.6.2-2 1-1 2.7-1.5 3.2-.9-.8-1.5-1.3-1.5-1.7-3.1-.7-1.7 2.4-1 4.6-.2-.8-1.8-1-3v-2.4l1.6-.3 3.8.4 3-.1-.4-2.8.2-4 .9-1.4 1.5.3 4.3 1.1.2-3.6 1.9-2.7 1.6.8 2.4 1.5 3 2.4.8-2.6.8-1.6 1.4-2.3.9-1.1.7.2 1.7 1.5 2.8 2.2 1.3-1.8 1.9-1.8 1.1-.2 1 1.1 2.3 3.2.6 2.5 1.6-.8 1.4-1.1 3.2-1.7h1.5l.8 1.2.7 2.2.3 3.5 2.1-1.3 3.1-.8h1.4l.3 1.6v3.9l.3 3.2 1.6-.2h2.4l2.9.2 1 1-.5 3.1-.8 3.5 2.8.6 2.2.7.7 1-.4 1.2-1.1 2.4-2.7 4 2 .2 2.7 1.3 2.1 1.7.9 1.1-1.8 1.6-4.3 3.1 2.3.8 2.9 3.4-.7 1-2 1.3-4.3 2.9 2 2.3 1.4 2.1-.2 2.5-2 .9-4.2 1 1.3 2.7.3 1.5v2.1l-.9.4-3-.3-4.7.4.4 2.1v2.4l-.4 2.6-.9.3-2.6-.7-3.1-1.4-.7 2-.8 3.3-.9 1.4-1.6-.3-5.5-4.6-.7 2.2-1.1 2.7-.4 2.1v3.8l.4 4.7-.7 6-.8 9.2v3.8l3.7-1.9 6.3-2.3 4-.3 3.6-.1.6-2.7 1.7-3 3.8-4.7 4.9-2.8 3-1 .2.8-.7 2.1-.6 2.1-.5 1-1.2 1.9-.6 1.4-.2.4v.2l1.2.2.8.2.3.4-2.7 2.6 2 1.2.5.4-.1 1-1.4.4-2.1 1 2.8 2.8-.5.4h-1.6l-2.3.3 1.8 2.9h-.6l-3.2-.4v.1l.8 3.1-.1 1.3-1.6-.6-1.6-1.4-.6-.4-1 2.8-2.4 6.3-.7 1-1.3 1.1-1.1-2.6-.8-4.3.2-3.3.5-2.7 1.5-3.8 2.1-3.6-1.4-.6-6.5-.4-3.9 1.6-4.2 2.9-1.7 2.8v64.3h-2.7l-2.3-62.5 1-4.5.6-4-.1-.3 1.2-9.8.3-4.6-.4-8.4.2-2.6-1.7-3-3 2.3-2.5 2-.7-1-2.2-3.1-1-4-1.9 1.5-2.8 1.9-2.7.8-1.6-3.2-1-2.8-2.4 1h-3l-.3-.5-.3-2v-2.4l.7-3.5-2.2.5-3.9-.2-2.1-.5v-1.6l.5-1.9 2.5-2.9h-2.7l-3.1-.7-1.4-1 .8-1.6 3.3-6-2.2-.6-4-2.2-.7-1.2 1.1-1.8 3.6-3ZM1306 934l-2.6-3-.6-.4 1.7-2.3 1.2-2-2.8-2.1-2.2-.8 1.5-3.4-.1-2.7-3.6-.4-4.1.5.7-2-.7-2.1-4.5 1.3-5.7 3.4-4.5 5.4-2 3.6-.6 2.4h-3.2l-4.7.4-7.3 2.7-2.5 1.4v-2.5l.8-10.2.8-6.8-.4-5.4V905l.3-2.1 1.3-3 .3-1 5.2 4.3 2.7.6 1.5-2.3 1-4 .3-1 2.5 1.2 3.3.8 2-.6.4-3.6.1-2.8-.2-1.4 4-.3 3.5.3 2-.7-.1-3.3-.4-1.8-1-2 3.6-.8 2.9-1.4.3-3.7-1.7-2.7-1.6-1.8 3.7-2.6 2.4-1.4 1.5-2-2.3-2.9-1.6-1.9-1-.3 3.3-2.2 2.7-2.5-1.6-2.1-2.5-2.1-3.3-1.5-.8-.1 2-3.2 1.4-2.8.6-1.7-1.2-2-3-.9-2-.5.6-2.8.8-4.1-2-1.8-3.6-.3h-2.8l-.8.2-.3-2.5v-4.3l-.3-2.8h-2.7l-3.6.9-1.2.6-.2-2.2-.9-2.7-1.3-2.1-2.4.1-4 2-1.6 1.2-.5.3-.4-1.6-2.8-3.8-1.4-1.8-2.2.4-2.4 2.2-1 1.2-2.2-1.7-2-1.7-1.7-.7-1.5 2-1.7 2.6-1 1.8-.4 1.6-2.1-1.8-2.9-1.7-2.7-1.2-2.7 3.8-.3 3.1-3.5-.9-2.5-.4-1.6 2.3-.1 5 .2 2h-2.1l-4.3-.4-2.8.5-.2 3.7 1.4 3.7.2.6h-3.7l-2.5 1.1-1.4.7 1.2 2.8 2 3.7 1.4 1.6.3.5-2.4.6-3.2 1.7-1.6 1.6-.3 3.4 3.2 2 1 .8-3 2.5-1.9 2.7 1.4 2.2 4.7 2.7 1.3.4-3 5.5-1.2 2.6 2.2 1.7 4 1h.8l-1.3 1.5-.8 2.6v2.8l3.3.7 4.6.3 1-.2-.5 2.4v2.8l.4 2.4.6 1.5 4.3-.2 1.9-.7.8 2.2 2.1 4.4 4-1.2 3.4-2.2 1-.7.7 3 2.5 3.7 1.4 2.1 3.7-3 2.5-1.9 1.1 2-.1 2.7.4 9.4-.3 5-1.2 9.6-2.2-4.2-2.3-3.4-3.3-3.5-5.1-4-5.4-2.2-5.2-.9 3.7 4 2.9 3.8 3 4.5 2.8 3.2 2.6 2.5 3.4 1.9 3.2 1.2 1.7-.2-.5 3.4-1.2 5.2-1.3 33h9V940l1.5-2.5 4.5-3.1 4.2-1.7 6.8.4.3.1-1.7 3.2-1.8 4.3-.7 3.2-.2 3.9 1 5 1.9 4.5 2.5-2.4.3-.4 2 3.6 2.5 2.2h2l1.6-3 2.3 1 2.7.7 1.4-1.6.3-3.3 4.2-.4 1.3-3.1-.4-1.3h3.4l1.7-2-1.5-3.7v-.6l2.1-.3 2.1-1-.8-3.4-1.1-1.3 1.5-.9 1.9-2.1Zm-55.3-1.7-3-1.1-3-1.7-2.6-2.5-2.7-3.1-3-4.4-3-3.9-1.7-2 2.2.4 5.1 2.2 5 3.8 3.2 3.4 2.2 3.3 2.8 5.5-1.5.1Zm26 21-.8 1-1.5 1.3-1.3-3-.9-4.8.2-3.8.6-3 1.7-4.2 2.3-4-1.5-.6-7.2-.4-4.4 1.7-4.7 3.2-1.9 3v34h-7l1.3-31.8 1.2-5.2.6-4.4-.2-.3 1.4-11 .3-5.2-.4-9.4.2-2.9-2-3.3-3.2 2.6-3 2.3-.7-1.2-2.4-3.5-1.1-4.3-2.1 1.6-3.1 2-3.2 1-1.8-3.6-1.1-3.1-2.6 1-3.5.2-.3-.7-.4-2.3v-2.6l.8-3.9-2.3.6-4.4-.3-2.4-.5v-1.8l.5-2.2 2.7-3.2h-2.8l-3.6-.7-1.5-1.2.8-1.9 3.7-6.5-2.4-.7-4.4-2.5-1-1.4 1.4-2 4-3.3-2.1-1.6-2.7-1.7.2-2.4 1.2-1.2 3-1.6 3.5-1-.9-1.6-1.4-1.6-2-3.6-.8-2 2.8-1.1 5-.1-.8-2-1.2-3.5v-2.6l2-.4 4.1.5 3.3-.2-.3-3 .1-4.5 1-1.6 1.8.3 4.8 1.2.3-4 2-3 2 .9 2.7 1.7 3.3 2.6.8-2.8.9-1.8 1.6-2.5 1-1.4.8.3 2 1.7 3 2.4 1.5-2 2.1-2 1.4-.2 1 1.3 2.7 3.6.6 2.7 1.7-1 1.6-1.2 3.7-1.8 1.6-.1 1 1.4.8 2.5.3 3.8 2.3-1.4 3.5-.8h1.7l.2 1.8v4.3l.4 3.6 1.8-.2 2.6-.1 3.3.2 1.3 1.2-.7 3.6-1 3.8 3.2.7 2.5.8.8 1.2-.5 1.2-1.2 2.8-3 4.3 2.2.3 3 1.4 2.4 2 1 1.3-2 1.8-4.8 3.4 2.6.8 3.2 3.9-.8 1.1-2.4 1.5-4.7 3.2 2.3 2.6 1.5 2.3-.2 2.9-2.2 1-4.7 1 1.4 3 .3 1.7.2 2.5-1.1.4-3.5-.3-5.1.4.4 2.3-.1 2.7-.3 3-1.1.2-3-.7-3.5-1.6-.6 2.2-1 3.7-1 1.6-1.8-.3-6.2-5-.7 2.3-1.3 3-.4 2.3v4.2l.4 5.4-.7 6.7-1 10.2.1 4.2 4-2 7-2.7 4.6-.4h4l.6-3 2-3.4 4.2-5.2 5.5-3.3 3.5-1 .2.9-.8 2.4-.6 2.4-.7 1-1.3 2.2-.6 1.5-.2.5v.2l1.2.2.9.2.4.4.1.2-.5.5-2.5 2.3 2.1 1.4.7.4-.2 1.1-1.6.5-2.3 1 3 3.2-.5.5h-1.8l-2.4.3h-.1l2 3.2.1.2h-.9l-3.5-.5v.1l1 3.4-.2 1.5-1.8-.7-1.9-1.5-.5-.5h-.1l-1 3-2.8 7.2Zm24.4-16.4 1.8 2 .5 2.3-1.2.5-2.9.5v1.6l1.4 3.4-1 1.1h-4.3l.6 2.3-.9 2.2-4.4.5-.3 3.7-.8 1-2-.5-3-1.6-1.9 3.5h-1l-2-1.8-2.1-3.9 2-3.5.7-3.6.7-1.8 1.1 1 3.5 1.4.3-3-.6-2.2 2 .3h2.8v-.1h.1l-2.1-3.4 2.2-.2h.7l1.6-1.3-2.7-3 2.7-1 .3-.1.4-2.4-2.1-1.4 1.4-1.5 1.3-1.2-.9-.9-.6-.8-1.2-.2 1.6-3 .7-1.1.6-2.2 4.4-.6 2.6.3.1 1.7-1.9 4.2 3 1 2 1.4-.7 1.3-2.3 3.2 1.4.7 2 2.3-1.1 1.4-2.5 1.5Zm-472.5-14-1.4-1.8-.2-.1.7-1 .7-1.3-1.6-1.2-1-.4.8-1.6-.1-1.7-2-.3-1.8.3.2-.8-.4-1.4-2.5.8-3 1.8-2.4 3-1 1.9-.3 1.1h-1.5l-2.3.2-3.9 1.5-1 .5v-.9l.5-5.4.4-3.6-.2-2.9v-2.1l.2-1 .6-1.6v-.2l2.5 2 1.6.4.8-1.4.6-2.1v-.3l1 .5 1.9.4 1.2-.3.2-2.1v-2l1.7-.2 1.9.2 1.3-.5-.2-2-.1-.9-.4-.9 1.5-.3 1.6-.8.2-2.2-1-1.5-.6-.8 1.7-1.2 1.3-.8.9-1.2-2.2-2.7 1.2-1 1.6-1.5-1-1.2-1.3-1.2-1.7-.8h-.2l1-1.4.6-1.6.4-1-.7-1.2-1.6-.5-1-.2.4-1.3.4-2.3-1.1-1.1-2-.2H817l-.2.1-.2-1v-2.4l-.1-1.6h-1.7l-1.8.4-.4.2v-.8l-.5-1.5-.8-1.3-1.3.1-2.2 1-.8.7v-.5l-1.6-2.1-.8-1-1.3.2-1.3 1.2-.4.5-.9-.8-1-.9-1.1-.5-1 1.2-.8 1.5-.5 1-.1.4-.8-.7-1.5-1-1.6-.6-1.5 2.2-.1 1.4-1.6-.4-1.4-.2-1 1.4v3.5h-.7l-2.2-.2-1.7.3v2.2l.6 2h-1.5l-2.4 1 .8 1.8 1 2 .7.8-.9.3-1.7.9-1 1-.1 2 1.7 1 .3.3-1.3 1.2-1 1.6.8 1.3 2.4 1.4.5.2-1.5 2.7-.7 1.6 1.3 1 2.1.5-.4.5-.4 1.5v1.6l2 .5 2.3.1h.2l-.2 1v1.5l.2 1.3.3 1 2.4-.1.8-.3.4.9 1.2 2.5 2.2-.7 1.8-1.2.2-.1.3 1.2 1.3 2 .9 1.4 3-2.6.5.8v1.3l.1 5-.1 2.7-.5 4.2-.8-1.5-1.2-1.9-1.7-1.9-2.6-2-2.8-1.3-3.4-.6 2.4 2.7 1.4 2 1.6 2.3 1.4 1.7 1.3 1.4 1.9 1 1.6.7h.7l-.2 1.4-.7 2.8-.6 17.7h5v-18.5l.8-1.3 2.2-1.5 2-.9 3.3.2-.8 1.4-.9 2.4-.3 1.7-.1 2 .4 2.8 1.2 2.7 1.5-1.4.8 1.6 1.4 1.2h1.3l.7-1.5 1 .5 1.5.4 1-1v-1.6l2.1-.3.8-1.8-.1-.5h1.5l1-1.2-.8-2v-.2l.9-.1 1.3-.6-.4-2-.5-.6.6-.3 1-1.4Zm-28.5-1.2-1.4-.5-1.6-.9-1.2-1.3-1.4-1.6-1.6-2.4-1.4-2-.5-.6h.4l2.6 1.2 2.4 2 1.7 1.8 1 1.7 1.4 2.6h-.4Zm4.1 2.4-1 1.8v17.7h-3l.5-16.5.6-2.8.4-2.4-.1-.1.7-5.8.1-2.8-.2-5 .1-1.5-1.1-2.1-3.2 2.6-1.5-2.2-.6-2.6-3 2.1-1.3.4-.8-1.7-.6-1.9-1.6.7H787l-.3-1.3v-1.3l.5-2.4-1.6.3h-2.1l-1-.3v-.8l.2-1 1.7-2h-2l-1.7-.5-.6-.4.4-.8 2-3.8-1.5-.4-2.2-1.3-.3-.6.5-.9 2.3-1.9-1.3-1-1.3-.9v-1l.6-.6 1.5-.8 2-.5-.6-1.2-.7-.9-1-1.8-.3-.8 1.2-.6h2.9l-1.2-3.2v-1.1l.7-.2 2.2.3 1.9-.1-.2-1.8V864l.5-.6h.7l2.7.8.2-2.3.9-1.4.7.3 1.4 1 2 1.6.5-1.9.4-.9.8-1.3.4-.6.2.1 1 .9 1.8 1.4.8-1.2 1-1 .5-.1 1.8 2.4.4 1.7 1.2-.7.8-.6 1.8-1h.6l.4.7.4 1.2.2 2.4 1.5-1 1.7-.4h.6V866.6l.3 2.1 1.2-.1H820l.5.5-.3 1.8-.6 2.2 1.8.4 1.2.4.3.5-.8 2-1.7 2.6 1.4.2 1.5.7 1.2 1 .4.5-1 .8-2.7 2 1.7.6 1.5 1.9-.3.4-1.2.7-2.6 1.9 1.3 1.5.7 1.2v1.3l-1 .5-2.7.6.8 1.9.2.8v1.1l-.3.1-1.7-.1-3 .2.3 1.5v1.4l-.2 1.4h-.3l-1.5-.3-2-1-.4 1.5-.4 2-.5.6-.7-.1-3.3-3-.5 1.7-.7 1.5-.2 1.4v2.2l.2 2.8-.4 3.6-.4 5.4v2.6l2.4-1.2-1.9 1.3Zm8.9 8.8-.4.6-.5.4-.5-1.2-.4-2.6v-1.9l.4-1.5.8-2.2 1.3-2.4-1-.4-3.3-.2.2-.1 2.2-.2h2.3l.3-1.7 1-1.8 2.1-2.7 2.8-1.7 1.5-.5v.2l-.4 1.2-.3 1.3-1 1.7-.3.8-.3.4v.2l1 .1.3.2h.1l-1.6 1.6 1.5 1v.3l-.7.3-1.5.6 1.7 1.8-2.6.2 1 1.8-2-.3.5 2.1v.4l-.7-.2-.9-.8-.5-.5-.7 2-1.4 3.8Zm13.8-9.5-1.5 1 1 1.1.3 1-.4.2-1.7.3v1.1l.7 1.7-.4.4h-2.3l.3 1.4-.3 1-2.4.3-.1 2-.3.4-.8-.2-1.8-1-1 2h-.2l-1-.9-1-1.9 1-1.8.4-1.9.2-.6.3.3 2.2.9.2-2-.2-.8h2.5l-1-1.8 1.1-.1 1.1-1-1.3-1.4 1-.4.4-.1.2-1.6-1-.6.5-.6.9-.8-.4-.4-.6-.8h-.4l.7-1.3.3-.6.3-1 2-.3h1.2v.7l-1 2.4 1.7.6.9.7-.3.5-1.4 1.9 1 .4.8 1-.4.6Zm681.1-714.5 1-.3 4.2-2.4 1.3-2-1.6-2.3-2.7-2.2.8-.7 2.9-1.8-.3-3-1.3-1.3-2.8-1.6-2-.6v-.3l1.3-1.4 1.8-3.3 1-2.6-3.3-1.4-3.3-.2 1.4-3.7-.2-3.2-2.4-.5-3.6.4h-2l.3-1.9-.2-4.2-1.4-2.1-2.2.3-3 .8-.2-2.6-2.4-3.5-2.5 1.1-2.4 1.6-1.8 1.4-.3-1.2-.9-1.7-1.4-2.3-1.3-1.8-1.5.6-1.8 1.6-2 1.4-.6-.9-2.2-2-2-.4-1.3 1.6-2.3 3.2-.4 1.5-.3-.2-1.4-1-3.3-1.8-2.3-.2-1.2 1.8-.7 2.4-.2 2-.8-.5-3.3-.8h-2.4l-.4 2.5.1 3.7-.3 2.2h-.7l-2.4-.2-3.1.3-1.7 1.6.6 3.7.6 2.4-1.9.4-2.5.8-1 1.8.6 1.6 1.1 2.5 1.7 2.6h-.5l-2.9 1.4-2.2 1.8-1.5 2 2.5 2.2 2.6 2-.7.1-3.4 4.2 1.2 1.7 2.2 1.4 3.2 2.2-1.4 1.6-1.4 2.4.2 3.3 2.4 1.2 3.2.7-.8 1.7-.4 1.7-.1 2.8 1.8.7 3-.3 3.5.3-.2 1.1v2.5l.4 3.2 1.8.6 3-.8 2-1 .2.9.9 3.4 1.3 2.1 2.5-.5 4.4-3.7.2.9 1.2 2.5.2 1.8v3.6l-.3 4.9.6 5.8.8 9v2l-2.2-1-6.2-2.4-4.2-.4h-2.7l-.5-2-1.8-3.3-3.7-4.6-5-3-4.1-1.3-.6 2 .6 1.6-3.5-.4-3.2.4-.1 2.4 1.3 3-1.7.5-2.7 2 1.2 1.9 1.3 1.9-.3.1-2.4 2.9 1.5 1.8 1.4.9-1 1-.7 3.1 1.8.8 1.9.4v.4l-1.3 3.4 1.5 1.7h2.9l-.3 1 1.1 2.9 3.7.4.2 2.7 1.3 1.5 2.2-.5 2-1 1.5 2.7h1.8l2-1.9 1.8-3.2.3.4 2.2 2 1.7-3.8.8-4.6-.2-3.5-.6-2.8-1.5-3.8-1.5-2.7h.3l5.8-.4 3.6 1.5 3.9 2.7 1.3 2.2.5 4.2h6.6l-.3-2.8-1-4.5-.6-5.4-1-8.3-.3-4.5.4-8.3-.2-2.3 1-1.7 2 1.6 3.3 2.7 1.2-2 2.2-3 .7-2.7 3.5 2.4 3.7 1.1 2-4 .6-1.8 1.4.6 4 .2.4-1.4.4-2.1V227l-.4-2 .8.2 4-.3 2.9-.6v-2.5l-.6-2.1-1.2-1.5h.6l3.3-.7 2.2-1.6-1.1-2.4-2.6-4.8Zm-57 78.1-1.7 1.5h-.8l-1.5-3-2.8 1.4-1.6.4-.7-.8-.3-3.3-3.8-.4-.8-2 .6-2h-3.7l-.9-.9 1.2-3v-1.4l-2.6-.5-1-.4.5-2 1.6-1.8-2.2-1.3-1-1.2 1.7-2 1.3-.6-2-2.8-.7-1.2 1.7-1.2 2.7-.9-1.6-3.7v-1.4l2.3-.3 3.7.5.5 1.8.6 1.1 1.4 2.6-1 .1-.6.8-.8.8 1.2 1 1.2 1.3-1.8 1.2.3 2.2 2.6 1-2.4 2.5 1.5 1.2 2.5.2-1.9 3h.1l2.6.1 1.6-.2-.5 1.8.3 2.7 3-1 1-1 .5 1.3.7 3.2 1.7 3.2-1.8 3.4Zm58.2-70.3-3 .7h-2.7l2.4 2.8.5 2v1.5l-2 .4-3.8.3-2.1-.5.6 3.3v2.4l-.3 2-.2.6-3-.1-2.3-1-1 2.8-1.5 3.1-2.7-.8-2.7-1.8-1.9-1.4-1 3.9-2 3-.7 1-5.4-4.3-1.7 3 .2 2.5-.3 8.3.2 4.5 1 8.4.6 5.5 1 4.4.2 1.6h-4.5l-.5-3.3-1.5-2.7-4.2-2.9-3.9-1.6-6.1.3-1.6.6 2 3.6 1.5 3.7.6 2.6.1 3.3-.7 4.3-1.1 2.5-1.1-1-.8-1-2.4-6.2-.9-2.8-2.2 1.8-1.5.6-.1-1.3.8-3v-.1l-2.2.3-.9.1h-.7l1.8-2.9-2.3-.3h-1.5l-.4-.4 2.7-2.8-2.2-1-1.3-.3-.1-1 2.4-1.6-2.2-2-.4-.5.4-.4.7-.2 1.2-.2v-.2l-.8-1.9-1.1-1.7-.5-1-.6-2.1-.7-2 .2-.8 3 1 4.7 2.7 3.6 4.5 1.7 3.1.6 2.6h3.5l4 .4 6 2.3 3.6 1.9V264l-.8-9-.6-5.8.3-4.8v-3.8l-.2-1.9-1.2-2.6-.7-2.3-5.4 4.5-1.5.3-.9-1.3-.8-3.3-.6-2-3 1.4-2.6.7-.9-.3-.3-2.5V229l.3-2-4.6-.4-2.9.2-.9-.3.1-2 .3-1.5 1.3-2.8-4.2-1-1.8-.8-.2-2.4 1.2-2 2-2.4-4-2.9-2-1.2-.8-1 2.8-3.3 2.3-.8-4.2-3-1.7-1.6.8-1.1 2-1.7 2.6-1.2 2-.3-2.5-3.8-1.1-2.5-.4-1 .6-1.1 2-.7 3-.6-1-3.4-.5-3 1-1.1 2.9-.2h2.3l1.6.3.4-3.3v-3.7l.2-1.6h1.4l3 .8 2 1.3.3-3.5.7-2.2.8-1.2h1.4l3.1 1.7 1.5 1.1 1.5.8.6-2.4 2.2-3.2 1-1 1 .1 1.9 1.8 1.2 1.7 2.8-2.1 1.6-1.5.7-.2.8 1 1.4 2.3.8 1.6.7 2.6 3-2.4 2.3-1.5 1.6-.7 1.8 2.6.3 3.5 4-1 1.6-.3.9 1.3.1 4-.3 2.7 3 .1 3.6-.4 1.5.3.1 2.3-1 3-.8 1.8 4.5.1 2 .9.3.2-.7 1.6-1.7 3.1-1.2 1.4-.8 1.6 3.1.8 2.6 1.4 1 1 .2 2-2.4 1.6-1.8 1.5 3.5 2.9 1.1 1.7-.8 1.2-3.7 2.2-2.2.6 3.2 5.8.7 1.6-1.2 1Zm-298.8 14.7 3.4 1.7-1.5 1-2 2-1 1.5-1 2-.8 3v3l2.2-.7.2 2 .8 1.9 1.2.6 1.6-1.3.8 1 1.3 1 1.4-.5.8-1.6 2.3.8 1.5-1.5v-.6l1.7.7 1.6-.7v-2.4l1.2.2h1.5l.4-2.2-.3-.8h.8l1.7-.8-.7-2.4-.1-.2 1.2-.7 1.2-1-1-1.9-.9-.7 1.4-1.3.7-1.7-2-1.2-2-.6.6-.6.2-1.6-2.9-.4-3.8.4-3.7 1.9-2 1.4-.7 1-1.6-.6-2.5-1-4.6-.2h-1.3l.4-1 2.8-5 2-3.4 1-3 1-2 .6-1 1.4-1.3.2-.2 1.6 3.2 1.5 1 1.4-.9 1.5-1.9.2-.3 1 1 1.6 1.3 1.3.2 1.2-2 .7-1.4.1-.6 2 .7 1.7 1 1.5.1.7-2 .3-1v-1l1.8.3h2l1-2-.3-2-.3-1 2.3-.5 1.6-.2 1.5-.8-1-3.6-.2-.2 1.8-.3 2.3-.8-.5-1.6-.8-1.8-1.4-1.6h-.2l1.6-1 1.3-1.3.8-.8-.2-1.5-1.4-1.2-.9-.6 1-1.2 1.4-2-.7-1.6-2-1-1.5-.7h-.2l.3-1.2 1-2.3.6-1.7-1.6-.7-2.3-.4h-.4l.3-.9.2-1.7-.3-1.6-1.4-.5-2.6.1-1.1.3v-.7l-.5-2.7-.4-1.4-1.5-.3-1.8.6-.6.3-.7-1.2-.3-.6 1.3-2-1.5-2.3-2.7-2.3.8-.6 2.9-1.9-.3-3-1.3-1.3-2.9-1.5-2-.6.2-.3 1.2-1.4 1.7-3.3 1.1-2.6-3.3-1.5h-3.3l1.4-3.8-.2-3.3-2.5-.5-3.6.5-1.8-.1.1-1.8-.1-4.3-1.4-2-2.2.3-3 .8-.2-2.7-2.4-3.4-2.5 1-2.5 1.6-1.7 1.5-.3-1.2-1-1.8-1.4-2.3-1.3-1.7-1.4.5-1.9 1.6-1.9 1.5-.6-1-2.2-2-2-.3-1.3 1.6-2.3 3.2-.4 1.4-.3-.1-1.4-1.1-3.4-1.7-2.2-.2-1.2 1.8-.8 2.4-.1 2-.9-.5-3.3-.9h-2.4l-.3 2.6v3.7l-.2 2.2-.7-.1-2.4-.1-3.2.3-1.7 1.6.7 3.6.6 2.5-1.9.4-2.5.8-1 1.8.5 1.5 1.2 2.6 1.7 2.5-.5.1-2.9 1.3-2.2 1.9-1.5 2 2.5 2.2 2.6 1.9-.7.2-3.5 4.2 1.2 1.7 2.2 1.4 3.3 2.2-1.4 1.6-1.5 2.3.3 3.4 2.4 1.1 3.1.7-.7 1.7-.4 1.7-.2 3 1.9.6 3-.3 3.4.2-.2 1.2.1 2.5.4 3.2 1.7.5 3-.7 2-1 .3.8.8 3.4 1.4 2.2 2.4-.5 4.5-3.7.2.8 1.1 2.6.3 1.7v3.7l-.4 4.8.7 5.9.8 8.9v2.1l-2.2-1.1-6.2-2.4-4.2-.3h-2.8l-.4-2-1.8-3.3-3.7-4.7-5-3-4.1-1.2-.6 2 .5 1.6-3.4-.5-3.2.4-.2 2.5 1.3 3-1.7.5-2.6 2 1.1 1.9 1.4 1.8-.3.2-2.5 2.9 1.6 1.8 1.4.9-1 1-.7 3 1.7.9 2 .4v.4l-1.4 3.3 1.6 1.7h2.9l-.3 1.1 1.1 2.8 3.6.4.3 2.8 1.3 1.5 2.2-.5 2-1 1.4 2.7h1.8l2-1.9 1.9-3.2.2.4 2.3 2 1.7-3.9.8-4.5-.2-3.6-.6-2.7-1.5-3.9-1.5-2.6h.2l5.9-.4 3.6 1.4 3.8 2.7 1.4 2.3.5 4.1h6.5l-.2-2.8-1-4.4-.6-5.5-1-8.3-.3-4.4.3-8.4-.1-2.2 1-1.7 2 1.5 2.8 2.4-.2.8v1l2.4 1h1v4.2l2.7.4 2.3-.4.3-.1-.2 1.5.5 2.5.2 1.7 4.4-1.2.1 1-.7 1.4-2 5-1.2 2.6-2.9 4.7-1.7 3-1.8 2.5-1 1.7 4.2 1.9 1.5-2.4 1.4-1 3-.5h2.5Zm19.2-.8 1.2.6-.3.7-2 1.9 1.4 1.3.7 1.1-.6.4-2.2 1.2.8.9.4 1.4-.7.4-1.9.2.6 1.7-.3 1.1h-.5l-1.8-.4-.4 1-.1 2-.6.2-2.4-1-.2 1.5-.9.8-2.5-.8-1 2-.5.2-.8-.6-1.4-1.7-1.8 1.5-.3-.2-.6-1.3-.3-2.4 1.8-1.3 1.3-1.7.5-.5.2.5 1.8 1.7 1-1.6.2-1.1.7.4 1.8.8h.1l-.3-2.3 1.3.5 1.4-.4-.7-2h1.6l1-1.4-.8-1.1.8-.4 1.2-.3-.2-.5-.3-1-.4-.3 1.3-1 .6-.5.8-.9 2.3.7Zm-18.3 0 2.5.8 2.3 1 1-1.5 1.8-1.3 3.4-1.7 3.6-.4 1.8.2v.2l-1 1-.8 1.1-1.8 1.3-.7.6-.4.3v.2l.8.5.4.3v.2l-2.3.7 1.1 1.8-.2.3-.8-.1h-1.8l1 2.4h-.2l-2.6-.9.3 2.3-2-1.3h-.1l-.3 2.3-.3.5-.6-.6-.6-1.2-.3-.6-1.5 1.5-3 3-.7.4-.8.3v-1.6l.7-2.7.9-1.8 1-1.4 1.8-1.8 2.4-1.7-.8-.9-3.5-1.8h.3ZM1167 245l-1.7 1.5h-.8l-1.5-3-2.8 1.4-1.6.4-.7-.8-.3-3.3-3.8-.4-.8-2 .6-2h-3.7l-.9-.9 1.2-3v-1.4l-2.6-.4-1-.5.5-2 1.6-1.8-2.2-1.3-1-1.2 1.7-2 1.3-.6-2-2.8-.7-1.1 1.7-1.3 2.7-.9-1.6-3.7v-1.4l2.3-.3 3.7.5.5 1.8.6 1.1 1.4 2.6-1 .1-.6.8-.8.8 1.2 1 1.2 1.3-1.8 1.2.3 2.2 2.6 1-2.4 2.5 1.5 1.3 2.5.1-1.9 3h.1l2.6.1 1.6-.2-.5 1.8.3 2.8 3-1.2 1-.9.5 1.3.7 3.2 1.7 3.2-1.8 3.4Zm23.4-50.4-1.6 3 .1 2.5-.3 8.3.2 4.5 1.1 8.3.6 5.6 1 4.4.1 1.6h-4.5l-.5-3.3-1.5-2.7-4.1-3-4-1.5-6.1.3-1.5.6 2 3.6 1.4 3.7.6 2.6.1 3.3-.7 4.3-1 2.5-1.2-1-.8-1-2.4-6.3-.9-2.8v.1l-2.2 1.7-1.5.6-.1-1.2.8-3v-.1l-2.2.3-.9.1h-.7l1.9-3-2.4-.2h-1.5l-.4-.4 2.7-2.8-2.2-1-1.3-.3v-1l2.4-1.6-2.3-2-.4-.5.4-.4.7-.2 1.3-.2-.1-.2-.8-1.9-1.1-1.8-.5-1-.6-2-.7-2 .2-.8 3 .9 4.7 2.8 3.6 4.5 1.7 3 .6 2.7h3.5l4 .4 6 2.3 3.6 1.9v-3.9l-.7-9-.7-5.7.3-4.8v-3.8l-.2-1.9-1.2-2.6-.7-2.3-5.4 4.5-1.5.3-.9-1.3-.8-3.3-.6-2-3 1.4-2.6.7-.8-.3-.3-2.5-.1-2.4.4-2-4.7-.4-2.9.2-.9-.3.1-2 .3-1.5 1.3-2.8-4.2-1-1.8-.8-.2-2.5 1.2-2 2-2.3-4-2.9-2-1.2-.8-1 2.8-3.4 2.3-.7-4.2-3-1.7-1.6.8-1.1 2-1.7 2.7-1.2 2-.3-2.6-3.8-1.1-2.5-.4-1 .6-1.1 2.1-.7 2.8-.6-.8-3.4-.5-3.1 1-1 2.8-.2h2.3l1.6.3.4-3.3v-3.7l.2-1.6h1.4l3 .7 2 1.3.3-3.4.7-2.2.8-1.2h1.4l3.1 1.7 1.5 1 1.5.9.6-2.4 2.2-3.2 1-1 1 .1 1.9 1.7 1.2 1.8 2.8-2.1 1.7-1.5.6-.2.8 1 1.4 2.3.8 1.6.7 2.6 3-2.4 2.3-1.5 1.6-.7 1.8 2.5.3 3.6 4.1-1 1.5-.3.9 1.3.1 4-.2 2.7 3 .1 3.5-.4 1.5.3.1 2.3-1 3-.8 1.8 4.5.1 2 .9.3.2-.7 1.6-1.6 3.1-1.2 1.4-.9 1.6 3.1.8 2.6 1.4 1 1 .2 2-2.4 1.6-1.8 1.5 3.5 2.8 1.1 1.8-.6 1-.8-.8-1.4.8-1.5 1-.9.8-.4.5-.6-1.2-1.1-1.6-1.3-1.4-2.5 1.5-.8 1.4-1.5-1.2-1.3-.8-1.5 1-1.2 2.6-.3.9-1-.4-2-1.2-1.9-.5-1 2-.2 2.4-1.7-.6h-2.7v2l.2 2.3.3 1.2-1.1-.1-2.1.1-1.4.5-1 1.9 1.3 2 .2.3-2 .6-1.7 1 .3 1.7 1.8 2.5.5.4-2.7 2-1.4 1.3 1 1.5 1.9 1.5-.7.3-1 1.3-.8 1.6 1.8 1.3 2.3 1.2h.3l-.6 1-.6 1-5.4-4.3Zm37.4-30.7-2.4 1.3h.2l1.4-1 .7-.4.1.1Zm-4.6 15.1 1.4.5 2.5 1.3 1.3 1.1 2 3.6.1 3.3-.3 2.7-1 2.6-1.9 1.9-2.4 1.8-2.4.9-2.6.4-3.2-1.2-3.1-2.4-1.5-2.9-.5-1.6 3.7.2.5-1.4.4-2.2v-2.5l-.5-2 .8.2 4-.2 3-.6V180l-.3-1Zm-.8 2.7-2 .4-3.8.3-2.1-.6.6 3.4v2.3l-.3 2-.2.7-3-.1-.3-.2-.1-.3.8-2.8 1-4.2 2.7-2.6 2.9-1.7 2.9.2.5.1.4 1.5v1.6Zm-1.1-4.2-3-.2-3 1.8-3.2 3-1.1 4.4-.8 3-.9-.4-1 2.7-1.5 3.2-2.7-.8-2.6-1.8-2-1.5-1 4-.8 1.2-.6-.1-2.2-1.2-1-.7.3-.8.8-1 2.5-1.1-1.9-.9-1.6-1.2-.5-.7.8-.7 3.6-2.8-1.3-1-1.7-2.3v-.8l1-.6 3-.9-.8-1.5-1-1.5.6-1 .8-.3 1.9-.1 2.3.3-.1-1.3-.4-1.2-.2-2.3v-1h1.5l3 1.3V169l.1-2 .6-1.2.9.2 2 1.2 2 .8.6-1.9 1.1-2.3.8-.4.7.4 2.4 2 1.2-2.3 1.6-.9.7.7 1 1.5.7 1.3-.3.1 3.2 5.8.7 1.6-1.3 1-3 .7h-2.7l1.8 2Zm-16.7 53.4-1.7 1.1-1.2 2-2.5-1.2.4-.7 1.8-2.4 1.8-3.1 2.9-4.7 1.3-2.7 2-5 .8-1.5-.3-2.5-4.4 1.1-.6-2.9.5-2.8-1.8.4-2 .4-1.8-.3V202h-1.7l-1.7-.7.3-1.5.6-1.2 2.2-3.2.7-2.7 3.5 2.5 3.7 1 2-3.9.6-1.8.5.2.6 2.4 1.7 3 3.4 2.7 3.6 1.4 3-.5 2.5-1 2.7-1.9 2.2-2 1-3 .4-2.8-.1-3.7-2.3-3.9-1.5-1.3-2.7-1.4-2.1-.8-1.2-1.4h.6l3.3-.8 2.1-1.6-1-2.4-2.6-4.7 1-.3 3.2-1.9.3.6 1.2 2.1 1.3-.7 1.6-.6.5.2.3.8.5 2.4-.3 1.8h1.4l1.1-.3 2.3-.1.7.2.2.9-.2 1.4-.8 2.4 1.9-.3 2 .4.6.3-.2.8-1 2.3-.7 2.2 1.2.3 1.4.6 1.6.8.3.8-1 1.6-1.6 2 1.7 1.1 1 1 .1.6-1.7 1.6-2.8 1.8 1.3.8 1.3 1.4.7 1.5.2.7-1.3.5-3.7.7 1.4 1.3.8 2.5-.5.3-1.6.2-3.4.7.6 2 .3 1.6-.7 1.2h-1.2l-3-.6v2.2l-.2 1-.4 1h-.5l-1.7-1-3-1-.4 1.6-.7 1.3-.8 1.3h-.4l-1.3-1-1.6-1.8-1 1.1-1.4 1.7-.8.5-.7-.5-2.2-4.3-1.1 1.3-1.4 1.3-.8 1.2-1 2.2-1 2.9-2 3.3-2.8 5.2-1 2.5 2.8-.2h.5l-2.9.6Zm586 551-9.2 1.3-4.9 1.3-7.9 3.8-7.8 5.8-5.1 7.3-3.1 6.7-.4-.1-1.7-13.2-.3-4.4.4-8.3-.2-2.3 1-1.7 2 1.5 3.3 2.8 1.2-2 2.2-3 .7-2.8 3.5 2.5 3.7 1 2-3.9.6-1.8 1.4.6 4 .2.5-1.4.3-2.2v-2.5l-.4-2 .8.3 4-.3 2.9-.6V762l-.6-2.1-1.1-1.5h.5l3.3-.7 2.2-1.7-1-2.4-2.7-4.7 1-.3 4.2-2.4 1.2-2-1.5-2.3-2.7-2.2.8-.7 2.9-1.8-.3-3-1.3-1.3-2.8-1.6-2.1-.6.2-.3 1.2-1.4 1.7-3.3 1.1-2.6-3.3-1.4-3.3-.2 1.3-3.7-.1-3.2-2.5-.5-3.6.4h-1.8l.1-1.9-.1-4.2-1.4-2.1-2.2.3-3 .8-.2-2.6-2.4-3.5-2.5 1.1-2.5 1.6-1.7 1.4-.3-1.2-1-1.7-1.4-2.3-1.3-1.8-1.4.6-1.9 1.6-1.9 1.4-.6-.9-2.2-2-2-.4-1.3 1.6-2.3 3.2-.4 1.5-.3-.2-1.4-1-3.4-1.8-2.2-.2-1.2 1.8-.8 2.4-.2 2-.8-.5-3.3-.8h-2.4l-.3 2.5v3.7l-.2 2.2h-.7l-2.4-.2-3.2.3-1.7 1.6.7 3.7.6 2.4-1.9.4-2.5.8-1 1.8.5 1.5 1.2 2.6 1.7 2.6h-.5l-2.9 1.3-2.2 1.9-1.5 2 2.4 2.2 2.7 2-.7.1-3.5 4.2 1.2 1.7 2.2 1.4 3.2 2.2-1.3 1.6-1.5 2.3.3 3.4 2.4 1.1 3.1.7-.8 1.7-.3 1.8-.2 2.8 1.8.7 3-.3 3.5.3-.2 1.1.1 2.5.4 3.2 1.7.5 3-.7 2-1 .3.9.8 3.3 1.4 2.2 2.4-.5 4.5-3.7.2.8 1.1 2.6.3 1.7v3.7l-.4 4.8.1 2.9-3-4.5-1-.9-.6-1-.2.2-4.2-4-2.8.1-3.3-.5-4.3-2.7-2-.5 1.7 4.3 1.7 2.7 2.1 3 2.6 2.5 3 2 3.3 1.6 3.9.8 3.8.4.7 8.4v2.2l-2.2-1.2-6.2-2.3-4.2-.4h-2.7l-.5-2-1.8-3.3-3.7-4.6-5-3-4.1-1.3-.6 2 .6 1.6-3.5-.4-3.2.4-.1 2.4 1.3 3-1.7.5-2.7 2 1.1 1.9 1.4 1.8-.3.2-2.5 2.9 1.6 1.8 1.4.9-1 1-.7 3.1 1.8.8 1.9.4v.4l-1.3 3.3 1.5 1.8h2.9l-.3 1 1.1 2.8 3.6.4.3 2.8 1.3 1.5 2.2-.5 2-1 1.5 2.7h1.7l2-1.9 1.9-3.2.3.4 2.2 2 1.7-3.8.8-4.6-.2-3.5-.6-2.8-1.5-3.8-1.5-2.7h.3l5.8-.4 3.6 1.5 3.9 2.7 1.3 2.2.5 4.2h6.6l-.3-2.8-.9-4h.5l.3.2h4l4.6-.6 5-1 5.2-1.7 4.6-2.6 4-3.1 3.5-4.2 2.5-4.8 4.2-4.2 4-4.4-4.1-.8Zm-49.5 12.3-3.7-.8-3.3-1.6-2.7-1.8-2.5-2.4-2-3-1.7-2.5-1-2.4 4.3 2.7 3.7.6 2.4-.1 4.7 4.4 4.6 7.2-2.8-.3Zm-13.4 32.8-1.7 1.5h-.8l-1.6-3-2.7 1.4-1.6.4-.7-.8-.3-3.3-3.8-.4-.8-2 .5-2h-3.7l-.8-.9 1.1-3v-1.4l-2.5-.4-1-.5.5-2 1.6-1.8-2.3-1.3-1-1.2 1.8-2 1.3-.6-2-2.8-.7-1.1 1.7-1.3 2.7-.9-1.7-3.7.1-1.4 2.2-.3 3.7.5.5 1.8.7 1.1 1.4 2.6-1 .1-.6.8-.8.8 1.2 1 1.2 1.3-1.8 1.2.3 2.2 2.5 1-2.3 2.5 1.5 1.3 2.4.1-1.8 3h.1l2.5.1 1.6-.2-.4 1.8.3 2.8 2.9-1.2 1-.9.5 1.3.8 3.2 1.7 3.2-1.9 3.4Zm24.6-12.2h-4.6l-.4-3.3-1.5-2.7-4.2-3-3.9-1.5-6.1.3-1.6.6 2 3.6 1.5 3.7.6 2.6.1 3.3-.7 4.3-1.1 2.5-1.1-1-.8-1-2.4-6.3-.9-2.8-2.2 1.8-1.5.6-.1-1.2.8-3v-.1l-2.2.3h-1.6l1.9-2.8-2.4-.3h-1.5l-.4-.4 2.7-2.8-2.2-1-1.2-.4-.2-.9 2.5-1.6-2.3-2-.4-.5.4-.4.7-.3 1.3-.1-.1-.2-.8-1.9-1.1-1.8-.5-1-.6-2-.7-2.1.2-.7 3 .9 4.7 2.8 3.6 4.5 1.7 3 .6 2.7h3.5l4 .4 6 2.3 3.6 1.8V804l-.7-8.3h.2l-.2-.3v-.5l-.6-.7v-5l.2-4.7v-3.8l-.2-1.9-1.2-2.7-.7-2.2-5.4 4.5-1.5.3-.9-1.3-.8-3.4-.6-1.9-3 1.4-2.6.6-.8-.2-.3-2.5-.1-2.4.4-2.1-4.7-.4-2.9.3-.9-.3.1-2 .3-1.6 1.3-2.7-4.2-1-1.8-.8-.2-2.5 1.2-2 2-2.4-4-2.8-2-1.3-.8-1 2.8-3.3 2.3-.7-4.2-3-1.7-1.7.8-1 2-1.8 2.7-1.2 2-.2-2.6-3.9-1.1-2.4-.4-1.1.6-1 2.1-.7 2.8-.6-.8-3.4-.6-3.1 1.1-1 2.8-.3 2.3.1 1.6.2.4-3.2v-3.7l.2-1.6h1.4l3 .7 2 1.3.3-3.4.7-2.2.8-1.2h1.4l3.1 1.6 1.5 1.2 1.5.8.6-2.5 2.2-3 1-1.2 1 .2 1.9 1.7 1.2 1.8 2.8-2.2 1.7-1.4.6-.3.8 1.1 1.4 2.3.9 1.5.6 2.6 3-2.3 2.3-1.5 1.6-.7 1.8 2.5.3 3.6 4.1-1 1.5-.3 1 1.3v4l-.2 2.7 3 .1 3.5-.4 1.5.3.1 2.3-1 3-.8 1.8 4.5.1 2 .9.3.1-.7 1.7-1.6 3-1.2 1.5-.9 1.6 3.1.8 2.6 1.4 1 1 .2 2-2.4 1.6-1.8 1.4 3.5 3 1.1 1.7-.7 1.2-3.8 2.1-2.1.7 3.1 5.8.8 1.6-1.3 1-3 .7h-2.7l2.4 2.8.5 2v1.5l-2 .4-3.8.2-2.2-.5.7 3.4v2.3l-.3 2-.2.7-3-.2-2.3-1-1 2.8-1.5 3.2-2.7-.8-2.7-1.8-1.9-1.5-1 4-2 3-.7 1-2.5-2-2.9-2.4-1.7 3 .2 2.5-.4 8.4.3 4.5 1 8.3.7 5h-.2l1.1 5 .2 1.6Zm37.6-28.4-4.2 4.2-2.5 4.8-3.4 4-4 3.2-4.3 2.5-5.2 1.6-4.8 1-4.5.5h-3.4l3-6.3 4.9-7 7.6-5.7 7.8-3.8 4.7-1.2 8.9-1.3 2.1.4-2.7 3ZM1180.5 805l-6.9 1.9-11.1 5.6-11 8.6-7.1 10.6-4.4 10-1-.2-.8-7.3-1.5-12.3-.4-6.5.5-12.3-.2-3.5 1.5-2.8 3 2.5 4.5 3.9 1.6-2.7 3-4.6 1.1-4.2 1.3 1 3.9 2.8 5 1.6 2.6-5.7 1-2.9 2.2 1 5.4.3.6-2 .5-3V781l-.7-3.3 1.4.4 5.7-.4 3.8-.9v-3.4l-.8-3.1-2-2.5h1.3l4.6-1 2.9-2.3-1.4-3.4-2.2-4-1.6-3.2 1.7-.6 5.7-3.4 1.6-2.7-2-3.3-4-3.5 1.4-1.1 3.9-2.7-.4-4.2-1.8-1.9-3.9-2.2-3.1-1 .4-.7 1.7-2.1 2.4-4.8 1.5-3.6-4.5-2-5-.2.5-1 1.6-4.8-.2-4.6-3.3-.6-5 .6-3-.1.4-3-.2-6.1-1.9-3-3 .6-4.4 1.2-.3-4.1-3.3-5-3.3 1.6-3.4 2.3-2.7 2.3-.5-2-1.3-2.6-2-3.3-1.7-2.5-2 .7-2.5 2.4-2.8 2.3-1.1-1.6-3-3-2.6-.4-1.8 2.2-3.2 4.8-.6 2.3-.7-.3-2-1.7-4.6-2.5-3-.2-1.6 2.5-1 3.5-.4 3.3-1.4-1-4.6-1.2h-3.1l-.5 3.6.1 5.4-.4 3.5-1.2-.1-3.3-.2-4.4.4-2.3 2.3 1 5.2.8 3.9-2.8.6-3.5 1.2-1.4 2.4.8 2.2 1.6 3.7 2.7 4.1-1.1.2-4 1.9-3.1 2.7-2 2.7 3.3 3.1 4 3.1-1.2.5-2 2.4-2.8 3.6 1.7 2.3 3 2 4.7 3.4-2 2.6-2 3.4.3 4.7 3.3 1.6 4.6 1-1.2 2.9-.5 2.4-.2 4 2.4 1 4.2-.5 5.1.5-.3 1.9.1 3.7.5 4.5 2.3.7 4-1 3.2-1.5.5 1.4 1 5 2 3 3.2-.7 6.4-5.6.4 1.5 1.6 3.8.4 2.6v5.4l-.5 7.1.1 5-4.6-7.1-1.4-1.3-.9-1.5-.3.2-5.8-5.9-3.8.3-4.7-.8-6.2-4-2.3-.6 2.2 5.9 2.3 3.9 3 4.4 3.7 3.7 4 2.8 4.8 2.4 5.4 1.2 5.5.6 1 12.7v3.6l-3.4-1.9-8.7-3.5-5.8-.5h-4l-.7-3-2.5-5-5.3-6.7-7-4.4-5.5-1.8-.8 2.6 1 2.7-5.2-.7-4.3.6-.2 3.3 1.9 4.6-2.7.9-3.4 2.7 1.4 2.6 2.1 3-.7.4-3.2 4 2 2.5 2.2 1.4-1.6 1.8-.9 4.3 2.3 1 2.9.6v1l-1.9 4.7 2 2.4h4.3l-.5 1.8 1.5 4 5.2.5.3 4.3 1.7 2 3-.7 3-1.6 2 4.1h2.4l2.8-2.7 2.7-5 .5.8 3 2.8 2.2-5.5 1.1-6.6-.2-5.1-.8-4-2.2-5.7-2.2-4.1.6-.3 8.3-.4 5.1 2.1 5.6 4 1.9 3.4.7 6h8.8l-.4-3.8-1.3-6h7l6.5-.7 7-1.6 7.4-2.4 6.3-3.8 5.7-4.7 5-6.1 3.4-7 5.9-6.3 5.3-6.1-5.3-1-12.8 1.8Zm-57 16.1-5.1-1.1-4.7-2.3-3.9-2.8-3.5-3.5-3-4.4-2.2-3.8-1.5-4h.3l6.1 4 5.1 1 3.5-.2 6.6 6.6 6.8 11-4.5-.5Zm-18.6 48.5-2.5 2.3h-1.3l-2.1-4.4-3.8 2-2.4.6-1-1.3-.5-4.8-5.3-.6-1.2-3 .7-2.8h-5l-1.4-1.6 1.7-4.4v-2l-3.4-.6-1.6-.7.7-3.2 2.1-2.5-3-1.8-1.4-1.9 2.5-3.2 1.7-.8-2.8-3.9-1-1.9 2.6-2 3.6-1.2-2.3-5.3.2-2.3 3.3-.5 5.4.8.7 2.7 1 1.7 2 4-1.6.3-.8 1-1 1.1 1.6 1.4 1.8 2.1-1.2.9-1.4 1 .4 2.8 3.8 1.7-3.4 3.7 1.9 1.6 3.7.3-1 1.9-1.6 2.5h.2l3.1.1 2.6-.3-.7 3 .3 3.7 4-1.6 1.6-1.5.8 2.2 1 4.7 2.5 4.8-2.8 5.2Zm34.5-20.6.2 2.6h-6.8l-.6-5.1-2.1-3.8-5.8-4.3-5.4-2.3-8.7.5-1.9.8 2.8 5 2 5.5.8 3.9.3 5-1 6.3-1.8 4-1.8-1.7-1-1.5-3.5-9.3-1.1-3.8h-.1l-2.9 2.5-2.3 1-.2-2.2 1-4.2v-.1l-2.8.4-1.2.2h-1.4l2.6-4.4h-.2l-2.8-.3h-1.6l-.5-.1-.9-.7 1-1.2 2.8-3-2.7-1.2-2-.6-.2-1.7 3.3-2.3-3-2.8-.7-.8.8-.9 1.1-.3 1.5-.2-.1-.3-1-2.5-1.6-2.6-.7-1.4-.8-3.2-1-3.1.3-1.3 4.3 1.3 6.8 4.2 5.2 6.7 2.4 4.6.8 3.8h4.7l5.6.5 8.6 3.4 4.8 2.7v-5.3l-1-12.6v-.8l-.8-1-.2-7.4.5-7.1V801l-.4-2.8-1.6-4-.9-2.9-7.4 6.5-2.3.5-1.4-2.2-1-5-.8-2.5-4.1 2-3.7.9-1.4-.4-.5-4v-3.4l.4-3-6.3-.4-4 .4-1.5-.6.1-3.3.5-2.2 1.6-3.8-5.6-1.3-2.8-1.4-.2-3.8 1.8-3 2.7-3.4-5.6-4-2.9-1.9-1.1-1.6 2.3-3 1.8-2.2 2.8-1-5.5-4.1-2.7-2.5 1.4-1.9 2.9-2.5 3.7-1.8 2.5-.4-3.4-5.4-1.6-3.6-.6-1.7 1-1.7 3-1 3.8-.9-1.1-4.8-.8-4.7 1.6-1.6 4-.4 3.3.2 2 .2.6-4.5v-5.4l.2-2.6h2.2l4.2 1 2.8 1.8.4-4.7 1-3.3 1.2-2 2 .2 4.5 2.3 2 1.7 2 1 .7-3.3 3.2-4.7 1.4-1.7 1.7.3 2.7 2.6 1.6 2.4 3.7-3 2.4-2.2 1-.4 1.4 1.8 2 3.3 1 2.3 1 3.6 3.9-3.3 3.3-2.2 2.4-1.2 2.7 4 .4 5.1 5.5-1.6 2.3-.4 1.4 2.2.1 5.9-.3 3.8 4 .2 5-.6 2.3.5.2 3.6-1.5 4.5-1 2.3 6 .2 2.9 1.2.7.4-1 2.7-2.4 4.6-1.7 2-1 2 4 1.2 3.8 2.2 1.5 1.5.3 3.3-3.5 2.4-2.4 1.9 4.8 4 1.7 2.8-1.2 2-5.4 3.2-2.8.9 2.2 4.2 2.2 4 1 2.7-1.9 1.6-4.4 1h-3.2l3 3.8.8 2.9v2.5l-3 .7-5.4.4-2.7-.7.8 4.7v3.4l-.4 3-.4 1.1-4.3-.2-3.1-1.3-1.3 3.8-2.3 4.9-4-1.3-3.8-2.7-2.4-2-1.3 5.6-3 4.5-1 1.7-3.6-3.2-1.9-1.4-2-1.8-2.3 4.1.2 3.7-.5 12.3.4 6.6 1.5 12.3.9 7.6h-.3l1.6 7.1Zm53-39.4-5.8 6.2-3.6 7.2-4.7 6-5.6 4.6-6.1 3.7-7.4 2.3-6.8 1.6-6.4.7h-5l4.3-9.8 6.9-10.3 10.8-8.5 11-5.5 6.7-1.9 12.5-1.8 3.4.7-4.1 4.8ZM870.4 586.9l1.3-1.8-1.3-1.4-2.3-1.3-.8-.2 1-1.1 1-1.9.4-1.9-1.3-1.1-3-1-1.4-.1h-.2l.5-.9.7-3.4.2-1.7-1.4-1h-2.5l-.8.1-.2-1.8v-1.9l-.6-1.4-2 .3-2.1.6-1.5.5-.8.5-.2-1.7-.4-2.4-.8-2-3.5.7-1.7 1.4-.4-.7h.1l-1-3-1.7-2.1 2.7-1 2-2-1-1.8-2.4-2.2-.9-1.1 1-.8 2.6-2.3.5-2.1-1.5-1.3-2.1-1.4 1.4-1.5.7-3.4-2-1-2.4-.8-1.8-.4.5-.7.5-1.5.6-2.1.3-1.8-1.1-.7-2-.4-2-.4.2-.9v-2.5l-1-1.4h-1.6l-3.3.2-1 .5-.2-1.8-.9-3-1.2-1.6-1.7.2-2 .8-1.1.9-.2-.7-1.3-2.5-1.4-1.7-1.8 1.2-2.1 2-1.4.9-1.6-2-2-2-2-.2-1.8 2.4-1 1.6-1.3-1-2-1.2-1.7.3-.6 1.2-.9 2.1-.5 2.3-.2-.2-2.4-1.2-2.4-.4h-2.1v3l.3 2.4-.3-.3H788l-.3 1.9.4 2 .5 3.1H787l-2.2.3-2 2 .8 2.2 1.3 2.3-1.4.3-1.2.7-1.9 1.4.6 1.5 2 2 1.7 2.2-.7.4-1.5 1.4-1.7 2 .7 1.4 2.1 1.6 1.7.8-1.9 2.7-.5 2.1 1.7 1.3 4.6 1-.3.5-.8 2-1 1-2.1 2-3 2.3-1.6 1.4 1-4.2v-1l.1-1h-.2l.1-4.8-1.6-1.7-1.6-2.4-.8-4.2-1-1.6-1.6 3.5-.7 2.4-.6 3v3l.5 2.9 1 3 1.6 3 1.9 2.5-4.6 4.8-1.2 1-.5-1.9-2-5.2-2.2-2.8-1.5-1.8.9-1.2 1-3 .6-4.9-1-4.7-1.6-3.3-1.6.7-.6 1-1.6-2.2-2.1-2-1.7 1.3-1 2.3-1.1-.8-2.8-.7-.5 1.9-.3 1.7h-.2l-3.2-.1-.3 2 .3 1.2h-1.1l-2.3 1.2.5 1.6.8 1.4-.1.2-2.8.9-.2 2 1.6 1.7-.7.4-1.1 2.3 1.8 2.5-1.5 1.5-.2 1.7 1.6 1.2 1.7.8-.8 2.3 1 1.1 2.4.4 2.8-.5v2.9l3.3-1 3.2-1.9 2-2 1.4-1.8 1.4-3 .7-2.2 3.5 3.6 1.2 3 .6 3.9-.6 2-2.2 2.5 3.8 4.3 1.5-1.7 1.8-2.5.2.2.1.3 2.3 2.5 2.9 2.7 3.4 2.6 3 2-.3 3.7-.1 4.8-1.5 4.2-.5 4.5.4 4.3 1 4 2 4.1 2.2 3.5 2.3 2.9 2.2 2.2.3.2.2.2-2.8 1.8-1.9 1.5 3.8 3.8 2.9-2.2 2-.6 3.8.6 2.9 1.1 3 3.5.1.1-2.4.7-3.2 1.5-2 1.3-2 2-2.4 3-1.4 3.6H798l-.8 2.7v2.4l1.1 1.1 2.4-.8.5 1.6 1 1.7 1.7-.1 1.8-1.5 2.3 1.8 2.3-1.1.5-.8 1.5 1.6 2-.1 1.3-2.8.2-.2 1.1.8 1.7.5 1.5-2.2v-1.2l1.2.3 2.1-.2.4-3.1v-.4l1.8-.3 1.8-.5-.3-2.6-.6-1.4 2.4-1 1.4-1.6-1.5-2-2.2-1.7 1.2-.6 1-1.6-3.2-1.6-4.7-1.1-5 .7-2.9.9-1.4 1-1.6-1.6-2.4-2-5.1-2.2-1.7-.5 1.1-1.2 5.5-4.6 2.3 1.9 2.6 1.6 3 1 2.8.5h3l3-.6 2.6-.7 3.6-1.6-1.4-1-4.2-.8-2.2-1.6-1.5-1.6h-4.8v-.2l-1 .3H814l-4 .8 1.6-1.5 2.7-3 2.1-2.2 1.3-1 2.1-.8.5-.3.3 4.6 1.1 1.8 2-.5 2.6-1.6.6-.3.5 1.6 1.3 2.2 1.4.7 2.2-1.8 1.5-1.4.6-.8 2 1.7 1.5 2 1.5.6 1.7-1.9.8-1 .6-1.5 2 1.2 2.2.8 2.2-2 .6-2.2.2-1.6 3 .4 2 .5 1.9-.4.5-4.5-.2-.4 2.6.3h2.7l.4-2-.2-2.3-.8-2.5-.2-.3 2.5-.6 2.1-.8 1.3-.7.4-1.7-1-2-.7-1.1 1.8-1.1 2.5-1.9v-2l-1.7-2-1.4-1.3-.3-.2 1-1.4 2.4-2.3Zm-25.5-27.2-1 .2-2.7.6h-.1l1.8-1.7 1.2-.3.6 1 .2.2Zm-67.3 7.3-1.6-2.7-1-3-.4-2.6v-2.9l.6-2.9.6-2.3.8-1.6.7 3.9 1.8 2.7 1.4 1.5v5.2l-1.6 6.5-1.4-1.8Zm-27.2 8.6-1.8-.3-.4-.5 1-2.6-2.5-1-1.1-.8v-.8l1.9-2-2-2.6.7-1.5 1.6-.7-2.1-2.5v-.9l2.3-.7 1-.9-1.1-2-.3-.7 1.3-.7 2.1.1-.5-2.2.2-1.1h2l1.2.6.5-3 .3-.8 1.6.3 2.1 1.4 1.4-3.1.7-.6 1.4 1.2 1.8 2.6-.8 1.2-.3 1-.7 2-.5-.4H759.4V556.1l-1.7-.5-1.2 1.5.8 2-2.8-.2.1 1.8 1.2 1.6-2.8.3v.1l1.5 1.8 1 .8-1.2.6-1.6 1.7 2.4 1.4 1 .2-.4.9-1.5 2-.9 2.8-3 .6Zm24.5 5.1-.2-.1-2.4 3.5-.8.8-2.4-2.8 1.7-2 .7-2.4-.6-4.2-1.2-3.3-3.7-3.8-1.3-.8-1 3.3-1.4 2.8-1.3 1.7-1.8 1.9-3 1.7-2 .6v-1.2l.1-.9 2.4-4.8 1.2-2.2-2.4-.5-1-.6.5-.6 2.4-1.1-2-1.9-.3-.3 2.7-.3-2-2.8v-.3l3.2.3-.7-2-.5-1 .4-.5 2.4.7v-3h.3l.6.4.8.7.1-.1.2-.5.5-1.2.5-1.6.3-.8.9-1.5.8-1.5.4-.2 1.1 2.3 1 4.6-.6 4.6-.9 2.7-1.2 1.8 2 2.3 2 2.6 2 5.1 1 3.4 2.4-2 4.4-4.8.2.2v-.5l.4-.3v-.7l3-2.6 3-2.3 2.2-2 1-1.1 1-2.2 1-1.7-5.8-1.1-1-.8.2-1.2 1.6-2.3.8-1.4-2.5-1.2-1.9-1.4-.3-.6 1.3-1.4 1.3-1.3 1.6-1-2.5-3.2-1.7-1.7-.3-.7 1.2-1 1-.5 2.5-.7-1.9-3.2-.5-1.6 1.3-1.3 1.8-.3 2.7.1-.6-4.3-.4-1.9.2-.8h3.4l1.9 1.2-.6-4.5v-1.9h1l2.1.4 2.2 1 1.4 1.3.9-3.8.8-2 .4-.8h.9l1.5.9 2 1.5 1.7-2.4 1.5-1.9 1 .1 1.7 1.7 1.3 1.5.8 1.2 2.3-1.5 2.1-2 1-.6.8.8 1.2 2.3.4 2.1 2.3-1.6 1.7-.7 1.1-.2.7 1 .8 2.7.2 1.6.4 1.4 1.8-.9 3.1-.2h1.2l.4.8v2l-.3 1.8 2.9.7 1.8.3.5.2-.2 1-.6 2.1-.4 1.4-1.3 1.8 3.2.7 2.2.7 1.3.7-.5 2.4-2 2 3 2.2 1 .8-.3 1.2-2.2 2-2 1.4 1.7 2 2.3 2.1.6 1.1-1.2 1.2-2.4.9-1.6.5 2.3 2.8-2 .4-2.6 2.6-1.6.4-.2-.2-1.8-2.3-1.8-1.3-2 1.9-1.4 2.7-.2.3-1.7-1.7-3-1.1-1 2.2-.9 2.9-.2 1.6v.2l-1.4-.7-2.5-.7h-1.7l-2 1.7.5 2.7.1.8-2.7-.2-2.4.6-.5 2 1 3.6-.6.5-1.4.9-.4.1-1.6-1.9-.7-2-2.3.8-2.7.7-1-2.1-.4-2.7-.2-2-3 1.4-3 .2-.9.2-.4-5.7-2.8.5-1.5 1.4-5.2 4.1-2.5 2.6-4.4 5-2.5 2.9Zm60-10-.3 1.5-1 .1-3.4-1.3-1.7-1-1.7 5.1-.6 1.3-1.2-.3-2-1.6-1.7-1.8-.3 3.2-.9 1.3-.8.7-1.3-1-2.3-2.3-1-1.7-1.7 2.2-.7-3 .3-1 1.6-.5 3.8.3-.2-2-.4-2.2 1.3-1 1.1-.1 2.3.6 2.3 1.3.5-1.4.2-1.6.9-2.8.5-1.3 1.9.6 2.7 2.6.6-1.6 1.2-2.4 1.4-1.3 1 .7 1.8 2.3 1.8 1.6.2-.2.3.6.6 2.4v1.1l-1 1.1-2.3-.7-2-.4.3 3.9Zm-59.3 10.7 6.8-8 2.5-2.4 5.2-4.1 1.2-1.3 1.5-.2.2 2 .2 3.6 2-.2 3-.3 2-.9.4 3.4 1.5 3 3.5-.8 1.4-.5.4 1.2 1.5 1.9-.6.2-2 .8.2 2.1 1.5 2.5.2.2-1.2.2-1.8 1-.7.7-1.2-.8-6.8-3.1-8-2-7 .5-5.8 1.5-.1-.2Zm8.7 8.3-3.3-2.6-2.9-2.6-1.8-2 5.3-1.4 6.9-.5 7.7 1.9 6.6 3 1 .7-.2.1 1.3 2.1 2.1 2.4.5.3-1.3 1-1.6 1.4v.2l-4.2.9h-4.2l-4.1-1-3.5-1.3-1.7-1.1v.1l-2.5-1.6Zm23.4.4-2-2.2-.2-.5.7.5 5.7 5 .9 1.4-3.1-.1-3.9-.4 1-1 2.5-1.7-1.6-1Zm-2.4 8.2 1.2.5-.7 1.4-1.3 3.5 2.7 1.4 3 .5h.5l-1.1 1.8-.7 3.2-.5 2 3.6.2 2 .2-.5 1.5-1.4 1.3-4.8 5.1-2.8 2.5-5.6 4.4-3.2 2.5h-.1l2.2-5.9 1.4-7-1-8-2.1-6.9-2-3.5-3.6-4.9 1.3.5 4.2 1h4.5l3.1-.7v.1l-.6 1.2 2.3 2Zm-10.6 31.3-1.7-1.8-2.2-2.8-2.2-3.4-2-3.9-1-3.8-.3-4.1.5-4.3 1.5-4.2.2-5 .2-3.2.4.1 1 .6 4.2 5.7 1.9 3.4 2.1 6.6 1 7.8-1.4 6.9-2.2 5.4ZM828 644l1 1.4-.7.8-3.2 1.3 1 2.1.2 1.7-.9.3-3 .5.4 1.2-.2 2-1.2.2-2-.5-.3 2-.9 1.5-.7-.3-1.8-1.2-.8.9-1.2 2.4h-1l-2-2-1 1.5-1.6.7-2.4-2-2.2 2h-.7l-.7-1-.7-2.6-2.8 1-.3-.4v-1.8l.9-3 2.8-1 2.2-1.4 1-.5.1.8.8 2 .3.7 1.8-1.5.8-1.4.8 1 1.5 1.5h.1l.8-2.8 1 .8.4.4 1.6.1.2-2.8 2 .8 1.5-1.1-.3-1.7 1.4-.1h1.4v-1l.1-.8-.4-.6 2.2-.7 1-.3 1.4-.8 2.3 1.8Zm-12.6-18.5 5.2-.1 1.2 1.4 2.4 1.7 3.9.8-1.7.8-2.5.6-2.8.6h-2.9l-2.6-.4-2.8-1-2.5-1.5-1.7-1.3 6.8-1.6Zm50.1-34.9 1.1.9 1.3 1.2 1.5 1.7v1.1l-2.2 1.5-2.5 1.7 1.2 2 .8 1.5-.2 1-.9.4-2 .8-4 .9 1.1 1.4.8 2.1.1 2.2-.2 1h-1.8l-4.3-.5.9 1.8-.5 3.5-.9.2-1.9-.4-4-.7-.3 2.6-.5 2-1.6 1.3-1.5-.5-3-2-1 2.5-.6 1-1.2 1.3-.6-.2-1.5-1.9-2.9-2.4-1 1.5-1.5 1.4-1.7 1.3-.5-.3-1.1-1.8-.9-2.7-1.6 1-2.4 1.4-1.3.3-.6-1-.3-5.8-1.8 1-2.2.9-1.5 1-2.2 2.3-2.6 3-3 3h-.8l-.3.3-.4.1.1.2-5.3 4.5-2.4 2.4 3.3 1 4.8 2 2.4 2 2.1 2 2-1.2 2.7-1 4.7-.6 4.4 1 2 1.1-.2.5-1.6.8-1.6 1-.9.2-1.7.5-1.1.5-.5.1-.1.1.6.9.3.5v.4h-3.1l.4 1.9v.5l-.5.4-1-.5-1.8-.7-.2 3.3h-.3l-2.5-2-.6 2.7-.3-.3-1.6-2-1.5 2.3-.7.6-.4-1-.1-1.7v-.8l-2.4 1.2-5 2.4-1 .2h-1.2l.9-2 2-3 2.1-1.9 1.9-1.2 3-1.4 3.4-1-.5-1.2-3.4-3.9-3.1-1.2-4.2-.7-2.3.7-2.4 1.8-2.4-2.4 1-.8 3.7-2.5h-.1l8.8-7 2.9-2.6 4.7-5.1 1.6-1.5 1-2.9-3.3-.3-2.4-.1.8-3.9 1.9-3-2.1-.2-2.6-.4-2-1 1-2.6 1.2-2.4-2-.7-1.6-1.6.2-.3.6-.9 4.5.4 5 .3-1.8-3-6-5.3-1.5-1 .5-.5 1.4-.9 3.2-.3-1.6-1.6-1.3-2.1-.1-1.2 1.3-.6 5.4-1.7-.6-1 .3-.4.8-1.1.3.4 2.5 2.6 2 1.5 1.5-1.3 1-1.7.2-1.2 2.5 2 2 .5-2.5 3.6-2.9 6.8 1.3 8 .7 5.6 4 5 4.7 3.8 7.5 2 6.6-.3 4.4-2.9 3.5-3.3 2.9-5 2-4.9-.3-5.5-1.4-4.9-2.7-6-6.3-4.6-3.3-1.2-5.3-.4-6.1.5-5.5 2-.7.8.6-1.2 1.3-4 .6.5 3.8 1.4 2-.2.5-2.4-.1-2.7.6.2 2.8.8 1.7-1.8v-1.7l-.6-2.5-.6-1.2.3-.4h1.2l3-.5 1.1-.4 1.1 2 2.4-2 2.4-.6.5 1.2.4 2.2.3 3.3 2-1.2 1.4-.5 2-.5 1.2-.2.2.4v1.8l.3 3 1.9-.4h2l.7.5-.2 1-.6 3.2-1.2 1.9 1.6.4 1.4.1 2.7.9.8.6-.3 1.1-1 1.7-2 2.3 2.2.5 2.1 1.2.7.8-.7 1-2.3 2.2-1.8 2.2Zm-37.1-14 5-1.8 6-.5 5 .4 3 1 6 4.5 2.7 5.7 1.3 4.6.3 5.3-2 4.5-2.7 4.8-3.3 3.2-4.2 2.7-6.2.2-7-1.7-4.6-3.8-3.7-4.6-.7-5.3-1.2-7.8 2.7-6.4 3.6-5Zm-191.8 15-1.6 1.8-2 2.3.1 2.3 1.6 1.1 2.7 1.7 3.5 1.4-.6.5-2 3-1 3.3-.2 2.8 3.8.5h3.9l-.6.8-.7 6.2 2.3.8 2.9-.1h4.6l-.3 2.5v3.1l2.4 3 3-.5 3.7-1.4.3 2.2.7 1.9 1.7 2.8 2-.5 2.9-2.3 3.6-2 .5 1.2 1.7 2.4 2.4 2.7 2-.6 2.4-2.6 1.5-2.4.8.7 3 2.7 2.6 1.1 2-2 2-6.5 1 .7 2.7 1.7 1.4 1.5 2.2 3.5 2.8 4.8 2 3-6-2.4-1.6-.3-1.2-.5-.1.3-6.7-1-2.5 1.9-3.6 1.6-6 .3-2.1.8 4.3 2.9 3.3 1.4 4 1.5 4.2.7h4l4.4-.8 4.2-1.7 4-2.2 6.2 7.7 1.4 2.2-3 .3-7.6 1.8-4.3 2.4-2.8 1.8-1.7-1.6-3.9-2-6.6-2-6.8.5-4.7 1.4.7 2.2 1.7 1.3-3.8 1.8-2.9 2.4 1.4 2.4 3.2 2-1.4 1.7-1.3 3.5 2.3 1 2.6 1-.2.4-.6 4.3 2.7.7h2l-.4 1.7 1.3 3.2 2.2-.3 2.1-1 .3.5.8 4 2.6.6 2.9-1.9.4 1.3 2.8 1.9 3.8-2 2 2.5 2.2.6 1.8-2 1.4-2.3 3.2 1.7 1.6-1.2.9-3.1-.3-4.3.6.2 3.4.5-.8-4.7-2.1-4.8-2.4-3.3-2.4-2.2-3.9-2.7-3.2-1.5.2-.4 5.6-4.1 4.5-1h5.5l2.8 1.3 3.1 3.6 6.3-4.2-2-2.4-3.4-3.2.6-.4.3-.1 4-2.6 4.1-3.5 4.2-4.3 4.2-5 2.8-5.4 2-5.7.7-6.3-.6-6.2 1.4-6.7 1-6.6-4.1 1.8-8.2 7.2-4 4.4-5.3 8.8-4 10.7-.4 10.2 1.2 8.5-.6.3-3.7-4.3-6.4-7.2-3-4.1-5-8.2-1.6-2-.1-2.5 3 .2 5 .4v-7l-1-3h5.2l4.2-1.3-.6-5-.6-2.2 2-.4 3.8-2.4-.4-1.6-1-2.2-1.6-2.4-1.7-1.7 1-.3 3.8-3 2.3-2.4-1.4-2.2-2-1.7-2.2-.7.6-.4 2.8-2.9 1.1-2.9-2.5-1.5-5.7-2.9.9-1 2.5-5v-2.6l-3-1.2-4-.4.4-1.2 1.6-3.6-2.2-2.6-2.2-.4-3.6.4-2.5.8v-.5l.3-2.2-.4-4.2-.6-3.1-4 .7-3.5 2.1-1-4.4-2.2-3-2.6 1-3.4 2.9-2 1.1-1-1.8-2.7-4-2.7-1-1.9 1.7-2.5 2.8-1.9-2.5-4.5-1.7-1.7 2.6-1.4 3.1-.9 2.7-1-1-2-1.1-3-1.3-2.3-.7-1 1.4-.8 2.7-1 2.7-1.3-.5-3.4-.5-2.1 1-.3 2.3-.2 4.7.6 1.6h-2.6l-4.4.5-2.3 1.3v2.4l.8 2.8 1.1 2-1.2.1-3.7 1.4-2.3 1.5 1.2 2.6 2.4 3.5 1.2 2.3-.8.4-2.4 1.5-3 2.3-.6 2.6 3 3 2.1 2Zm68 52.9-4.1 1.6-4.3.7h-3.8l-4-.6-4-1.4-3.1-1.4-2.7-1.8 6.1-.3 4-1.8 2.3-1.7 7.5 1.2 9.2 3.8-3.1 1.7Zm7 42.6-.8.6-3.4-1.9-1.8 3.1-1.4 1.5-1.3-.3-2.3-3-4 2.1-2-1.3-.8-2.2-3.6 2.3-1.5-.3-.7-3.5-1-1.4-2.7 1.2-1.3.2-.8-2.3.4-2.6-3 .1-1.7-.4.4-3.1.9-1.5-3.8-1.2-1.4-.7.9-2.4 2-2.6-4-2.4-.8-1.5 2.1-1.7 4-2 1.7 1.4 1.3.6 3.1 1.6-1 .8v1.1l-.3 1.3 1.8.2 2 .4-1 2.4 1.7 1.8 3.2-.7-.7 4 2.1.1 2.6-1.5.1 2.1v2h.1l2.4-1.6 1.6-1.3.7 2 2 2.5 2-3 .6-1.6 1.4 1 2.7 2.5 3.8 2 .3 4.5-.7 2.6Zm13-45.5.4-9.8 3.9-10.5 5.2-8.7 3.9-4.3 8-7 2.4-1.1-.8 4.8-1.4 6.9.6 6.1-.7 6.1-2 5.6-2.6 5.2-4.1 5-4.1 4.1-4.1 3.5-3.4 2.3-1.2-8.2Zm-91.6-57 2.6-2 2.3-1.4 1.7-.9-1.6-3.3-2.4-3.4-.9-1.8 1.5-1 3.4-1.2 2.8-.1-1.9-3.4-.7-2.5v-1.8l1.5-.9 4-.5 2.2.1 1.9-.2-1-2.6.3-4.5.1-1.7 1.3-.6 3 .5 2.3.8 1.3-3.8.7-2.5.5-.7 1.6.5 2.8 1.3 1.8 1 2.2 1.9 1.4-4 1.3-3 1.2-1.8 3.5 1.2 2.5 3.2 3.3-3.6 1.4-1.3 1.7.7 2.6 3.7 1.5 2.7 3-1.8 3.2-2.7 1.8-.8 1.6 2.2.8 3.6.4 2.2 4.4-2.8 2.5-.5.6-.1.3 2 .4 4.1-.3 2.2.1 2 3.5-1.3 3.5-.4 1.7.3 1.5 2-1.4 3-.9 2.5 5.3.4 2.2 1v1.7l-2.3 4.6-1.7 1.9 6.8 3.4 1.8 1.1-.7 1.9-2.6 2.7-2.4 1.6 4 1 1.8 1.6 1 1.5-1.8 1.8-3.6 2.7-2.3 1 2.7 2.6 1.5 2.2 1 2.2.2.8-3 1.8-2.9.6.8 3.2.5 4-3.2 1.1H710l1.5 4.2-.2 4.3v1.4l-3.8-.3-1.9-.1-2.3-.2.3 3.9 1.7 2.3 5 8.1 3 4.2 6.4 7.2 3.8 4.4h-.2l4.3 4 1.2 1.5-4.6 3.2-2.6-3-3.1-1.5h-6l-4.7 1-6 4.3-1 1.5 4.2 2 3.8 2.6 2.2 2 2.3 3.2 2 4.5.6 3.3-2-.2-1.4-.5-6.3-4.4-2.5-2h-.1l-1 3-1.1 1.7-1-1.2-1-3.3h-.1l-2 1.6-.7.6-.8.6v-4h-.2l-2.2 1.2-1.2.8-.3.2h-.8l.9-4.5-2.6.5-1.6.4-.8-.8 1.4-3.1-3.5-.5-.7-.1.2-.8.6-.7 1-1h-.2v-.1l-2-1.2-2.2-1-1-.6-2-1.6-2-1.5-.3-1 3.6-1 6.5-.5 6.4 2 3.6 1.8 2.3 2 3.4-2.1 4-2.3 7.5-1.8 4.6-.5-2.4-3.6-6-7.5.1-.1-.2-.1-.4-.4-1-.4-3.2-4.6-2.8-4.8-2.3-3.6-1.5-1.7-2.9-1.7-2-1.6-2.4 7.7-1.3 1.4-1.8-.8-3-2.6-1.7-1.4-2 3.2-2.2 2.3-1 .4-2-2.2-1.6-2.2-.9-2.3-4.7 2.7-2.7 2.2-1.2.3-1.2-2.1-.6-1.6-.5-3.5-4.7 1.9-2.4.4-1.8-2.3v-2.7l.5-3.6h-5.8l-2.8.1-1.4-.4.3-3 .3-2.1 1.7-2.2-5.9-.1-2.8-.4.2-1.7.9-3 1.8-2.8 1.7-1.6-4.9-1.9-2.6-1.6-1.1-.8v-1.4l1.6-2 2.3-2.5-3-2.6-2.5-2.6.4-1.8ZM458.2 874.3l-3.3-3.9-1-.5 2.4-3 1.4-2.6-3.5-2.7-3-1 2-4.5-.1-3.3-4.5-.6-5.6.7 1-2.7-.8-2.6-5.7 1.7-7.5 4.3-5.7 7-2.6 4.7-.8 3.2h-4.3l-6 .5-9.5 3.5-3.6 1.9v-3.5l1-12.8 6-.6 5.6-1.1 5.2-2.5 4.3-2.8 3.9-3.8 3.2-4.3 2.4-4 2.4-5.8-2.3.5-6.7 4.1-5 .8-4-.2-6.2 5.8-.4-.2-1 1.5-1.4 1.4-5 7.2.1-5.2-.4-7-.1-5.4.4-2.7 1.7-3.8.5-1.5 6.9 5.6 3.4.7 1.9-2.8 1.2-5.1.5-1.5 3.4 1.5 4.3 1 2.4-.7.5-4.6.2-3.6-.4-2 5.4-.3 4.6.4 2.5-.9-.2-4.1-.5-2.3-1.3-2.9 4.8-1 3.6-1.7.4-4.7-2.2-3.5-2.2-2.4 5-3.5 3.2-1.9 1.8-2.4-3-3.6-2-2.4-1.4-.5 4.3-3 3.5-3.2-2-2.6-3.2-2.7-4.3-2-1.3-.1 2.9-4.2 1.7-3.7.8-2.2-1.5-2.4-3.7-1.2-3-.6 1-3.9.9-5.2-2.4-2.3-4.7-.3-3.6.1-1.2.2-.4-3.4V731l-.4-3.5h-3.3l-4.7 1.1-1.8 1-.2-3.1-1.1-3.6-1.7-2.6-3 .2-5.1 2.5-2.1 1.6-.9.5-.5-2.2-3.6-5-1.8-2.2-2.7.5-3.2 2.8-1.2 1.7-3-2.3-2.6-2.2-2.2-.9-1.8 2.5-2.2 3.4-1.2 2.4-.6 2.2-3-2.4-3.7-2.3-3.4-1.5-3.5 4.9-.3 4.1-4.8-1.2-3.1-.5-2 3-.2 6.2.3 2.8-3 .1-5.4-.6-3.5.7-.2 4.6 1.7 4.7.4 1-5 .1-3.3 1.4-1.7.8 1.6 3.6 2.5 4.6 1.9 2.2.4.8-3.2.9-4.2 2.2-2 2-.4 4.2 4.1 2.6 1.5 1.1-4.1 3.4-2.3 3.4 1.7 2.7 6 3.4 2 .6-4.1 7.3-1.5 3.3 2.8 2.2 5 1.1H342.9l-2 2.3-.9 3.3v3.5l4.2.9 6 .3 1.4-.3-.6 3.3v3.6l.5 3.2.7 1.8 5.4-.2 2.6-1 1 3 2.9 5.5 5-1.5 4.4-2.8 1.4-1 1 4 3.3 4.8 1.7 2.6 4.7-3.8 2-1.5 1.3-1 1.6 2.8-.2 3.5.5 12.2-.3 6.5-1.7 12.3-.9 7.4-1 .2L382 867l-7.4-10.3-12-8.8-11.8-5.6-7.2-2-13.4-1.8h-.1l-5.6 1 5.7 6.2 6.2 6.2 3.7 7 5.2 6.2 6.1 4.8 6.6 3.7 8 2.4 7.5 1.6 6.9.8h5.7l.6-.1h1l-1.3 6-.4 3.8h9.3l.8-6 2-3.3 6-4 5.3-2.2 9 .4.6.3-2.4 4.2-2.2 5.7-1 4-.2 5 1.1 6.6 2.5 5.5 3.1-2.8.6-.8 2.7 4.9 3.1 2.8h2.5l2.1-4.1 3.1 1.6 3.3.8 1.8-2 .4-4.3 5.5-.6 1.6-4-.5-1.8h4.5l2.2-2.3-2-4.8v-1l2.9-.4 2.6-1.2-1-4.2-1.6-1.8 2.1-1.3 2.3-2.6Zm-51.4-28.2 7-6.7 3.7.2 5.3-.8 6.7-4.1.4-.1-1.6 4-2.5 3.8-3 4.3-3.8 3.6-4.2 2.8-5 2.3-5.4 1.2-4.9.4 7.2-10.9Zm-26.3 31.3-6.8-.8-7.3-1.6-7.9-2.3-6.4-3.6-6-4.7-5.1-6-3.7-7-6.4-6.4-4.4-4.8 3.7-.7 13.3 1.9 7 1.8 11.7 5.5 11.7 8.6 7.3 10.2 4.6 9.9h-5.3Zm39.9 21.9-1.1 1.4-2.1 1.9-1.8-4.1-1.1-6.3.2-5 .9-3.8 2.2-5.5 2.9-5.1-1.8-.8-9.4-.5-5.6 2.3-6.2 4.1-2.2 3.8-.8 5.4h-7.3l.2-2.6 1.7-7.2h-.3l1-7.6 1.6-12.3.4-6.7-.6-12.2.3-3.7-2.4-4.1-2.1 1.7-2 1.5-4 3.2-1-1.8-3.2-4.5-1.4-5.4-2.5 1.9-4.1 2.7-4.3 1.3-2.4-4.8-1.4-4-3.2 1.4-4.7.2-.4-1-.5-3v-3.5l1-4.7-2.9.6-5.7-.3-3.3-.7V809l.8-2.9 3.3-3.9h-3.4l-4.7-1-2.1-1.5 1.1-2.6 2.3-4 2.4-4.4-3-.8-5.7-3.3-1.3-2 1.8-2.7 5-4-2.5-2-3.6-2.3.3-3.3 1.6-1.5 4-2.2 4.3-1.1-1-2-2-2.1-2.4-4.6-1.2-2.7 3.8-1.6 6.5-.2-1-2.3-1.7-4.5.2-3.7 2.5-.4 5.5.6 4-.2-.3-3.8.2-6 1.4-2 2.4.3 6 1.6.3-5 2.9-4 2.6 1 3.5 2.3 4.2 3.3.9-3.6 1.2-2.3 2.1-3.3 1.4-1.8 1.2.4 2.5 2.2 4 3 1.7-2.4 2.8-2.6 1.9-.3 1.4 1.7 3.5 4.7.8 3.3 2-1 2-1.7 4.9-2.4 2.2-.1 1.4 2 1 3.2.4 4.7 2.9-1.7 4.5-1.1h2.3l.4 2.5-.1 5.6.6 4.5 2.1-.3 3.5-.1 4.3.3 1.7 1.7-.8 4.7-1.2 4.8 4 .8 3.2 1 1 1.8-.5 1.7-1.7 3.5-3.7 5.5 2.7.4 4 1.8 3 2.5 1.5 1.8-2.8 2.5-6 4.3 3.1 1 1.9 2.1 2.5 3-1.2 1.6-3 1.9-6 4 2.8 3.3 2 3-.3 4-3 1.3-6 1.3 1.8 3.8.5 2.2.2 3.3-1.6.6-4.5-.4-6.6.5.6 2.9-.1 3.5-.5 3.9-1.5.4-4-1-4.3-2-.8 2.7-1.2 5-1.5 2-2.5-.4-7.8-6.4-.9 2.8-1.7 3.8-.5 3v5.6l.5 7-.1 7.4-.8 1v.8h-.1l-1.1 12.7v5.2l5-2.6 9.2-3.5 6-.4 5-.1.9-3.7 2.5-4.6 5.5-6.7 7.3-4.2 4.6-1.4.4 1.3-1 3.2-1 3-.7 1.6-1.7 2.6-.9 2-.2.5v.2l1.5.2 1.2.4.5.5.3.4-.8.7-3.1 2.9 2.6 1.6.9.7-.3 1.6-2 .7-3 1.2 1.8 1.7 2.3 2.4-1 .7-2.3.1-2.9.4h-.2l2.6 3.8.2.5h-1.4l-4.4-.5 1.2 4.2-.3 2.2-2.5-1-2.5-2-.5-.4h-.1L424 890l-3.6 9.2Zm31.8-21.3 2.2 2.5.8 3.2-1.7.8-3.6.6v2l1.7 4.3-1.4 1.6h-5.4l.8 2.8-1.3 3-5.7.6-.4 4.8-1.2 1.3-2.6-.6-3.9-2-2.3 4.5h-1.4L424 905l-3-5.2h.1l2.6-4.7 1-4.5 1-2.6 1.6 1.5 4.2 1.6.5-3.6-.8-3 1.7.2 1.1.1h3.3v-.1h.1l-2.7-4.4 3-.3h1l2-1.6-3.6-3.7 3.6-1.5.4-.2.4-2.9-1.5-1-1.3-.8 2-2 1.6-1.5-1-1-.9-1.1-1.4-.2h-.2l2.1-4.1 1-1.5.8-3 5.8-.7 3.5.5.2 2.3-2.4 5.3 3.8 1.2 2.8 2-1 1.8-3 4 1.7.8 2.7 3.2-1.6 1.9-3.1 1.8Zm-173.5 36-.4-2-2.3-1.7-1.7-1-.5-.3.7-1.5 1.8-2.6.9-2-1.7-1-2.7-1h-.8l.6-1.3.6-2.1v-1.9l-1.6-.9-3.3-.4-1.5.1h-.3l.4-1-.2-3.4-.2-1.8-1.7-.7-2.4.4-1 .4-.6-1.8-.6-1.9-.8-1.2-1.8.6-2.1 1-1.3.7-.8.6-.6-1.7-1-2.2-1.3-2-3.4 1.4-1.3 1.7-1.1-1.3.4-.9-.2-3.5-4.6-.5-5.7.7 1-2.8-.8-2.8-5.7 1.8-7.6 4.5-5.9 7.3-2.6 4.9-.8 3.3h-4.4l-6 .6-9.7 3.6-3.6 2v-3.7l1-13.3 6.1-.6 5.6-1.2 5.4-2.6 4.3-3 4-3.8 3.2-4.6 2.5-4.1 2.3-6-2.3.5-6.8 4.3-5.1.8-4.1-.3-6.2 6.1-.4-.2-1 1.6-1.5 1.4-5 7.5v-5.4l-.4-7.3v-5.6l.4-2.9 1.7-4 .5-1.5 7 5.9 3.4.7 2-3 1.2-5.3.5-1.5 3.4 1.6 4.4 1 2.5-.7.5-4.8.1-3.8-.3-2 5.4-.4 4.7.4 2.5-.9-.2-4.3-.5-2.4-1.3-3 4.9-1 3.6-1.8.4-5-2.2-3.5-2.2-2.6 5.1-3.6 3.2-2 1.8-2.5-3-3.7-2-2.5-1.5-.5 4.4-3.3 3.6-3.2-2-2.7-3.3-2.8-4.4-2-1.3-.2 3-4.4 1.6-3.9.9-2.2-1.6-2.5-3.7-1.2-3-.7 1-4 .9-5.5-2.4-2.3-4.8-.4-3.6.1-1.3.2-.4-3.6V751l-.4-3.6h-3.4l-4.8 1.2-1.7 1-.3-3.3-1-3.7-1.8-2.7-3 .2-5.2 2.6-2.2 1.7-.8.5-.6-2.3-3.6-5.2-1.8-2.2-2.8.4-3.2 3-1.2 1.8-3.1-2.5-2.7-2.3-2.1-.9-2 2.6-2 3.5-1.4 2.5-.5 2.3-3.1-2.5-3.7-2.4-3.5-1.5-3.5 5-.3 4.4-5-1.3-3-.6-2 3-.3 6.6.3 3-3 .1-5.5-.6-3.6.6-.2 4.8 1.7 5 .5 1-5.2.1-3.3 1.4-1.7.8 1.6 3.7 2.6 5 1.9 2.2.4.8-3.3 1-4.2 2.2-2 2-.5 4.4 4.2 2.8 1.6 1.2-4.2 3.5-2.3 3.6 1.7 2.8 6.1 3.5 2 .6-4.2 7.6-1.5 3.5 2.9 2.2 5.2 1.2h1.3l-2 2.4-1 3.5v3.5l4.3 1 6 .3 1.5-.3-.6 3.5v3.8l.5 3.2.6 1.9 5.6-.2 2.6-1.1 1 3.1 3 5.8 5.1-1.5 4.4-3 1.4-1 1 4.2 3.4 5 1.7 2.7 4.8-4 2-1.6 1.3-1 1.7 3-.2 3.6.5 12.7-.4 6.8-1.6 12.8-1 7.7-1 .3-4.9-10.7-7.5-10.8-12-9-12.1-6-7.3-1.9-13.8-2-5.6 1.1 5.7 6.4 6.3 6.5 3.7 7.2 4.2 5.1-1.2.4-2.3 1.7-1-3-1.8-2.1-2 1-2.3 2.4-1.3 1-.7-1.2-2.3-2.7-2.2-.6-1.3 1.5-1.6 2.1-1.5-1.5-3.5-1-1.2 2.2-.9 2.4-.4 1.8-.8-.5-1.5-.7-2.2-.6-1.8-.4-.8 1.1-.4 2.1-.6 2-.9-.2-2.6-.1-1.5.9-.1 1.8v3.3l.5 1.1-1.8.2-3.1.7-1.7 1.2v1.8l.8 2 .9 1.3-.8.1-2.6 1.3-1.8 1.4 1.2 2 1.9 2.2.9 1.5-2.2 1.6-2 2-.4 2 2.4 2 1.6 1.2-1 1.2-1.3 2 .1 1.8 1.3.7 2.1 1 2.4.6-.2.3-1.4 2.4-.5 2.4v2.3h3l2.5-.2-.2.4-.3 4.7 2 .4 2-.3 3.3-.4v1.7l.1 2.3 2 2.1 2.3-.6 2.5-1.3.3 1.4.6 1.4 1.5 2 1.5-.6 2-2 2.5-1.7.4.8 1.4 1.6 2 1.9 1.5-.7 1.7-2.2.8-1.7 2.9 2 2.1.7 1.4-1.7 1.2-4.8.5.4 2.1 1 1 1 2 2.3 2.2 3.3 1.4 1.6-4.3-1-1-.1-1-.3v.2l-5-.3-1.9 1.7-2.5 1.5-4.4.7-1.8.8 3.6 2 2.5.7 3 .7 3.2.2 3-.4 3.2-.8 3-1.7 2.8-1.8 4.9 5 1 1.2-2 .5-5.5 2-3.1 2-1.9 1.5-1.2-1-3-1-5.1-1-5 1-3.5 1.4.7 1.7 1.1.7-2.5 1.5-2 2.1 1.2 1.8 2.3 1-.8 1.3-.9 2.8 2 .7 1.7.4v.2l-.3 3.3 2.2.3 1.2-.2v1.1l1 2.5 1.8-.5 1.4-.8.2.2.8 3 2 .1 2-1.5.3.8 2.3 1.2 2.7-1.8 1.6 1.7 1.7.2 1.3-1.6.9-1.8 2.3 1 1.3-1 .5-2.5-.5-2.9h.4l2.6.1-.8-3.5-1.8-3.3-2-2.2-1.9-1.5-3-1.6-2.3-.8 4-3.6 3.1-1 4-.5 2.1.7 2.6 2.4 4.5-3.8-1.7-1.6-2.5-2 .3-.2.2-.1 2.8-2.2 2.9-3 2.9-3.4 2.8-4 1.8-4.2 1-4.3.3-4.7-.7-4.4.7-5 .4-5.2-3.2 1.9-5.7 5.9-2.7 3.5-3.5 7-2.4 8 .3 7.5 1.3 6-.3.1-8-7.4-2.3-2.7-4.1-5.5-1.3-1.4-.2-1.5 2.2-.2h3.7l-.2-2v-3.2l-1-2 3.6-.5 3.2-1.3-.7-3.7-.5-1.5 1.3-.4 2.8-2-.4-1.3-.9-1.6-1.3-1.6-1.2-1 .5-.2 2.7-2.5 1.7-2-1.3-1.6-1.6-1.2-1.3-.2.2-.2 2-2.3.6-2.3-2-1-4.2-1.6.5-.6 1.6-3.9-.1-2-2.4-.7h-2.9l.2-.7.8-2 3.6 2.2 8.1 2.5 7.6 1.6 7 .8h5.8l.6-.1h1.1l-1.4 6.3-.3 57 6.9-.1 3.3-59.1 2-3.6 6-4.2 5.5-2.2 9 .5.7.3-2.4 4.3-2.3 6-1 4.1-.2 5.3 1.2 6.8 2.4 5.7 3.2-3 .6-.7 2.6 4.8v.3h.2l3.1 2.9h2.5l.5-1-.3 1 .2 3.2v2l5.7-.5v1.5l-1.2 1.5-3.4 5.9-2.2 3-4.5 5.2-2.5 3h-.3l.8-6.2-.4-7.1-3-7.9-4-6.3-3-3.1-5.8-5-3.4-1.5.9 5 1 4.8-.3 4.4.6 4.5 1.5 4.2 2 3.8 3.2 3.7 3 3 3.2 2.5 2.7 1.8.4.1.2.2-2.3 2.2-1.5 1.8 4.8 3.2 2.3-2.7 1.9-1h4l3.1.7 4 2.9h.1l-2.2 1.2-2.8 2-1.6 1.6-1.7 2.3-1.5 3.5-.5 3.6 2.7-.4h.1l-.1 2.9.7 2.3 1.3.9 2.2-1.3.9 1.5 1.5 1.6 1.6-.5 1.4-1.8 2.8 1.4 2-1.5.3-.8 2 1.3 2-.5.5-3 .2-.1 1.4.5 1.8.3.9-2.5-.2-1h1.2l2-.6-.3-3-.2-.5 1.7-.6 1.7-.8-1-2.5-1-1.3 2.2-1.4 1-1.8-2-1.8-2.7-1.2 1-.8.6-1.8-3.4-1-5-.3-5 1.5-2.6 1.4-1.2 1.2-2-1.2-3-1.7-5.7-1.2-1.9-.2.8-1.4 4.3-5.5 2.9 1.5 3 1.2 3.3.5h3l3-.6 2.9-1 2.4-1.2 3.2-2.2-1.6-.7-4.5-.1-2.6-1.2-2-1.4-4.8 1v-.3l-1 .4-1 .2-4 1.6 1.3-1.8 1.8-3.4 1.6-2.6 1-1 2-1.3.4-.4 1.5 4.5 1.6 1.5 1.9-.8 2.2-2 .5-.4 1 1.6 1.8 1.8 1.5.5 1.8-2.1 1.1-1.7.4-.8 2.5 1.3 2 1.6 1.7.5 1.2-2.2.5-1.2.2-1.6 2.4 1 2.4.3 1.7-2.3v-2.4l-.2-1.6H268.7l1.8-.6-.6-4.6-.3-.3 2.6-.1 2.8-.5-.2-2-.8-2.3-1.4-2.3-.4-.3 2.4-1 1.9-1.2 1.1-.8v-1.8l-1.4-1.8-1-1 1.4-1.4 2-2.2ZM198 870.8l7.1-7 3.8.2 5.3-.8 6.9-4.3h.3l-1.6 4.1-2.5 4-3.1 4.5-3.8 3.7-4.2 3-5.1 2.4-5.5 1.2-5 .5 7.4-11.4Zm-57.6 89.7-2.9 1.5-3 .8-2.8.4-3-.2-3-.7-2.3-.7-1.7-.9 4-.6 3-1.7 1.6-1.4 5.4.3 6.7 1.9-2 1.3Zm7.4 30.4-.5.4-2.6-1-1.2 2.4-1 1.1-.7-.1-2-2-2.9 1.9-1.4-.8-.7-1.6-2.6 2h-1l-.7-2.4-.8-1.1-2 1.1-1 .3-.6-1.5.2-2.1-2.3.4-1.2-.2.1-2.1.7-1.2-3-.7-1-.3.5-1.7 1.5-2.1-3.2-1.5-.6-.9 1.4-1.4 2.8-1.7 1.2.8 1 .4 2.2.8-.6.6v.8l-.1 1.1h1.5l1.3.2-.6 1.7 1.4 1.3 2.2-.7-.3 2.8h1.8l1.7-1.2.3 2.9 2-1.5.9-1 .5 1.3 1.7 1.7 1.5-2.4.3-1.1 1 .5 2 1.6 2.9 1.1.4 3.2-.4 1.9Zm7.4-34-.2-7.2 2.3-8 3.4-6.6 2.6-3.5 5.5-5.7 1.5-.9-.3 3.3-.7 5.1.8 4.5-.2 4.4-1.1 4.2-1.7 4-2.8 3.9-2.8 3.4-2.8 2.8-2.2 1.8-1.3-5.5Zm-12-57.9-.5 2h4l1.6.4v1.1l-1.4 3.5-1.2 1.7 5.3 2 1.3.6-.4 1.2-1.7 2.2-2 1.5 3.4.5 1.3 1 .7.9-1.1 1.3-2.5 2.3-1.8 1 2.3 1.8 1.2 1.4.8 1.5.1.5-2 1.5-2.2.7.8 2.3.5 2.9-2.2 1-2.8.3-2.1.1 1.4 3.1.1 3.2v.9l-5.9.2.4 3 1.5 1.5 4 5.5 2.6 2.8 5 4.7 3 2.7-.2.2 3.4 2.6.9.9-3 2.4-2-1.8-2.6-1-4.3.5-3.4 1.2-4.2 3.7-.8 1.3 3.3 1.2 3 1.5 1.6 1.4 1.9 2 1.7 3.1.5 2.2H149l-1-.3-4.9-2.6-2-1.4-.1.1-.6 2.4-.7 1.1-.6-.6-1-2.5h-.1l-2 2-.4.3-.2-2.9-3 2h-.3l.5-3.3-2.1.6-1.1.5-.5-.5.9-2.4H127l-.4-.1v-.4l.4-.5.9-.9h-.2v-.1l-.5-.2-1.1-.6-1.7-.5-.8-.3-1.5-1-1.6-1-.1-.4 2.4-1 4.8-1 4.7.9 2.8 1 1.8 1.4 2.5-2 2.8-2 5.4-1.8 3.5-.8-2-2.6-4.7-4.9.2-.1-.5-.1-.3-.3-.7-.2-2.6-3-2.3-3.3-2-2.4-1.1-1-2.2-1.2-1.7-1-1.4 5.9-.9 1-1.2-.4-2.3-1.6-1.5-1-1.3 2.6-1.5 1.9-.7.3-1.4-1.4-1.3-1.5-.9-1.6-3.4 2.4-1.9 1.8-.7.2-1-1.3-.5-1-.6-2.7-3.4 1.8-1.7.5-1.3-1.4-.2-1.9.2-2.8-4.5.5-2 .3-.8-.2.1-3.6 1.3-1.9-4.6.4h-2v-1l.6-2.3 1.1-2.2 1.4-1.4-4-1-2-1-.7-.4-.1-1 1-1.5 1.7-2-2.4-1.8-2-1.7.3-1.1 1.7-1.7 1.7-1.3 1.2-.8-1.4-2.3-2-2.3-.6-1.1 1-.8 2.3-1.2 2.2-.3-1.6-2.5-.6-1.7-.1-1.2 1-.7 2.9-.8H94l1.5-.4-.9-2v-4.3l.8-.5h2.2l1.8.5.8-3 .4-1.8.3-.5 1.1.2 2.1.7 1.4.5 1.8 1.4.9-3.2.8-2.3.7-1.3 2.5.6 2.1 2.2 2.3-3 1-1 1.2.3 2 2.4 1.3 2 2.2-1.6 2.3-2.3 1.1-.6 1.2 1.3.8 2.5.5 1.8 3.2-2.6 1.6-.4.4.5.3.2v.4l.6 3-.1 1.5.2 1.6 2.7-1.2 2.5-.6 2.2 1.3-.7 2.2Zm-6.1-7.3 3.7 3-1.8.4-1.6.7V894.1l-.3-2.4Zm34.2 11.7-6.9-.8-7.4-1.6-8-2.4-4-2.4-1.6-1.6h-1.2l-5.4-4.4-.4-1.6-.9.3-4.3-5.3-3.8-7.3-6.4-6.6-4.5-5 3.7-.8 13.5 2 7.2 1.9 11.8 5.7 11.9 9 7.4 10.6 4.7 10.3h-5.4Zm69.1-25.2 3.6.5.2 2.4-.1.3-1.4-1.2-2 .9-2 3-.6 1.1-1.2-.7-2.4-2-.9-.3.2-.2.8-3 5.8-.8Zm5.1 18.4h-.5l-6.3.5-5.6 1.9-2.6 3.4-1.7-1.8 3.8-1.6.4-.1.4-3-1.6-1-1.3-1 2-2.1 1.6-1.5-1-1-.8-1.2-1.4-.1.2-1v-.3l1.7-3 .3-.6.8.3 2.4 2 2.2 1.2 1-2 1.9-2.7 1.1-.5 1 .8.1.2-1.8 4.2 3.8 1.3 2.8 2.1-1 2-3 4 1.1.6Zm-7.6 24.1h4.6l2.2-2.4-2-5v-1l3-.5 2.6-1.2-1-4.4-1.7-1.9 2.2-1.3 2.4-2.8-2-2.4 2 .1 3 1 6.2 4.4 2.7 5.6 1.3 4.5.4 5.2-2 4.4-2.9 4.8-3.4 3.1-4.2 2.6-6.4.3-7.1-1.7-4.8-3.7-1-1.2 4.8-.5 1.6-4.1-.5-2Zm11-20.5-1.6 2-3.2 1.9 2.3 2.6.7 3.3-1.7.8-3.7.7v2l1.9 4.6-1.5 1.6h-5.5l.8 2.9-1.3 3.2-4.8.5-2-2.4-.7-5.2-1.3-7.6H229.2l-1-1.9 1.2-3h1.1l2-1.6-1.2-1.4 2.4-3.3 5.2-1.8 6.2-.5 1.7.1 2.1 2.6Zm-27.4 9.4 1.1 4.4-.2 2.3-2.6-1-2.5-2.1-.5-.5h-.1l-1.2 3.9-.9 2.3-.4-.2-2.6-1.8-1.2-1.3.6-1 1.2-1 3.2-1-2-1.2-2-2-.4-1 1.2-.8 5-2.6-1.3-1.6-1.7-3.2v-1l1.5-.7 3.9-.4-.8-2-1-2.1 1-1.3 1.2-.2 2.4.2 2.7 1 .1-1.6-.2-1.6.2-2.9.2-1.4 2 .4 2 1.2v.3l-.3.4v.2l1.5.2 1.2.4.6.6.2.3-.7.9-3.3 2.9 2.7 1.7 1 .7-.3 1.8-2.2.7-2.9 1.2 1.8 1.8 1.2 1.3-.6 1-.5 1h-1.1l-3 .4h-.1l2.4 3.8-.4.7h-.7l-4.4-.6v.2Zm8.6-4.9.5-.7.4.4-1 .7h-.1l.2-.4Zm-3.7 1.8 1.9-.2-.8 1.9-1-1.7Zm-15 17.9-.4 1.2.9.4-.1.3-1.1 1.5-2.1 1.9-1.9-4.3-1.1-6.6.2-5 .9-4.1 2.2-5.8 3-5.3-1.8-.7-9.5-.5-5.8 2.3-6.2 4.3-2.4 4-3.2 58.5h-5l.3-55.7 1.7-7.5h-.3l1-7.9 1.7-12.8.3-7-.5-12.7.2-3.8-2.3-4.3-2.2 1.8-2 1.5-4 3.3-1.1-1.8-3.3-4.7-1.4-5.6-2.6 2-4.1 2.8-4.3 1.3-2.5-5-1.4-4-3.3 1.3-4.7.2-.4-1-.6-3.2v-3.6l1-4.9-2.9.7-5.8-.3-3.3-.8v-2.6l.8-3 3.3-4h-3.4l-4.8-1-2.1-1.8 1.1-2.7 2.4-4.2 2.3-4.4-3-1-5.8-3.3-1.3-2 1.8-3 5.2-4.2-2.6-2-3.7-2.4.3-3.4 1.6-1.7 4-2.2 4.5-1.2-1-2-2-2.2-2.5-4.8-1.2-2.8 3.9-1.7 6.5-.2-1-2.4-1.7-4.7.2-3.8 2.6-.5 5.5.6 4.1-.2-.4-3.9.2-6.2 1.5-2.2 2.4.4 6 1.6.5-5.3 2.9-4.1 2.6 1.1 3.6 2.3 4.2 3.5 1-3.7 1.2-2.4 2.1-3.4 1.4-2 1.2.5 2.6 2.3 4 3.1 1.7-2.5 3-2.7 1.8-.3 1.5 1.8 3.5 4.8.8 3.5 2-1.1 2.2-1.7 4.8-2.5 2.3-.1 1.4 2 1 3.4.4 5 3-1.9 4.5-1.1h2.4l.3 2.7v5.8l.6 4.6 2.1-.3 3.5-.1 4.4.3 1.8 1.8-.9 4.9-1.2 5 4 .8 3.4 1.1 1 1.8-.6 1.8-1.7 3.7-3.7 5.7 2.7.3 4 2 3.1 2.6 1.5 1.9-2.8 2.6-6 4.4 3 1 2 2.2 2.5 3.2-1.3 1.7-3 2-6.1 4.1 2.9 3.4 2 3.2-.3 4-3 1.5-6 1.3 1.7 4 .5 2.3.2 3.4-1.6.6-4.6-.4-6.6.5.5 3-.1 3.7-.5 4-1.5.5-4-1-4.4-2-.9 2.7-1.2 5.1-1.4 2.3-2.6-.5-8-6.7-.8 3-1.8 4-.4 3v5.8l.5 7.2-.2 7.8-.8 1.1V883.4l-1.2 13.2v5.3l5.1-2.6 9.3-3.6 6-.5h5.2l.9-4 2.5-4.7 5.6-7 7.4-4.4 4.7-1.5.4 1.5-1 3.3-1 3.2v.1h-.3l-1.6 2.1-.4 1.8-.2.3-.3 1-2-1.2-2-.4-1.3-.2-.3 2.4-.2 3 .2 1.6v.1l-1.5-.5-2.8-.2-1.7.3-1.6 2 1.3 2.7.2.7-2.7.2-2.3 1v2l1.9 3.5.6.7-4 2-1.8 1.2.8 2 2 2.3.4.1-1.2.4-1.5 1.3-1.2 1.8 1.9 1.9 2.7 2 .5.1v.1l-1 1.1-1.2 1.7-.7 1.7Zm.8.7v-.4l.7-1.5.1-.2-.8 2.1Zm2.7 4-.2 1.6-2.1-4 .1-.1 1.2.6 1.4.3-.4 1.5Zm4.8 5.6h-1.4l-1.3-1.2.7.2h2.6l-.6 1Zm1-2h-2.9l-2.2-.7.3-2.8.6-2.5-2.2-.4-1-.6 2-3.8.5-2.2.3-.3-.2-.1.5-2.2.9-2.6 1.7 1.5 4.3 1.7.4-3.7v-.1l-.8-3.1 1.7.2 1.2.1h.5l1.3 7.7.7 5.5 2 2.4-.4 4.6-1.2 1.4-2.6-.6-4-2-1.3 2.5Zm-9.3 27.2-2.2-1.4-3-2.5-3-3-3-3.4-2-3.7-1.4-4-.6-4.3.3-4.5-1-5-.7-3.1 1.6.6 5.7 5 2.8 3 4 6 2.9 7.6.4 7-.8 5.7Zm37.3 8.6 1.5 1.2-.5.9-3 1.8 1.6 2 .6 1.5-.8.4-2.9 1 .7 1.2.3 2-1 .4-2.4-.1.4 2-.5 1.6-.8-.2-2.1-.9-.7 1-.5 2.7-1 .2-2.7-1.8-.5 1.8-1.3.9-3-1.5-1.7 2.2-.8.2-1-1-1.3-2.3-2.5 1.4-.5-.3-.5-1.8.1-3.2 2.6-1.3 1.9-1.9 1-.7.2 1 1.7 2.3 1.5-1.7.5-1.5 1 .8 2 1.2v-2.9l1.3.7.4.2h1.8v-.1l-.6-2.8 2.2.5 1.3-1.5-.7-1.6 1.3-.3 1.4-.2-.2-1-.1-.9-.6-.4 2-1 .9-.5 1.2-1 2.8 1.3ZM231 952.3l5.3-1 1.6 1.2 2.8 1.3 4.2.1-1.5 1-2.3 1.1-2.7 1-2.9.6h-2.7l-3.1-.4-3-1.1-2-1.1 6.3-2.7Zm42.7-34.7 1.8 1.7 1.2 1.4v1l-.7.5-1.8 1.1-3.8 1.6 1.4 1.2 1.4 2 .6 2.1.1 1-1.8.4-4.6.1 1.4 1.7.5 3.5-.8.4-2-.1h-4.4l.5 2.7v2l-1.2 1.5-1.7-.2-3.5-1.4-.3 2.6-.4 1.1-.8 1.5-.8-.2-2-1.5-3.5-2-.7 1.8-1 1.6-1.4 1.5-.7-.2-1.5-1.6-1.6-2.4-1.4 1.1-2 1.9-1.2.5-.9-.9-1.9-5.6-1.5 1.2-2 1.3-1.2 1.3-1.6 2.6-1.9 3.4-2.3 3.4-.7.2-.2.3-.4.2.2.1-4.2 5.4-1.7 2.8 3.4.3 5.4 1.2 3 1.6 2.6 1.6 1.6-1.5 2.5-1.4 4.6-1.4 4.7.2 2.4.7-.1.5-1.5 1.1-1.3 1.2-.8.4-1.6.8-1 .7-.5.2-.1.2.9.7.4.5v.4l-3 .4.9 1.9.2.4-.5.5-1-.3-2.1-.3.7 3.2h-.4l-3-1.6v2.9l-.3-.3-2.1-1.8v.1l-.9 2.6-.6.7-.7-1-.6-1.7-.1-.7h-.1l-2 1.6-4.5 3.2-.9.3-1.2.2.3-2.2 1.4-3.2 1.5-2.2 1.6-1.5 2.6-2 3.2-1.5-.8-1.1-4.3-3.2-3.6-.7H217l-2.4 1.1-1.9 2.2-3.1-2 .7-1 3.2-3-.1-.1 7-8.3 2.2-3 3.5-6 1.2-1.7.2-3-3.2.3-2.6.3v-1l-.2-3 1.1-3.2h-.7l.6-1.1 3.1 1.6 3.4.8 1.8-2.1.3-4 1.2 1.4 4.9 3.8 7.6 1.9 6.7-.3 4.6-2.8 3.5-3.3 3-5 2.1-4.6-.3-5.5-1.4-4.8-2.8-5.9-6.5-4.6-3.3-1-3.2-.3-.4-.6-1-.5 2.4-3.2 1.5-2.7-3.6-2.7-3-1 1.2-2.8 1.6 1.7 1.9-2.4 2.3-.9.8 1.2 1 2 1.1 3.2 1.7-1.6 1.3-.6 2-1 1-.3.4.4.5 1.8 1 2.8 1.8-.7 2-.3.9.4.1 1 .2 3.3-.7 2 1.6.2 1.5-.2 3 .4 1 .5v1.2l-.5 1.8-1.4 2.6h2.2l2.4 1 1 .6-.5 1-1.8 2.7-1.1 2.4 1.2.6 1.7 1 2 1.5.2 1.1-1.7 1.8-2.2 2ZM139.5 570.3l1.4 1.6 1.1.7-.7.8-.7 2.6 1.6.7 1.7.3v.3l-1.2 2.8 1.4 1.4h2.5l-.3.8 1 2.4 3.3.3.2 2.3 1.2 1.3 2-.5 1.7-.8 1.3 2.3 1.6-.1 1.8-1.5 1.6-2.6.2.2 2 1.7 1.6-3.2.7-3.8-.2-3-.5-2.2-1.4-3.2-1.2-2 5.3-.3 3.1 1.1 3.5 2.2 1.1 1.9.5 3.4h5.9l-.3-2.4-.7-3h4.2l4-.4 4.4-1 4.7-1.3 4-2.1 3.6-2.6 3.2-3.5 2.2-4 3.7-3.4 3.6-3.7-3.8-.7-8 1-4.3 1.2-7 3.1-7 4.8-4.6 6-2.7 5.5-.3-.1-1.5-10.7-.2-3.7.3-6.9-.1-1.8.8-1.3 1.8 1.2 3 2.3 1-1.6 2-2.6.6-2.1 3 2 3.3.9 1.8-3.3.5-1.5 1.2.5 3.6.2.4-1.3.4-1.8v-2l-.4-1.5.6.1 3.6-.2 2.6-.5v-2.2l-.5-1.8-.9-1h.3l3-.6 2-1.4-1-2-2.3-3.9.8-.2 3.7-2 1.2-1.6-1.4-2-2.3-1.8.6-.4 2.5-1.6-.2-2.6-1.2-1-2.5-1.4-1.7-.4 1-1.3 1.7-2.8 1-2.2-3-1.2-2.9-.1 1.2-3-.2-2.8-2.2-.3-3.2.3h-1.6l.1-1.5v-3.5l-1.3-1.8-2 .3-2.6.7-.2-2.2-2.2-2.9-2.2 1-2.2 1.2-1.5 1.2-.2-.9-.8-1.5-1.3-1.9-1.2-1.4-1.3.4-1.7 1.3-1.6 1.2-.6-.7-2-1.7-1.7-.3-1.2 1.3-2 2.7-.4 1.1-1.5-1-3-1.4-2-.1-1 1.5-.7 2-.2 1.5-.6-.3-3-.7h-2.1l-.3 2.2v3l-.2 1.7-2.7-.1-2.9.2-1.5 1.4.6 3 .5 2-1.6.3-2.2.6-1 1.5.5 1.4 1 2.1 1.5 2h-.3l-2.6 1.1-2 1.5-1.4 1.7 2.3 2 2.1 1.4-.4.2-3.1 3.5 1 1.4 2 1.2 2.8 1.8-1.1 1.2-1.3 2 .2 2.8 2.2 1 2.7.6-.7 1.2-.3 1.5-.1 2.4 1.6.6 2.7-.3 3 .3-.1.8v2.1l.4 2.7 1.6.4 2.7-.6 1.7-.7 1 3.3 1.2 1.9 2.2-.4 3.8-3 .3.6 1 2 .2 1.4v3l-.3 4v2.2l-2.6-3.5-.8-.8-.6-.8-.2.2-3.7-3.4-2.4.1-3-.4-3.8-2.3-2-.3 1.7 3.7 1.4 2.1 2 2.5 2.3 2.1 2.6 1.6 3 1.3 3.4.7 3.3.3.6 6.9v1.7l-1.9-1-5.4-1.9-3.8-.3H162l-.3-1.5-1.7-2.9-3.3-3.8-4.5-2.5-3.6-1-.6 1.7.5 1.3-3-.4-2.8.3-.2 2.2 1.1 2.3-1.4.4-2.4 1.7 1 1.7 1.2 1.4h-.2l-2.3 2.5Zm46-3.6 4.2-5.7 6.8-4.7 6.9-3 4.2-1.1 7.8-1 1.8.3-2.3 2.3-3.8 3.5-2.2 4-3 3.3-3.4 2.6-3.9 2-4.6 1.3-4.3.9-4 .4H183l2.5-5Zm-13.9-6.5-3.2-.6-2.9-1.3-2.4-1.5-2.2-2-1.9-2.4-1.3-2-.8-1.8 3.6 2 3.3.6 2.1-.1 4.1 3.6 4 5.7-2.4-.2Zm-22.4-3.8 2.5.7 4.3 2.4 3.1 3.6 1.5 2.5.6 2.3h3.1l3.5.3 5.4 1.8 3.2 1.6v-3.3l-.6-6.7h.3l-.3-.4v-.4l-.5-.5-.1-4 .3-4v-3.1l-.2-1.6-1.1-2.2-.6-2-4.8 3.8-1.4.2-.7-1-.7-2.7-.6-1.7-2.6 1.2-2.4.5-.7-.2-.3-2v-2l.3-1.8-4.2-.3-2.5.3-.8-.3.1-1.6.3-1.2 1.2-2.4-3.9-.8-1.5-.7-.2-1.9 1-1.6 2-2-3.8-2.5-1.8-1-.5-.7 2.4-2.7 2.2-.6-3.9-2.6-1.5-1.3.7-.8 1.8-1.4 2.3-1 2-.2-2.5-3.3-1-2-.3-.8.5-.8 1.9-.6 2.5-.5-.7-2.9-.5-2.5.9-.8 2.4-.1h2l1.5.2.4-2.8v-3l.1-1.2h1.2l2.7.6 2 1 .2-2.9.6-1.7.6-1h1.3l2.7 1.3 1.3 1 1.4.7.5-2 2-2.6.8-1 1 .2 1.6 1.4 1.1 1.5 2.5-1.8 1.4-1.2.6-.2.7 1 1.2 1.8.7 1.2.7 2.3 2.6-2 2-1.3 1.5-.5 1.6 2 .2 3 3.7-.9 1.3-.2.8 1 .1 3.2-.3 2.4 2.8.1 3.1-.3 1.3.2.1 1.8-1 2.4-.7 1.7h4.1l2 .9-.6 1.2-1.4 2.5-1 1.2-1 1.4 3 .7 2.2 1.2.9.8.1 1.6-2 1.2-1.8 1.3 3.2 2.4 1 1.4-.6.9-3.4 1.8-2 .5 3 4.9.5 1.3-1 .7-2.8.6h-2.4l2.2 2.4.5 1.6v1.1l-1.8.4-3.4.2-2-.4.7 2.8v2l-.3 1.5-.1.5h-2.6l-2.1-.9-.9 2.3-1.4 2.6-2.3-.6-2.4-1.5-1.7-1.3-.9 3.3-1.9 2.5-.5.8-4.8-3.6-1.5 2.6.1 2-.3 7 .2 3.7 1 6.8.5 4h-.1l1 4.2.1 1.2h-3.9l-.4-2.7-1.3-2.2-3.7-2.4-3.5-1.3-5.5.2-1.4.6 1.8 3 1.3 3 .5 2.1.1 2.8-.6 3.4-1 2-1-.7-.6-.9-2.1-5-.8-2.5-2 1.6-1.3.4v-.9l.7-2.6-2.8.3h-.6l1.7-2.4-3.5-.3-.3-.2 2.4-2.3-2-.8-1.1-.4-.1-.6 2.2-1.4-2.1-1.7-.3-.3.3-.3.6-.2 1.2-.1v-.2l-.3-.5-.5-1.2-1-1.4-.5-.8-.5-1.7-.6-1.7.2-.5Zm-7.6 9.4-.5-.8 1.4-1 2.5-.8-1.5-3.2v-1l2-.2 3.2.4.4 1.4.6 1 1.2 2h-.8l-.5.7-.8.7 1.1 1 1 1-1.6.9.3 1.9 2.2.8-2 2 1.4 1.1 2 .1-1.6 2.5h3.8l-.4 1.3.3 2.4 2.6-1 1-.7.3 1 .7 2.6 1.5 2.6-1.6 2.8-1.5 1.2h-.7l-1.4-2.5-2.4 1.1-1.4.4-.6-.7-.3-2.7-3.4-.3-.6-1.6.5-1.7h-3.4l-.7-.7 1-2.4v-1.3l-2.3-.4-.8-.3.4-1.5 1.5-1.6-2.1-1.2-.8-.8 1.5-1.6 1.2-.6-1.9-2.3Zm1616.6 192.3 3.3-3 3-4.7 2-4.5-.4-5.1-1.3-4.5-2.7-5.5-6.2-4.4-3.3-1-5.2-.4-6 .5-5.5 1.8-3.7 4.9-2.8 6.3 1.2 7.5.7 5.1 3.9 4.5 4.7 3.7 7.4 1.7 6.5-.2 4.4-2.7Zm-10.9 1.9-6.8-1.6-4.6-3.5-3.6-4.2-.7-4.9-1.2-7.2 2.6-5.9 3.5-4.6 5-1.6 6-.5 4.9.4 3 .9 5.9 4.1 2.6 5.2 1.2 4.3.4 4.8-2 4.2-2.7 4.4-3.2 3-4.1 2.4-6.1.3Zm-595 10.5 5.6-5.2 4.7-7.8 3.4-7.5-.5-8.6-2.3-7.6-4.4-9.3-10.3-7.3-5.2-1.7-8.6-.6-10 .7-9 3-6 8.2-4.7 10.7 2 12.6 1.2 8.6 6.4 7.6 7.9 6.2 12 2.8 10.7-.4 7.1-4.4Zm-17.8 3.8-11.5-2.7-7.7-6-6.1-7.3-1.2-8.3-2-12.4 4.5-10.2 5.9-7.9 8.4-2.9 10-.8 8.2.6 5 1.7 10 7 4.3 9 2.2 7.4.5 8.3-3.2 7.2-4.6 7.6-5.5 5.1-6.9 4.3-10.3.3Zm-726.2 29 5.7-5.3 4.7-7.8 3.3-7.4-.5-8.7-2.3-7.5-4.4-9.3-10.3-7.3-5.2-1.7-8.6-.7-10 .8-9 3-6 8.2-4.7 10.6 2 12.7 1.2 8.6 6.4 7.6 7.9 6.1 12 3 10.6-.5 7.2-4.4Zm-17.8 3.8-11.5-2.7-7.7-6-6.1-7.3-1.1-8.4-2-12.3 4.4-10.2 5.9-8 8.4-2.8 10-.8 8.2.6 5 1.6 10 7.1 4.3 9 2.2 7.3.5 8.4-3.2 7.2-4.6 7.6-5.5 5-6.8 4.3-10.3.4Zm143.8 154.4 5.7-5.2 4.7-7.8 3.3-7.5-.5-8.7-2.3-7.5-4.4-9.3-10.3-7.3-5.2-1.7-8.6-.7-10 .8-9 3-6 8.2-4.7 10.6 2 12.7 1.2 8.6 6.4 7.6 7.9 6.2 12 2.8 10.6-.4 7.2-4.4Zm-17.8 3.8-11.5-2.7-7.7-6-6.1-7.3-1.2-8.3-2-12.4 4.5-10.2 5.9-7.9 8.4-2.9 10-.8 8.2.6 5 1.7 10 7 4.3 9 2.2 7.4.5 8.3-3.2 7.2-4.6 7.6-5.5 5.1-6.9 4.2-10.3.4Zm94-60 3.6-3.4 3-5 2.2-4.8-.4-5.6-1.4-4.9-2.8-6-6.6-4.7-3.3-1-5.5-.5-6.4.5-5.7 2-4 5.2-3 6.9 1.4 8.1.7 5.6 4.1 4.9 5 4 7.7 1.8 6.8-.3 4.6-2.8Zm-11.3 2.1-7.3-1.7-4.8-3.8-3.8-4.6-.7-5.3-1.3-7.8 2.8-6.5 3.7-5 5.2-1.8 6.3-.5 5.2.4 3.1 1 6.3 4.5 2.7 5.7 1.3 4.6.4 5.3-2 4.5-3 4.9-3.4 3.2-4.3 2.7-6.4.2Zm126.3 34.3-3.8-7.8-8.6-6-4.4-1.5-7.3-.5-8.4.6-7.6 2.6-5.1 6.8-4 8.9 1.8 10.5 1 7.3 5.4 6.3 6.6 5.1 10 2.4h.1l9-.3 6-3.7 4.8-4.4 4-6.5 2.9-6.2-.5-7.3-1.9-6.3Zm-1.4 19.3-3.8 6.4-4.6 4.2-5.8 3.5-8.6.3-9.7-2.2-6.4-5-5.2-6-1-7-1.6-10.3 3.7-8.5 5-6.5 7-2.4 8.3-.7 7 .6 4.2 1.3 8.3 5.9 3.7 7.5 1.8 6 .4 7-2.7 6Zm84.3-66.7 2.1-2 1.8-3 1.3-3-.2-3.3-.9-3-1.6-3.6-3.9-2.8-2-.7-3.2-.2-3.7.3-3.5 1.2-2.3 3.1-1.7 4.2.7 4.9.5 3.3 2.4 3 2.9 2.3 4.5 1.2 4.1-.2 2.7-1.7Zm-6.6.9-4.2-1-2.7-2.2-2.2-2.7-.4-3-.7-4.7 1.6-3.7 2-3 3-1 3.6-.3 3 .3 1.7.6 3.6 2.6 1.5 3.3.8 2.7.2 3-1.2 2.7-1.6 2.8-2 1.9-2.4 1.5-3.6.2Zm-602.6-69.9 5.6-5.3 4.7-7.8 3.4-7.4-.5-8.7-2.3-7.5-4.4-9.3-10.3-7.3-5.2-1.7-8.6-.7-10 .8-9 3-6 8.2-4.7 10.6 2 12.7 1.2 8.6 6.4 7.6 7.8 6.1 12 3 10.7-.5 7.2-4.4Zm-17.8 3.8-11.5-2.7-7.7-6-6.1-7.3-1.2-8.4-2-12.3 4.5-10.2 5.9-8 8.4-2.8 10-.8 8.2.6 5 1.6 10 7.1 4.3 9 2.2 7.3.5 8.4-3.2 7.2-4.6 7.6-5.5 5-6.9 4.3-10.3.4Zm2.8-296.3 3.8-2.3 3-2.8 2.4-4.1 1.8-4-.3-4.5-1.2-4-2.3-5-5.4-3.8-2.8-1-4.5-.3-5.2.4-4.7 1.6-3.2 4.4-2.5 5.6 1.1 6.7.6 4.5 3.4 4 4 3.3 6.4 1.5 5.6-.2Zm-15.3-5.2-3.1-3.8-.6-4.3-1-6.4 2.3-5.2 3-4 4.2-1.5 5-.4 4.3.3 2.5.9 5 3.6 2.3 4.6 1 3.8.4 4.3-1.7 3.6-2.3 4-2.8 2.6-3.5 2.1-5.2.2-5.9-1.4-3.9-3Zm304.6-122.8 5.4-5 4.4-7.7 3.3-7.3-.6-8.4-2.1-7.4-4.3-9-9.7-7.1-5-1.7-8.1-.7-9.6.8-8.5 3-5.7 8-4.5 10.3 2 12.3 1 8.4 6.2 7.4 7.4 6 11.3 2.8h.1l10.2-.4 6.8-4.2Zm-16.9 3.7-11-2.6-7.2-5.8-5.9-7.2-1-8.1-2-12 4.3-10 5.6-7.7 8-2.8 9.4-.8 7.8.6 4.8 1.6 9.4 7 4.2 8.7 2 7.1.5 8.2-3 7-4.4 7.4-5.2 5-6.5 4-9.8.4Zm203.8 192.7 4.6 5.7 5.5 4.7 8.6 2.2 7.6-.3 5.2-3.3 4-4 3.3-6 2.4-5.6-.4-6.6-1.5-5.7-3.2-7.1-7.3-5.6-3.8-1.3-6-.5-7.2.6-6.4 2.3-4.3 6.3-3.4 8 1.5 9.6.8 6.6Zm2-23.7 4-6 6-2.1 7-.6 5.8.5 3.5 1.2 7 5.3 3 6.8 1.6 5.5.3 6.3-2.3 5.4-3.2 5.7-3.8 3.9-4.9 3.1-7.2.3-8.1-2-5.4-4.5-4.3-5.5-.8-6.3-1.4-9.3 3.1-7.7Zm59.8-132.9 4.4 6.7 5.5 5.5 8.2 2.4 7.4-.3 5-4 3.8-4.5 3.2-6.9 2.4-6.5-.4-7.6-1.5-6.5-3.1-8.2-7-6.3-3.7-1.6-6-.6-6.8.7-6.2 2.7-4.2 7.3-3.1 9.2 1.4 11 .7 7.5Zm1.9-27.3 4-6.9 5.7-2.5 6.7-.7 5.6.6 3.4 1.4 6.7 6.1 3 7.9 1.5 6.3.3 7.4-2.2 6.3-3.1 6.6-3.7 4.4-4.7 3.7-7 .3-7.7-2.3-5.2-5.2-4.2-6.4-.8-7.3-1.4-10.8 3-8.9Zm77.5 132.8 2.7 3.7 3.3 3 5 1.4 4.5-.2 3-2.1 2.4-2.6 2-3.8 1.3-3.6-.2-4.2-1-3.6-1.8-4.5-4.2-3.5-2.2-.9-3.7-.3-4 .4-4 1.5-2.4 4-2 5.1.8 6 .5 4.2Zm1.5-14.9 2.4-3.6 3.3-1.3 4-.4 3.3.3 2 .7 3.9 3.3 1.7 4.2.9 3.4.2 4-1.3 3.3-1.8 3.6-2.2 2.4-2.7 1.9-4 .2-4.7-1.3-3-2.7-2.5-3.5-.4-3.9-.8-5.8 1.8-4.8ZM130.8 915.7l-1.9-4-4.3-3.2-2.3-.8-3.6-.3-4.2.3-4 1.4-2.5 3.6-2 4.6.9 5.5.4 3.8 2.8 3.3 3.3 2.7 5 1.3h.1l4.6-.2 3-1.9 2.5-2.3 2-3.4 1.4-3.3-.2-3.8-1-3.3Zm-1.1 10-1.9 3.1-2.2 2.2-2.8 1.7-4.2.2-4.7-1.1-3-2.5-2.6-3.1-.4-3.5-.9-5.2 1.8-4.3 2.4-3.3 3.4-1.2 4-.3 3.5.3 2 .6 4 3 1.8 3.8.9 3 .2 3.5-1.3 3Zm1139.6-46.5 4.3-3.9 3.6-6 2.6-5.6-.4-6.7-1.7-5.7-3.5-7.1-7.9-5.5-4-1.4-6.6-.5-7.8.6-6.9 2.4-4.7 6.2-3.6 8 1.6 9.7.9 6.6 5 5.8 6 4.7 9.2 2.1 8.3-.3 5.6-3.4Zm-13.8 2.8-8.8-2.1-5.8-4.5-4.8-5.5-.8-6.3-1.5-9.4 3.4-7.6 4.4-6 6.5-2.2 7.6-.5 6.3.4 3.8 1.2 7.7 5.4 3.3 6.8 1.6 5.5.4 6.3-2.5 5.4-3.5 5.7-4.1 3.9-5.3 3.2-7.9.3Zm349-737.1-4.7-9.1-10.8-7.1-5.5-1.7-9-.6-10.5.7-9.3 3-6.4 8-4.9 10.3 2.1 12.3 1.3 8.5 6.7 7.4 8.2 6 12.6 2.8 11.2-.5 7.6-4.3 5.8-5 5-7.7 3.5-7.2-.6-8.5-2.3-7.3Zm-1.5 22.5-4.8 7.5-5.7 5-7.3 4-10.8.4-12.2-2.6-8-5.8-6.5-7.2-1.2-8.1-2-12 4.6-10 6.2-7.6 8.9-2.9 10.4-.7 8.7.6 5.3 1.5 10.4 7 4.6 8.7 2.2 7.1.6 8.2-3.4 7ZM1483.8 198l-2-4-4.6-3.3-2.4-.8-4-.2-4.4.3-4.1 1.4-2.8 3.6-2.1 4.7.9 5.6.5 3.8 3 3.4 3.5 2.7 5.5 1.3 4.8-.2 3.4-2 2.4-2.3 2.2-3.5 1.5-3.2-.2-3.9-1-3.4Zm-1 10-2.1 3.3-2.4 2.2-3 1.8-4.5.2-5-1.2-3.3-2.5-2.7-3.1-.5-3.6-.9-5.2 2-4.4 2.5-3.3 3.6-1.2 4.4-.3 3.6.2 2.2.7 4.4 3 1.8 3.8 1 3.1.2 3.6-1.4 3ZM1197 171.5l2.4-2.2 2.2-3.5 1.5-3.3-.2-3.8-1-3.4-2-4.1-4.7-3.2-2.4-.8-4-.3-4.4.4-4.1 1.3-2.8 3.6-2.1 4.8.9 5.5.5 3.8 3 3.4 3.5 2.7 5.5 1.3 4.8-.2 3.4-2Zm-8.2 1.2-5-1.2-3.3-2.5-2.7-3-.5-3.6-.9-5.3 2-4.3 2.5-3.3 3.6-1.3 4.4-.3 3.6.3 2.2.6 4.4 3 1.8 3.9 1 3 .2 3.6-1.4 3-2 3.3-2.4 2.1-3 1.8-4.5.2Z"/></svg>