<?xml version='1.0' encoding='utf-8'?>
<svg xmlns="http://www.w3.org/2000/svg" id="Tulipe" viewBox="0 0 1920 1080">
  <path d="M1529.64,211.92c-8.05-1.61-24.08-6.64-24.92,5.45.45,4.23,2.71,9.5,5.62,12.62-.95,1.21-.65,2.86.29,3.98-6.18,5.65-6.36-2.61-10.99-6.64-4.32-1.13-7.87-7.21-9.17-11.1.32-2.38,2.8-4.71,4.95-5.53,4.49-4.39,2.53-12.8,3.72-17.26-6.25-4.28-30.03-4.5-27.21,8.04,2.47,5.88,5.49,12.75,12.53,13.72,3.79.63,4.32,8.01,6.48,11.33,2.88,1.66,6.99,4.62,8.83,7.43,5.99,6.71-7.03,44.74,4.51,41.92.72-5.68-4.72-27.87,5.34-24.16,2.16-2.03,10.06-4.11,6.54-8.33-2.52,1.55-8.15,6.66-11.45,4.46-.92-5.99,5.32-8.13,10.14-10.88,1.25-2.33.28-4.31,4.15-3.67,4.35-.47,8.58-9.7,10.93-14.05-.1-.9-1.83-7-.29-7.35ZM1495.27,194.04c-3.32,4.81-20.08,3.66-20.32,9.08-6.29-10.32,14.12-12.1,20.32-9.08ZM1483.58,208.88c-.07,3.01-.45,4.33-3.41,2.55-10.29-10.94-1.06-7.3,6.94-11.86,1.08,3.06-1.59,7.18-3.53,9.31ZM1489,214.4c-2.93-.47-4.72-1.4-3.29-4.64,6.78-5.87-.14-11.05,7.42-11.38,7.54-7.56,3.34,12.69-2.95,13.13.01-.14-1.28,3.42-1.18,2.89ZM1518.4,211.12c6.86,2.34,9.22,2.25,1.64,6.86-7.54-3.84-16.55-6.02-1.64-6.86ZM1497.02,228.13c1.6.61,2.69,2.15,3.69,3.84-1-1.45-2.23-2.76-3.69-3.84ZM1501.69,273.92c.02-1,.06-4.39.12-5.86.08,1.53.84,6.5-.12,5.86ZM1502.45,254.39l.29-6.24c.63,1-.11,5.08-.29,6.24ZM1513.09,233.01c2.45,4.37-8.7,4.81-10.06,11.16.83-3.43.4-6.93-1.04-9.99,2.12,3.57,4.58,6.29,11.34.56-.99-1.39-2.02-3.51-.7-5.04-3.12-2.79-10.47-17.43-1.73-13.87,11.6,5.73,4.16,3.38-2.05,6.34-.33,3.57,4.22.38,5.75.39,7.75,15.6-1.09,4.93-1.51,10.45ZM1523.05,227.61c-4.49,6.42-4.5-3.24-6.52-5.63,3.24-.76,8.28-4.6,10.65-6.82,1.85,4.19-2.27,8.93-4.13,12.44Z M164.77,520.72c3.16,9.45,6.93,9.65,12.8,16.18,3.78,10.6-1.21,30.66-.11,41.99,0,0,4.63-.07,4.63-.07-.66-6.19-.94-18.84.65-24.82,3.65,2.01,9.49-2.18,12.3-4.14-.05-9.19-11.18,7.99-12.95-1.05.99-1.45,3.92-6.46,5.9-6.61,4.7.3,4.65-6.91,8.81-5.95.19,1.46,2.4-1.59,3-1.91,5.87-4.59,12.91-20.83,2.14-20.3-6.36-3.28-19.55-2.57-19.42,6.27-.57,5.36,6.37,10.85,4.79,14.57,2.5,3.6-5.75,6.94-6.09-.24-4.01-5-11.52-8.48-12.95-15.47.31-2.38,2.8-4.71,4.95-5.53,4.49-4.39,2.53-12.8,3.72-17.26-7.75-5.48-35.76-2.94-25.12,12.3,1.99,10.03,12.62,7.32,12.95,12.04ZM179.48,576.86c.02-1,.06-4.39.12-5.85.08,1.53.83,6.5-.12,5.85ZM180.31,556.76c.09-1.98-.02-8.33.53-4.21.16-.09-.34,2.93-.53,4.21ZM204.97,518.11c1.85,4.19-2.27,8.93-4.13,12.44-4.48,6.42-4.5-3.24-6.52-5.62,3.24-.76,8.28-4.6,10.65-6.82ZM196.19,514.06c6.86,2.34,9.22,2.25,1.64,6.86-7.54-3.85-16.55-6.02-1.64-6.86ZM185.16,517.72c9.64,3.96,14.07,4.41,1.48,7.39-.33,3.57,4.22.39,5.75.39,1.02,5.03,7.6,10.05-2.06,9.07-1.17-4.53-7.2-10.37-5.17-16.85ZM182.88,541.56c6.61-1.57,8.1-3.83,7.55-6.59,3.12,4.34-2.43,4.85-5.84,6.65-.58-.09-4.98,9.26-3.57,3.6,1.18-5.68-2.3-11.49-6.91-14.61,4.45,1.3,6.09,9.06,8.77,10.95ZM157.96,514.37c-10.29-10.94-1.06-7.3,6.94-11.86,1.08,3.06-1.59,7.18-3.53,9.31-.07,3-.45,4.33-3.41,2.55ZM172.76,499.81c3.68-3.25,1.43,7.26.94,9.09-1.08,3.72-6.35,4.69-6.91,8.55-9.7-1.45,2.96-8.85.16-14.31-.38-2.15,4.94-1.17,5.81-3.34ZM162.95,495.68c22.99.44-3.68,6.26-10.62,8.64,0,0,.41,1.75.41,1.75-5.21-6.85,5.06-9.72,10.21-10.38Z M828.85,881.41c-8.03-1.6-24.06-6.66-24.93,5.45.45,4.23,2.71,9.5,5.62,12.62-.95,1.21-.65,2.86.29,3.98-6.1,5.63-6.4-2.59-10.99-6.64-4.32-1.13-7.87-7.21-9.17-11.1.32-2.38,2.8-4.71,4.95-5.53,4.49-4.39,2.53-12.8,3.72-17.26-6.27-4.28-30.02-4.5-27.21,8.04,2.47,5.88,5.5,12.76,12.53,13.72,3.79.63,4.31,8.01,6.47,11.33,2.88,1.66,6.99,4.63,8.83,7.43,5.99,6.71-7.03,44.74,4.51,41.92.72-5.68-4.72-27.87,5.34-24.16,2.16-2.03,10.05-4.11,6.54-8.33-2.52,1.55-8.15,6.66-11.45,4.46-.99-5.95,5.46-8.21,10.14-10.88,1.25-2.33.28-4.31,4.15-3.67,4.35-.47,8.58-9.7,10.93-14.04-.1-.9-1.84-7-.29-7.35ZM794.47,863.54c-3.32,4.81-20.07,3.65-20.32,9.08-6.28-10.32,14.12-12.1,20.32-9.08ZM779.38,880.92c-2.63-1.49-3.86-5.7-5.16-8.18,4.5,1.14,13.96-7.89,12.26.56-4.78,4.05-2.44,10.64-7.1,7.62ZM788.21,883.89c-2.93-.47-4.72-1.4-3.29-4.64,6.9-6.07-.23-11,7.42-11.38,7.54-7.56,3.34,12.69-2.95,13.13.01-.15-1.28,3.43-1.18,2.89ZM817.6,880.61c6.86,2.34,9.22,2.25,1.65,6.86-7.54-3.84-16.55-6.02-1.65-6.86ZM796.23,897.62c1.54.61,2.62,2.09,3.61,3.72-.98-1.41-2.19-2.67-3.61-3.72ZM800.9,943.41c.02-1,.06-4.39.12-5.85.08,1.53.84,6.5-.12,5.85ZM801.72,923.31c.09-1.98-.02-8.33.53-4.21.16-.09-.34,2.93-.53,4.21ZM812.3,902.5c2.45,4.37-8.7,4.81-10.06,11.16.85-3.5.37-7.05-1.12-10.15,2.18,3.64,4.67,6.52,11.42.73-.99-1.39-2.01-3.51-.7-5.04-3.13-2.79-10.47-17.43-1.73-13.87,11.61,5.73,4.15,3.38-2.05,6.34-.33,3.57,4.22.38,5.75.39,7.75,15.6-1.09,4.92-1.51,10.45ZM822.26,897.11c-4.48,6.42-4.5-3.25-6.52-5.63,3.24-.76,8.28-4.6,10.65-6.82,1.85,4.19-2.27,8.93-4.13,12.44Z M1834.93,581.1c-8.09-8.11-26.99-5.88-35.06,1.4-.97,10-.18,25,12.91,24.1-2.04,18.99-23.32,37.51-35.18,51.03-3.41,9.07-5.63-15.95-9.64-19.54,19.17-6.5,15.91-33.41,4.99-46.88-13.33-5.52-29.93,8.51-41.49,14.28-2.06,8.23,3.59,16.16,6.83,23.39,3.17,10.13,15.74,15.42,25.24,11.12,6.64,12.42,11.17,31.77,18.39,44.01,0,0-.96,27.14-.96,27.14-1.86,16.97-14.95,44.58-26.73,56.92-1.61-6.08-1.92-14.42-2.06-20.69-.38-13.41,13.01-9.75,20.16-22.34,7.31-11.57,8.59-51.94-12.57-46.68-13.44,1.41-39.53,3.26-43.7,18.34,3.84,16.77,11.71,40.54,32.51,41.68-1.72,9.81-2.75,23.55.09,33.24.87,4.31,10.12,27.9,3.6,15.91-4.98-6-12.15-11.8-18.4-16.26,1.53-11.47-11.86-23.89-22.9-20.71-6.02,5.71-9.26,16.75-9.45,24.84,10.46,5.75,19.03,8.9,29.25,1.14,9.7.56,19.49,15.43,23.85,24.4,1.22,5.09-1.17,11.22-2.44,16.08,2.97,2.39,2.85-4.67,3.72-5.88,4.28-11.07-5.21-21.68-12.12-29.34,5.19,3.26,10.11,12.46,12.82,17.75,1.24-6.02-.66-13.87-3.25-19.31-10.36-21.69,3.88-47.66-9.41-68.21,2.92-16.06,26.57-51.14,30.7-15.9,2.41,24.65-3.77,31.11-22.66,42.77-2.93,6.43-1.46,15.49-1.06,22.31.03,11.88,3.02,11.35,6.93,6.48-2.01,3.03-3.53,5.37-4.02,6.2,3.07,6.76,6.74,15.81,7.05,23.25,0,0,8.86-7.99,8.86-7.99,5.81-5.91,9.55-13.98,10.2-22.27-.05,2.83-.18,5.74-.33,7.61-3.13,8.93-11,17.82-18.36,24.05.19,4.11-1.95,14.32-2.77,18.39,3.49,3.2,3.43-11.43,4.4-12.18,1.39-12.89,21.46-19.56,19.15-37.88.07-9.52-2.32-20.66,1.9-29.62.44-6.64,5.93-13.39,6.12-20.1-3.26,2.22-7.26,8.78-8.77,12.36-8.19,15.77,1.92,36.82-7.92,51.7-2.25,3.36-7.58,9.37-10.85,11.78.1-1.71-.7-4.39-1.68-5.77-13.78-27.18,26.92-27.17,25.18-103.84-.83-3.92-5.96-13.66-7.58-17.42,8.96-9.74,24.33-26.36,32.55-36.83,1.29-5,5.24-16.95,6.96-21.91,13.29.91,20.67-14.64,16.98-26.1ZM1738.79,777.85c-6.04-6.56-10.57-3.11-16.73,1.43-6.07,1.25-13.21-2.62-18.49-5.17-.54-1.79,2.63-11.76,3.02-13.64,1.91-3.65,5.45-11.26,10.59-8.04,8.77,2.12,16.07,10.44,14.73,19.73,2.65,1.81,14.9,11.83,6.89,5.69ZM1748.5,736.36c-13.87,1.01-35.2-27.94-25.99-37.45,16.74,3.44,25.68,21.38,25.99,37.45ZM1742.38,709.33c-18.09-17.96-25.53-8.14,3.43-22.63,20.51-5.92.24,2.67-3.43,22.63ZM1756.11,682.18c-13.26,1.68-26.25,9.93-37.05,15.78-4.42-7.22,11.84-11.06,16.03-13.42,3.54-2.58,36.4-6.05,21.02-2.36ZM1785.8,725.1c-2.52,5.62-4.9,13.41-6.01,19.38-.27-5.82,3.2-14.41,6.01-19.38ZM1763.44,759.29c4.07-6.74,8.13-14.15,10.44-15.41-1.24,1.73-5.91,8.63-10.44,15.41ZM1738.87,603.2c8.96-3.64,22.72-14.8,32.75-10.4,8,10.08,13.37,32.25.82,40.35-5.71-9.17-6.95-21.83-5.91-32.35.05-1.33,6.15-7.82,2.12-8-.74,4.34-7.54,4.82-10.86,5.31-8.58,2.18-17.99,9.36-24.33,15.33-1.88-4.56,1.23-8.65,5.41-10.23ZM1764.08,613.85c-7.07,5.1-18.85,1.1-26.38-1.17,2.69-2.45,9.52-7.37,12.56-9.49,16.5-6.68,14.46-5.74,13.81,10.66ZM1755.91,639.89c-13.23-.73-16.8-14.37-21.79-24.25,1.29-2.8,5.71.59,7.42,1.11,6.65.79,16.95,3.57,22.92-.71.52,4.74,2.63,14.45,5.66,18.25-9.39,2.45,1.42,12.27,1.19,18-5.01-9.27-2.88-17.7-15.39-12.4ZM1784.05,687.47c-.58-6.46-5.93-16.06-7.9-20.06.18-.06-2.25-5.67-.57-2.84,2.74,6.1,8.28,15.27,8.47,22.9ZM1816.42,605.45c-3.8,21.8-24.12,45.61-39.36,57.68,10.18-17.23,36.74-35.25,38.18-58.04-10.2-.79-12.24-3.85-13.79-13.56-3.07-15.19,16.46-12.71,26.22-13.27,13.97,7.3,2.71,28.71-11.25,27.2Z M481.12,394.28c.49-5.29,14.54-34.06,3.39-20.91-11.59,15.64-5.38,36.41-8.85,53.97-15.52,22.47-11.69,20.98-20.42-1.63,19.84-23.35,31.66-60.23,29.9-90.85-.38-5.55-11.19-16.34-4.74-20.49,14.86-14.92,33.1-33.89,36.66-55.46,23.11-.82,25.91-37.41-2.45-30.67-9.92.8-17.88,3.66-16.05,15.21,1.77,9.07,2.96,14.63,13.34,14.85-2.04,18.99-23.32,37.51-35.18,51.03-3.97,9.72-3.64-8.64-5.28-9.66-3.82-8.76-6.73-9.72,3.28-14.5,11.58-9.67,6.57-44.3-11.23-44.28-9.66,5.63-34.07,9.51-33.37,23.06,4.45,13.9,14.01,35.8,32.53,27.75,6.64,12.42,11.17,31.77,18.39,44.01,0,0-.96,27.14-.96,27.14l-8.07,30.68c-2.9-.17-21.8,40.55-19.98,19.13-1.31-20.83-3.42-19.25,14.29-29.67,13.18-13.01,12.67-37.14,3.15-52.12-17.07-2.58-41.1,1.37-54.03,14.13,1.15,16.14,8.52,36.89,25.07,43.63,1.2.2,6.04,2.04,7.19,1.45-1.72,9.81-2.75,23.55.09,33.24,1.36,6.02,5.49,14.56,6.22,20.66-1.15-2.84-4.9-7.66-7.1-9.79-21.72-17.61-8.22-5.12-17.54-23.88-4.73-4.79-12.34-10.81-19.28-8.05-6.03,5.71-9.26,16.75-9.45,24.83,10.46,5.75,19.03,8.9,29.25,1.14,7.68-.35,16.57,12.27,21.05,18.76,4.93,6.41,2.67,14.77.36,21.72,2.97,2.39,2.85-4.67,3.73-5.88,3.24-7.86-1.44-16.22-6.06-22.43,0,0-6.06-6.91-6.06-6.91,5.19,3.26,10.11,12.46,12.82,17.75,2.08-12.52-6.81-25.07-7.76-37.45-.91-9.62,2.97-22.82.87-32.27-.33-5.41-2.6-13.36-5.78-17.8,1.83-6.58,5.58-17.42,10.44-22.41,21.32-26.24,23.04,15.06,18.63,29.72-15.03,27.89-30.49,3.44-19.51,53.22,0,0,20.37-28.66,20.37-28.66l-16.87,24.95c-6.92,7.85,5.26,18.77,3.88,28.28,7.7-6.6,17.53-15.84,18.78-26.46,0,0,.17-10.14.17-10.14,1.32,11.4-1.37,21.13-10.16,29.53-3.82,5.38-9.92,7.39-8.78,14.43.6.63-4.86,14.75-.45,12.81.7-22.99,13.77-23.72,21.08-42.21,1.32-10.41-1.02-22.14.47-32.5ZM432.51,258.34c25.83-16.32,48.04-26.62,45.7,15.59-5.28,24.88-14.27-3.29-12.82-14.05-.68-4.23,1.49-11.04,4.08-14.38-2.09-2.47-2.98,1.68-4.06,2.84-20.91-.58-36.46,27.06-32.91,10ZM463.19,265.56c-7.07,5.1-18.85,1.1-26.37-1.17,2.69-2.45,9.52-7.37,12.56-9.49,16.49-6.68,14.46-5.74,13.81,10.66ZM455.02,291.6c-6.66-.91-13.87-5-15.8-11.85-.54-3.55-8.26-11.58-4.23-13.85,39.82,14.42,20.43-14.28,34.23,20.1-9.39,2.45,1.42,12.27,1.19,18-5.01-9.27-2.88-17.69-15.39-12.39ZM492.52,295.33c7.76-8.3,21.61-26.58,21.84-38.54-12.98.36-14.54-10.91-13.42-21.6,12.78-8.88,40.63-9.41,29.83,13.96-2.15,5.51-9.97,7.71-15.24,8.01-2.84,13.47-11.7,31.11-22.13,40.45-22.48,25.48-22.01,18.88-.89-2.27ZM475.26,319.12c.18-.06-2.25-5.67-.57-2.84,2.75,6.11,8.28,15.28,8.47,22.93-.58-6.48-5.91-16.07-7.9-20.09ZM431.17,424.77c-4.66,2.99-10.46,7.37-16.38,6.35-2.92-1.02-9.27-3.96-12.11-5.31.44-6.89,3.33-16.96,8.54-21.81,7.53-1.99,15.61,5.32,19.18,11.57.95,2.98-.7,8.26,2.5,9.99,2.88,1.18,6.05,4.63,8.35,6.58-2.04-1.67-7.86-5.8-10.09-7.37ZM447.62,388.07c-13.87,1.02-35.21-27.95-25.98-37.45,16.73,3.46,25.67,21.38,25.98,37.45ZM441.5,361.03c-17.92-17.98-25.85-7.98,3.43-22.63,20.5-5.92.25,2.67-3.43,22.63ZM444.01,336.52c-8.88,2.97-18.11,9.38-25.83,13.15-2.94-12.92,31.23-17.1,40.75-17.63,4.54,1.26-12.88,3.5-14.92,4.48ZM478.91,396.19c-.28-5.83,3.19-14.41,6.01-19.38-2.52,5.62-4.89,13.41-6.01,19.38Z M1166.33,191.89c4.25-2.11,7.31-6.95,11.89-2.91,8.53,6.71,18.5,16.53,18.65,28.06-4.03,24.12-.19-3.66-16.05-15.55-12.99-9.39-11.73-5.27-5.04,6.22,1.77,4.56,2.7,11.19,5.99,15.03,2.91,3.34,7.65,6.94,11.8,8.56-.25,1.13-.48,3.5-.44,4.66,1.48-1.1,10.97,1.15,8.66-3.07,2.62-2.4,6.76-5,8.84-7.94,4.87-.73,11.99-.59,16.53-2.75,2.56-3.23,5.73-7.03,10.19-4.86,5.08,2.22,12.5,1.94,17.9,1.57,7.07,2.21,36.62-14.16,19.33-11.18-15.34-.6-25.96-4.24-35.88,1.93,3.25-4.39,13.44-5.23,11.57-7.36,3-1.08-1.51.22-2.43-.93-9.47,1.44-14.68,11.07-21.21,17.02-2.07,1.64-12.97,4.13-12.52,1.95,2.59-6.71,6.82-15.3,12.21-20.16,4.22-4.69,11.47,1.92,17.81-2.1,15.63-12,19.71-19.67-.31-29.39-4.29-2.23-13.33-7.23-14.92-.18-3.54,2.67-6.09,16.58-4.75,4.91-3.72-20.89,4.35-15.6,15.45-28.85,4.89-5.17,8.97-13.7,7.91-21-1.54,2.65-6.81,7.65-9.19,9.65-4.8,2.47-13.23,12.18-6.63.16-.85-7.73-6.04,1.36-7.58,4.14-5.9,12.09-3.81,26.59-4.51,39.53.05,5.72-5.91,24.01-8.3,10.85,2.01-.32-1.22-1.38-.91-2.9-.25,1.42-2.97.4-4.03.58-1.3.47-4.15,1.35-5.48,1.76-8.91-4.26-6.11-26.29-4.91-36.75,8.36-5.72,16.76-9.44,21.06-20.87,3-12.89,3-29.38-4.69-39.72-13.01-4.65-46.56,2.54-55.06,15.76,6.33,20.29,6.75,39.39,33.14,44.21-4.59,14.69-2.47,32.75,4.82,46.02.41,2.49,2.89,10.88-.34,3.72-4.88-6.46-11.59-14.09-19.08-17.54.29-3.17-1.01-8.39-2.43-11.54-5.16-5.66-14.91-13.97-20.99-9-4.54,6.77-10.3,16.85-9.53,24.26,5.97,5.93,15.44,7.81,23.49,5.99ZM1189.69,227.15c-10.33-5.83-10.24-19-16.16-28.12,8.01,4.08,14.71,13.2,17.66,21.57-.71,2.85,4.22,10.83-1.5,6.55ZM1254.14,207.59c5.28,1.4,15.72,2.31,21.21,2.06-3.26,3.1-9.63,5.52-13.86,6.81-8.77.98-18.44,1.06-26.87-1.65,5.25-3.03,13.14-8.29,19.53-7.23ZM1200.51,229.31c-.25,3.93-1.52,4.58-5.32,4.46,1.08-4.85,3.02-11.45,3.67-16.58.22-1.84-.32-4.99-1.09-7.04,1.42,2.64.97-8.16.44-9.81,1.11,1.85,4.09,2.76,4.4,4.83,1.23.7,4.06-.7,4.43.82-6.28,5.02-3.85,16.39-6.52,23.3ZM1209.62,223.05c-1.43,2.09-4.71,4.83-6.74,6.29.86-1.54,2.84-4.18,4.24-5.25,0,0,.77-1.15.77-1.15-1.17,3.95,2.13-1.49,4.11-4.56-.76,1.46-1.55,3.01-2.38,4.67ZM1251.48,188.98c-21.55,22.38-17.86-10.72-37.75,26.11,3.32-9.15,9.3-14.1,14.57-20.64,5.07-2.73,5.17-10.84,9.2-12.16,8.64-5.71,26.05-7.47,13.97,6.69ZM1246.35,175.14c3.63,1.47-8.1,3.16-9.76,5.3-1.23,1.35-.49-5.88-1.84-7.17-4.08-5.79,8.82,1.67,11.6,1.87ZM1250.37,175.83c-4.93-4.22-12.59-6.19-18.88-7.45,1.11-5.56,20.39,6.87,18.88,7.45ZM1232.75,173.96c2.62,4.47-2.95,24.8-7.41,14.87-2.15-4.11,3.41-25.58,7.41-14.87ZM1239.55,134.78c-.05.34,6.49-6.54,5.86-5,0,0-1.74,5.96-1.74,5.96-4.41,6.99-12.26,15.09-19.46,19.25-1.02-8.74,8.43-16.05,15.35-20.21ZM1228.87,133.38c1.56-1.01-1.97,4.71-1.88,5.87-.95,4.02-4.08,8.27-4.82,12.89.72-6.4,3.04-13.58,6.69-18.75ZM1213.71,196.25c6.83-6.55,8.24-17.09,8.18-26.09.27,5.59.65,16.97-3.96,21.1-.54.31-6.09,10.86-4.21,4.99ZM1223.4,189.35c7.11,8.87-5.73,7.2-10.56,23.46-2.99,7.83-.32-4.2-2-7.15.48-1.3,13.69-22.41,12.56-16.3ZM1209.74,189.53c.82,1.91,1.75,5.55,1.67,7.38-2.07,7.75-4.71-4.87-1.67-7.38ZM1208.23,211.21c1.6,4.37-6.09,19.71-3.89,9.75-.7-2.36,2.65-18.24,3.89-9.75ZM1204.2,190.66c3.9-1.88,2.13-.35,1.95,2.69-.96-1.28-5.85-2.29-1.95-2.69ZM1202.57,188.9c-.31.1-1.03.38-.98.3l.98-.3ZM1206.42,196.46c.31,1.17,1.33,5.01.3,5.61-3.64,1.8-3.11-2.14-3.74-4.53-3.58-6.87.16-4.43,3.43-1.08ZM1201.59,200.96c-2.04-2.26-6.69-5.97-3.78-8.93,2.17.48,3.34,6.99,3.78,8.93ZM1160.38,108.32c-2.04-11.77,30.92-17.17,40.33-17.21,15.5-2.12-7.82,3.98-12.56,4.85-6.26,1.33-13.92,5.39-19.72,7.95-1.44,2.93-4.7,5.1-8.04,4.41ZM1184.59,121.53c-9.32-16.68-35.69-10.75,9.54-24.87,9.79-3.66-9.86,10.45-9.54,24.87ZM1189.36,148.04c-11.95-3.52-23.63-11.73-25.13-25.03-.65-3.89-6.09-14.39,1.52-12.86,15.18,3.55,27.52,25.2,23.61,37.89ZM1195.19,191.39s.66.12.66.12c-.27.79-.42.43-.66-.12ZM1196.44,190.25c-4.33,1.29-5.05-13.91-6.52-17.59-.09-14.28,4.64-27.93.04-41.78-9.2-9.62,3.89-34.6,16.74-36.45-6.78-.23,3.13-2.23,3.57-3.23,0,0,1.88,2.95,1.88,2.95,7.01,9.26,4.77,24.02,3.02,34.78-6.95,18.87-22.13,13.5-21.8,25.83-.58,9.46-2.57,21.54,2.68,30.03.55,1.94,2.31,4.3.38,5.46ZM1171.46,179.27c-5.79-2.19-11.69-7.18-12.41-13.63-1.74-9.69,22.04,12.65,12.41,13.63ZM1155.81,175.18c-1.34.17-6.79,3.05-7.17,2.93,2.33-3.57,5.47-8.92,8.45-11.94.08,8.33,8.77,7.94-1.28,9.01ZM1157.3,162.29c-3.92,5.12-8.35,11.23-11.71,16.73,2.18-4.56,5.8-17.67,11.71-16.73ZM1163.42,176.82c2.76,2.09,6.61,5.5,10.26,4.1-.18,4.32,8.5,6.27,10.86,9.79,2.16,1.56,11.72,14.3,8.65,10.28-25.56-29.41-14.73-7.76-38.62-10.99-20.86-5.01-1.07-13.77,8.84-13.18Z M221.51,865.33c-1.83.73-8.97,7.08-9.37,6.55,5.45-10.84.23-12.72-4.84-2.24-7.82,15.58-1.27,34.21-6.74,50.25-1.27,2.26-4.44,6.46-6.17,8.41,1.04,1.74-.88,3.93-1.87,5.24,0,0-2.16-7.53-2.16-7.53-.71,1.47,1.71,11.27-2.37,9.57-1.8-2.45-2.81-10.59-4.87-13.76-3.68-8.06-6.49-17.5-5.2-26.52.8-7.56-1.01-14.8,8.24-16.79,16.85-9.31,18.13-31.86,14-48.65-2.59-3.06-4.26-8.29-7.33-9.77-13.83,1.52-31.1,2.36-43.46,9.63-13.34,8.69-7.11,6.86-5.95,18.83,2.92,17.25,11.47,29.02,28.83,33.63,3.01-1.41-.43,4.21-.15,4.98-.56,4.07-.9,13.58-.99,17.77.84,10.16,7.3,20.59,8.72,30.43-4.23-8.44-12.4-16.79-20.84-21.08.96-8.16-4.81-16.08-12.15-19.75-4.55-1.09-7.31-4.65-11.27-.78-3.9,7.09-14.49,20.53-6.85,26.54,26.93,15.54,21.57-14.67,42.56,9.83,7.97,7.96,10.74,19.32,6.5,29.84-1.43-12.05-8.77-24.01-19.35-30.31-12.57-6.88,4.39,12.72,3.44,20.28,2.69,8.5,16.33,12.23,14.53,15.8-2.22,4.53,7.28.99,8.76,1.59-.68-1.15,2.08-12.8,2.39-14.23.11-3.4.2-10.81,3.53-12.84,1.77,5.08.8.77,1.12-1.36,0,0,5.7-6.83,5.7-6.83,11.31-11.52,9.25-28.1,8.97-42.89,9.53-3.87,21.34-15.98,23.69-26.84,1.97-14.72-3.96,1.16-9.06,3.01ZM154.67,911.39c-5.79-2.2-11.69-7.17-12.41-13.63-1.75-9.7,22.05,12.64,12.41,13.63ZM139.02,907.29c-1.35.17-6.79,3.05-7.18,2.94,2.33-3.57,5.47-8.92,8.45-11.94.07,8.32,8.77,7.95-1.28,9ZM138.78,893.9c3.52.24-.05,2.62-.86,4.03-3.04,3.22-6.14,8.61-8.4,12.33-1.53.05,5.81-14.34,9.27-16.36ZM165.99,922.09c-8.2-6.62-9.06-5.98-16.94-.03-7.07,1.57-15.59.17-20.96-4.94-.32-3.83,10.06-6.6,12.6-8.32,4.64-.98,8.34,2.15,12.14,3.99,7.46,2.86,17.78,11.43,23.5,20.38-2.7-3.99-7.2-7.93-10.34-11.07ZM169.72,956.77c-5.61-3.99-6.81-11.7-8.9-17.72-12.54-20.89,17.19,9.11,14.45,19.92,2.37,4.22-4.32-1.29-5.54-2.2ZM157.41,828.15c9.07-3.84,23.22-4.69,32.81-5.72-12.85,6.63-32.28,5.27-41.83,17.76-14.72,1.13,4.06-10.82,9.02-12.04ZM167.8,853.64c-9.32-16.69-35.69-10.74,9.54-24.87,9.79-3.66-9.86,10.45-9.54,24.87ZM172.57,880.15c-11.95-3.52-23.63-11.73-25.14-25.03-.65-3.89-6.09-14.39,1.52-12.86,15.19,3.55,27.52,25.2,23.61,37.89ZM185.58,952.79c.02.61-2.92,12.1-2.55,12.69-1.01-.77-6.19,2.05-4.29-1.1,4.14-13.31,3.02-20.12,3.04-30.25-3.2-12.75-10.77-26.24-8.31-40.01.73-7.78,3.59-16.05,1.08-23.7,0,0-1.39-7.44-1.39-7.44.21-.45-5.74-8.1-3.46-7.18.23-10.57,7.5-21.93,15.54-28.44,1.15-.28,8.12-.82,2.15-1.3,10.54-7.81,12.18,10.67,12.88,18.14-.02,10.3-2.23,22.22-10.37,29.33-13.26,8.06-13.39,4.95-13.98,21.68-1.3,9.26,1.53,19.02,5.32,27.31,2.93,3.45,2.34,15.03,6.81,15.1,5.66-1.4-4.14,4.72-2.48,15.19ZM201.13,923.37c-.65-.17-5.48,10.92-4.52,5.36,6.99-6.65,8.59-17.26,8.48-26.47.27,5.6.66,16.97-3.96,21.11ZM205.23,885.66c.71-6.75,2.73-15.48,7.45-20.54-2.3,6.88-6.21,13.2-7.45,20.54ZM207.06,886.87c.38-12.55,14.01-17.48,21.56-25.36-1.8,10.35-12.78,21.08-21.56,25.36Z M1314.51,903.67c-8.98,10.15-22.71,20.93-17.14,36.43-11.99,2.61-21.84,12.62-29.55,21.4,2.64-5.28,5.69-13.46,5.4-19.49,7.26-1.75,11.17-17.82,4.88-21.87-4.3.23-10.13-.04-14.4.77-.89-8.65,5.54-16.39,6.34-24.68-11.93,11.52-8.11,27.87-10.07,42.45-1.02,5.4-5.64,9.62-9,13.6-2.87,3.63-2.01-2.68-2.72-4.43-5.22-10.36-7.68-23.16-4.77-34.48,6.53-.25,11.63-6.72,14.42-12.08,4.68-9.55,2.95-28.41-4.32-33.16-12.96.27-30.84,1.2-39.18,12.43,3.01,13.07,7.69,31.48,24.3,33.01-6.32,15.74,10.07,47.44,1.66,34.17-1.64-4.37-13.18-8.75-11.76-11.68.82-7.46-14.33-20.58-19.07-12.42-4.15,4.8-3.99,18.68-9.38,7.05-8.8-11.94,1.8-12.83,1.93-24.54.69-7.62-13.67-35.89-20.5-24.94,3.92-8.88-9.82,5.25-12.66,6.73-4.81,5.29-12.44,11.09-13.05,18.82,8.16,9.58,21.79,23.47,36.36,16.71,3.18,10.9,11.51,21.27,20.29,28.19-5.97-4.1-16.9-1.02-20.09-7.39-4.36-5.36-12.67-2.79-17.82-4.63-3.8,5.45-2.24,15.96.55,22.68,8.83,2.79,17.25-3.75,20.74-10.74,13.32.63,26.07,8.02,27.31,22.28,11.15,2.22,2.43-13.41-.36-18.5,2.91-9.55.97-19.39,12-8.07,5.03,5.06,10.18,12.96,8.47,20.4-.87,1.92-1.99,6.14-1.86,8.27,2.44-.22,6.3.39,6.46-3.14.81,1.85,2.4,3.33,4.58,2.49,7.29-1.44,12.9-6.7,20.38-2.34,13.12,4.13,24.05-4.56,34.89-10.63,5.38-2.14,12.64-.86,17.83-3.49-11.6-5.09-23.95,3.05-34.01,8.32-6.26,4.08-15.7,3.69-22.03.03,8.32-6.73,14.33-17.46,24.84-21.37,7.1-4.58,13.08,4.14,20.49,3.95,10.61-.34,29.6-10.86,27.88-19.86-6.69-9.55-16.79-22.42-28.24-26.27ZM1159.32,906.87c-5.2-5.12,14.26-20.18,19.85-24.48-.5,3.73-6.1,5.11-8.08,8.18-3.9,4.85-7.67,11.82-11.77,16.29ZM1177.86,906.9c-15.4-5.26-21.39,6.67-2.4-17.74,4.41-4.87-1.53,10.85,2.4,17.74ZM1183.33,923.38c-7.06-1.31-22.11-7.95-20.91-15.39,6.23-1.15,13.52-.8,18.9,2.88,5.77,3.81,14.9,13.41,2.01,12.52ZM1189.52,915.53c-1.97-4.07-8.46-5.65-9.72-9.6-5.16-20.69,6.62-36.66,17.59-10.08,8.57,18.15-6.76,18.75-1.5,31.56-2.02-4.16-3.89-8.31-6.37-11.87ZM1203.34,939.58c-2.39-2.78-4.23-5.87-5.88-9.04.84,1.44,1.89,3,3.22,4.74.54.84,2.97,3.18,2.66,4.31ZM1187.2,943c1.45.83,7.31,4.54,3.13,4.63-2.95.94-6.65-.13-9.1-1.85-8.21-5.8,1.46-2.93,5.98-2.78ZM1177.08,949.97c.02-6.39.9-3.64,4.77-1.4-2.76,1.36-6.07,9-4.77,1.4ZM1175.07,956.43l.07.31c-.06.12-.06-.3-.07-.31ZM1174.75,953.64c-.05-1.84-1.4-12.29,1.37-9.68-1.43,2.73-.93,6.69-1.37,9.68ZM1193.63,950c-1.41,7.27-9.87,12.19-16.94,10.58-1-3.78,4.38-9.23,7.51-10.68,2.25.52,12.18-1.25,9.43.1ZM1226.47,936.01c-5.16-2.13-10.52-6.2-10.69-12.29,4.98,1.94,11.18,6.28,10.69,12.29ZM1212.78,923.19l-3.34,4.91c.58-1.39,2.08-4.04,3.34-4.91ZM1213.83,925.47c.04,3.51,5.94,7.73-.35,6.8-9.44,3.87-1.18-2.61.35-6.8ZM1224.69,971.75c-1.16-10.33-8.54-17.17-17.91-20.08.09.02.14.04.14.04,3.08.7,11.3,5.19,14.15,6.74-3.5-5.01-11.09-11.16-15.08-15.48,7.69,1,12.75,15.11,15.3,9.61-.52,2.11-.62,4.3,1.33,5.73.42,3.24,7.13,13.43,2.07,13.45ZM1213.88,945.5c1.95.51,8.44-1.28,6.84,1.06-.29,7.76-3.72,1.32-6.84-1.06ZM1222.88,947.02c-.73,2.62-.76,2.87-.22,0,1.06-3.79,1.21-3.97.22,0ZM1225.71,939.45c-5.03,5.83-14.65,5.13-20.22.34-1.35-5.77,9.79-4.42,12.97-5.78.66.55,11.7,5.52,7.25,5.44ZM1226.98,939.17c.31.29.99.79,1.37.98-.4-.24-2-.12-1.37-.98ZM1287.28,971.3c-.71.24-2.34.71-3.09.63l3.09-.63ZM1332,925.98c-10.23-4.33-21.21,6.14-16.14-4.37,0-3.79,1.39-11-1.87-13.76,3.14-6.61,34.53,25.02,18.01,18.14ZM1313.91,921.12c-.41,7.67-15.69,25.29-15.87,9.54,2.23-9.66,19.14-34.15,15.87-9.54ZM1277.51,922.17c4.07,4.37.42,17.53-6.29,18.55.43,2.12-1.13,11.66-.46,4.22,2.06-5.6-4.1-3.9-6.37-7.07.44-15.56-5.1-16.03,13.12-15.71ZM1261.36,940.72c-.02.51-.24,1.02-.61,1.73l.61-1.73ZM1228.58,873.51c23.07-5.9,19.91-2.97-.13,3.47-17.32,11.08-14.06,1.07.13-3.47ZM1243.5,873.64c-1.71,3.01-7,10.36-8.31,14.96-.76,4.11-1.2,3.18-3.48.48-2.41-2.33-7.5-5.1-9.96-6.25,6.05-3.71,15.19-6.57,21.75-9.19ZM1218.63,889.39c.48-1.78-2.13-6.19,1.21-4.84,12,3.09,17.88,15.43,18.64,26.96-10.63-1.06-18.03-12.45-19.85-22.12ZM1246.6,970.78c-2.81,6.79-3.54,1.01-1.35-2.61.93-2.51-.02-7.83-.77-10.31-2.88-5.38-1.04-2,.81.49,0,0,.22-4.46.22-4.46-.67-8.23-6.12-16.22-5.83-24.71-.99-9.24,2.37-17.99-.49-26.84-5.02-8.68-2.3-15.14,3.24-23.26,10.96-18.37,16.46-2.72,16.1,10.66-1.49,23.97-17.85,17.94-17.25,25.69-3.12,10.59.44,23.18,5,32.86,1.17,4.74.3,10.79,4.28,7.28-3.92,4.9-2.24,9.06-3.97,15.22ZM1249.64,965.5c-.68-10.01,10.87-15.23,13.7-24.47-.22-2.3,3.76,1.91,5.56,1.24.68,7.9-3.16,16.91-7.85,23.19-3.65,1.56-14.77,8.25-11.41.04ZM1314.9,947.77c-12.03-1.92-13.15-9.93-26.07-1.35-6.54,3.77-11.97,10.75-16.95,16.23-7.9,4.97-4.56,6.92,3.04,8.6-4.75-.5-9.76-4.42-14.15-.84-2.79.76-9.58,5.51-11.2,1.28,5.34-1.21,12.21-2.73,15.01-7.86-4.52,10.52,20.73-19.94,27.14-19.62,2.24-1.63,9.36-1.24,7.52-5.11,5.91.73,11.88-5.78,14.14-10.73,1.4,1.29,10.04-1.79,13.32-1.35,4.72,1.9,12.75-.23,14.47,5.73-5.24,7.95-16.77,14.54-26.26,15.02Z M675.78,943.81c-4.73,9.3-13.78,18.46-12.94,29.89,1.96,6.68,5.75,9.15-2.62,12.7-7.31,2.1-20.49,27.85-18.41,20.93,1.27-4.94.53-9.24,6.67-10.15-5.53-1.16-4.96-2.83-5.68-7.7,5.55-2.84,5.53-9.89,4.89-15.32-.38-15.63-18.25,2.37-13.47-9.23,9.79-28.48,12.97-12.6,32.04-24.26,9.51-5.8,30.71-47.48,9.82-43.79,17.66-4.33-38.18-13.48-44.71-9.17-4.26,1.11-6.06,5.2-3.85,9.04-5.61,8.33-4.6,23.15-1.21,32.24,3.26,16.1,18.45,10.18,8.01,22.01-6.7,12.91-10.44,28.53-11.39,42.81-6.62-22-3.79-26.32,2.54-46.82-6.63,7.55-10.44,17.79-9.33,27.85-7.54-8.17,1.78-13.53-3.23-22.13,5.19-9.89,3.34-23.58-2.02-33.09-2.39-1-7.71-.59-11.72-.54-8.46,1.54-34.75,4.72-27.42,17.47-.12,6.7,4.27,16.23,8.86,20.99-1.34,5.8,7.61,11.3,12.39,13.6-3.41,10.04,10.9,40.81,2.77,27.34-2.89-4.1-8.21-7.64-12.31-10.28,2.55-8.83-7.34-13.99-15.08-17.29-7.24,5.9-2.33,9.84-9.28,1.2-1.43-2.01-2.87-4.7-1-6.88-1.9-7.46-2.42-16.53-1.1-24.13.28-7.03,10.75-7.35,14.27-12.83,9.51-12.22,10.43-32,4.39-45.95-2.41-7.81-4.12-6.71-10.72-3.31,14.35-11.66-40.35,4.51-44.26,11.14-3.26,2.83-3.28,7.33.46,9.82-1.34,3.84,1.29,9.68,1.96,13.5,16.63,35.33,32.7,14.81,27.7,32.42.03,11.05,1.48,24.72,5.12,35.18,1.02,1.22,4.85,10.74,1.72,6.13-4.92-6.24-12.64-12.28-19.42-16.34.18-2.99-.68-7.25-2.21-9.85-1.68-3.89-7.56-7.08-11.16-8.88-3.76-5.42-5.4-15.22-11.14-20,0,0-7.11-5.63-7.11-5.63-2.21,2.11-3.8,5.88-2.02.08-9.94,7.58-24.07,16.21-26.73,29.24,5.81,6.08,12.77,15.23,22.24,17.31.29,0,5.01,1.47,5.3,1.31-1.26,3.56,5.85,5.79,8.39,6.74,8.99.8,11.38,15.2,20.01,18.73,1.59,1.91-7.17-2.47-8.98-2.26-3.63-.55-9.08.11-10.4-4.31-4.35-5.36-12.68-2.78-17.82-4.63-3.79,5.45-2.24,15.96.55,22.68,8.85,2.79,17.24-3.75,20.74-10.74,10.15,1.08,23.68,4.99,25.69,16.55.82,4.93,2.04,6.57,7.31,5.33-.5-5.95-2.59-13.22-6.05-18.09-.28-5.29,9.16-21.49-.88-13.13-2.51,9.3-1.12,10.42-8.52,2.84-3.54-4.35-7.01-2.06-8.99-8.21-6.78-6.32,4.25-3.21,8.17-8.67,4.77-4.57,12.12,6.73,16.01,9.63,10.3,9.25,10.82,22.88,6.6,35.26,8.17,5.18,8.03.31,9.77-6.87,1.65-5.46.6-13.56,2.32-18.33,1.11-1.53,4.6-.47,6.26-.59,5.48-3.29,6.37-5.22,12.1-.95,10.58,9.36,13.18,17.98,9.19,31.29,8.61,1.76,7.75-9.54,8.62-15.41,2.57-5.66,9.08-11.31,12.47-17.24.22,2.28.11,6.55.43,8.84.54,10.95-17.6,16.95-6.66,25.12,6.2-5.58,12.72-13.98,15.3-21.94,2.3-1.57,10.16-4.12,12.64-5.35-.5,10.71-7.39,19-17.66,21.87,4.9,8.67,12.94.04,18.59-3.56,7.61,1.16,16.92,1.55,23.79-2.42,5.16-4.6,11.05-9.35,16.24-13.95,4.84-3.16,12.23-3.32,16.8-6.92-16.66-3.62-26.61,14.54-40.41,19.76-20.89,2.43-8.24-3.89-3.6-15.31,4.28-5.47,10.25-12.88,17.47-13.92,2.22,1.29,7.07,2.5,9.61,2.78,12.42,1.01,31.33-15.57,28.11-25.02-8.45-8.08-20.84-18.69-32.84-20.24ZM509.2,992.09c1.45.83,7.31,4.54,3.13,4.63-2.95.94-6.65-.13-9.1-1.85-8.21-5.8,1.46-2.93,5.97-2.78ZM499.08,999.06c.01-6.39.9-3.65,4.77-1.4-2.76,1.21-6.14,9.29-4.77,1.4ZM497.07,1005.52l.07.3c-.05.12-.06-.29-.07-.3ZM497.38,994.68c-.18,2.38-.45,5.67-.62,8.04-.4-2.82-.44-7.27.08-10.07.89-1.46,1.46,1.27.54,2.03ZM507.43,1008.56c-16.6,7.24-6.15-11.08,1.93-9.38,2.57-.34,5.26-1.11,7.55-.35-3.45,2.01-2.91,8.05-9.48,9.73ZM529.88,1001.12c-1.33-.44-2.79-.85-4.39-1.23,1.3.2,2.8.64,4.39,1.23ZM545.67,992.62c.23-.29-.85,3.53-.79,3.48-1.56,5.78.21-1.91.79-3.48ZM542.05,1004.06c1.03-2.25,2.91-7.8.98-1.25.44,5.49,5.54,11.68,5.77,17.88-5.87-1.5-1.59-10.26-12.31-16.65,2.48,1.23,4.82,2.51,6.59,3.49-3.63-5.22-11.39-11.29-15.42-15.91,5.65,2.14,10.66,7.75,14.4,12.44ZM581.97,986.56c.13.62-2.16-1.06-2.25-.98,2.08-2.59,1.87-1.71,2.25.98ZM579.3,981.77c-1.16,0-3.42.04-3.97,1.34-2.44-2.06-3.68-5.59-4.14-8.64,2.15.81,11.55,5.91,8.1,7.3ZM578.63,983.82c-.43.63-.88.91-1.52.34.09-.38,1.26-.29,1.52-.34ZM568.21,973.95l-3.34,4.91c.58-1.38,2.08-4.04,3.34-4.91ZM569.26,976.23c.04,3.51,5.94,7.73-.35,6.8-8.83,3.65-.84-3.5.35-6.8ZM564.6,990.01c.34,2.35,1.29,3.81-1.8,2.23-1.3-.24-1.58-2.64-1.8-3.64,1.11-3.36,3.4-1.08,3.6,1.41ZM521.13,897.15c-3.77-7.29,11.79-11.94,16.92-13.61,7.04-2.86,18.34-5.45,25.87-6.35-3.2,5.42-11.39,3.41-16.47,6.07-8.27,4.22-18.5,9.55-26.32,13.89ZM557.38,884.23c-17.47,17.36-4.85,31.14-20.44,17.36-1.97-2.16-15.03-4.17-8.07-6.11,6.03-3.05,26.81-16.07,28.51-11.26ZM550.41,935.48c-15.86-.68-29.34-22.14-26.94-36.97,16.16,2.06,32.7,23.43,26.94,36.97ZM553.7,940.21c.87-8.17-.69-21.23-6.73-29.09,2.23-13.77,10.31-29.08,24.69-32.88,10.26,18.92,8.04,49.81-15.31,57.29-2.31,7.08-2.36,15.88-1.55,23.2.32,2.46,1.9,6.74-.03,8.87,1.06,4.94,6.37,8.24,6.88,13.3-5.12,12.59-10.93-34.87-7.95-40.7ZM523.94,953.92c3.31,1.68,8.76,4.44,10.32,8.04,1.09,2.61,4.25,9.08-1.13,6.16-7.46-1.61-10.63-7.07-9.19-14.21ZM522.02,963.8l.34-.86c.45.71.72.93-.34.86ZM522.07,955.22c-.14,4.62-1.47-2.48-2.1-3.81,1.76.26,2.1,2.37,2.1,3.81ZM512.21,969.77c1.9,1.52-2.51,1.85-3.26,2.57-1.35.21,2.98-2.32,3.26-2.57ZM507.93,970.08c-.23-.04,1.3-5.62,1.8-4.49.03.87-.72,4.03-1.8,4.49ZM510.75,961.91c1.46-2.15,6.49-15.2,7.8-7.98,0,0-2.27,1.78-2.27,1.78-1.06,1.5-6.55,11.92-5.53,6.2ZM514.34,962.83c1.41-2.07,2.7-5.46,4.89-6.86,1.25,2.65,2.47,6.12.18,8.58-3.28.87-10.28,4.95-5.07-1.71ZM512.25,933.5c2.4,2.05,11.93,17.18,6.92,15.64-2.93-3.01-8.42,8.45-10.23,11.95-1.33-.76-6.81-3.39-7.13-6.07-3.02-7.58-.4-33.01,10.45-21.52ZM501.17,931.48c-.5,3.73-6.1,5.11-8.08,8.18-3.9,4.85-7.67,11.82-11.77,16.29-5.2-5.12,14.26-20.18,19.85-24.47ZM488.28,954.45c-9.58,4.68,13.11-22.56,11.07-16.17-4.98,18.44,9.11,17.33-11.07,16.17ZM505.33,972.46c-7.17-1.39-21.79-7.73-21-15.43,8.26-1.6,17.79.08,23.57,6.66-1.65,1.94-1.53,7.47-2.58,8.77ZM507.44,974.39c9.05-2.17,5.5-2.7,9.55,5.25-2.88-.34-9.59-1.82-9.55-5.25ZM516.36,973.01c.07-2.38-1.55-2.59-2.43-4.28,1.52-.56,4.28-2.27,1.95.53.04,3.01,3.68,9.07,3.56,10.69-1.08-1.58-2.56-5.1-3.08-6.94ZM525.49,988.89c.34-.06-6.39-7.84-4.32-6.93.86,2.23,4.17,4.62,4.32,6.93ZM566.07,1007.85c-1.39,3.72-.18,17.92-6.54,13.15,3.11-10.12,3.79-20.96-2.74-29.88-7.1-7.08-17.51-24.8-27.08-12.56-1.49.34-6.23,2.17-7.56,1.21-2.3-3.86-6.94-11.72-.4-13.71,16.93,3.93,32.67,17.6,41.7,33.35-1.84-6.45-.94-4.91,4.19-3.47-2.66,2.76-.17,8.37-1.56,11.92ZM565.46,986.17c.64.63,12.12-3.61,6.69.32-4.07,5.03-5.04,7.39-6.69-.32ZM569.14,994.26c-3.15.12,5.61-6.65,6.51-8.56,2.22.99-5.73,6.95-6.51,8.56ZM575.09,994.35c-6.28.66-.18-2.43.9-4.51,2.39-4.65,4.93-.87,7.79,1.07-3.23-1.73-5.66,2.38-8.69,3.44ZM616.27,981.47c-.89-2.88-3.52-7.61-5.11-10.18-3.04-4.27-9.01,1.67-13.39-.62.83-3.31.11-7.31,4.43-7.2,4.56-3.29,7.81,5.21,9.87,8.33.79,1.61,5.14,7.7,4.2,9.67ZM595.3,968.65c1.41-4.05.54-8.6-.18-12.71,3.47.13,7.1,1.09,8.34,4.64-1.85,1.25-4.24,1.61-6.39,1.71.17,1.54-1.62,11.08-1.77,6.36ZM608.12,956.74c-6.47,7.44-4.88-10.22-3.99-14.16,2.3,4.65,9.21,9.26,3.99,14.16ZM612.34,961.94c-.96,5.96-3.19,1.44-5.88-.93,5.29-4.73,6.18-9.83,5.88.93ZM612.46,928.08c1.69,3.75,2.51,24.51-1.58,20.78-2.78-2.51-5.76-11.01-8.25-9.53-3.87-.86-9.72,7.04-11.7,5.06,2.34-6.94,15.8-36.29,21.54-16.31ZM590.9,949.37c-.39,1.52-3.98,2.79-4.82,4.71-3.02.98,5.06-6.86,4.82-4.71ZM587.14,939.84c-2.41-2.33-7.5-5.1-9.96-6.25,6.05-3.72,15.19-6.57,21.76-9.19-1.75,3.04-7,10.35-8.32,14.96-.76,4.11-1.2,3.18-3.48.48ZM589.22,953.54c1.41-.86,2.7-2.72,3.01-.05.08-.24-3.71.55-3.01.05ZM584,924.27c23.06-5.9,19.91-2.98-.13,3.47-17.32,11.08-14.07,1.06.13-3.47ZM573.75,936.26c1.89-3.94,14.56,6.11,15.92,10.54-2.51,1.87-6.58,6.4-7.87,9.15-4.11-4.6-8.25-13.41-8.05-19.69ZM593.32,968.35c-1.87,1.94-11.97-8.07-10.08-8.32,5.22,4.56,12.78,1.88,10.08,8.32ZM593.91,962.27c-2.78-.54-10.66-2.65-10.15-5.66,6.72-1.25,10.28-2.91,10.15,5.66ZM601.76,944.23c-2.54.13-5.77,2.4-7.76,3.83-6.08,1.48,11.24-11.91,7.76-3.83ZM599.5,946.83c3.99-1.87.45,5.84,1.89,8.15-.85-1.15-6.79-.27-6.76-1.9-2.41-3.4,2.89-4.28,4.88-6.25ZM603.49,1011.34c-.28,3.99-.77,9.58-2.7,13.17-3.8,1.23-.16-4.14-.11-5.59,1.12-4.07-.22-10.11-2.53-13.59,7.62,11.8-1.91-17.25-2.63-20.6,0-3.24-1.47-9.95-.4-12.54.7-.13.32,6.15.65,6.89.84,6.01,3.01,14.53,5.95,19.95,1.34,5.49.01,12.54,6.32,5.13-.85,2.42-5.67,4.35-4.55,7.18ZM611.98,996.8c-2.04,1.06-7.13,10.43-7.72,5.85-1.95-9.52-7.73-19.86-6.75-30.01,3.22,1.17,7.87-.07,10.97-1.12,5.82,6.78,10.21,17.62,3.5,25.28ZM616.17,993.21l.61-1.73c-.01.51-.24,1.02-.61,1.73ZM662.36,1015.44c-.69.4-2.25,1.19-3.05,1.27l3.05-1.27ZM679.67,946.56c7,2.63,20.36,10.32,23.18,15.49-7.66-.04-16.41.18-22.96,4.74,4.02-10.87-8.46-23.14-.22-20.24ZM664.91,973.5c.3-9.91,12.09-37.24,13.7-12.46,1.1,7.6-10.44,27.87-13.7,12.46ZM640.02,887.99c5.43.86,43.65,4.56,31.51,8.53-12.57-5.87-27.76-2.4-41.13-2.4-7.16-2.42,6.71-6.09,9.62-6.13ZM667,898.29c-23.28,8.05-17.88,25.96-25.95,6.76-.83-2.8-11.73-10.27-4.62-9,6.76-.13,31.13-2.84,30.57,2.24ZM630.25,896.44c13.67,8.86,19.29,35.3,8.22,45-13.99-7.49-16.81-32.68-8.22-45ZM639.38,947.12c4.32-6.98,8.61-19.43,6.56-29.13,5.86-8.49,15.85-16.55,25.92-19.24,23.86-4.63,2.6,33.16-6.7,40.24-23.01,12.68-21.86-6.87-34.25,30.27-5.53,6.08,5.62-20.13,8.47-22.14ZM631.18,986.73c.6,5.51,8.56,1.75,7.79,6.32,1.64,3.79-4.49,3.72-6.65,5.55-6.13,3.76-1.32-7.77-1.14-11.87ZM627.96,1003.26c-5.88,5.39-8.89,16.5-15.98,21.99-7.18-5.47,14.72-12.83,7.03-35.04.95-7.81,3.05,13.13,3.47,14.48,3.31-7.3,2.52-26.87,5.78-30.03,5.21,21.15-12.91,34.25,11.25,22.93.49,2.37-9.89,4.4-11.55,5.66ZM634.1,987.77c-3.35-12.28-8.72-16.04,6.91-18.05,6.66-2.22,4.73,9.71,4.52,13.59-3.57,6.55-4.84,2.73-4.58,7.99-.6-3.31-2.39-2.02-6.85-3.53ZM651.76,999.12c-2.38,9.12-19.52,19.21-1.58,18.71-2.86.28-7.24-.5-10.08-.88-3.89,1.81-10.77,10.36-14.69,6.28,5.02-2.24,11.49-5.09,13.21-10.72-2.11,10.23,12.99-16.54,16.25-19.32,1.09-1.69,4.54-3.57,7.65-5.46-3.66,2.49-6.91,6.51-10.76,11.39ZM680.62,987.07c-7.36-2.92-12.45-2.6-16.83-.12,2.98-1.89,5.22-3.76,3.96-5.4,5.94-.44,10.52-7.99,11.77-13.3,1.62,1,9.5-3.72,12.79-3.93,5.02.94,12.45-2.74,15.31,2.79-4.31,9.76-15.75,20.42-27,19.96Z M763.5,641.49c1.57-6.16,5.85-12.92,10.71-16.99,6.85,4.83,17.61,1.69,22.06-5.04-2.24-6.87-8.2-16.12-14.4-17.54-3.81,5.54-13.21,10.47-9.95,19.22-4.21,2.12-14.06,21.6-10.02,9.94.68-9.53.22-21.15-3.96-29.89,11.94-3.37,18.65-19.91,15.55-31.29,2.04-2.2,1.62-5.65-1.18-6.98-8.15-4.38-19.76-3.79-28.78-3.62-4.58,1.52-.63-4.52-.64-6.98,2.2-3.69,11.53-11.15,15.34-7.97,4.18,7.14,10.29,3.35,13.93,4.74,1.39-4.85,3.97-18.24-4.26-16.57-4.76.12-9.22,2.37-10.48,7.25-2.66-.25-6.9,2.21-9.2,3.35-3.28,2.03,7.5-9.57,8.08-12.76,1.21-1.51,1.2-8.37,3.31-7.56,8.5,1.02,15.91-5.77,19.48-12.92,8.41-9.16-12.64-18.01-19.07-22.07-3.74,6.22-11.38,12.66-10.21,23.2-1.19,5.49,9.93,11.18,1.29,12.88-4.69,2.82-9.53,7.28-11.52,12.47-.15-3.51.71-8.08,2.39-11.2,7.66-9.7,1.52-32.89.91-12.79-.76-5.49-8.55-17.85-10.3-25.89-5.32,11.71-1.99,28.34,7.25,36.82-9.33,15.24,1.96,19.44-2.27,29.27-.59,8.29-2.49-5.81-5.35-7.58.89-4.84,2.99-11.49,4.16-16.28-7.64,1.71-5.79,13.63-8.33,11.01-2.93-2.34-6.59-7.75-10.49-8.39-1.53-.69-3.19-1.91-2.76-3.8-16.17-20.72-5.89-13.52-3.34-31.77-.83-11.39-7.84-22.63-17.47-28.7-2.1,2.82-4,5.69-2.01.07-8.26,5.29-16.76,13.19-23.35,20.39-1.89,3.75-6.17,11.03.76,12,5.2,10.62,20.9,18.81,32.22,13.56,3.17,10.32,10.83,21.05,19.58,27.37-.07.76-12.97-3.78-17.15-3.14-2.95-7.36-11.35-7.31-18.01-7.59-.62.39-1.69.24-2.04-.46-1.37,1.53-1.83,4.05-2.14,6.66-10.63-.84-25.49,4.43-35.44,11-10.67,2.51-3.78,13.88-.81,22.03,7.36,12.57,19.76,20.15,33.55,17.18,4.75,2.57-2.21,16.24,3.22,26.01-.6,3.66,9.89,13.88,1.54,8.54-14.22-8.44-18.22-32.63-36.94-33.32,2.28,5.42,10.39,7.24,14.11,11.82,1.47,1.4-6.68-3.49-7.16-3.48-8.99-3.96-20.63-1.74-29.94-4.16-19.11-6.02-8.63,1.84-.14,9.2,12.3,6.8,31.23,13.25,44.25,7.39,17.06,30.84,25.61,10.95,42.29,32.35,3.15,3.42,6.42,3.7,9.85.33-2.88-3.21-7.1-7.36-9.97-10.54-3.75-8.26-3.38-21.87,2.16-29.41,9.38,1.44,18.27-6.52,19.53-15.6-4.26-5.79-11.93-10.69-19.2-12.06-5.74,2.07-6.99,10.2-9.03,15.58.53,3.4,2.16,7.3,4.38,9.95-3.77,5.98-4.74,15.65-4.25,22.55-3.79-8.67-5.72-20.47-11.11-28.54-16.5-17.83-2.01-6.36-1.08-28.85-1.79-19.87-2.07-5.75,10.66-17.62.96-.99,1.51-4.98,2.97-5.06,8.04.72,16.98,3.53,22.71,9.4,2.33,4.84,5.44,11.6,4.64,16.12-2.04,7.55.95,16.7,3.8,23.66,5.31,11.21,15.03,7.85,18.05,13.57,2.1,5.01,3.12,11.35,2.94,16.78,2.59,2.01-.24,5.57-1.31,7.73-.61,2.08.71,13.28-2.46,10.58-3.28-3.42-7.33-4.81-11.86-3.32,3.67,2.43,9.05,6.29,12.76,8.67,2.33,4.65,3.52,11.91,6.76,16.67,1.19,3.77,4.35-.55,6.08-1.47-2.43-5.47-6.77-12.06-3.85-18.12ZM792.66,615.24s-.17-.29-.19-.31c.02.03.2.28.19.31ZM790.26,611.95c-2.01-1.63-4.19-4.89-6.72-5.75-.29-4.88,9.01,8.6,6.72,5.75ZM787.34,612.02c5.61,4.23-2.97.49-5.13,1.41,1.6-5.81.55-6.25,5.13-1.41ZM790,622.7c-3.01,1.39-7.31,2.63-10.65,2.09-10.68-4.33-2.8-2.86,2.01-9.01,5.03-1.22,18.42,1.88,8.64,6.91ZM774.52,612.71c2.03-1.85,8.5-10.63,6.68-3.91.34,6.44-11.28,16.02-6.68,3.91ZM769.93,539.39c.72,4.09-.97-.18-2.7-.42,1.73-1.97,2.37-2.89,2.7.42ZM768.4,534.53c-1.55,2.79-4.96,5.08-8.28,3.99,1.39-3.15,5.17-3.81,8.28-3.99ZM759.29,540.49c2.19.62,4.76-.1,6.95.27,4.32,2.9,6.95,7.42-.73,6.3-2.9-.41-7.12-3.65-6.22-6.57ZM776.05,511.24c-1.72,2.4-4.05,5.69-6.74,7.08-2.62,1.55-6.08,3.04-9.19,2.56-2.24-3.12,5.52-9.33,8.51-11.33,2.65-1.26,11.72-3.05,7.42,1.69ZM766.77,496.82c3.4,2.33,6.7,5.98,8.84,9.48-4.28-1.41-10.63,4.54-8.84.08.4-3.02.6-6.56,0-9.56ZM779.19,506.99c-4.35-4.47-8.31-10.98-14.32-13.99,4.36,1.87,14.2,7.61,14.32,13.99ZM755.5,497.26c8.18-15.28,10.78,4.14,8.73,11.71-4.41,5.61-6.33,9.14-7.99,14.36.54-8.81-10.21-8.3-.73-26.07ZM732.33,493.32c2.71,6.08,11.57,18.93,7.84,28.02-6.11-7.66-9.48-18.26-7.84-28.02ZM668.65,496.51c-5.2-5.12,14.26-20.18,19.85-24.47-.5,3.73-6.1,5.11-8.08,8.18-3.9,4.85-7.67,11.82-11.77,16.29ZM685.1,495.61c-2.39-1.56-14.16.88-11.88-1.42,3.85-5.41,8.03-13.39,13.84-16.9-.99,2.34-1.42,8.95-1.51,11.54-.5,1.46,3.92,10.3-.44,6.78ZM692.66,513.02c-5.39.72-31.49-15.31-17.03-15.86,6.32-.95,13.17,1.47,18.05,5.46,5.09,4.88,9.72,11.01-1.02,10.39ZM698.85,505.17c-1.97-4.07-8.46-5.65-9.73-9.6-3.79-13.21,1.76-36.82,14.83-16.15,14.63,26.04-5.95,22.96,1.93,38.77,1.59,3.75,5.73,7.65,6.93,11.26-6.35-7.37-8.97-17.02-13.97-24.27ZM659.27,595.1c.46.32,1.58,1.13,1.88,1.6,0,0-1.88-1.6-1.88-1.6ZM660.94,608.12c-8.8.16-19.28-.87-27.34-4.65-4.83-1.72-24.99-14.33-10.07-9.96,6.55,1.76,15.72,1.3,22.37,1.88,4.99.35,30.18,12.67,15.04,12.73ZM663.46,599.3c.15.23,3.92,5.32,4.03,5.57-1.1-.62-3.35-4.51-4.03-5.57ZM696.53,532.64c1.45.83,7.31,4.54,3.13,4.63-2.95.94-6.65-.13-9.1-1.85-8.21-5.8,1.46-2.93,5.97-2.78ZM690.82,538.42c-2.04,1.01-5.86,8.63-4.43,2,0,0,.02-.81.02-.81-.31-7.1,2.11-3.28,4.4-1.2ZM686.21,548.03c-.1.71,1.97,3.15-.18,2.19-.4-.46-.44-2.72.18-2.19ZM685.46,533.6c-1.1.65-.4,5.98-1.66,3.86,0,0-.01-1.39-.01-1.39.38-.98-.09-5.01,1.67-2.48ZM684.48,546.38c-.05.12-.06-.3-.07-.31l.07.31ZM668.87,539.23c3.27-.99,15.57-3.62,12.54,2.58-10.75-.03-21.84,2.23-31.49,7.07-6.44-.63,15.08-8.96,18.95-9.66ZM673.54,561.14c-4.84-4.58-10.67-9.31-16.94-11.69-7.15.28,5.68-2.65,5.77-3.28,27.42-5.02,10.75-2.27,11.17,14.97ZM682.1,594.19c3.14,9.37,12.39,18.09,9.26,28.75-7.46-4.65-10.07-19.59-9.26-28.75ZM696.54,624.87c-6.58.82-.44-7.74-3.88-14.15-1.61-3.88-13.21-23.4-9.29-20.85,5.61,6.52,10.34,15.09,12.03,23.59-.77,2.21,6.13,13.55,1.14,11.41ZM712.8,575.29c4.88.65,9.77,4.17,13.68,6.97-2.84-1.98-6.67-3.64-9.84-4.98-1.26-.6-7.76-.76-3.84-1.99ZM717.82,583.87c-4.53,3.83-3.09-2.49-4.47-5.23,4.05,1.58,15.81,4.26,4.47,5.23ZM705.74,588.92c1.23-2.58,2.34-11.34,5.53-10.15.75,2.94,2.04,6.96,1.19,9.98-2.95,5.9-5.43,8.63-6.72.18ZM710.42,598.65c-2.34-1.69.21-3.31,1.39-4.7,1.41-2.16,2.85-5.21,4.71-7.07,2.69-1.47,14.86-4.87,12.76.97-6.46,14.97-13.83,7.81-19.66,13.11-1.74,2.77-2.76,7.03-3.32,10.21.26-4.03,1.6-9.27,4.11-12.52ZM699.54,615.98c.94,4.47,4.65,9.92,7.27,13.58-.37-2.65-1.75-12.31-1-14.75.33-5.55.24,11.83,1.06,14.04,2.47,4.17,7.01,7.97,10.19,11.58-5.08,2.85-10.71-7.46-13.55-11.25-4.98-.86-11.98-2.28-16.75-4-3.89-1.21-7.36-5-10.3-7.9,3.62,3.39,10.26,7.87,15.2,8.99,13.14,2.76,9.27.13,6.36-9.79-1.48-10.15-6.47-20.29-13.21-27.98-3.19-2.94-6.7-6.98-11.07-3.63-12.15.95-22.97-9.05-27.5-19.58-2.82-6.91-8.17-17.72,4.74-14.23,6.74-.31,12.4,4.31,17.27,8.35,6.44,3.77,6.34,12.21,9.1,18.31,9.69,10.67,19.84,23.09,22.18,38.27ZM679.54,577.02c-5.23-10.55-6.22-23.99,2.62-32.97-.07,2.47,1.75,5.54,2.32,7.91.7.32,3.92.2,3.68,1.58,3.96,5.67-.87,34.79-8.62,23.48ZM694.76,549.12c-4.89,2.41-5.91,1.37-7.53-3.44,1.92-3.12,5.38-7.28,9.46-5.94,2.57-.34,5.26-1.11,7.55-.35-3.45,2.02-2.91,8.05-9.48,9.73ZM767.27,629.24c-.6.83-1.13,1.62-1.64,2.4.94-1.72,1.61-2.75,1.64-2.4ZM758.15,598.81c-4.44-10.31,2.41-24.46,13.05-29.19,3.6,9.82-2.39,26.23-13.05,29.19ZM765.16,567.74c7.98.75-6.17,5.58-7.14,11.54-8.19-16.61-23.48-18.21,7.14-11.54ZM772.66,567.5c-6.98-1.41-15.31-4.61-22.68-5.16-2.57-.76-6.94,1.65-8.95-.79,8.15.11,28.56-2.89,31.63,5.95ZM750.61,536.2c-.4.49.17-.27.19-.32,0,0-.19.32-.19.32ZM753.3,526.55c-1.92,6.77-7.52,11.92-11.74,17.25-2.65-3.41,4.46-3.92,5.65-7.14,1.42-2.11,6.13-12.03,6.08-10.11ZM748.84,529.15c-1.53,4.03-4.05,8.72-8.33,10.32-.35-3.57,12.1-16.6,8.33-10.32ZM741.42,548.41c-.63-1.18,2.48-4.56,4.41-6.66-2.2,2.84-3.89,6.87-5.07,9.91.73-.27-1.3,5.43-1.48,6.98-1.47-2.52,1.01-7.48,2.13-10.23ZM738.43,562.22c-.1-.03-.32,0-.27-.18l.27.18ZM733,533.18c.23-.29-.85,3.53-.79,3.48-1.55,5.78.21-1.91.79-3.48ZM729.63,549.56c-1.58-4.38-22.3-11.09-13.39-8.21,3.08.69,11.3,5.2,14.15,6.74-3.62-5.22-11.39-11.29-15.42-15.91,8.34,2.02,12.91,14.83,15.44,10.42-.34,3.13,1.65,5.84,2.89,8.96,1.26,2.92,2.55,8.09,2.82,9.69-4.41.65-3.36-8.96-6.49-11.68ZM754.54,599.78c-17.06-1.15-23.38-21.72-19.3-36.11,9.46.24,22.04,10.85,20.69,20.44-4.12,12.68,4.43,23.84,4.14,36.82-1.64-6.56-1.34-15.03-5.53-21.15ZM747.21,636.95c1.24.77,3.82,2.51,4.9,3.47-1.32-.89-3.91-2.6-4.9-3.47ZM763.15,660.26c-4.83-5.86-3.24-16.02-10.34-19.37,3.8,1.91,5.23,3.44,4.46-2.05.31-4.48.66-10.6,2.95-14.48-.04,6.04-1.94,15.95-1.31,22.2.28-1.3,1.35-3.91,2.64-6.72-3.78,11.72,5.12,15.49,1.6,20.42Z M1160.74,802.45c.45-1.2-2.2-8.51,1.42-5.93,17.93-9.05,34.77-26.96,34.4-48.11-9.8,13.41-28.07,20.21-35,35.65-1.7,3.86.98-4.88,1.08-5.36,11.01-25.12-6.94-2.73-5.71,7.8-.12,10.74,1.7,22.93-4.7,32.41.18-5.25-1.93-13.24-4.09-18.49-1.3-2.18-4.61-6.89-6.12-8.98-2.98-2.05-6.24-4.76-3.57-8.56,4.31-.25,8.45-4.13,11.52-6.82,9.01-9.19,8.52-43.66-3.58-43.2-13.06,2.09-37.07,1.28-41.24,16.62,4.14,6.72,2.97,17.45,9.3,23.54,4.21,5.07,10.39,10.52,17.37,10.47-3.24,13.68.41,28.32,5.51,41.09,2,5.9-10.85-13.51-16.59-13.66,1.33-8.37-4.67-14.19-11.9-17.09-8.36-6.28-12.82,6.81-15.34,13.25-3.28,6.96,3.19,10.38,9.3,11.86,13.62,3.03,13.81-10.48,25.85,3.13,19.06,18.74-2.77,32.57,12.73,30.16,1.65-4.54,3.64-10.71,3.19-15.6,1.18-6.98,11.73-12.01,14.14-19.43.85-4.39,2.47-10.27,2.03-14.78ZM1177.24,768.61c5.97-3.14,12.45-9.91,16.96-14.8-1.31,13.55-11.51,26.59-22.33,34.3-22.29,18.05-4.55-14.83,5.37-19.5ZM1164.09,770.76l-.86,1.7c.25-.54.75-1.71.86-1.7ZM1162.66,773.63l-1.17,2.72c.19-.67.85-2.09,1.17-2.72ZM1160.31,779.64s-.92,3.3-.92,3.3c-.04-.75.66-2.61.92-3.3ZM1159.03,785.76c.12.9.3,8-.23,7.07.02-.59.08-6.69.23-7.07ZM1150.04,820.13c-.28,3.6-2.54-.96-3.63-1.53-4.08-4.81-4.78-12.53-4.64-18.58-5.87-20.3,11.31,11.7,8.27,20.12ZM1138.31,793.67c2.22,6.98.8,16.03,4.21,22.7,2.9,6.01,9.3,5.96,1.64,11.13-2.36-8.9-7.69-18.39-7.96-27.77-.1-4.98.33-18.02,2.11-6.07ZM1119.15,739.73c5.07-3.1,34.99-6.42,16.91-1.81-9.27,1.39-18.17,6.07-25.98,11.02-8.53-.32,5.74-9.02,9.07-9.22ZM1137.45,739.69c-1.3.53-3.09,3.64-3.76,4.8-3.16,2.09-4.55,19-6.9,14.22-3.21-7.63-18.85-7.61-10.6-11.13,6.33-3.7,14.04-6.63,21.26-7.88ZM1116,771.79c-4.93-5.43-5.93-13.93-7.47-20.73,5.28.43,11.71,3.19,15.43,7.13,11.91,14.88,12.34,35.53-7.96,13.6ZM1118.13,804.27c2.58,6.07-4.15,2.28-7.02.93-2.46-1.97-3.76-6.03-4.83-8.88,1.72-2.86,11.36,4.84,11.86,7.95ZM1106.96,803.88c-2.9-1.19-11.26,6.15-7.06-.41,4.61-7.67,4.94-6.36,7.06.41ZM1103.99,794.04c2.17-.05-2.92,3.3-3.21,4.26-1.92,2.92-4.17,6.47-5.44,9.75,1.88-4.62,3.79-11.82,8.65-14.01ZM1120.92,813.76c-5.59-1.86-9.24,5.96-17.61,3.27-14.87-3.74-6.58-9.07,3.28-11.04,4.01.84,8,3.63,12.16,4.02-1.08,2.53,2.46,3.24,4.02,4.02,1.96,1.06,5.4,4.63,6.88,6.3-2.36-2.28-5.68-5.25-8.73-6.57ZM1156.9,816.36c-2.43,7.82-14.1,12.58-14.33,20.3,1.58,3.87-4.96,21.29-4.55,10.25,3.7-9.56-1.34-18.72-7.65-25.82,3.31,2.57,7.58,10.71,9.46,14.41,1.52-11.09-5.67-22.27-6.77-32.99-1.83-8.53,1.32-17.89,1.48-26.16-1.23-6.63-6.27-13.52-3.04-20.33,1.73-8.37,8.5-19.72,17.32-20.81,6.87,9.6,7.33,25.41,1.86,35.91-6.23,12.17-16.82,5.14-16.41,22.23-1.49,12.89,5.58,25.68,8.92,37.74,6.66-5.45,12.87-11.86,14.66-20.56,2.08-8.9-.5,3.19-.95,5.82Z M432.72,798.85c-8.67,4.73-17.17,12.69-20.82,22.03.46-4.73,3.28-10.72,5.47-14.89.28-7.67-5.52,1.07-6.45,4.03-6.95,13.81,1.54,31.65-8.01,44.47.48-7.25-2.18-16.15-6.23-22.15-1.34-4.53-10.34-7.83-7.86-12.54,7.12-4.39,14.01-7.57,16.86-17.49,2.44-10,2.81-26.91-5.87-33.55-5.22-1.4-51.4,3.3-41.9,19.47.91,11.84,7.24,24.16,18.32,29.36,11.23,1.95,4.22,5.38,5.01,15.36.19,9.77,5.49,20.5,7.29,29.85-3.65-6.07-10.23-13.56-16.91-16.32,1.04-7.26-3.2-13.11-9.65-15.97-2.88-1.16-5.93-3.91-9.2-2.41-5.34,5.18-9.05,13.61-9.27,20.83,6.47,6.79,18.54,8.24,25.71,1.75,9.07,2.47,14.81,12.79,19.06,20.47.2,5.25-1.68,11.64-2.25,16.86,9.9,2.18,9.29-11.28,9.37-18.23,11.75-9.29,18.77-23.15,15.77-38.28,14.28-2.42,26.65-18.31,33.23-30.97,1.78-3.97,3.17-12.26,3.06-16.6-3.55,3.83-10.9,11.5-14.72,14.92ZM414.98,806.3l-.87,1.71c.25-.55.76-1.72.87-1.71ZM412.76,810.79l.72-1.5c-.34.76-1.82,4.43-.72,1.5ZM367.88,837.09c3.98,7.57-.33,6.79-5.9,3.64-2.46-1.97-3.75-6.03-4.83-8.88,2.06-2.83,8.13,3.8,10.72,5.24ZM357.84,839.42c-2.9-1.19-11.26,6.15-7.06-.41,4.38-7.52,5.13-6.19,7.06.41ZM354.87,829.58c2.17-.06-2.92,3.3-3.21,4.26-1.92,2.92-4.17,6.47-5.44,9.75,1.88-4.62,3.79-11.82,8.65-14.01ZM371.8,849.3c-5.59-1.86-9.23,5.96-17.61,3.27-14.87-3.74-6.58-9.07,3.28-11.04,4.01.84,8,3.63,12.16,4.02-1.08,2.53,2.45,3.24,4.02,4.02,1.96,1.06,5.41,4.64,6.89,6.3-2.37-2.28-5.68-5.25-8.73-6.58ZM399.97,856.93c-8.37-6.35-7.09-21.13-8.63-28.68,5.66,7,12.52,20.98,8.63,28.68ZM389.2,829.21c2.22,6.98.8,16.03,4.21,22.7,2.9,6.01,9.3,5.96,1.64,11.13-2.36-8.9-7.7-18.39-7.95-27.77-.1-4.97.33-18.01,2.11-6.07ZM370.04,775.26c5.07-3.1,34.99-6.42,16.9-1.81-9.27,1.39-18.17,6.07-25.97,11.02-8.52-.32,5.74-9.02,9.07-9.22ZM388.33,775.22c-1.3.53-3.09,3.65-3.76,4.81-3.15,2.09-4.54,18.94-6.88,14.23-3.21-7.64-18.86-7.63-10.62-11.15,6.33-3.7,14.03-6.63,21.26-7.88ZM366.88,807.32c-4.93-5.43-5.93-13.93-7.47-20.73,5.28.43,11.71,3.19,15.43,7.13,11.91,14.88,12.34,35.53-7.96,13.6ZM407.78,851.9c-2.43,7.82-14.1,12.58-14.33,20.3,1.58,3.87-4.96,21.29-4.55,10.25,3.7-9.56-1.34-18.72-7.65-25.83,3.31,2.57,7.58,10.71,9.46,14.42,1.52-11.09-5.67-22.27-6.77-32.98-1.83-8.53,1.32-17.89,1.48-26.16-1.23-6.62-6.28-13.53-3.03-20.33,1.73-8.37,8.5-19.72,17.32-20.81,6.87,9.6,7.33,25.41,1.86,35.91-6.23,12.17-16.82,5.13-16.41,22.23-1.49,12.89,5.58,25.68,8.92,37.74,6.66-5.44,12.88-11.86,14.66-20.56,2.08-8.91-.49,3.19-.95,5.82ZM409.69,828.37c.02-.59.08-6.69.23-7.07.12.9.3,8-.23,7.07ZM410.27,818.48c-.04-.74.66-2.61.93-3.31,0,0-.93,3.31-.93,3.31ZM437.84,808.04c-2.04,5.23-31.55,33.07-24.87,15.39,3.47-9.85,11.94-18.11,20.98-23.01,16.76-18.4,11.54-6.33,3.89,7.62Z M875.93,592.16c-9.79-1.26-21.35.21-29.78,5.63,3.58-5.08,12.39-6.29,14.88-11.94-2.78-.71-7.1.95-9.31,2.57-13.73,7.12-17.33,26.53-32.57,31.34,4.64-5.6,7.72-14.37,7.96-21.61,1.57-4.46-3.77-12.42.99-14.77,8.5.65,15.56,2.13,23.91-4.28,7.83-6.67,18.06-20.15,14.92-30.62-2.74-3.96-41.01-25.44-44.76-11.09-5.39,11.29-9.86,24.98-2.98,36.8,7.93,8.18.33,6.76-4.89,15.29-5.63,8.04-7.63,19.87-11.67,28.54.62-7.06-.34-16.98-4.13-23.14,5.11-5.27,5.09-12.5,1.55-18.59-1.65-2.63-2.51-6.64-6.04-7.35-7.36,1.07-15.31,5.72-19.73,11.44,1.25,9.29,10.19,17.54,19.8,16.5,5.9,7.32,4.5,19.04,3.43,27.76-2.92,4.37-8.19,8.45-11.71,12.34,6.74,7.57,14.14-3.69,18.28-9.27,14.97-.63,28.77-7.75,35.22-21.75,12.98,6.42,32.32.8,45.08-5.59,21.73-16.68,6-9.51-8.46-8.21ZM857.19,587.78l-1.71.88c.53-.3,1.62-.95,1.71-.88ZM854.37,589.26s-2.57,1.53-2.57,1.53c.55-.44,1.93-1.21,2.57-1.53ZM848.93,592.76s-2.69,2.13-2.69,2.13c.41-.62,2.06-1.72,2.69-2.13ZM816.86,619.53c-2.34,2.75-1.5-2.28-2.04-3.38-.71-9.26,7.56-16.59,10.24-24.89.97,9.65-1.82,20.81-8.2,28.26ZM807.77,622.05c3.31-8.59,4.55-19.41,9.84-27.15,2.84-4.08,10.83-14.39,5.27-3.68-2.29,6.96-8.75,13.46-9.91,20.86-1.18,6.57,4.04,10.28-5.2,9.98ZM828.22,534.74c11.29-.53,23.43,6.22,32.79,12-6.73-.13-13.05-5.81-19.99-6.39-3.04-1.14-25.86-1.97-12.8-5.61ZM853.84,546.99c-3.92.17-8.65,2.61-11.7,5.03-14.93,11.81-2.35,2.18-14.03-11.3,8.68.17,17.93,2.5,25.74,6.27ZM819.23,569.74c-2.6-8.18-1.8-17.44,1.96-25.12,1.22-.96,2.05-7,3.86-4.55,2.81,4.05,6.67,8.83,7.03,13.98.95,8.64-5.38,35-12.84,15.68ZM800.69,613.19c-.06-.59-.14-1.19-.24-1.81.24-2.82.31-1.21.24,1.81ZM797.17,575.08c1.78,2.86,2.92,6.84,3.82,10.02-1.23,10.35-6.26,3.23-7.17-2.73-.08-1.54,1.15-10.96,3.35-7.29ZM795.4,572.1c-4.85-.18-11.71,3.31-15.08,5.1,4.17-2.29,10.83-8.25,15.08-5.1ZM791.64,580.92c-5.02-2.69-13.66-1.8-1.28-5.84,5.79-2.95.92,3.71,1.28,5.84ZM789.78,594.74c-5.52-.58-15.75-9.84-12.21-14.54,7.95-1.11,14.14,2.2,17.26,9.87,1.13,1.4,3.68,3.04,1.28,4.67,2.55,3.35,3.87,8.85,4.11,12.98-1.09-6.08-2.58-14.52-10.44-12.99ZM814.25,624.06c-14.58.23-12.63,7.37-23.29,13.97-5.29-2.4,6.74-5.37,9.37-17.41-.19,2.45-.44,4.58-.76,5.37,7.74-8.09,8.47-21.36,13.86-30.69,4.01-9.78,15.14-14.93,18.38-24.86.68-3.43,1.96-7.94,4.01-10.83,7.46-6.84,16.33-12.02,26.79-10.92,7.91.73-.81,13.53-1.81,17.69-20.01,28.09-26.92,6.85-38.57,19.24-10.38,10.15-12.82,25.65-17.37,38.77,6.61-.56,13.81-1.27,19.41-4.71,1.42-.78,7.29-5.84,7.24-5.57-4.45,4.89-10.57,9.01-17.27,9.94ZM839.75,602.9c.43-.56,4.2-5.73,4.64-6.03-.82,1.21-3.35,5.34-4.64,6.03ZM840.81,604.63c13-14.73,33.86-8.58,50.72-12.93-11.76,12.67-34.83,18.18-50.72,12.93Z"/></svg>