<svg xmlns="http://www.w3.org/2000/svg" viewBox="0 0 1920 1080"><path d="m1814 1080 17-16c21-22 39-44 62-64 9-8 4-21 5-31l-2 2 2-2c-31 27-59 57-88 87a1171 1171 0 0 1-19 18c-1 1-4 3-4 6l-1-1 6-3c18-16 31-33 48-49l6-8c17-16 31-33 48-48l4-3h-8 8-62c-2 3 0 7-2 9-3 2-7 1-10 1-49 3-98 7-147 7h3-3c52 0 104-6 156-5l-3 3 3-3c-15 22-37 41-64 45l12 17a2616 2616 0 0 1-56 0h50c10 1 14 10 19 17l-1-1 1 1-5-1c-1-2 5 1 5 1-27 1-54-1-81-1l3-4c2 1-3 4-3 4a607 607 0 0 1 23-32c-8-4-17-4-25-7a93 93 0 0 1-48-55c-5-15-2-30 1-46l3-9 8-16 5-7 3-3 2-4 12-12 20-17 9-7c3-2 6-5 7-8 2-5 3-11 7-15 7-4 15-4 22 0 6 4 8 10 12 16h-6 6c-14-1-28 2-42 1 15 1 30-2 45 2 18 14 35 29 50 47 3 4 5 9 6 15h-3 3c-53-3-106 1-159-3h5-5c52 3 104 1 157 5 2 0 4 2 5 4 4 17 6 34 2 51-1 3 0 6 1 9l-1-1 1 1v-3 2c8-26 3-54-10-78l-3-3c-5-10-14-17-22-25-11-8-22-15-32-25-4-5-5-10-6-16-9-2-17-2-26 0-3 6-5 13-10 18-12 12-26 21-38 33-20 22-35 50-32 80 1 11 4 22 11 32 9 12 21 20 31 30 2 3-1 5-3 7-1 1-3 0-4-1 1 0 4-1 6 1-28 0-57 4-85-2-6-1-13-4-17-9l5 3-5-3 69 40 20 11c-1 1-8 1-7-1 1-1 6 1 7 1l-20 1h-22c-13-2-23-10-35-16-3-2-7 0-10-2h3-3c11-9 1-24-3-33 7 9 9 24 2 34 1 7 1 14 4 20 29 0 58-5 86 0 5 4 5 11 3 16-25 3-51 0-76 1-8 0-14-6-12-14l-2-2 5 16h-144l1-1-1 1c1-4 2-10 7-11 21-4 41-3 61-3l-1 14c2-5-1-12 5-14 14-3 28-3 42-2 8 1 17 6 16 15 0-11-12-17-19-25-8-8-1-18 7-22l-2 1 2-1c-2-3-5 1-1 1-1-4-7-3-10-5-25-14-55-7-82-11l63 2c-2-1-4-3-7-3l7 3-53-28-11 26c3-12 9-23 12-35l-12-8c-15-8-31-14-44-25l-7-8-23 27-8 11-7 10 1 20v16l4 19 6 9 19-29 13-31 17-33 29 14 11 9-11 36-24 61-44-1-5-10 4 11h-26l2-11-2 11h-70l12-8 14 1 14-7 8-6 10-2 14 10 18-1-9-23-5-18v-17l-1-19c0-2 38-49 38-49l4-32 18-2-18 2 2-61c0-6 4-12 9-17 2 3-1 2 0 0l2 2c3 33 1 66 11 98 19 14 38 27 59 38 20-3 39 1 59-2h-3 3c-21 2-41 0-61 2l6 5c-1-2-4-5-6-5 18 15 42 23 62 35v-3 3l1-175c-2 1 0 13 0 0l-1 5v5c2 1 1-2 0-4l1-6-29 15-4 2c-1 9-2 17-6 25-5 11-12 22-15 34l-22 55 1-4-1 4c9-21 18-43 25-65 9-15 14-31 18-48l-2-1 2 1c-9-1-17-3-26-3-6 6-10 14-16 19l-20 41 36 12-36-12-19 30 1-2-1 2 11-19c-2-9-1-19 2-28 4-8 8-16 7-25-2-9-8-17-10-26-1-9-1-18 1-28 1-3 1-6 5-8h-1 1l-4 3c-2 13-5 25-1 37 1 3 5 1 7 1 21 3 42 2 63 5 0-2-1-1-2-1l1 1c12-5 23-10 34-17v12c-1-3-2-9 0-12 1 60-3 119 2 179 7 4 12 11 18 16-6-8-16-14-19-24 1-57-3-115 2-172l16-6v5-5c1 23-1 46-2 69 0 3-1 6-3 6-4 2-8 1-12 1h15c-2 23-1 45-1 68l2 1c4 0 7-2 11-1 17 3 33-1 50 2l-7-1 7 1c-21-2-42-2-63 0v40-5 5c0-58-1-116 3-174 1-4-1-9 2-12 11-12 27-18 41-26l65-31c12-6 20-16 29-26l3-7v1-1c-5 3-10 5-13 10 0-2 2-1 0 0 0-7 8-10 12-14 2-2 4-5 0-5s-6 4-9 4h1-1c-2-4 4-4 6-5 1-1 2-4-1-5-2 0-4 2-5 3-3-7 0-15 0-23 0-12-5-26-14-35l-1-1c-7-7-17-12-28-11-22 11-27 38-26 61 0 1-2 3-4 3-8 1-17 0-21 8v-2 2c-3-7 13-7 17-7 6-1 14 0 19-5l-1-1 2 1-2-3 2 3c-4-4-3-10-3-15l4-8 8 3 3 1 3 3v4l-2 3-3 2-3-1-3-3-1-4 1-2 4-3-7-4 6-8 3-6c1-8 5-19 15-16 13 3 11 19 6 29-2 4-7 8-7 13l-5 9-19 3 19-4 5-6 1 21-12 6-3 6 11 1 14 2-6-11c-3-4-6-3-3-3 2 0 5 7 6 9l2 5 17 1 2-37 1-9-8 1h-2l2 6-1 6 1-6-2-5 2 5-1 6-4 1h-3l-2-2-2-4 1-3 1-3 4-2 3 1 11-1-6-19-5-10-10-8-1 5v-5c1-2 13 11 16 19l6 17-3 52c-2 9-8 15-16 18-10 3-22 3-29-6v-8l21 1 22-4-22 4-21-2-1-22 1 12 4-3 4-5c3-3 6-2 9-5h-4 4-58c-1 0-2 0-2 2v-2 2l2-2-2 1 25 1 4 19c2 6 8 10 8 15 1 4-5 8-3 12 2 3 5 6 9 8-3-1-4-4-6-7-1-2-4-3-7-2-23 8-44 20-65 31l6-3-6 3c10-7 22-12 34-16 2-1 3-3 3-6-9-29-19-56-18-86 1-11 3-21 1-32-11-18-3-39-5-59l-19-51v3-3c2 11-4 20-7 30v8c8 39 21 73 29 110l-1-4 1 4-14-47c-1-4-1-9-3-13l-12-54c1-9 5-18 7-27 1-9-1-18-6-26l-3-12c1-25-3-49-16-71-5-9-2-18-4-27v2-2l-9 24v19c2 19 10 36 21 53 3 3 5 6 9 7h-2 2l-6-2c-11-10-14-24-19-37-4-12-7-25-5-38 2-14 9-25 13-38 2-8 7-17 1-25-3 4-7 1-8-3v-18c2 1 0 2 0 0 6 5 15 13 10 21v-1 1c2-1 3-3 3-5-3-10-12-17-16-26l-8-14-13-11-5-5 7 15 2 22 3-1 6 2 1 5-2 4-3 2-6-1-2-6 2-5s1-32-10-38c-1 3 4 1 0 0-1 10-1 19-4 29-2 8-7 15-7 23 0 17 11 31 14 47 3 10 2 21 2 32v-4 4c1-21-2-43-13-62l5 12c-4-11-9-21-7-33 2-11 7-19 9-30 1-6 0-13-3-18-16-6-34-4-51-1a70 70 0 0 0-31 58c0 21 16 36 30 50 11 5 22 14 19 28l-3 22c-12 45-28 86-42 131l-11 44c-13 1-25 9-31 21-4 8-7 15-9 24v19c-12 17-27 31-39 48-3 11-7 22-8 33-3 30 1 59 0 88l-1 5 3-6-3 6c12-21 20-42 34-61 12-17 25-34 31-55l2-8v-6c-1-5-5-9-7-14l-1 2 1-2-6 9c-6 24-13 46-22 69l-1 9v-3 3c1-15 9-27 14-41l4-17 5-20c2-3 3-7 6-9-11-21-21-47-4-69l2-7c3-5 7-9 12-12 12-7 24-7 37-10 3 0 7-1 10 1l-6-1 29 8c2 8-1 17-4 25-6 17-19 30-24 48l1 54-17 46 1-3 7 45c9-17 8-76 9-95 1-12 1-25-1-37 0-5-1-11 1-16l15-27 10-14c3-7-2-13 0-20l6-3c8 8 16 17 20 28 4 17 3 29 7 44-2-1-5 2-2 0h-11l8-24-13-2c-3-1-4-3-7-3s-5 2-6 3c0 2-2 7 0 9 1 2 3 4 7 4l5-1 2-5c1-3-1-7-1-7l3 1 6 1h5l-9 24c-3 5 4 13 1 19l-29 47 2 2c-1-1-2-1-2-3 0 3 3 4 4 5 13 7 26 10 39 15l2 2c-3 7-4 15-6 23 2-6 2-6 0 0 4-7 3-16 7-24 6 3 13 5 20 4 11-2 20-7 30-11 1-1 3-2 3-4-2-17-1-34 5-50 4-11 13-20 13-33-1 3-3 6-2 9l2-9-23 55 2-5-16 42 3-1-3 1c12-3 22-9 32-15 5 1 7-4 7-8 3-26 0-51-3-76-5-1-11-2-16 0-3 1-5 4-7 6-16 25-25 51-39 76v-3c-1 8-6 13-9 20 2-7 7-13 8-20s-5-14-3-21c2-9 2-18 5-26 4-10 6-20 8-31 2-14-2-28-8-41-5-13-6-27-2-41 6-26 17-51 10-77-5-16-16-29-18-45-2-12 0-23 3-34 7-22 12-45 5-68-6-16-17-33-10-51 5-12 10-24 7-37-10-13-28-6-42-7 8-3 17 1 25-2 17-7 28-24 30-42-5 0-1 2 0 0-29 0-57-1-86 2-3 6-1 13 2 18 7 11 16 19 28 24l-4 1 4-1c-11 2-20 8-27 17l-5 7c-7 11-10 23-10 36 1 14 6 27 16 38 11 12 27 18 32 34l-2 8c0 9 0 18-2 27-9 26-18 51-25 78l-20 63-4-10 4 9c-6-12-9-25-18-36-5-15-10-30-17-44l-1-5-8-17-1-5c-7-15-13-31-21-46-2-4-1-9-1-13-1-17 13-29 25-40 9-9 14-22 13-35-3 1 0 3 0 0-6 5-14 6-21 7l-23 3c-16 2-32 3-49 3h-27 5-5a368 368 0 0 0 109-8l13-5 16 23c3 4 7 3 12 3l-2-2 2 2-13-27c-3-5-10-7-13-13 5-13 10-27 6-42 0 0 2 7 0 0 0 0-3 4-1 4s1-3 1-4c-6 6-11 13-12 21-2 7 1 14 0 22l-1 5v-3 3c4-18-12-33-26-43-17-10-37-9-56-9-19 11-39 25-41 48 0 3 4 4 6 4 13 0 26 6 39 6 26 1 52-1 78-6l-5 1a521 521 0 0 0-118-3c-7 2-4 12-4 18 1 4-3 8-2 12 0 2-1 5 4 6h-1 1c-6-2-4-10-1-13h7c3 2 6 6 3 10-2 2-7 1-7 3-6 13 9 24 19 31 3 9 3 19 3 28 7 5 16 7 23 14l4 1a657 657 0 0 1-32-16l-7-5-13-12c-28-38-54-70-78-109-3-4 2-9-1-14s-7-9-12-13c-9-7-12-18-16-28l2 3-2-3c4 8 7 19 14 26l10 9 7 13 11-15c18-16 11-47-6-61l-9 7-4 2a133 133 0 0 1-57 35c20-7 37-20 54-33l14-11c-2-2-3 3 0 0-4-4-9-6-11-10-3-5-2-11-2-16l-27 2-26-4-32-3s-10 29-21 50c-11 20-31 43-43 59-30 40-91 63-91 63l-15-12-46-39s-32-30-46-50c-20-31-31-66-41-107-6-21-3-60 6-94 5-19 19-35 19-47-1-16 11-32 22-51a482 482 0 0 1 64-84c15-15 27-20 27-20l-34 25S859 2 843 47c-32 91-24 143-26 144-3 0 14 62 43 109 20 32 106 100 106 100s-63 16-71 16c-27 0-48-3-81-7-43-6-107-52-139-87-18-20-38-47-48-78-15-43-17-92-10-135C628 52 660 8 656 8c-1 0 28-42 71-74 46-34 127-62 176-56 41 4 54 17 54 17s29 12 49 26c25 18 51 44 69 72 31 46 46 95 51 112 16 66-6 123-6 123l58 7s0 12-4 16c-7 7-18 9-22 18-6 14-3 29 2 43 1 3 3 5 6 7l1 6v-1 1-4c-4 0-8-2-12-1 0 2 2 0 0 0l1 4 9 1c12 6 23 12 36 17 5 2 8 9 11 14l37 63 23 38 13 20 23 20 16 16 16 11-17-12c0 16 2 32-1 48-1 7 1 13 2 19 0 9 2 24-9 27-11-11-19-25-30-37l-4-7c-6-10-19-12-28-6-18 14-29 33-44 51l3 5 14 14-17-17c-31 35-57 71-88 108-12 13-26 23-42 31-3 2-6 6-9 7l-16 3c-2 1-3 3-2 4 11 7 24 1 36-1h8c12-3 21-9 31-16 6-5 2-13 3-20l2-3-11-6 2 1-2-1c4 1 7 6 12 4 13-6 23-15 31-28 9-13 19-22 30-33 11-10 19-22 31-32 15-12 25-27 40-39l2 4-2-4 25 42c1 2 0 4-1 6-15 17-28 33-45 48-7 5-16 2-24 0l-2 1c1 2 2-3 0 0l7 6c-9 11-26 12-39 18l-1 2c0 1 1 3 3 3l16-5-2 1 2-1c-5 4-11 7-18 9h2-2l3 3 5-1c6-2 11-8 18-7-1 2-3-1 0 0l-11 13h7c9-7 16-13 26-19l13-12c12-8 22-17 32-27 15-14 31-25 45-40-3-6-9-8-12-14l-20 19c8-10 18-17 27-27l13-17 43-73-4 6 4-6-29 47c-3-2 1-2 0 0-12-6-16-22-10-34l5-7 3-3c13-20 9-43-2-62l-5-5c-14-12-42-20-35-42 0-2 5-1 6-5 0-2 1-5-1-7h5-5c14 1 29-1 43-2 2 0 4 2 5 3l3 5c7 18 1 36-1 54v9c7 21 16 41 25 61 5 9 3 20 1 30-3 21-15 42-34 53l-2 3 20-16c-1 19-1 37 6 55 6 13 10 27 9 41l9-15 17 16-9-9c-3-2-7-4-8-8 12-23 27-43 35-67 5-12 4-25 4-37 3 14-1 28-4 42-21 33-39 67-55 103-5 10-13 18-19 28l2-4-2 4c5-10 13-18 18-28 4-8 3-17 0-25-5-17-12-33-23-48l-17-20 3 3-3-3 20 23v-5 5c2-13 1-25 0-38-6 4 0 3 0 0-17 12-33 23-47 38l-1 3c1 4 4 10 9 8 12-3 19-14 28-22l-4 4 4-4c-10 7-17 22-31 23 4 8 3 1 0 0l6 13c14 24 26 47 37 71-2 13-9 24-10 37l6 181-4-98h19l1 29 3 88v18l1 5v12l-4-122 12 47 7 23-16-1 17 1 11 26 10 27h-37l-11 12-7 15-13 21-13 11-7-1 20-35 9-25 4-16-3-14 3 14 16-1-16 2-5 17-9-1 11-31 1-23h-4s-1 0 0 0h-8s-65-2-96-1l-24 1-7-15-8-14-3-8-7-12-7-8-19-8-10-5-3-17v-20l-2-4-12 1-2 24-2 7-11 5-17 20-13 14-6 7 113 1h-113l-7 8-8 16-5 7 1 20 19 18 40-1 44 1 31-1 1-24 14-2-2-8 1 8-13 2-2 26v30l1 49h49l1-49 55-1 1-56h-56l-35-1 35 2v105h55v-50l-106 1v49l-1-77-18 18-11 12-11 17-1 17h-35l-1-16-16-24-21-26-17-18-3-21-23-1-221 1-9-18 9 19 10 9 5 8 1 17-1 11-6 8-2 5 8 8 8 8 5 10 1 22-4 8-3 2-77 1-4-16v-17l2-10 7-7 12-8 4-3-8-12-3-5-12-2-8-1-1-7 2-10 1-9 15 1-15-1-3-19-1-5-4-16-10-26-1-3-6-25-3-12-2-2-9-16 7 13 1 4 3 24 6 20 6 18 11 24 4 14-9-11-10-23-9-26-8-23-4-32 6-10-32 19-8 4-16 11 3 7 5 12v15l15 1-15-1v7l-5 13-151-1 151 2v10l4 3 11 3 10 4 8 9 6 6-20-1 21 2 9 6 6 3 10 1-2-6-12-7 36 4-37-4-14-25-18-32-3-24-1-17-66 43-24 9-18 3-19-2 17 2 18-2 27-11 29-21 20-12 22-15 33-19h9l2 13 8 30 13 44 8 17 8 19 5 1-2 9 6 4-3 6 1 17v4l-1-21 6-9 11-11 7-18 5-1 1 17v5l2 11-7 12 5 13-3 15 4 11-5 16 3 11v2l-3 14 4 9-3-9 2-16-3-11 5-15-4-12 3-15-5-13 7-12-3-33h6-11l-8 19-13 14-6-4 1-8 17-1h-15l-6-1-7-18-8-18-8-23-6-20-9-31-1-13v-10l-8-4-15 5-10 8-20 13-17 11-14 9-25 15-24 13-10 4 6-6 11-13-2-14 7-9 24-31 16-23 6-9 8-5 8 2-1 4-4 27 4 29-4-29 5-30-7-2 2 62v-1l-2-61-6 2 2 44v20l4-1 14-9v-29l-1-23 1-12v-10l-13-4 11 5-5 4-7-2-5-3 6-4-8 4-7 14-14 18-18 26-21 26-10-1-17 11h-6l-11 4-3 1-16 14-9 4-1-13-1 36-38 42-1-163 34-34-34 34H315l38-34-38 34 2-126 34-34-34 34H198l-44-1v298h79l-1 27-104 3 104-1v16l-1 20-5 28 135 1H226l-12 19h-69l-12-24 95-1-96 1-4-23v-26l-75 73 74-74 1-20 1-18 25-1-1-299 35-7 5-46-4-24-3-7-2-6h-9l-1 2-4 11-4 13-2 22 6 17 5 20 8-1 5-11 3-13 2-32-3-69-2-31 16-20-16 20 6 108-4 47h81l23-22 1-6h10l-11-19-2-15-6-13-9-10-3-12 9-7 7-2 6-25 2-4 9-16-15-8-2-5-18 10-1 153V508l-81-2 82 1 18-10 3 6v29l-3 23-8 2-7 6 2 13 9 10 5 13 3 15 1 10v10h57l1 129 161-1 5 131 1 24-40 44 171 4 10-14 7-9 14 5v78l-32 1-48-1 6 6 8 2 4 5 1 9-1 9-6 6-8 4-9-1-6-3-3-5-3-7 1-8 4-5 6-7h11l-5-4-99-2 34 1-3 12-10 7-12-1-9-7-1-12-27 2 5 13 14 15 2 6-77 3-1 17h-57l9-21 10-15 11-15 16-13-16 13-21 30-9 19 1-190 56-2-2 39-11 5-9 4-9 8-6 8 1 15 5 13 6 16 7 8 8 13 8 13-9-13-8-13-6-8-7-15-4-13-2-17-17 13 24-20 9-7 9-5 11-5v47l2 91v17l1-18 77-1 9 7 21 12h40-36l5-6 6-4h16l8 7 2 3h79l21-17-5-1-2-7v-7l3-6 3-5 7-2 8-2 7 3-20 26 20-26 8-11-12 1h-35l2-62-171-3 40-43 23 3 22-8 11-3 13-13 12-12-2-12-7-12-9-1-8 5-8 6h-7l-15 5-14 12-1 2-10 3 10-4 16-14 2-1 11-5-6-26 1-31 1-11 2-9 6 2 1 7h4l5-3 13-3 21-5-7 4-11 5-13 3h-13l2 8 8 1 8-1 15-5 16-4-12 8-8 3-11-1v10l4 2 9-1v6l9-1 4-1 6-5 7-7 4-7 4-7s-1-4 4-9 8-13 8-13l2-10v-9l3-13-18-10-1-1-3-1-3-1-11-2-7-11 7 10 11 3 25 12 16 11 14 12 14 11 7 7 5 7 9 4 7-10-3-7-8-4 8 4 3 7 7-11 1-13 3-8 18-47 11-19 12-23 15-21 8-8 9-7-8 3-8 8-10 11-6 7-3 3v-5l-1-4 1-6-1-6-1-3-2 20 1 5-14 24-3 6-3-4v-26l2-37 6-14 10-16 10-11 7-6h-2l-5 3-7 6-3 5-7 8-4 8-4 7-3 3-1-13v-59l-2-1v18l-5-6-3-5-1-3-2-1-1-2-1 2-1 3 7 11 3 5v2l2 19v9l-5-9-2-3-3-3-1-1-1-3-1 5 4 7 5 7 2 3v4l2 14 1 22v40l-6-13-4-7-7-13-7-8-3-4-1-2-4-2 1 4 5 6 7 11 5 10 5 11 3 7 1 5 2 18-1 8-2 13-8 21-8 19-6 8-6 4-17-10-11-10-15-14-23-18-13-14-3-7-21 17-7-3-11 11-10 10-2 3-10 17h9l18-1 24-9-5 6-10 4-11 1-7-1-9-1-9 1 17 15 8-1 11-3 8-1 9-3 6-6-42 10-10-4-7-6-4 13 15 4 6 7 6 2 12-1 8-2 7-3 6-8-16 5-16 3h-7l-5-3-17-4 5-12-6 13-2 8 1 3 2 7-3-10 2-7 6-15 4-3 45-14-14 2-17 5-6 5-11 2 9-15 23-24 7 3 21-17 11-2 8-3 6-3 7-8-38-45 39 45 10-13 4-8 3-4 2-8 2-13-60 1 60-1-2-12-3-10-5-9-9-11-42 42 41-43-7-6-7-5-9-5-11-4h-7l-1 62v-63l-16 2-14 5-9 7-5 4 44 46-45-46-4 6-7 10-5 10-2 14 1 5 61 2-62-2 1 10 2 11 5 11 8 11 4 4 42-44-41 45 4 2 8 6 8 3 10-2 9 1 11 5-11-5 3-56-3 56-9-1-9 3-3 5-6 7-8 7-10 10-7 12-6 11-5 8-4 14-3 10-4 8 1 10 1 15 5 23 2 20-1 13-2 2-12 11-3 2-8 3-1-11-6-117v-3h-45l-5 14h-15 15l6-14 9-27 10-26-69 2 69-3 12-31-93 1 93-1 4-12 10-30 3-22-2-24-5-13-15-28-10-14-8-13-7-18-6-13-3-15-4-6-7 2-3 15-7 18-9 18h47-47l-10 16-17 22-9 18 115-2-115 3-5 19v22l3 16 7 23 8 22 10 28 9 25 3 10 3 13 1 7 4 12h9l-9 1-4-12-82-2V633h-39l-4-6-2-6-1-8-2-8-5-31-1-11-2-7-7-1 7 1 2 5 2-5 4-8 4-6 7-16 2-4 2-3h10l9 1 7-1 3-3-13-4-10-5v-4l4-9 6-10 12-24 23-46 41-86-1-13-5-7-13 1-12 5-65 33 1 7 4 13 5 9 7 2-7-3-6-8-3-13-1-7-24 13-4 91-1 15-3-1-11 2 10-2 6 4 7 10 6 8 10 9 9-22 10-21 7 3 6 2 4 2-10-5-7-3 16-37 13-29 6-16 4-11-6-2-48 34-26 17 4-65 3-71-14-1h14l4-52 36-47 6-8 17-23-17 24 1 18 4 20 4 19 2 7h6-6v4l-2 17v11l-4 7 10-10 1-8 3-6 2-6-4-9-2-13-1-16-1-20v-9l2-6 2-24-2 25 3 9 3 8v9l4 14 3 10 7 10 4 4 5-3-5 3 1 5v22l-1 4 6-12 2-4v-10l-3-8-4-11-2-10-3-16-2-13-1-13 4-10 6-16 4-14h4l3-10 3-7 13-12 11-10 3-8 1-12-2-12-3-7 5 19-1 12-3 8-12 10-12 12-4 8-2 9h-4l-10 1-4 3-11 9-8-4v-9 10h2l6 3-4 5 20-18 1-13h1-1l3-7 4-12-4-3-8 21 1-12 1-9h-5l-1 9-3 7-14-1h14l3-6 1-9h5l-1 10-1 11 8-22 4 4-6 19 4 1 6-10 2-10 1-10 5-11 10-10 19-24 7-10 3-9 2-11 2-7-17-1-6 6-7 10-4 2-5 9-9 8h-11l-9-3-8-5-13-5-3 1 1 7 4 8-2 8-6 9 2 15 1-3 2-3 2-1 4 1 4 2v6l-4 5h-6l-3-6-2-16-4 9-4 9v14h-14l-1 5h-4 4l1-5h14l1 5 7 8 6 5-7-5-6-8-1-8V72l4-9 4-9 7-10 1-7-4-7-1-8v-6l6-8 2-7h47l1 7 2 9-3-17h-47l-2 8-5 7-3 7-9 4-5 5 5-5 9-4 3-6-5-9-1-7h-20l4 12 2 12 2 7-8 11-9 10 4 5 2-1h4l3 2 1 3-2 5-4 1-4-1-2-4 2-5-4-5-4 11 1 9 14 2 12-2-12 1-14-1-3 2-13 3-11 3-4 1 15 4 12 1 9 2 2 7-2 6 20 5 13-1 3-1-3 1-13 1-20-5-4 5 1 6 3 3h17l30-3-47 3-1 8 5 4 21 1 15-5 7-10-7 10-15 5 4 7 8-1 7 3-38 49-13-16-5 5 41-40 8-1-8 1-4-6-6 10-27 19-11 10-36 31-7 14-7 6-9 5-11 2-7 8-5 1v9l-35 17-30 16 65-33 5-1 4-2 12 16 2 11-2-11-12-16 5-3 33-22 42-41-7-7-36 30-18-17-10-7-23-11-22-13-19 15-12 9-14 12-12 10-11 14v4l-6 15-7 12-3 7-2 7h12l8 3h11l14-3h18l12-6h17l15-15h11l7-9h11l9-7 8-5 5-13-16-18-2-26 3-13 3-10v-22h5l1-5-2-2-2-1-8-8-2-1-5-10 5 10 14 12-1 5-5 1-6 3-6-5-1-15V84l-6-9-3-5-6 7-6 9 5-1 5 2-4-1h-6l6-1 4 2 4 5-2 7-2 4-5 1-4-1-2-3-2-3v-5l2-3 13-21-17-18-9-5-4 9-6 11-7 15-5 18-30 2-20-3-15-5-11-4-9-7-15-12 24 19 10 4 16 4 20 4 29-1v19l3 14 3 7 4 9-19 17-11 9-15 12-11 10-11 14 11-13 12-11 14-12 11-9 20-16 8 7 14 7 23 11 11 8-2-26 3-13 3-11v-21h5l1-5-13-11-6-11-10-16-16-18-31-18-26-5-20 2-14-4-3-5-3-4-5-5 1 20-3 11-14 12-8 9-5 5-7 14-6 19 2 24 3 19 9 17 7 10 8 8 11 8 8 7 6 6 1 10-1 5-6 14-5 12-4 8-2 6h13l7 3 1 24 1 24 3 15 7 16 10 18 7 15 18 4 21-5 24-8-23 8-21 5-19-3 16 41 10 25 15 33 9 16 34 3 9-6 16 1-15-1 8-49 6-9 10-3-10 4-6 8 10-66h5-5l6-37 1 63h17l-17 1-1 73-3 7-4 8 10 7 14 5 2 5-2-6-15-3-10-8 5-8 3-7 1-137 8-54 6-45-13 15-9 6-11 7-13 8-22 16v69l-1-69-47 26-7 2 7-2 47-27 31-18-8 31-8 23-7 22 13 4 15 5 12 7-12-7-15-4-14-5-6 12v10l-18 49" style="fill:none;stroke:#000;stroke-miterlimit:10"/></svg>